<svg width="99" height="36" viewBox="0 0 99 36" fill="none" xmlns="http://www.w3.org/2000/svg">
<rect width="99" height="36" rx="4" fill="#0091D7" fill-opacity="0.15"/>
<path d="M45.4189 23H40.8525V12.9238H45.7471C46.9821 12.9421 47.8571 13.2998 48.3721 13.9971C48.682 14.4255 48.8369 14.9382 48.8369 15.5352C48.8369 16.1504 48.682 16.6449 48.3721 17.0186C48.1989 17.2282 47.9437 17.4196 47.6064 17.5928C48.1214 17.7796 48.5088 18.0758 48.7686 18.4814C49.0329 18.887 49.165 19.3792 49.165 19.958C49.165 20.555 49.0146 21.0905 48.7139 21.5645C48.5225 21.8789 48.2832 22.1432 47.9961 22.3574C47.6725 22.6035 47.2897 22.7721 46.8477 22.8633C46.4102 22.9544 45.9339 23 45.4189 23ZM45.3711 18.5635H42.8623V21.25H45.3369C45.779 21.25 46.123 21.1908 46.3691 21.0723C46.8158 20.8535 47.0391 20.4342 47.0391 19.8145C47.0391 19.2904 46.8226 18.9303 46.3896 18.7344C46.1481 18.625 45.8086 18.568 45.3711 18.5635ZM46.417 16.6426C46.6904 16.4785 46.8271 16.1846 46.8271 15.7607C46.8271 15.2913 46.6449 14.9814 46.2803 14.8311C45.9658 14.7262 45.5648 14.6738 45.0771 14.6738H42.8623V16.8955H45.3369C45.779 16.8955 46.139 16.8112 46.417 16.6426ZM51.0586 16.3555C51.5736 15.6992 52.4577 15.3711 53.7109 15.3711C54.5267 15.3711 55.2513 15.5329 55.8848 15.8564C56.5182 16.18 56.835 16.7907 56.835 17.6885V21.1064C56.835 21.3434 56.8395 21.6305 56.8486 21.9678C56.8623 22.223 56.901 22.3962 56.9648 22.4873C57.0286 22.5785 57.1243 22.6536 57.252 22.7129V23H55.1328C55.0736 22.8496 55.0326 22.7083 55.0098 22.5762C54.987 22.444 54.9688 22.2936 54.9551 22.125C54.6862 22.4167 54.3763 22.665 54.0254 22.8701C53.6061 23.1117 53.1322 23.2324 52.6035 23.2324C51.929 23.2324 51.3708 23.041 50.9287 22.6582C50.4912 22.2708 50.2725 21.724 50.2725 21.0176C50.2725 20.1016 50.6257 19.4385 51.332 19.0283C51.7194 18.805 52.2891 18.6455 53.041 18.5498L53.7041 18.4678C54.0641 18.4222 54.3216 18.3652 54.4766 18.2969C54.7546 18.1784 54.8936 17.9938 54.8936 17.7432C54.8936 17.4378 54.7865 17.2282 54.5723 17.1143C54.3626 16.9958 54.0527 16.9365 53.6426 16.9365C53.1823 16.9365 52.8564 17.0505 52.665 17.2783C52.5283 17.4469 52.4372 17.6748 52.3916 17.9619H50.5117C50.5527 17.3102 50.735 16.7747 51.0586 16.3555ZM52.5078 21.5918C52.6901 21.7422 52.9134 21.8174 53.1777 21.8174C53.597 21.8174 53.9821 21.6943 54.333 21.4482C54.6885 21.2021 54.873 20.7533 54.8867 20.1016V19.377C54.7637 19.4544 54.6383 19.5182 54.5107 19.5684C54.3877 19.6139 54.2168 19.6572 53.998 19.6982L53.5605 19.7803C53.1504 19.8532 52.8564 19.9421 52.6787 20.0469C52.3779 20.2246 52.2275 20.5003 52.2275 20.874C52.2275 21.2067 52.321 21.446 52.5078 21.5918ZM65.0176 18.2217H63.0215C62.985 17.9437 62.8916 17.693 62.7412 17.4697C62.5225 17.1689 62.1829 17.0186 61.7227 17.0186C61.0664 17.0186 60.6175 17.3444 60.376 17.9961C60.2484 18.3424 60.1846 18.8027 60.1846 19.377C60.1846 19.9238 60.2484 20.3636 60.376 20.6963C60.6084 21.3161 61.0459 21.626 61.6885 21.626C62.1442 21.626 62.4678 21.5029 62.6592 21.2568C62.8506 21.0107 62.9668 20.6917 63.0078 20.2998H64.9971C64.9515 20.8923 64.7373 21.4528 64.3545 21.9814C63.7438 22.8337 62.8392 23.2598 61.6406 23.2598C60.4421 23.2598 59.5602 22.9043 58.9951 22.1934C58.43 21.4824 58.1475 20.5596 58.1475 19.4248C58.1475 18.1442 58.4596 17.1484 59.084 16.4375C59.7083 15.7266 60.5697 15.3711 61.668 15.3711C62.6022 15.3711 63.3656 15.5807 63.958 16C64.555 16.4193 64.9082 17.1598 65.0176 18.2217ZM73.2002 23H70.8486L69.0645 19.8145L68.2578 20.6553V23H66.3438V12.958H68.2578V18.3857L70.6846 15.583H73.0977L70.4932 18.4336L73.2002 23Z" fill="#0091D7"/>
<path d="M21 12L15 18L21 24" stroke="#0091D7" stroke-width="2" stroke-linecap="round" stroke-linejoin="round"/>
</svg>


