<svg width="277" height="156" viewBox="0 0 277 156" fill="none" xmlns="http://www.w3.org/2000/svg">
<path d="M128.494 99.5147C128.661 99.1925 130.114 99.8247 130.351 99.4022L130.57 99.0132C130.442 99.2655 128.925 98.764 128.695 99.1773L128.494 99.5147Z" fill="url(#paint0_linear_3920_6179)"/>
<path d="M128.351 99.7578C128.138 100.153 128.123 101.056 128.71 101.633L128.95 101.168C128.363 100.591 128.464 99.6059 128.691 99.1804C128.695 99.1804 128.451 99.5694 128.351 99.7578Z" fill="url(#paint1_linear_3920_6179)"/>
<path d="M129.847 96.2718C130.348 95.6579 133.311 96.6851 133.831 95.6397L134.044 95.2841C133.494 96.2445 130.509 95.1048 130.102 95.8463L129.847 96.2718Z" fill="url(#paint2_linear_3920_6179)"/>
<path d="M132.667 91.7434C133.062 91.0049 134.943 90.5277 135.408 89.6585L135.688 89.1358C135.196 90.0627 133.418 90.3362 132.886 91.3392L132.667 91.7434Z" fill="url(#paint3_linear_3920_6179)"/>
<path d="M129.746 96.448C129.433 97.0164 130.685 98.8004 130.348 99.4052C130.348 99.4052 130.454 99.2593 130.585 99.0009C131.047 98.071 129.661 96.6456 130.09 95.8645C130.09 95.8675 129.85 96.2626 129.746 96.448Z" fill="url(#paint4_linear_3920_6179)"/>
<path d="M132.503 92.0261C132.05 92.9409 134.305 94.6823 133.828 95.6397C133.828 95.6397 134.074 95.2537 134.205 94.9923C134.542 94.3146 132.406 92.3057 132.916 91.2754C132.919 91.2754 132.6 91.8346 132.503 92.0261Z" fill="url(#paint5_linear_3920_6179)"/>
<path d="M116.277 69.0831C116.11 68.995 116.438 68.2443 116.219 68.1227L116.018 68.0103C116.149 68.0772 115.888 68.8613 116.103 68.9828L116.277 69.0831Z" fill="url(#paint6_linear_3920_6179)"/>
<path d="M116.404 69.159C116.611 69.2684 117.076 69.2775 117.377 68.9736L117.137 68.849C116.839 69.1529 116.325 69.0982 116.106 68.9827C116.103 68.9796 116.304 69.1073 116.404 69.159Z" fill="url(#paint7_linear_3920_6179)"/>
<path d="M114.596 68.3811C114.277 68.1197 114.812 66.5849 114.271 66.3175L114.088 66.2081C114.584 66.4938 113.994 68.0377 114.377 68.2504L114.596 68.3811Z" fill="url(#paint8_linear_3920_6179)"/>
<path d="M112.253 66.9161C111.87 66.7124 111.624 65.7338 111.174 65.4937L110.904 65.3478C111.384 65.6031 111.523 66.524 112.043 66.8006L112.253 66.9161Z" fill="url(#paint9_linear_3920_6179)"/>
<path d="M114.69 68.4328C114.985 68.5939 115.912 67.9495 116.225 68.1228C116.225 68.1228 116.149 68.0681 116.015 67.9982C115.535 67.7581 114.794 68.4753 114.389 68.2535C114.389 68.2565 114.593 68.3811 114.69 68.4328Z" fill="url(#paint10_linear_3920_6179)"/>
<path d="M112.399 67.0013C112.873 67.2384 113.775 66.0683 114.271 66.3175C114.271 66.3175 114.07 66.1898 113.936 66.123C113.584 65.9497 112.541 67.053 112.01 66.7886C112.01 66.7855 112.298 66.9527 112.399 67.0013Z" fill="url(#paint11_linear_3920_6179)"/>
<path d="M167.048 88.1511C166.866 88.0539 167.224 87.2789 166.987 87.1421L166.769 87.0175C166.911 87.0904 166.626 87.9049 166.86 88.0387L167.048 88.1511Z" fill="url(#paint12_linear_3920_6179)"/>
<path d="M167.188 88.2334C167.41 88.355 167.921 88.3793 168.246 88.0723L167.984 87.9325C167.659 88.2425 167.1 88.1696 166.86 88.0389C166.86 88.0359 167.082 88.1757 167.188 88.2334Z" fill="url(#paint13_linear_3920_6179)"/>
<path d="M165.222 87.361C164.875 87.0783 165.462 85.4888 164.872 85.191L164.672 85.0694C165.213 85.3855 164.565 86.9811 164.982 87.2181L165.222 87.361Z" fill="url(#paint14_linear_3920_6179)"/>
<path d="M162.669 85.7533C162.252 85.5253 161.988 84.4981 161.496 84.2306L161.201 84.0696C161.724 84.3522 161.876 85.3217 162.438 85.6287L162.669 85.7533Z" fill="url(#paint15_linear_3920_6179)"/>
<path d="M165.322 87.4187C165.641 87.598 166.653 86.9507 166.993 87.1452C166.993 87.1452 166.911 87.0844 166.766 87.0084C166.243 86.741 165.434 87.4704 164.994 87.2242C164.994 87.2242 165.216 87.3609 165.322 87.4187Z" fill="url(#paint16_linear_3920_6179)"/>
<path d="M162.827 85.8444C163.344 86.1058 164.328 84.9144 164.869 85.1879C164.869 85.1879 164.65 85.0481 164.504 84.9722C164.122 84.7777 162.985 85.8991 162.404 85.6074C162.404 85.6074 162.72 85.7897 162.827 85.8444Z" fill="url(#paint17_linear_3920_6179)"/>
<path d="M168.993 62.8259C168.139 63.2118 167.306 63.0052 166.394 63.9504C166.394 63.9504 166.692 63.2301 167.725 62.8441C168.759 62.4551 169.674 62.2818 170.096 61.6345C170.096 61.6345 169.503 62.5949 168.993 62.8259Z" fill="url(#paint18_linear_3920_6179)"/>
<path d="M145.468 97.6697C145.079 96.7427 145.255 95.5453 144.328 94.825C144.328 94.825 145.024 94.8554 145.419 96.0164C145.815 97.1773 146.006 98.2927 146.632 98.5207C146.635 98.5207 145.702 98.2228 145.468 97.6697Z" fill="url(#paint19_linear_3920_6179)"/>
<path d="M174.841 81.3526C174.051 81.4651 173.416 81.1004 172.446 81.6596C172.446 81.6596 172.862 81.1399 173.798 81.0669C174.738 80.994 175.528 81.0669 176.026 80.6384C176.029 80.6384 175.315 81.2858 174.841 81.3526Z" fill="#AAE100"/>
<path d="M135.67 58.5006C136.147 60.0932 135.591 61.5094 137.037 63.3329C137.037 63.3329 135.843 62.64 135.402 60.7314C134.962 58.8228 134.867 57.1695 133.834 56.279C133.834 56.279 135.384 57.5463 135.67 58.5006Z" fill="#AAE100"/>
<path d="M120.055 83.3583C119.599 83.4373 118.331 82.6593 117.793 82.7505L117.131 82.8659C117.699 82.7687 118.754 83.5832 119.368 83.4768L120.055 83.3583Z" fill="#FFA400"/>
<path d="M114.742 84.1637C114.286 84.2428 113.019 83.4678 112.484 83.562L111.821 83.6775C112.39 83.5802 113.444 84.3947 114.058 84.2884L114.742 84.1637Z" fill="#FFA400"/>
<path d="M114.687 84.1758C115.702 83.9144 116.678 82.9419 117.809 82.7474C117.809 82.7474 117.289 82.8355 117.131 82.8629C115.897 83.0756 114.462 84.2123 114.01 84.2913L114.687 84.1758Z" fill="#FFC200"/>
<path d="M157.57 64.8891C157.968 64.6611 158.555 65.74 158.956 65.6094C158.914 65.6367 158.822 65.6732 158.743 65.7157C158.354 65.9285 157.844 64.7857 157.358 64.9924L157.57 64.8891Z" fill="#8521D3"/>
<path d="M156.61 66.7734C156.61 66.7734 156.689 66.6853 156.78 66.5577C157.014 66.1565 156.747 65.4058 157.09 65.1353C157.112 65.1171 157.197 65.0745 157.215 65.0624L157.567 64.8892C157.567 64.8892 157.327 65.0654 157.267 65.1779C157.263 65.1809 157.263 65.184 157.26 65.187C156.929 65.7219 157.403 66.3662 156.881 66.6397L156.61 66.7734Z" fill="#9420EF"/>
<path d="M158.71 65.728C158.71 65.728 158.972 65.5973 159.075 65.4909C159.078 65.4879 159.078 65.4879 159.081 65.4848C159.482 65.0745 159.449 64.3087 159.449 64.3087L159.768 64.1537C159.768 64.1537 159.999 65.0928 159.327 65.4392L158.71 65.728Z" fill="#9420EF"/>
<path d="M118.474 96.5541C118.872 96.3262 119.459 97.4051 119.86 97.2744C119.817 97.3018 119.726 97.3383 119.647 97.3808C119.258 97.5935 118.747 96.4508 118.261 96.6575L118.474 96.5541Z" fill="url(#paint20_linear_3920_6179)"/>
<path d="M117.517 98.4384C117.517 98.4384 117.596 98.3502 117.687 98.2226C117.921 97.8214 117.653 97.0707 117.997 96.8002C118.018 96.782 118.103 96.7394 118.121 96.7273L118.474 96.5541C118.474 96.5541 118.234 96.7303 118.173 96.8428C118.17 96.8458 118.17 96.8489 118.167 96.8519C117.836 97.3868 118.31 98.0311 117.787 98.3046L117.517 98.4384Z" fill="url(#paint21_linear_3920_6179)"/>
<path d="M119.617 97.3929C119.617 97.3929 119.878 97.2622 119.981 97.1558C119.984 97.1528 119.984 97.1528 119.987 97.1497C120.388 96.7394 120.355 95.9736 120.355 95.9736L120.674 95.8186C120.674 95.8186 120.905 96.7577 120.234 97.1041L119.617 97.3929Z" fill="url(#paint22_linear_3920_6179)"/>
<path d="M133.551 78.234C133.588 78.2613 133.685 78.2583 133.685 78.2583L133.658 78.3191C133.627 78.3343 133.536 78.3251 133.524 78.2948L133.551 78.234Z" fill="url(#paint23_linear_3920_6179)"/>
<path d="M131.199 64.5943C131.211 64.5396 131.157 64.4332 131.157 64.4332L131.236 64.4301C131.269 64.4545 131.309 64.5608 131.278 64.5912L131.199 64.5943Z" fill="url(#paint24_linear_3920_6179)"/>
<path d="M142.377 62.2266C142.061 62.0686 141.316 62.254 141.316 62.254L141.426 61.7586C141.63 61.5884 142.338 61.5124 142.487 61.7313L142.377 62.2266Z" fill="url(#paint25_linear_3920_6179)"/>
<path d="M128.935 71.5843C128.841 71.7606 128.932 72.18 128.932 72.18L128.655 72.1101C128.564 71.9916 128.531 71.5934 128.658 71.5144L128.935 71.5843Z" fill="url(#paint26_linear_3920_6179)"/>
<path d="M125.975 91.2235C126.488 90.9986 127.309 90.0231 127.309 90.0231L127.516 90.5458C127.373 90.9105 126.525 91.7584 126.181 91.7463L125.975 91.2235Z" fill="url(#paint27_linear_3920_6179)"/>
<path d="M125.947 73.8698C125.838 73.8151 125.586 73.8789 125.586 73.8789L125.622 73.7087C125.692 73.6509 125.935 73.6236 125.984 73.6996L125.947 73.8698Z" fill="url(#paint28_linear_3920_6179)"/>
<path d="M147.644 94.3904C147.565 94.2506 147.24 94.129 147.24 94.129L147.407 93.971C147.526 93.9588 147.811 94.1108 147.811 94.2323L147.644 94.3904Z" fill="url(#paint29_linear_3920_6179)"/>
<path d="M148.425 61.2662C148.38 61.3453 148.419 61.5398 148.419 61.5398L148.292 61.5063C148.252 61.4516 148.24 61.2693 148.298 61.2328L148.425 61.2662Z" fill="url(#paint30_linear_3920_6179)"/>
<path d="M138.013 71.4233C138.052 71.3777 138.055 71.244 138.055 71.244L138.135 71.2835C138.153 71.326 138.135 71.4476 138.092 71.4628L138.013 71.4233Z" fill="url(#paint31_linear_3920_6179)"/>
<path d="M150.328 76.3498C150.13 76.3619 149.82 76.6567 149.82 76.6567L149.735 76.3862C149.787 76.2464 150.109 76.0124 150.243 76.0793L150.328 76.3498Z" fill="url(#paint32_linear_3920_6179)"/>
<path d="M151.966 83.7623C151.945 83.7045 151.826 83.6407 151.826 83.6407L151.899 83.589C151.945 83.5921 152.045 83.665 152.039 83.7106L151.966 83.7623Z" fill="url(#paint33_linear_3920_6179)"/>
<path d="M155.203 77.4925C155.33 77.5503 155.625 77.4652 155.625 77.4652L155.589 77.6657C155.51 77.7356 155.227 77.7782 155.166 77.6931L155.203 77.4925Z" fill="url(#paint34_linear_3920_6179)"/>
<path d="M152.99 65.8433C153.002 65.7309 152.859 65.5273 152.859 65.5273L153.023 65.503C153.099 65.5455 153.203 65.7491 153.154 65.819L152.99 65.8433Z" fill="url(#paint35_linear_3920_6179)"/>
<path d="M162.267 64.1814C162.252 64.2908 162.38 64.4974 162.38 64.4974L162.219 64.5126C162.149 64.4671 162.055 64.2634 162.106 64.1966L162.267 64.1814Z" fill="url(#paint36_linear_3920_6179)"/>
<path d="M169.175 70.9128C168.987 70.925 168.695 71.2076 168.695 71.2076L168.613 70.9493C168.662 70.8186 168.969 70.5937 169.093 70.6545L169.175 70.9128Z" fill="url(#paint37_linear_3920_6179)"/>
<path d="M163.645 80.9148C163.541 80.775 163.174 80.6868 163.174 80.6868L163.335 80.4923C163.462 80.465 163.791 80.5896 163.806 80.7202L163.645 80.9148Z" fill="url(#paint38_linear_3920_6179)"/>
<path d="M167.947 83.5802C167.883 83.6927 167.932 83.9692 167.932 83.9692L167.753 83.9176C167.695 83.8385 167.683 83.5772 167.768 83.5285L167.947 83.5802Z" fill="url(#paint39_linear_3920_6179)"/>
<path d="M168.392 79.851C168.374 79.7416 168.191 79.5836 168.191 79.5836L168.34 79.5198C168.422 79.541 168.571 79.7082 168.541 79.7872L168.392 79.851Z" fill="url(#paint40_linear_3920_6179)"/>
<path d="M163.422 77.2983C163.386 77.2406 163.246 77.198 163.246 77.198L163.313 77.1281C163.361 77.122 163.486 77.1798 163.489 77.2284L163.422 77.2983Z" fill="url(#paint41_linear_3920_6179)"/>
<path d="M159.062 85.1969C159.19 85.2242 159.439 85.0905 159.439 85.0905L159.445 85.2789C159.388 85.3579 159.141 85.4491 159.068 85.3853L159.062 85.1969Z" fill="url(#paint42_linear_3920_6179)"/>
<path d="M169.224 94.6645C169.3 94.4882 169.173 94.0901 169.173 94.0901L169.446 94.1326C169.543 94.239 169.61 94.6189 169.498 94.707L169.224 94.6645Z" fill="url(#paint43_linear_3920_6179)"/>
<path d="M172.422 77.0946C172.537 77.0307 172.64 76.7663 172.64 76.7663L172.768 76.9061C172.774 77.0034 172.647 77.2374 172.549 77.2344L172.422 77.0946Z" fill="url(#paint44_linear_3920_6179)"/>
<path d="M150.234 91.655C150.185 91.6034 150.033 91.5821 150.033 91.5821L150.091 91.497C150.142 91.4818 150.279 91.5183 150.291 91.5699L150.234 91.655Z" fill="url(#paint45_linear_3920_6179)"/>
<path d="M155.017 93.2232C154.953 93.2566 154.896 93.4056 154.896 93.4056L154.826 93.3266C154.823 93.2718 154.893 93.1442 154.947 93.1442L155.017 93.2232Z" fill="url(#paint46_linear_3920_6179)"/>
<path d="M153.51 97.2988C153.494 97.2501 153.4 97.1924 153.4 97.1924L153.461 97.1529C153.498 97.1559 153.577 97.2228 153.57 97.2593L153.51 97.2988Z" fill="url(#paint47_linear_3920_6179)"/>
<path d="M159.044 89.1051C159.053 89.0474 158.986 88.938 158.986 88.938L159.071 88.9319C159.108 88.9562 159.156 89.0656 159.129 89.099L159.044 89.1051Z" fill="url(#paint48_linear_3920_6179)"/>
<path d="M155.339 81.9358C155.227 81.8507 154.92 81.872 154.92 81.872L154.999 81.6836C155.09 81.6319 155.376 81.6501 155.418 81.7474L155.339 81.9358Z" fill="url(#paint49_linear_3920_6179)"/>
<path d="M148.735 88.4731C148.605 88.5734 148.532 88.9198 148.532 88.9198L148.346 88.7739C148.319 88.6554 148.428 88.3424 148.55 88.3272L148.735 88.4731Z" fill="url(#paint50_linear_3920_6179)"/>
<path d="M142.326 81.5133C142.265 81.5194 142.177 81.6136 142.177 81.6136L142.146 81.5315C142.161 81.489 142.253 81.413 142.295 81.4312L142.326 81.5133Z" fill="url(#paint51_linear_3920_6179)"/>
<path d="M137.107 85.3822C137.171 85.3701 137.256 85.2576 137.256 85.2576L137.296 85.3397C137.287 85.3883 137.192 85.4764 137.147 85.4643L137.107 85.3822Z" fill="url(#paint52_linear_3920_6179)"/>
<path d="M108.554 93.9649C108.576 94.1078 108.81 94.3175 108.81 94.3175L108.615 94.3965C108.512 94.3661 108.32 94.1442 108.36 94.0439L108.554 93.9649Z" fill="url(#paint53_linear_3920_6179)"/>
<path d="M138.077 96.9433C138.28 96.916 138.578 96.5847 138.578 96.5847L138.688 96.8582C138.645 97.0071 138.329 97.2746 138.186 97.2168L138.077 96.9433Z" fill="url(#paint54_linear_3920_6179)"/>
<path d="M142.368 90.9592C142.325 90.947 142.234 90.9865 142.234 90.9865L142.237 90.9197C142.259 90.8923 142.347 90.868 142.371 90.8923L142.368 90.9592Z" fill="url(#paint55_linear_3920_6179)"/>
<path d="M138.806 88.8316C138.748 88.786 138.59 88.7952 138.59 88.7952L138.633 88.6979C138.682 88.6706 138.827 88.6827 138.849 88.7344L138.806 88.8316Z" fill="url(#paint56_linear_3920_6179)"/>
<path d="M118.544 92.6367C118.413 92.6428 118.207 92.8312 118.207 92.8312L118.155 92.6519C118.191 92.5607 118.404 92.4118 118.492 92.4574L118.544 92.6367Z" fill="url(#paint57_linear_3920_6179)"/>
<path d="M134.661 95.1745C134.588 95.0833 134.345 95.0347 134.345 95.0347L134.448 94.904C134.533 94.8827 134.752 94.9587 134.764 95.0438L134.661 95.1745Z" fill="url(#paint58_linear_3920_6179)"/>
<path d="M125.428 94.1381C125.403 94.3113 125.604 94.6304 125.604 94.6304L125.355 94.6547C125.245 94.5848 125.099 94.2657 125.178 94.1624L125.428 94.1381Z" fill="url(#paint59_linear_3920_6179)"/>
<path d="M128.406 87.8957C128.345 87.9473 128.321 88.1175 128.321 88.1175L128.227 88.0537C128.208 87.9959 128.254 87.844 128.312 87.8318L128.406 87.8957Z" fill="url(#paint60_linear_3920_6179)"/>
<path d="M129.673 88.1813C129.834 88.1387 130.038 87.8409 130.038 87.8409L130.154 88.0506C130.135 88.1721 129.91 88.4214 129.789 88.391L129.673 88.1813Z" fill="url(#paint61_linear_3920_6179)"/>
<path d="M137.001 89.4C137.071 89.4122 137.205 89.3301 137.205 89.3301L137.214 89.4334C137.183 89.479 137.053 89.5368 137.01 89.5033L137.001 89.4Z" fill="url(#paint62_linear_3920_6179)"/>
<path d="M130.841 81.7352C130.944 81.6835 131.041 81.4526 131.041 81.4526L131.151 81.5802C131.154 81.6653 131.035 81.8659 130.95 81.8629L130.841 81.7352Z" fill="url(#paint63_linear_3920_6179)"/>
<path d="M129.898 65.509C129.868 65.5546 129.883 65.6731 129.883 65.6731L129.807 65.6488C129.786 65.6153 129.786 65.5029 129.822 65.4847L129.898 65.509Z" fill="url(#paint64_linear_3920_6179)"/>
<path d="M122.662 61.7647C122.714 61.707 122.714 61.5368 122.714 61.5368L122.814 61.5854C122.838 61.637 122.817 61.792 122.762 61.8133L122.662 61.7647Z" fill="url(#paint65_linear_3920_6179)"/>
<path d="M120.662 65.3782C120.577 65.2992 120.325 65.287 120.325 65.287L120.407 65.1411C120.486 65.1077 120.717 65.1472 120.744 65.2323L120.662 65.3782Z" fill="url(#paint66_linear_3920_6179)"/>
<path d="M115.073 64.8891C115.152 64.7888 115.14 64.5122 115.14 64.5122L115.307 64.5882C115.353 64.6733 115.328 64.9286 115.24 64.965L115.073 64.8891Z" fill="url(#paint67_linear_3920_6179)"/>
<path d="M106.843 64.6671C106.886 64.8251 107.174 65.0288 107.174 65.0288L106.968 65.1412C106.846 65.1199 106.603 64.8981 106.636 64.7796L106.843 64.6671Z" fill="url(#paint68_linear_3920_6179)"/>
<path d="M110.247 78.155C110.226 78.2097 110.268 78.3252 110.268 78.3252L110.186 78.3161C110.156 78.2857 110.131 78.1732 110.165 78.1459L110.247 78.155Z" fill="url(#paint69_linear_3920_6179)"/>
<path d="M116.222 77.9665C116.085 77.9908 115.891 78.2279 115.891 78.2279L115.809 78.0456C115.833 77.9422 116.04 77.7507 116.14 77.7842L116.222 77.9665Z" fill="url(#paint70_linear_3920_6179)"/>
<path d="M117.799 81.416C117.854 81.2367 117.69 80.869 117.69 80.869L117.957 80.8811C118.064 80.9723 118.167 81.3309 118.067 81.4282L117.799 81.416Z" fill="url(#paint71_linear_3920_6179)"/>
<path d="M113.575 66.667C113.554 66.4876 113.271 66.2232 113.271 66.2232L113.514 66.1321C113.642 66.1716 113.87 66.4512 113.818 66.5758L113.575 66.667Z" fill="url(#paint72_linear_3920_6179)"/>
<path d="M112.371 76.3619C112.414 76.447 112.608 76.5291 112.608 76.5291L112.502 76.6203C112.429 76.6233 112.262 76.526 112.265 76.4531L112.371 76.3619Z" fill="url(#paint73_linear_3920_6179)"/>
<path d="M109.135 87.2605C109.165 87.3699 109.372 87.5097 109.372 87.5097L109.229 87.5917C109.144 87.5796 108.974 87.4276 108.992 87.3425L109.135 87.2605Z" fill="url(#paint74_linear_3920_6179)"/>
<path d="M113.788 81.9783C113.63 81.8719 113.219 81.9236 113.219 81.9236L113.311 81.6652C113.432 81.5892 113.815 81.5923 113.879 81.7199L113.788 81.9783Z" fill="url(#paint75_linear_3920_6179)"/>
<path d="M118.45 89.4516C118.559 89.4151 118.69 89.1963 118.69 89.1963L118.781 89.3361C118.772 89.4242 118.626 89.6096 118.541 89.5914L118.45 89.4516Z" fill="url(#paint76_linear_3920_6179)"/>
<path d="M119.784 85.3305C119.668 85.4217 119.605 85.7347 119.605 85.7347L119.437 85.6041C119.41 85.4977 119.507 85.2181 119.617 85.1998L119.784 85.3305Z" fill="url(#paint77_linear_3920_6179)"/>
<path d="M125.783 78.778C125.844 78.7264 125.877 78.5562 125.877 78.5562L125.972 78.6261C125.987 78.6838 125.938 78.8388 125.877 78.8479L125.783 78.778Z" fill="url(#paint78_linear_3920_6179)"/>
<path d="M117.347 72.4627C117.143 72.4992 116.857 72.8426 116.857 72.8426L116.736 72.5721C116.772 72.4202 117.079 72.1406 117.225 72.1922L117.347 72.4627Z" fill="url(#paint79_linear_3920_6179)"/>
<path d="M145.359 78.003C145.337 78.155 145.517 78.4407 145.517 78.4407L145.295 78.465C145.198 78.4042 145.067 78.1216 145.137 78.0273L145.359 78.003Z" fill="url(#paint80_linear_3920_6179)"/>
<path d="M133.223 67.7033C133.159 67.673 133.016 67.7125 133.016 67.7125L133.035 67.6152C133.074 67.5818 133.211 67.5635 133.241 67.6061L133.223 67.7033Z" fill="url(#paint81_linear_3920_6179)"/>
<path d="M162.355 69.1045C162.358 69.0589 162.301 68.9738 162.301 68.9738L162.367 68.9616C162.398 68.9799 162.443 69.0619 162.422 69.0923L162.355 69.1045Z" fill="url(#paint82_linear_3920_6179)"/>
<path d="M158.053 66.9466C158.087 67.0803 158.327 67.2535 158.327 67.2535L158.151 67.3447C158.05 67.3265 157.85 67.135 157.877 67.0378L158.053 66.9466Z" fill="url(#paint83_linear_3920_6179)"/>
<path d="M153.486 69.1135C153.571 69.0618 153.637 68.8521 153.637 68.8521L153.741 68.9524C153.75 69.0254 153.665 69.2077 153.589 69.2138L153.486 69.1135Z" fill="url(#paint84_linear_3920_6179)"/>
<path d="M152.294 74.1919C152.2 74.1463 151.984 74.2041 151.984 74.2041L152.014 74.0582C152.072 74.0065 152.279 73.9822 152.324 74.046L152.294 74.1919Z" fill="url(#paint85_linear_3920_6179)"/>
<path d="M143.049 70.2956C142.982 70.2986 142.873 70.3959 142.873 70.3959L142.845 70.3017C142.863 70.2561 142.976 70.1771 143.021 70.2014L143.049 70.2956Z" fill="url(#paint86_linear_3920_6179)"/>
<path d="M134.81 88.5277C134.749 88.6797 134.864 89.017 134.864 89.017L134.63 88.9866C134.545 88.8985 134.481 88.5733 134.576 88.4973L134.81 88.5277Z" fill="url(#paint87_linear_3920_6179)"/>
<path d="M147.507 83.6802C147.337 83.7258 147.121 84.0388 147.121 84.0388L147 83.817C147.021 83.6863 147.258 83.4249 147.386 83.4583L147.507 83.6802Z" fill="url(#paint88_linear_3920_6179)"/>
<path d="M130.193 58.9868C130.184 59.1084 130.336 59.3211 130.336 59.3211L130.163 59.3485C130.084 59.3059 129.968 59.0902 130.02 59.0142L130.193 58.9868Z" fill="url(#paint89_linear_3920_6179)"/>
<path d="M142.906 76.763C144.353 75.9698 145.939 74.6508 145.939 74.6508L147.234 74.3834C147.182 74.6295 145.353 75.982 144.201 76.4956L142.906 76.763Z" fill="#FFC200"/>
<path d="M124.005 74.1524C125.795 75.2557 128.254 76.1887 128.254 76.1887L129.366 77.456C129.06 77.5533 126.412 76.3741 125.118 75.4198L124.005 74.1524Z" fill="url(#paint90_linear_3920_6179)"/>
<path d="M151.948 84.276C153.397 84.6285 155.263 84.7166 155.263 84.7166L156.294 85.3275C156.108 85.4612 154.063 85.2455 152.978 84.8868L151.948 84.276Z" fill="url(#paint91_linear_3920_6179)"/>
<path d="M124.668 68.3112C123.802 67.9677 122.54 67.9465 122.54 67.9465L122.072 67.2809C122.255 67.1198 123.589 67.2748 124.2 67.6456L124.668 68.3112Z" fill="url(#paint92_linear_3920_6179)"/>
<path d="M143.97 86.0723C144.38 86.9324 145.316 87.8198 145.316 87.8198L145.206 88.6465C144.957 88.6434 144.064 87.598 143.86 86.8989L143.97 86.0723Z" fill="url(#paint93_linear_3920_6179)"/>
<path d="M139.241 66.0378C138.505 66.6426 137.867 67.764 137.867 67.764L137.04 67.8552C136.986 67.6121 137.785 66.4937 138.414 66.129L139.241 66.0378Z" fill="url(#paint94_linear_3920_6179)"/>
<path d="M135.168 85.6406C135.852 85.4704 136.636 84.9264 136.636 84.9264L137.22 85.13C137.18 85.3093 136.287 85.8017 135.752 85.8442L135.168 85.6406Z" fill="url(#paint95_linear_3920_6179)"/>
<path d="M135.098 73.6146C134.989 74.1343 135.101 74.8424 135.101 74.8424L134.773 75.1706C134.664 75.0855 134.624 74.3196 134.77 73.9428L135.098 73.6146Z" fill="url(#paint96_linear_3920_6179)"/>
<path d="M155.181 72.338C156.136 72.3258 157.333 71.8517 157.333 71.8517L158.038 72.2984C157.929 72.5233 156.607 72.8972 155.886 72.7847L155.181 72.338Z" fill="url(#paint97_linear_3920_6179)"/>
<path d="M104.396 79.7993C105.323 79.5774 106.39 78.8511 106.39 78.8511L107.174 79.1307C107.117 79.3738 105.91 80.0272 105.181 80.0789L104.396 79.7993Z" fill="url(#paint98_linear_3920_6179)"/>
<path d="M110.536 68.5512C110.937 68.8156 111.669 68.8703 111.669 68.8703L111.742 69.3414C111.587 69.4478 110.855 69.2958 110.609 69.0223L110.536 68.5512Z" fill="url(#paint99_linear_3920_6179)"/>
<path d="M164.216 73.7701C164.513 73.3932 164.629 72.6699 164.629 72.6699L165.106 72.6365C165.197 72.8006 164.984 73.5178 164.693 73.7366L164.216 73.7701Z" fill="url(#paint100_linear_3920_6179)"/>
<path d="M140.903 77.8815C140.912 77.9635 141.04 78.0851 141.04 78.0851L140.931 78.1246C140.873 78.1064 140.769 77.9787 140.794 77.921L140.903 77.8815Z" fill="url(#paint101_linear_3920_6179)"/>
<path d="M140.074 87.2848C140.001 87.4489 140.11 87.8227 140.11 87.8227L139.855 87.7771C139.764 87.6768 139.709 87.3212 139.818 87.2392L140.074 87.2848Z" fill="url(#paint102_linear_3920_6179)"/>
<path d="M138.885 84.048C138.885 84.0967 138.952 84.1757 138.952 84.1757L138.885 84.1909C138.852 84.1757 138.8 84.0967 138.818 84.0632L138.885 84.048Z" fill="url(#paint103_linear_3920_6179)"/>
<path d="M123.048 86.0842C122.954 86.0477 122.744 86.1176 122.744 86.1176L122.762 85.9718C122.817 85.9171 123.018 85.8775 123.066 85.9383L123.048 86.0842Z" fill="url(#paint104_linear_3920_6179)"/>
<path d="M95.9568 94.3599C97.8016 94.7307 99.8044 94.9586 101.631 94.4055C102.348 94.1776 103.038 93.8098 103.521 93.2233C103.573 93.1594 103.634 93.0835 103.676 93.0105L103.701 92.9741L103.719 92.9376C103.837 92.7279 103.868 92.4665 103.764 92.2447C103.634 91.9499 103.303 91.7766 102.983 91.7918C102.819 91.7949 102.655 91.8465 102.512 91.9195C102.464 91.9468 102.415 91.9742 102.369 92.0076L102.336 92.0319L102.318 92.0441L102.303 92.0593L102.239 92.114C102.227 92.1231 102.218 92.1322 102.208 92.1444L102.178 92.1748L102.148 92.2051L102.132 92.2203L102.117 92.2355L102.059 92.3024C102.05 92.3146 102.038 92.3237 102.032 92.3358C101.713 92.7613 101.689 93.354 101.804 93.8615C101.993 94.6851 102.634 95.299 103.458 95.4662C104.044 95.5908 104.655 95.527 105.235 95.3872C106.439 95.1136 107.478 94.4602 108.199 93.4512C109.405 91.7736 109.867 89.7981 111.897 88.8043C113.043 88.2299 114.356 88.1813 115.608 88.1965C117.1 88.2269 118.593 88.394 120.079 88.4578C121.298 88.4973 122.562 88.5338 123.723 88.1114C123.917 88.0354 124.109 87.9503 124.279 87.8257C124.695 87.5187 125.017 87.0963 125.352 86.6981C125.981 85.9262 126.643 85.1573 127.449 84.5616C128.248 83.9568 129.181 83.5283 130.157 83.3003L130.178 83.3915C129.522 83.5587 128.883 83.814 128.3 84.1574C127.716 84.4978 127.181 84.9293 126.707 85.4095C126.27 85.8472 125.884 86.3274 125.495 86.8136C125.176 87.2057 124.872 87.6038 124.477 87.929C124.376 88.0111 124.264 88.087 124.151 88.1448C123.814 88.3241 123.443 88.4396 123.072 88.5217C122.085 88.7344 121.076 88.7283 120.073 88.6979C118.577 88.6432 117.097 88.4882 115.608 88.4669C114.165 88.4487 112.615 88.549 111.417 89.4334C109.977 90.4607 109.469 92.2477 108.454 93.6275C107.7 94.6912 106.582 95.3993 105.314 95.685C104.567 95.8643 103.752 95.9221 103.02 95.6485C102.521 95.4662 102.084 95.1136 101.813 94.6547C101.412 93.9709 101.312 93.0865 101.674 92.3632C101.719 92.272 101.78 92.1839 101.85 92.1079L101.917 92.0319C101.926 92.0228 101.941 92.0046 101.95 91.9954C101.968 91.9772 102.005 91.9438 102.023 91.9255C102.035 91.9134 102.047 91.9012 102.059 91.8921L102.139 91.8283C102.16 91.8101 102.199 91.7827 102.221 91.7675C102.445 91.6095 102.716 91.5092 102.993 91.5031C103.415 91.4909 103.856 91.731 104.026 92.1292C104.15 92.4088 104.123 92.74 103.986 93.0075L103.962 93.0531L103.938 93.0987C103.877 93.1929 103.807 93.2932 103.734 93.3783C102.6 94.7094 100.561 94.9738 98.9109 94.8918C97.911 94.8432 96.9233 94.676 95.9538 94.445L95.9568 94.3599Z" fill="url(#paint105_linear_3920_6179)"/>
<path d="M151.036 79.1974C151.863 78.5896 152.741 78.0395 153.68 77.6171C154.324 77.3314 155.002 77.1156 155.692 76.9728C156.743 76.757 157.847 76.7023 158.916 76.6354C160.421 76.5473 161.922 76.3953 163.402 76.1005C164.402 75.8999 165.396 75.6598 166.369 75.3589C166.621 75.2738 166.867 75.1736 167.11 75.0641C169.07 74.1828 170.794 72.7544 172.775 71.9155C173.578 71.5934 174.571 71.3655 175.267 72.0371C175.301 72.0705 175.328 72.104 175.362 72.1374L175.389 72.1739L175.447 72.2438C175.495 72.3137 175.556 72.3957 175.592 72.4717C175.86 72.9489 175.827 73.5385 175.392 73.9032C175.064 74.1828 174.59 74.2375 174.194 74.0855C173.878 73.967 173.614 73.7299 173.423 73.4564C172.766 72.5082 172.717 71.4293 173.489 70.5327C174.602 69.2684 176.659 68.7062 178.282 68.5147C179.346 68.3992 181.096 68.3719 181.941 69.0769C181.984 69.1134 182.023 69.1529 182.06 69.1955L181.996 69.2532C181.923 69.1803 181.841 69.1165 181.75 69.0618C181.662 69.007 181.564 68.9615 181.467 68.925C180.872 68.697 180.221 68.6606 179.586 68.6667C178.31 68.7001 177.033 68.9554 175.848 69.4234C174.641 69.9097 172.985 70.8822 173.371 72.414C173.489 72.8516 173.76 73.3652 174.155 73.6114C174.447 73.7998 174.851 73.8211 175.124 73.5901C175.325 73.426 175.395 73.1616 175.331 72.9154C175.301 72.7878 175.237 72.6541 175.161 72.5416L175.121 72.4808L175.076 72.4261L175.055 72.3988L175.03 72.3745L174.982 72.3228C174.96 72.3046 174.927 72.2711 174.906 72.2529C174.884 72.2377 174.857 72.2164 174.839 72.2012C174.833 72.1982 174.83 72.1952 174.824 72.1921L174.766 72.1556C174.738 72.1374 174.705 72.1222 174.675 72.107L174.644 72.0949C174.623 72.0857 174.602 72.0766 174.58 72.0675L174.514 72.0462C174.483 72.0371 174.444 72.028 174.413 72.0189C174.31 71.9976 174.201 71.9885 174.091 71.9885C174.058 71.9885 174.009 71.9885 173.982 71.9915C173.945 71.9946 173.906 71.9976 173.869 72.0006C173.535 72.0371 173.216 72.1344 172.9 72.2529C172.104 72.5599 171.362 72.9884 170.62 73.4139C169.529 74.046 168.353 74.7785 167.201 75.283C166.9 75.4136 166.593 75.5322 166.277 75.6264C163.676 76.3892 160.974 76.7266 158.272 76.8238C157.628 76.8603 156.984 76.8998 156.342 76.991C155.549 77.1004 154.756 77.2979 154.011 77.5958L153.862 77.6566L153.786 77.687C153.762 77.6961 153.738 77.7082 153.713 77.7174L153.568 77.7842L153.422 77.8511C152.595 78.2431 151.82 78.7324 151.078 79.2673C151.088 79.2673 151.036 79.1974 151.036 79.1974Z" fill="url(#paint106_linear_3920_6179)"/>
<path d="M132.995 71.2195C130.26 69.2228 129.43 70.56 128.388 68.6636C127.665 67.3172 127.276 65.8706 125.695 64.819C124.182 63.7675 120.611 63.1657 119.951 62.564C118.784 61.5124 119.295 57.9565 118.38 57.3457C116.973 56.4825 113.326 61.3969 111.794 59.0932C111.001 57.8623 111.642 55.1483 112.183 54.3642L112.259 54.4159C111.511 55.5434 110.885 59.9715 113.28 59.3819C114.845 59.002 116.827 56.4461 118.319 56.8229C120.115 57.2363 119.012 61.9227 120.48 62.4697C123.1 63.4484 123.869 63.5547 124.914 64.0288C128.443 65.6852 127.868 68.9675 129.646 69.6149C130.409 69.9005 131.321 69.7881 133.02 71.1892C132.989 71.2287 132.998 71.2195 132.995 71.2195Z" fill="url(#paint107_linear_3920_6179)"/>
<path d="M145.818 84.7378C148.525 85.4459 149.644 88.3484 151.729 89.9409C152.966 90.9134 154.576 91.1505 155.941 91.8829C156.534 92.196 157.087 92.6154 157.455 93.1837C157.637 93.4694 157.81 93.7915 157.771 94.1441C157.728 94.5179 157.379 94.7702 157.017 94.761C156.64 94.7641 156.357 94.4115 156.348 94.0499C156.327 93.5059 156.856 93.2323 157.339 93.2962C157.689 93.3296 157.989 93.5393 158.236 93.7733C158.561 94.0833 158.843 94.4207 159.16 94.7337C159.78 95.3628 160.472 95.9129 161.214 96.3931C161.573 96.6241 161.953 96.8794 162.381 96.931C162.949 97.007 163.363 96.5785 163.43 96.0375C163.457 95.8308 163.414 95.6211 163.332 95.4297C163.077 94.837 162.445 94.4784 161.819 94.4115C161.302 94.3508 160.731 94.5118 160.406 94.9404C160.038 95.4145 160.105 96.074 160.266 96.621C160.524 97.5358 161.272 98.171 162.156 98.4689C162.852 98.7059 163.609 98.7788 164.338 98.6816C164.478 98.6634 164.618 98.6512 164.758 98.6451C165.32 98.6208 165.897 98.6938 166.405 98.9399C167.15 99.2925 167.621 100.013 167.563 100.845L167.52 100.842C167.526 100.624 167.499 100.402 167.432 100.195C167.159 99.3168 166.286 98.8609 165.417 98.7819C165.065 98.7454 164.706 98.7606 164.353 98.8123C164.271 98.8244 164.186 98.8366 164.101 98.8427C162.782 98.9521 161.257 98.5813 160.466 97.4416C160.272 97.159 160.138 96.8368 160.056 96.5055C159.916 95.9554 159.901 95.3081 160.269 94.8401C161.016 93.8827 162.642 94.135 163.311 95.0619C163.588 95.4418 163.688 95.9646 163.496 96.4022C163.363 96.7335 163.074 97.0131 162.715 97.0769C162.366 97.1438 162.013 97.0252 161.706 96.8672C161.606 96.8155 161.509 96.7578 161.412 96.7C160.561 96.1682 159.761 95.5482 159.062 94.8249C158.752 94.5118 158.467 94.1654 158.147 93.8615C157.992 93.7125 157.819 93.5758 157.625 93.4907C157.257 93.3296 156.725 93.3691 156.512 93.752C156.318 94.1167 156.579 94.6608 157.014 94.6608C157.217 94.6638 157.43 94.5757 157.558 94.4115C157.689 94.2444 157.704 94.0195 157.652 93.8159C157.6 93.6062 157.491 93.4117 157.379 93.2293C157.02 92.6731 156.482 92.2568 155.902 91.9498C154.537 91.2143 152.923 90.9651 151.692 89.9835C149.933 88.6189 148.945 86.4519 147.03 85.2697C146.65 85.0417 146.24 84.8624 145.811 84.753C145.814 84.753 145.818 84.7378 145.818 84.7378Z" fill="url(#paint108_linear_3920_6179)"/>
<path d="M142.392 71.1345C143.398 70.5631 144.477 69.9492 145.046 68.9007C145.505 68.0132 145.617 67.0042 145.754 66.0286C145.818 65.5788 145.866 65.1229 145.988 64.6823C146.027 64.5485 146.076 64.4087 146.155 64.2902C146.295 64.0744 146.565 63.9833 146.811 64.0076C147.003 64.0228 147.185 64.0835 147.355 64.1686C147.595 64.2933 147.82 64.4604 148.06 64.5698C148.592 64.8281 149.054 64.5789 149.288 64.0684C149.556 63.421 149.334 62.6521 149.133 62.0108C148.972 61.4699 148.598 60.6736 148.684 60.1174C148.778 59.5825 149.258 59.5369 149.705 59.6129C150.164 59.6919 150.604 59.856 151.03 60.0202C151.704 60.2785 152.364 60.5824 153.045 60.8103C153.273 60.8833 153.914 61.09 154.069 60.8802C154.224 60.5429 153.75 59.5217 153.601 59.154C153.248 58.3243 152.823 57.4976 152.583 56.6102C152.562 56.519 152.54 56.4248 152.528 56.3306C152.446 55.7957 152.65 55.4644 153.23 55.5039C153.513 55.5222 153.786 55.5981 154.054 55.6741C154.917 55.9233 155.765 56.2759 156.661 56.3762C157.09 56.4187 157.564 56.3944 157.91 56.1148C158.154 55.9385 158.144 55.6984 158.059 55.431C157.95 55.0876 157.749 54.7776 157.634 54.4341L157.658 54.425C157.789 54.7624 158.002 55.0602 158.129 55.4067C158.224 55.662 158.251 55.9507 158.029 56.1482C157.944 56.2333 157.847 56.3002 157.74 56.3549C157.081 56.6831 156.242 56.5008 155.561 56.3367C155.029 56.206 154.516 56.0327 153.99 55.8899C153.698 55.817 153.157 55.6589 152.89 55.8018C152.476 56.0601 153.27 57.6526 153.431 58.0356C153.729 58.7042 154.054 59.3515 154.291 60.0506C154.37 60.3058 154.461 60.6037 154.409 60.8833C154.318 61.3209 153.835 61.3331 153.488 61.2632C153.297 61.2298 153.118 61.175 152.941 61.1203C152.245 60.8863 151.589 60.5794 150.914 60.3058C150.422 60.1144 149.933 59.8986 149.404 59.8591C149.294 59.856 149.197 59.8621 149.103 59.9047L149.082 59.9168L149.073 59.9229L149.063 59.929C148.924 60.0323 148.911 60.2359 148.921 60.4001C148.933 60.5672 148.969 60.7404 149.015 60.9106C149.155 61.4273 149.352 61.947 149.474 62.4789C149.598 63.0168 149.674 63.6186 149.443 64.1413C149.167 64.7279 148.604 65.0105 147.994 64.7096C147.589 64.5212 147.258 64.1838 146.796 64.1443C146.38 64.1109 146.213 64.3449 146.106 64.7157C145.982 65.1473 145.93 65.5971 145.863 66.0438C145.714 67.0285 145.587 68.0497 145.112 68.9402C144.891 69.3383 144.581 69.6908 144.234 69.9856C143.681 70.4598 143.04 70.8123 142.402 71.1588C142.405 71.1588 142.392 71.1345 142.392 71.1345Z" fill="url(#paint109_linear_3920_6179)"/>
<path d="M122.313 77.3618C121.486 77.2098 120.632 77.0396 119.836 76.7813C119.331 76.6202 118.833 76.4135 118.386 76.1279C118.039 75.909 117.717 75.6507 117.368 75.438C116.41 74.8453 115.392 74.7146 114.307 75.0003C113.791 75.1249 113.301 75.3559 112.77 75.4167C111.602 75.5747 110.32 75.207 109.542 74.2952C109.332 74.0521 109.156 73.7725 109.004 73.4898C108.606 72.7513 108.351 71.9277 107.825 71.2621C106.831 69.9553 105.205 70.2166 103.813 70.6117C102.999 70.8397 102.196 71.1223 101.373 71.332C100.306 71.6025 99.0506 71.7727 98.0994 71.0889C97.3852 70.551 97.0964 69.7516 97.5098 68.9219C97.8015 68.3445 98.3273 67.8886 98.9321 67.6607C99.464 67.4662 100.084 67.5057 100.388 68.0436C100.604 68.4235 100.646 68.925 100.367 69.2836C100.026 69.7182 99.4336 69.8489 98.9047 69.8428C98.2635 69.8276 97.6344 69.6088 97.1025 69.2593C96.3883 68.7913 95.8564 68.0801 95.5312 67.296L95.5495 67.2869C95.7166 67.6759 95.9294 68.0436 96.1938 68.3749C96.9597 69.3474 98.2848 70.0069 99.5278 69.7121C100.032 69.5906 100.509 69.2319 100.488 68.6697C100.461 68.1348 100.142 67.6607 99.5673 67.6425C99.0476 67.6273 98.5522 67.8977 98.1693 68.2321C97.4399 68.8824 97.1147 69.8854 97.8289 70.6786C98.7072 71.6785 100.175 71.5053 101.339 71.1953C102.573 70.8792 103.755 70.3777 105.02 70.1832C106.193 70.0009 107.275 70.2197 108.013 71.2165C108.548 71.9247 108.797 72.7878 109.22 73.5537C109.277 73.66 109.356 73.7877 109.42 73.888C109.463 73.9488 109.511 74.0187 109.557 74.0764L109.654 74.198C110.393 75.0854 111.63 75.4471 112.754 75.3073C113.28 75.2495 113.769 75.0277 114.283 74.9061C115.374 74.6295 116.407 74.7602 117.368 75.3589C117.708 75.5626 118.021 75.8148 118.349 76.0367C118.811 76.3436 119.322 76.5685 119.848 76.7418C120.395 76.9272 120.969 77.0609 121.535 77.1855C121.872 77.2584 122.033 77.2858 122.313 77.3405C122.316 77.3435 122.313 77.3618 122.313 77.3618Z" fill="#1B90DD"/>
<circle cx="139" cy="78" r="50" fill="white"/>
<circle cx="139" cy="78" r="50" fill="#0091D7" fill-opacity="0.08"/>
<g clip-path="url(#clip0_3920_6179)">
<path d="M126.167 78.5L135.333 87.6667L153.667 69.3333" stroke="#0091D7" stroke-width="5"/>
</g>
<defs>
<linearGradient id="paint0_linear_3920_6179" x1="128.654" y1="98.9956" x2="130.41" y2="99.534" gradientUnits="userSpaceOnUse">
<stop stop-color="#61D3D7"/>
<stop offset="0.2216" stop-color="#57CFD7"/>
<stop offset="0.6006" stop-color="#3CC6D5"/>
<stop offset="1" stop-color="#18B9D4"/>
</linearGradient>
<linearGradient id="paint1_linear_3920_6179" x1="128.239" y1="99.1777" x2="129.477" y2="101.463" gradientUnits="userSpaceOnUse">
<stop stop-color="#61D3D7"/>
<stop offset="0.2216" stop-color="#57CFD7"/>
<stop offset="0.6006" stop-color="#3CC6D5"/>
<stop offset="1" stop-color="#18B9D4"/>
</linearGradient>
<linearGradient id="paint2_linear_3920_6179" x1="130.166" y1="95.2327" x2="133.723" y2="96.3236" gradientUnits="userSpaceOnUse">
<stop stop-color="#61D3D7"/>
<stop offset="0.2216" stop-color="#57CFD7"/>
<stop offset="0.6006" stop-color="#3CC6D5"/>
<stop offset="1" stop-color="#18B9D4"/>
</linearGradient>
<linearGradient id="paint3_linear_3920_6179" x1="135.689" y1="89.1982" x2="132.385" y2="90.9269" gradientUnits="userSpaceOnUse">
<stop stop-color="#61D3D7"/>
<stop offset="0.2216" stop-color="#57CFD7"/>
<stop offset="0.6006" stop-color="#3CC6D5"/>
<stop offset="1" stop-color="#18B9D4"/>
</linearGradient>
<linearGradient id="paint4_linear_3920_6179" x1="129.634" y1="95.9033" x2="131.429" y2="98.8893" gradientUnits="userSpaceOnUse">
<stop stop-color="#61D3D7"/>
<stop offset="0.2216" stop-color="#57CFD7"/>
<stop offset="0.6006" stop-color="#3CC6D5"/>
<stop offset="1" stop-color="#18B9D4"/>
</linearGradient>
<linearGradient id="paint5_linear_3920_6179" x1="132.462" y1="91.72" x2="134.965" y2="94.7095" gradientUnits="userSpaceOnUse">
<stop stop-color="#61D3D7"/>
<stop offset="0.2216" stop-color="#57CFD7"/>
<stop offset="0.6006" stop-color="#3CC6D5"/>
<stop offset="1" stop-color="#18B9D4"/>
</linearGradient>
<linearGradient id="paint6_linear_3920_6179" x1="116.008" y1="69.0014" x2="116.288" y2="68.0921" gradientUnits="userSpaceOnUse">
<stop stop-color="#61D3D7"/>
<stop offset="0.2216" stop-color="#57CFD7"/>
<stop offset="0.6006" stop-color="#3CC6D5"/>
<stop offset="1" stop-color="#18B9D4"/>
</linearGradient>
<linearGradient id="paint7_linear_3920_6179" x1="116.102" y1="69.2165" x2="117.287" y2="68.5768" gradientUnits="userSpaceOnUse">
<stop stop-color="#61D3D7"/>
<stop offset="0.2216" stop-color="#57CFD7"/>
<stop offset="0.6006" stop-color="#3CC6D5"/>
<stop offset="1" stop-color="#18B9D4"/>
</linearGradient>
<linearGradient id="paint8_linear_3920_6179" x1="114.059" y1="68.2154" x2="114.627" y2="66.3728" gradientUnits="userSpaceOnUse">
<stop stop-color="#61D3D7"/>
<stop offset="0.2216" stop-color="#57CFD7"/>
<stop offset="0.6006" stop-color="#3CC6D5"/>
<stop offset="1" stop-color="#18B9D4"/>
</linearGradient>
<linearGradient id="paint9_linear_3920_6179" x1="110.936" y1="65.3486" x2="111.829" y2="67.0623" gradientUnits="userSpaceOnUse">
<stop stop-color="#61D3D7"/>
<stop offset="0.2216" stop-color="#57CFD7"/>
<stop offset="0.6006" stop-color="#3CC6D5"/>
<stop offset="1" stop-color="#18B9D4"/>
</linearGradient>
<linearGradient id="paint10_linear_3920_6179" x1="114.406" y1="68.4914" x2="115.955" y2="67.5634" gradientUnits="userSpaceOnUse">
<stop stop-color="#61D3D7"/>
<stop offset="0.2216" stop-color="#57CFD7"/>
<stop offset="0.6006" stop-color="#3CC6D5"/>
<stop offset="1" stop-color="#18B9D4"/>
</linearGradient>
<linearGradient id="paint11_linear_3920_6179" x1="112.24" y1="67.023" x2="113.791" y2="65.7282" gradientUnits="userSpaceOnUse">
<stop stop-color="#61D3D7"/>
<stop offset="0.2216" stop-color="#57CFD7"/>
<stop offset="0.6006" stop-color="#3CC6D5"/>
<stop offset="1" stop-color="#18B9D4"/>
</linearGradient>
<linearGradient id="paint12_linear_3920_6179" x1="166.756" y1="88.0549" x2="167.063" y2="87.1123" gradientUnits="userSpaceOnUse">
<stop stop-color="#5221B5"/>
<stop offset="0.116" stop-color="#692CCF"/>
<stop offset="0.2612" stop-color="#7F37E9"/>
<stop offset="0.3915" stop-color="#8D3EF9"/>
<stop offset="0.4931" stop-color="#9240FF"/>
<stop offset="0.6086" stop-color="#8F3EFB"/>
<stop offset="0.7255" stop-color="#8439EF"/>
<stop offset="0.8431" stop-color="#7331DB"/>
<stop offset="0.9605" stop-color="#5B26BE"/>
<stop offset="1" stop-color="#5121B3"/>
</linearGradient>
<linearGradient id="paint13_linear_3920_6179" x1="166.858" y1="88.2834" x2="168.117" y2="87.5902" gradientUnits="userSpaceOnUse">
<stop stop-color="#532E9E"/>
<stop offset="0.5121" stop-color="#BE70FF"/>
<stop offset="1" stop-color="#7C48FF"/>
</linearGradient>
<linearGradient id="paint14_linear_3920_6179" x1="164.635" y1="87.1697" x2="165.257" y2="85.2598" gradientUnits="userSpaceOnUse">
<stop stop-color="#5221B5"/>
<stop offset="0.116" stop-color="#692CCF"/>
<stop offset="0.2612" stop-color="#7F37E9"/>
<stop offset="0.3915" stop-color="#8D3EF9"/>
<stop offset="0.4931" stop-color="#9240FF"/>
<stop offset="0.6086" stop-color="#8F3EFB"/>
<stop offset="0.7255" stop-color="#8439EF"/>
<stop offset="0.8431" stop-color="#7331DB"/>
<stop offset="0.9605" stop-color="#5B26BE"/>
<stop offset="1" stop-color="#5121B3"/>
</linearGradient>
<linearGradient id="paint15_linear_3920_6179" x1="161.238" y1="84.0693" x2="162.116" y2="85.9346" gradientUnits="userSpaceOnUse">
<stop stop-color="#5221B5"/>
<stop offset="0.116" stop-color="#692CCF"/>
<stop offset="0.2612" stop-color="#7F37E9"/>
<stop offset="0.3915" stop-color="#8D3EF9"/>
<stop offset="0.4931" stop-color="#9240FF"/>
<stop offset="0.6086" stop-color="#8F3EFB"/>
<stop offset="0.7255" stop-color="#8439EF"/>
<stop offset="0.8431" stop-color="#7331DB"/>
<stop offset="0.9605" stop-color="#5B26BE"/>
<stop offset="1" stop-color="#5121B3"/>
</linearGradient>
<linearGradient id="paint16_linear_3920_6179" x1="165.012" y1="87.4696" x2="166.652" y2="86.4681" gradientUnits="userSpaceOnUse">
<stop stop-color="#532E9E"/>
<stop offset="0.5121" stop-color="#BE70FF"/>
<stop offset="1" stop-color="#7C48FF"/>
</linearGradient>
<linearGradient id="paint17_linear_3920_6179" x1="162.656" y1="85.8634" x2="164.286" y2="84.485" gradientUnits="userSpaceOnUse">
<stop stop-color="#532E9E"/>
<stop offset="0.5121" stop-color="#BE70FF"/>
<stop offset="1" stop-color="#7C48FF"/>
</linearGradient>
<linearGradient id="paint18_linear_3920_6179" x1="166.394" y1="62.7936" x2="170.096" y2="62.7936" gradientUnits="userSpaceOnUse">
<stop stop-color="#C7122D"/>
<stop offset="0.5035" stop-color="#FF6685"/>
<stop offset="1" stop-color="#D43845"/>
</linearGradient>
<linearGradient id="paint19_linear_3920_6179" x1="145.439" y1="94.2425" x2="147.456" y2="98.0898" gradientUnits="userSpaceOnUse">
<stop stop-color="#532E9E"/>
<stop offset="0.5121" stop-color="#BE70FF"/>
<stop offset="1" stop-color="#7C48FF"/>
</linearGradient>
<linearGradient id="paint20_linear_3920_6179" x1="118.263" y1="96.9644" x2="119.86" y2="96.9644" gradientUnits="userSpaceOnUse">
<stop stop-color="#948BE2"/>
<stop offset="0.3319" stop-color="#8A81DB"/>
<stop offset="0.8981" stop-color="#7066C7"/>
<stop offset="1" stop-color="#6A60C3"/>
</linearGradient>
<linearGradient id="paint21_linear_3920_6179" x1="117.515" y1="97.4963" x2="118.475" y2="97.4963" gradientUnits="userSpaceOnUse">
<stop stop-color="#948BE2"/>
<stop offset="0.3319" stop-color="#8A81DB"/>
<stop offset="0.8981" stop-color="#7066C7"/>
<stop offset="1" stop-color="#6A60C3"/>
</linearGradient>
<linearGradient id="paint22_linear_3920_6179" x1="119.616" y1="96.6065" x2="120.708" y2="96.6065" gradientUnits="userSpaceOnUse">
<stop stop-color="#948BE2"/>
<stop offset="0.3319" stop-color="#8A81DB"/>
<stop offset="0.8981" stop-color="#7066C7"/>
<stop offset="1" stop-color="#6A60C3"/>
</linearGradient>
<linearGradient id="paint23_linear_3920_6179" x1="133.686" y1="78.2795" x2="133.524" y2="78.2795" gradientUnits="userSpaceOnUse">
<stop stop-color="#0092DC"/>
<stop offset="0.3261" stop-color="#0888E4"/>
<stop offset="0.8825" stop-color="#1F6DFA"/>
<stop offset="1" stop-color="#2466FF"/>
</linearGradient>
<linearGradient id="paint24_linear_3920_6179" x1="131.29" y1="64.5122" x2="131.156" y2="64.5122" gradientUnits="userSpaceOnUse">
<stop stop-color="#7F2390"/>
<stop offset="0.2994" stop-color="#982182"/>
<stop offset="0.9341" stop-color="#D91D5F"/>
<stop offset="1" stop-color="#E01C5B"/>
</linearGradient>
<linearGradient id="paint25_linear_3920_6179" x1="142.487" y1="61.9252" x2="141.318" y2="61.9252" gradientUnits="userSpaceOnUse">
<stop stop-color="#0092DC"/>
<stop offset="0.3261" stop-color="#0888E4"/>
<stop offset="0.8825" stop-color="#1F6DFA"/>
<stop offset="1" stop-color="#2466FF"/>
</linearGradient>
<linearGradient id="paint26_linear_3920_6179" x1="128.936" y1="71.8493" x2="128.575" y2="71.8493" gradientUnits="userSpaceOnUse">
<stop stop-color="#0092DC"/>
<stop offset="0.3261" stop-color="#0888E4"/>
<stop offset="0.8825" stop-color="#1F6DFA"/>
<stop offset="1" stop-color="#2466FF"/>
</linearGradient>
<linearGradient id="paint27_linear_3920_6179" x1="127.023" y1="91.2027" x2="126.562" y2="90.6768" gradientUnits="userSpaceOnUse">
<stop stop-color="#0092DC"/>
<stop offset="0.2193" stop-color="#009CD4"/>
<stop offset="0.5944" stop-color="#00B7C0"/>
<stop offset="1" stop-color="#00DCA5"/>
</linearGradient>
<linearGradient id="paint28_linear_3920_6179" x1="125.983" y1="73.7682" x2="125.583" y2="73.7682" gradientUnits="userSpaceOnUse">
<stop stop-color="#FF5600"/>
<stop offset="0.1769" stop-color="#FF6000"/>
<stop offset="0.4798" stop-color="#FF7B00"/>
<stop offset="0.8695" stop-color="#FFA800"/>
<stop offset="1" stop-color="#FFB800"/>
</linearGradient>
<linearGradient id="paint29_linear_3920_6179" x1="147.811" y1="94.1806" x2="147.24" y2="94.1806" gradientUnits="userSpaceOnUse">
<stop stop-color="#7F2390"/>
<stop offset="0.2994" stop-color="#982182"/>
<stop offset="0.9341" stop-color="#D91D5F"/>
<stop offset="1" stop-color="#E01C5B"/>
</linearGradient>
<linearGradient id="paint30_linear_3920_6179" x1="148.425" y1="61.3853" x2="148.258" y2="61.3853" gradientUnits="userSpaceOnUse">
<stop stop-color="#0092DC"/>
<stop offset="0.3261" stop-color="#0888E4"/>
<stop offset="0.8825" stop-color="#1F6DFA"/>
<stop offset="1" stop-color="#2466FF"/>
</linearGradient>
<linearGradient id="paint31_linear_3920_6179" x1="138.142" y1="71.3532" x2="138.013" y2="71.3532" gradientUnits="userSpaceOnUse">
<stop stop-color="#948BE2"/>
<stop offset="0.3319" stop-color="#8A81DB"/>
<stop offset="0.8981" stop-color="#7066C7"/>
<stop offset="1" stop-color="#6A60C3"/>
</linearGradient>
<linearGradient id="paint32_linear_3920_6179" x1="150.329" y1="76.3626" x2="149.737" y2="76.3626" gradientUnits="userSpaceOnUse">
<stop stop-color="#7F2390"/>
<stop offset="0.2994" stop-color="#982182"/>
<stop offset="0.9341" stop-color="#D91D5F"/>
<stop offset="1" stop-color="#E01C5B"/>
</linearGradient>
<linearGradient id="paint33_linear_3920_6179" x1="152.04" y1="83.6753" x2="151.826" y2="83.6753" gradientUnits="userSpaceOnUse">
<stop stop-color="#0092DC"/>
<stop offset="0.3261" stop-color="#0888E4"/>
<stop offset="0.8825" stop-color="#1F6DFA"/>
<stop offset="1" stop-color="#2466FF"/>
</linearGradient>
<linearGradient id="paint34_linear_3920_6179" x1="155.627" y1="77.6029" x2="155.168" y2="77.6029" gradientUnits="userSpaceOnUse">
<stop stop-color="#7F2390"/>
<stop offset="0.2994" stop-color="#982182"/>
<stop offset="0.9341" stop-color="#D91D5F"/>
<stop offset="1" stop-color="#E01C5B"/>
</linearGradient>
<linearGradient id="paint35_linear_3920_6179" x1="153.166" y1="65.6729" x2="152.86" y2="65.6729" gradientUnits="userSpaceOnUse">
<stop stop-color="#948BE2"/>
<stop offset="0.3319" stop-color="#8A81DB"/>
<stop offset="0.8981" stop-color="#7066C7"/>
<stop offset="1" stop-color="#6A60C3"/>
</linearGradient>
<linearGradient id="paint36_linear_3920_6179" x1="162.379" y1="64.3465" x2="162.092" y2="64.3465" gradientUnits="userSpaceOnUse">
<stop stop-color="#0092DC"/>
<stop offset="0.3261" stop-color="#0888E4"/>
<stop offset="0.8825" stop-color="#1F6DFA"/>
<stop offset="1" stop-color="#2466FF"/>
</linearGradient>
<linearGradient id="paint37_linear_3920_6179" x1="169.174" y1="70.9265" x2="168.612" y2="70.9265" gradientUnits="userSpaceOnUse">
<stop stop-color="#7F2390"/>
<stop offset="0.2994" stop-color="#982182"/>
<stop offset="0.9341" stop-color="#D91D5F"/>
<stop offset="1" stop-color="#E01C5B"/>
</linearGradient>
<linearGradient id="paint38_linear_3920_6179" x1="163.807" y1="80.7008" x2="163.173" y2="80.7008" gradientUnits="userSpaceOnUse">
<stop stop-color="#948BE2"/>
<stop offset="0.3319" stop-color="#8A81DB"/>
<stop offset="0.8981" stop-color="#7066C7"/>
<stop offset="1" stop-color="#6A60C3"/>
</linearGradient>
<linearGradient id="paint39_linear_3920_6179" x1="167.948" y1="83.7477" x2="167.708" y2="83.7477" gradientUnits="userSpaceOnUse">
<stop stop-color="#FF5600"/>
<stop offset="0.1769" stop-color="#FF6000"/>
<stop offset="0.4798" stop-color="#FF7B00"/>
<stop offset="0.8695" stop-color="#FFA800"/>
<stop offset="1" stop-color="#FFB800"/>
</linearGradient>
<linearGradient id="paint40_linear_3920_6179" x1="168.545" y1="79.6853" x2="168.193" y2="79.6853" gradientUnits="userSpaceOnUse">
<stop stop-color="#0092DC"/>
<stop offset="0.2193" stop-color="#009CD4"/>
<stop offset="0.5944" stop-color="#00B7C0"/>
<stop offset="1" stop-color="#00DCA5"/>
</linearGradient>
<linearGradient id="paint41_linear_3920_6179" x1="163.489" y1="77.2116" x2="163.247" y2="77.2116" gradientUnits="userSpaceOnUse">
<stop stop-color="#0092DC"/>
<stop offset="0.3261" stop-color="#0888E4"/>
<stop offset="0.8825" stop-color="#1F6DFA"/>
<stop offset="1" stop-color="#2466FF"/>
</linearGradient>
<linearGradient id="paint42_linear_3920_6179" x1="159.444" y1="85.2493" x2="159.062" y2="85.2493" gradientUnits="userSpaceOnUse">
<stop stop-color="#7F2390"/>
<stop offset="0.2994" stop-color="#982182"/>
<stop offset="0.9341" stop-color="#D91D5F"/>
<stop offset="1" stop-color="#E01C5B"/>
</linearGradient>
<linearGradient id="paint43_linear_3920_6179" x1="169.559" y1="94.3964" x2="169.175" y2="94.3964" gradientUnits="userSpaceOnUse">
<stop stop-color="#0092DC"/>
<stop offset="0.2193" stop-color="#009CD4"/>
<stop offset="0.5944" stop-color="#00B7C0"/>
<stop offset="1" stop-color="#00DCA5"/>
</linearGradient>
<linearGradient id="paint44_linear_3920_6179" x1="172.768" y1="77.0011" x2="172.421" y2="77.0011" gradientUnits="userSpaceOnUse">
<stop stop-color="#7F2390"/>
<stop offset="0.2994" stop-color="#982182"/>
<stop offset="0.9341" stop-color="#D91D5F"/>
<stop offset="1" stop-color="#E01C5B"/>
</linearGradient>
<linearGradient id="paint45_linear_3920_6179" x1="150.291" y1="91.573" x2="150.033" y2="91.573" gradientUnits="userSpaceOnUse">
<stop stop-color="#0092DC"/>
<stop offset="0.3261" stop-color="#0888E4"/>
<stop offset="0.8825" stop-color="#1F6DFA"/>
<stop offset="1" stop-color="#2466FF"/>
</linearGradient>
<linearGradient id="paint46_linear_3920_6179" x1="155.017" y1="93.2757" x2="154.823" y2="93.2757" gradientUnits="userSpaceOnUse">
<stop stop-color="#FF5600"/>
<stop offset="0.1769" stop-color="#FF6000"/>
<stop offset="0.4798" stop-color="#FF7B00"/>
<stop offset="0.8695" stop-color="#FFA800"/>
<stop offset="1" stop-color="#FFB800"/>
</linearGradient>
<linearGradient id="paint47_linear_3920_6179" x1="153.572" y1="97.2254" x2="153.401" y2="97.2254" gradientUnits="userSpaceOnUse">
<stop stop-color="#0092DC"/>
<stop offset="0.3261" stop-color="#0888E4"/>
<stop offset="0.8825" stop-color="#1F6DFA"/>
<stop offset="1" stop-color="#2466FF"/>
</linearGradient>
<linearGradient id="paint48_linear_3920_6179" x1="159.136" y1="89.0185" x2="158.987" y2="89.0185" gradientUnits="userSpaceOnUse">
<stop stop-color="#7F2390"/>
<stop offset="0.2994" stop-color="#982182"/>
<stop offset="0.9341" stop-color="#D91D5F"/>
<stop offset="1" stop-color="#E01C5B"/>
</linearGradient>
<linearGradient id="paint49_linear_3920_6179" x1="155.416" y1="81.7965" x2="154.92" y2="81.7965" gradientUnits="userSpaceOnUse">
<stop stop-color="#0092DC"/>
<stop offset="0.3261" stop-color="#0888E4"/>
<stop offset="0.8825" stop-color="#1F6DFA"/>
<stop offset="1" stop-color="#2466FF"/>
</linearGradient>
<linearGradient id="paint50_linear_3920_6179" x1="148.735" y1="88.6237" x2="148.342" y2="88.6237" gradientUnits="userSpaceOnUse">
<stop stop-color="#948BE2"/>
<stop offset="0.3319" stop-color="#8A81DB"/>
<stop offset="0.8981" stop-color="#7066C7"/>
<stop offset="1" stop-color="#6A60C3"/>
</linearGradient>
<linearGradient id="paint51_linear_3920_6179" x1="142.325" y1="81.5213" x2="142.145" y2="81.5213" gradientUnits="userSpaceOnUse">
<stop stop-color="#7F2390"/>
<stop offset="0.2994" stop-color="#982182"/>
<stop offset="0.9341" stop-color="#D91D5F"/>
<stop offset="1" stop-color="#E01C5B"/>
</linearGradient>
<linearGradient id="paint52_linear_3920_6179" x1="137.296" y1="85.3623" x2="137.108" y2="85.3623" gradientUnits="userSpaceOnUse">
<stop stop-color="#948BE2"/>
<stop offset="0.3319" stop-color="#8A81DB"/>
<stop offset="0.8981" stop-color="#7066C7"/>
<stop offset="1" stop-color="#6A60C3"/>
</linearGradient>
<linearGradient id="paint53_linear_3920_6179" x1="108.809" y1="94.1806" x2="108.355" y2="94.1806" gradientUnits="userSpaceOnUse">
<stop stop-color="#0092DC"/>
<stop offset="0.3261" stop-color="#0888E4"/>
<stop offset="0.8825" stop-color="#1F6DFA"/>
<stop offset="1" stop-color="#2466FF"/>
</linearGradient>
<linearGradient id="paint54_linear_3920_6179" x1="138.688" y1="96.9055" x2="138.077" y2="96.9055" gradientUnits="userSpaceOnUse">
<stop stop-color="#0092DC"/>
<stop offset="0.2193" stop-color="#009CD4"/>
<stop offset="0.5944" stop-color="#00B7C0"/>
<stop offset="1" stop-color="#00DCA5"/>
</linearGradient>
<linearGradient id="paint55_linear_3920_6179" x1="142.371" y1="90.9368" x2="142.235" y2="90.9368" gradientUnits="userSpaceOnUse">
<stop stop-color="#0092DC"/>
<stop offset="0.3261" stop-color="#0888E4"/>
<stop offset="0.8825" stop-color="#1F6DFA"/>
<stop offset="1" stop-color="#2466FF"/>
</linearGradient>
<linearGradient id="paint56_linear_3920_6179" x1="138.847" y1="88.7579" x2="138.588" y2="88.7579" gradientUnits="userSpaceOnUse">
<stop stop-color="#FF5600"/>
<stop offset="0.1769" stop-color="#FF6000"/>
<stop offset="0.4798" stop-color="#FF7B00"/>
<stop offset="0.8695" stop-color="#FFA800"/>
<stop offset="1" stop-color="#FFB800"/>
</linearGradient>
<linearGradient id="paint57_linear_3920_6179" x1="118.545" y1="92.64" x2="118.157" y2="92.64" gradientUnits="userSpaceOnUse">
<stop stop-color="#7F2390"/>
<stop offset="0.2994" stop-color="#982182"/>
<stop offset="0.9341" stop-color="#D91D5F"/>
<stop offset="1" stop-color="#E01C5B"/>
</linearGradient>
<linearGradient id="paint58_linear_3920_6179" x1="134.764" y1="95.0365" x2="134.344" y2="95.0365" gradientUnits="userSpaceOnUse">
<stop stop-color="#0092DC"/>
<stop offset="0.3261" stop-color="#0888E4"/>
<stop offset="0.8825" stop-color="#1F6DFA"/>
<stop offset="1" stop-color="#2466FF"/>
</linearGradient>
<linearGradient id="paint59_linear_3920_6179" x1="125.603" y1="94.3958" x2="125.154" y2="94.3958" gradientUnits="userSpaceOnUse">
<stop stop-color="#FF4856"/>
<stop offset="0.162" stop-color="#FF5260"/>
<stop offset="0.4393" stop-color="#FF6D79"/>
<stop offset="0.796" stop-color="#FF9AA3"/>
<stop offset="1" stop-color="#FFB6BE"/>
</linearGradient>
<linearGradient id="paint60_linear_3920_6179" x1="128.406" y1="87.9749" x2="128.224" y2="87.9749" gradientUnits="userSpaceOnUse">
<stop stop-color="#0092DC"/>
<stop offset="0.3261" stop-color="#0888E4"/>
<stop offset="0.8825" stop-color="#1F6DFA"/>
<stop offset="1" stop-color="#2466FF"/>
</linearGradient>
<linearGradient id="paint61_linear_3920_6179" x1="130.153" y1="88.118" x2="129.673" y2="88.118" gradientUnits="userSpaceOnUse">
<stop stop-color="#7F2390"/>
<stop offset="0.2994" stop-color="#982182"/>
<stop offset="0.9341" stop-color="#D91D5F"/>
<stop offset="1" stop-color="#E01C5B"/>
</linearGradient>
<linearGradient id="paint62_linear_3920_6179" x1="137.212" y1="89.4199" x2="137" y2="89.4199" gradientUnits="userSpaceOnUse">
<stop stop-color="#0092DC"/>
<stop offset="0.3261" stop-color="#0888E4"/>
<stop offset="0.8825" stop-color="#1F6DFA"/>
<stop offset="1" stop-color="#2466FF"/>
</linearGradient>
<linearGradient id="paint63_linear_3920_6179" x1="131.151" y1="81.6567" x2="130.841" y2="81.6567" gradientUnits="userSpaceOnUse">
<stop stop-color="#FF5600"/>
<stop offset="0.1769" stop-color="#FF6000"/>
<stop offset="0.4798" stop-color="#FF7B00"/>
<stop offset="0.8695" stop-color="#FFA800"/>
<stop offset="1" stop-color="#FFB800"/>
</linearGradient>
<linearGradient id="paint64_linear_3920_6179" x1="129.898" y1="65.5779" x2="129.794" y2="65.5779" gradientUnits="userSpaceOnUse">
<stop stop-color="#0092DC"/>
<stop offset="0.3261" stop-color="#0888E4"/>
<stop offset="0.8825" stop-color="#1F6DFA"/>
<stop offset="1" stop-color="#2466FF"/>
</linearGradient>
<linearGradient id="paint65_linear_3920_6179" x1="122.823" y1="61.6776" x2="122.662" y2="61.6776" gradientUnits="userSpaceOnUse">
<stop stop-color="#0092DC"/>
<stop offset="0.3261" stop-color="#0888E4"/>
<stop offset="0.8825" stop-color="#1F6DFA"/>
<stop offset="1" stop-color="#2466FF"/>
</linearGradient>
<linearGradient id="paint66_linear_3920_6179" x1="120.744" y1="65.2554" x2="120.327" y2="65.2554" gradientUnits="userSpaceOnUse">
<stop stop-color="#7F2390"/>
<stop offset="0.2994" stop-color="#982182"/>
<stop offset="0.9341" stop-color="#D91D5F"/>
<stop offset="1" stop-color="#E01C5B"/>
</linearGradient>
<linearGradient id="paint67_linear_3920_6179" x1="115.332" y1="64.7388" x2="115.074" y2="64.7388" gradientUnits="userSpaceOnUse">
<stop stop-color="#FF5600"/>
<stop offset="0.1769" stop-color="#FF6000"/>
<stop offset="0.4798" stop-color="#FF7B00"/>
<stop offset="0.8695" stop-color="#FFA800"/>
<stop offset="1" stop-color="#FFB800"/>
</linearGradient>
<linearGradient id="paint68_linear_3920_6179" x1="107.174" y1="64.9038" x2="106.632" y2="64.9038" gradientUnits="userSpaceOnUse">
<stop stop-color="#0092DC"/>
<stop offset="0.2193" stop-color="#009CD4"/>
<stop offset="0.5944" stop-color="#00B7C0"/>
<stop offset="1" stop-color="#00DCA5"/>
</linearGradient>
<linearGradient id="paint69_linear_3920_6179" x1="110.269" y1="78.2351" x2="110.15" y2="78.2351" gradientUnits="userSpaceOnUse">
<stop stop-color="#0092DC"/>
<stop offset="0.3261" stop-color="#0888E4"/>
<stop offset="0.8825" stop-color="#1F6DFA"/>
<stop offset="1" stop-color="#2466FF"/>
</linearGradient>
<linearGradient id="paint70_linear_3920_6179" x1="116.222" y1="78.0035" x2="115.808" y2="78.0035" gradientUnits="userSpaceOnUse">
<stop stop-color="#FF5600"/>
<stop offset="0.1769" stop-color="#FF6000"/>
<stop offset="0.4798" stop-color="#FF7B00"/>
<stop offset="0.8695" stop-color="#FFA800"/>
<stop offset="1" stop-color="#FFB800"/>
</linearGradient>
<linearGradient id="paint71_linear_3920_6179" x1="118.106" y1="81.1491" x2="117.691" y2="81.1491" gradientUnits="userSpaceOnUse">
<stop stop-color="#7F2390"/>
<stop offset="0.2994" stop-color="#982182"/>
<stop offset="0.9341" stop-color="#D91D5F"/>
<stop offset="1" stop-color="#E01C5B"/>
</linearGradient>
<linearGradient id="paint72_linear_3920_6179" x1="113.825" y1="66.4002" x2="113.271" y2="66.4002" gradientUnits="userSpaceOnUse">
<stop stop-color="#0092DC"/>
<stop offset="0.2193" stop-color="#009CD4"/>
<stop offset="0.5944" stop-color="#00B7C0"/>
<stop offset="1" stop-color="#00DCA5"/>
</linearGradient>
<linearGradient id="paint73_linear_3920_6179" x1="112.608" y1="76.4921" x2="112.265" y2="76.4921" gradientUnits="userSpaceOnUse">
<stop stop-color="#948BE2"/>
<stop offset="0.3319" stop-color="#8A81DB"/>
<stop offset="0.8981" stop-color="#7066C7"/>
<stop offset="1" stop-color="#6A60C3"/>
</linearGradient>
<linearGradient id="paint74_linear_3920_6179" x1="109.37" y1="87.4263" x2="108.989" y2="87.4263" gradientUnits="userSpaceOnUse">
<stop stop-color="#0092DC"/>
<stop offset="0.3261" stop-color="#0888E4"/>
<stop offset="0.8825" stop-color="#1F6DFA"/>
<stop offset="1" stop-color="#2466FF"/>
</linearGradient>
<linearGradient id="paint75_linear_3920_6179" x1="113.878" y1="81.7964" x2="113.219" y2="81.7964" gradientUnits="userSpaceOnUse">
<stop stop-color="#948BE2"/>
<stop offset="0.3319" stop-color="#8A81DB"/>
<stop offset="0.8981" stop-color="#7066C7"/>
<stop offset="1" stop-color="#6A60C3"/>
</linearGradient>
<linearGradient id="paint76_linear_3920_6179" x1="118.782" y1="89.3943" x2="118.451" y2="89.3943" gradientUnits="userSpaceOnUse">
<stop stop-color="#0092DC"/>
<stop offset="0.2193" stop-color="#009CD4"/>
<stop offset="0.5944" stop-color="#00B7C0"/>
<stop offset="1" stop-color="#00DCA5"/>
</linearGradient>
<linearGradient id="paint77_linear_3920_6179" x1="119.783" y1="85.4664" x2="119.432" y2="85.4664" gradientUnits="userSpaceOnUse">
<stop stop-color="#0092DC"/>
<stop offset="0.3261" stop-color="#0888E4"/>
<stop offset="0.8825" stop-color="#1F6DFA"/>
<stop offset="1" stop-color="#2466FF"/>
</linearGradient>
<linearGradient id="paint78_linear_3920_6179" x1="125.972" y1="78.7017" x2="125.783" y2="78.7017" gradientUnits="userSpaceOnUse">
<stop stop-color="#0092DC"/>
<stop offset="0.3261" stop-color="#0888E4"/>
<stop offset="0.8825" stop-color="#1F6DFA"/>
<stop offset="1" stop-color="#2466FF"/>
</linearGradient>
<linearGradient id="paint79_linear_3920_6179" x1="117.347" y1="72.5144" x2="116.736" y2="72.5144" gradientUnits="userSpaceOnUse">
<stop stop-color="#0092DC"/>
<stop offset="0.3261" stop-color="#0888E4"/>
<stop offset="0.8825" stop-color="#1F6DFA"/>
<stop offset="1" stop-color="#2466FF"/>
</linearGradient>
<linearGradient id="paint80_linear_3920_6179" x1="145.516" y1="78.2335" x2="145.116" y2="78.2335" gradientUnits="userSpaceOnUse">
<stop stop-color="#948BE2"/>
<stop offset="0.3319" stop-color="#8A81DB"/>
<stop offset="0.8981" stop-color="#7066C7"/>
<stop offset="1" stop-color="#6A60C3"/>
</linearGradient>
<linearGradient id="paint81_linear_3920_6179" x1="133.242" y1="67.6467" x2="133.017" y2="67.6467" gradientUnits="userSpaceOnUse">
<stop stop-color="#FF5600"/>
<stop offset="0.1769" stop-color="#FF6000"/>
<stop offset="0.4798" stop-color="#FF7B00"/>
<stop offset="0.8695" stop-color="#FFA800"/>
<stop offset="1" stop-color="#FFB800"/>
</linearGradient>
<linearGradient id="paint82_linear_3920_6179" x1="162.426" y1="69.0347" x2="162.299" y2="69.0347" gradientUnits="userSpaceOnUse">
<stop stop-color="#0092DC"/>
<stop offset="0.3261" stop-color="#0888E4"/>
<stop offset="0.8825" stop-color="#1F6DFA"/>
<stop offset="1" stop-color="#2466FF"/>
</linearGradient>
<linearGradient id="paint83_linear_3920_6179" x1="158.326" y1="67.1453" x2="157.876" y2="67.1453" gradientUnits="userSpaceOnUse">
<stop stop-color="#CE38BF"/>
<stop offset="0.7261" stop-color="#E051CA"/>
<stop offset="1" stop-color="#E85CCF"/>
</linearGradient>
<linearGradient id="paint84_linear_3920_6179" x1="153.742" y1="69.0334" x2="153.487" y2="69.0334" gradientUnits="userSpaceOnUse">
<stop stop-color="#7F2390"/>
<stop offset="0.2994" stop-color="#982182"/>
<stop offset="0.9341" stop-color="#D91D5F"/>
<stop offset="1" stop-color="#E01C5B"/>
</linearGradient>
<linearGradient id="paint85_linear_3920_6179" x1="152.324" y1="74.1057" x2="151.984" y2="74.1057" gradientUnits="userSpaceOnUse">
<stop stop-color="#0092DC"/>
<stop offset="0.3261" stop-color="#0888E4"/>
<stop offset="0.8825" stop-color="#1F6DFA"/>
<stop offset="1" stop-color="#2466FF"/>
</linearGradient>
<linearGradient id="paint86_linear_3920_6179" x1="143.049" y1="70.2964" x2="142.848" y2="70.2964" gradientUnits="userSpaceOnUse">
<stop stop-color="#0092DC"/>
<stop offset="0.3261" stop-color="#0888E4"/>
<stop offset="0.8825" stop-color="#1F6DFA"/>
<stop offset="1" stop-color="#2466FF"/>
</linearGradient>
<linearGradient id="paint87_linear_3920_6179" x1="134.865" y1="88.7579" x2="134.529" y2="88.7579" gradientUnits="userSpaceOnUse">
<stop stop-color="#0092DC"/>
<stop offset="0.2193" stop-color="#009CD4"/>
<stop offset="0.5944" stop-color="#00B7C0"/>
<stop offset="1" stop-color="#00DCA5"/>
</linearGradient>
<linearGradient id="paint88_linear_3920_6179" x1="147.507" y1="83.7474" x2="146.997" y2="83.7474" gradientUnits="userSpaceOnUse">
<stop stop-color="#0092DC"/>
<stop offset="0.3261" stop-color="#0888E4"/>
<stop offset="0.8825" stop-color="#1F6DFA"/>
<stop offset="1" stop-color="#2466FF"/>
</linearGradient>
<linearGradient id="paint89_linear_3920_6179" x1="130.334" y1="59.1687" x2="130.007" y2="59.1687" gradientUnits="userSpaceOnUse">
<stop stop-color="#7F2390"/>
<stop offset="0.2994" stop-color="#982182"/>
<stop offset="0.9341" stop-color="#D91D5F"/>
<stop offset="1" stop-color="#E01C5B"/>
</linearGradient>
<linearGradient id="paint90_linear_3920_6179" x1="125.456" y1="73.4088" x2="127.916" y2="78.2008" gradientUnits="userSpaceOnUse">
<stop stop-color="#948BE2"/>
<stop offset="0.3319" stop-color="#8A81DB"/>
<stop offset="0.8981" stop-color="#7066C7"/>
<stop offset="1" stop-color="#6A60C3"/>
</linearGradient>
<linearGradient id="paint91_linear_3920_6179" x1="154.233" y1="84.4151" x2="154.004" y2="85.1942" gradientUnits="userSpaceOnUse">
<stop stop-color="#7E4FFF"/>
<stop offset="1" stop-color="#F211B4"/>
</linearGradient>
<linearGradient id="paint92_linear_3920_6179" x1="123.136" y1="68.2529" x2="123.608" y2="67.3368" gradientUnits="userSpaceOnUse">
<stop stop-color="#0092DC"/>
<stop offset="0.3261" stop-color="#0888E4"/>
<stop offset="0.8825" stop-color="#1F6DFA"/>
<stop offset="1" stop-color="#2466FF"/>
</linearGradient>
<linearGradient id="paint93_linear_3920_6179" x1="145.081" y1="87.1804" x2="144.091" y2="87.5419" gradientUnits="userSpaceOnUse">
<stop stop-color="#948BE2"/>
<stop offset="0.3319" stop-color="#8A81DB"/>
<stop offset="0.8981" stop-color="#7066C7"/>
<stop offset="1" stop-color="#6A60C3"/>
</linearGradient>
<linearGradient id="paint94_linear_3920_6179" x1="138.434" y1="67.3832" x2="137.845" y2="66.5087" gradientUnits="userSpaceOnUse">
<stop stop-color="#948BE2"/>
<stop offset="0.3319" stop-color="#8A81DB"/>
<stop offset="0.8981" stop-color="#7066C7"/>
<stop offset="1" stop-color="#6A60C3"/>
</linearGradient>
<linearGradient id="paint95_linear_3920_6179" x1="136.137" y1="85.0015" x2="136.251" y2="85.7736" gradientUnits="userSpaceOnUse">
<stop stop-color="#7E4FFF"/>
<stop offset="1" stop-color="#F211B4"/>
</linearGradient>
<linearGradient id="paint96_linear_3920_6179" x1="135.215" y1="74.4803" x2="134.655" y2="74.3048" gradientUnits="userSpaceOnUse">
<stop stop-color="#61D3D7"/>
<stop offset="0.2216" stop-color="#57CFD7"/>
<stop offset="0.6006" stop-color="#3CC6D5"/>
<stop offset="1" stop-color="#18B9D4"/>
</linearGradient>
<linearGradient id="paint97_linear_3920_6179" x1="156.654" y1="71.7924" x2="156.566" y2="72.8429" gradientUnits="userSpaceOnUse">
<stop stop-color="#7F2390"/>
<stop offset="0.2994" stop-color="#982182"/>
<stop offset="0.9341" stop-color="#D91D5F"/>
<stop offset="1" stop-color="#E01C5B"/>
</linearGradient>
<linearGradient id="paint98_linear_3920_6179" x1="105.713" y1="78.9464" x2="105.858" y2="79.9905" gradientUnits="userSpaceOnUse">
<stop stop-color="#61D3D7"/>
<stop offset="0.2216" stop-color="#57CFD7"/>
<stop offset="0.6006" stop-color="#3CC6D5"/>
<stop offset="1" stop-color="#18B9D4"/>
</linearGradient>
<linearGradient id="paint99_linear_3920_6179" x1="111.414" y1="68.6419" x2="110.861" y2="69.2553" gradientUnits="userSpaceOnUse">
<stop stop-color="#0092DC"/>
<stop offset="0.3261" stop-color="#0888E4"/>
<stop offset="0.8825" stop-color="#1F6DFA"/>
<stop offset="1" stop-color="#2466FF"/>
</linearGradient>
<linearGradient id="paint100_linear_3920_6179" x1="164.379" y1="72.902" x2="164.943" y2="73.5046" gradientUnits="userSpaceOnUse">
<stop stop-color="#0092DC"/>
<stop offset="0.2193" stop-color="#009CD4"/>
<stop offset="0.5944" stop-color="#00B7C0"/>
<stop offset="1" stop-color="#00DCA5"/>
</linearGradient>
<linearGradient id="paint101_linear_3920_6179" x1="141.039" y1="78.0035" x2="140.79" y2="78.0035" gradientUnits="userSpaceOnUse">
<stop stop-color="#0092DC"/>
<stop offset="0.3261" stop-color="#0888E4"/>
<stop offset="0.8825" stop-color="#1F6DFA"/>
<stop offset="1" stop-color="#2466FF"/>
</linearGradient>
<linearGradient id="paint102_linear_3920_6179" x1="140.112" y1="87.5299" x2="139.761" y2="87.5299" gradientUnits="userSpaceOnUse">
<stop stop-color="#0092DC"/>
<stop offset="0.3261" stop-color="#0888E4"/>
<stop offset="0.8825" stop-color="#1F6DFA"/>
<stop offset="1" stop-color="#2466FF"/>
</linearGradient>
<linearGradient id="paint103_linear_3920_6179" x1="138.952" y1="84.1188" x2="138.815" y2="84.1188" gradientUnits="userSpaceOnUse">
<stop stop-color="#0092DC"/>
<stop offset="0.3261" stop-color="#0888E4"/>
<stop offset="0.8825" stop-color="#1F6DFA"/>
<stop offset="1" stop-color="#2466FF"/>
</linearGradient>
<linearGradient id="paint104_linear_3920_6179" x1="123.066" y1="86.0147" x2="122.743" y2="86.0147" gradientUnits="userSpaceOnUse">
<stop stop-color="#0092DC"/>
<stop offset="0.2193" stop-color="#009CD4"/>
<stop offset="0.5944" stop-color="#00B7C0"/>
<stop offset="1" stop-color="#00DCA5"/>
</linearGradient>
<linearGradient id="paint105_linear_3920_6179" x1="96.382" y1="95.9206" x2="130.811" y2="85.4923" gradientUnits="userSpaceOnUse">
<stop stop-color="#7E4FFF"/>
<stop offset="1" stop-color="#F211B4"/>
</linearGradient>
<linearGradient id="paint106_linear_3920_6179" x1="150.619" y1="75.4583" x2="182.367" y2="71.9187" gradientUnits="userSpaceOnUse">
<stop stop-color="#61D3D7"/>
<stop offset="0.2216" stop-color="#57CFD7"/>
<stop offset="0.6006" stop-color="#3CC6D5"/>
<stop offset="1" stop-color="#18B9D4"/>
</linearGradient>
<linearGradient id="paint107_linear_3920_6179" x1="111.423" y1="62.7931" x2="133.02" y2="62.7931" gradientUnits="userSpaceOnUse">
<stop stop-color="#E55724"/>
<stop offset="0.2438" stop-color="#E9701D"/>
<stop offset="0.7602" stop-color="#F2B109"/>
<stop offset="1" stop-color="#F7D100"/>
</linearGradient>
<linearGradient id="paint108_linear_3920_6179" x1="145.814" y1="92.7932" x2="167.571" y2="92.7932" gradientUnits="userSpaceOnUse">
<stop stop-color="#948BE2"/>
<stop offset="0.3319" stop-color="#8A81DB"/>
<stop offset="0.8981" stop-color="#7066C7"/>
<stop offset="1" stop-color="#6A60C3"/>
</linearGradient>
<linearGradient id="paint109_linear_3920_6179" x1="142.394" y1="62.7931" x2="158.206" y2="62.7931" gradientUnits="userSpaceOnUse">
<stop stop-color="#7E4FFF"/>
<stop offset="1" stop-color="#F211B4"/>
</linearGradient>
<clipPath id="clip0_3920_6179">
<rect width="44" height="44" fill="white" transform="translate(117 56.5)"/>
</clipPath>
</defs>
</svg>


