<svg width="217" height="36" viewBox="0 0 217 36" fill="none" xmlns="http://www.w3.org/2000/svg">
<rect width="217" height="36" rx="4" fill="#0091D7"/>
<path d="M73.9386 23H71.8331L67.7179 15.8428V23H65.756V12.9238H67.964L71.9767 19.958V12.9238H73.9386V23ZM82.1281 20.8125C82.0779 21.2546 81.8478 21.7035 81.4376 22.1592C80.7996 22.8838 79.9064 23.2461 78.7579 23.2461C77.81 23.2461 76.9738 22.9408 76.2491 22.3301C75.5245 21.7194 75.1622 20.7259 75.1622 19.3496C75.1622 18.0599 75.4881 17.071 76.1398 16.3828C76.796 15.6947 77.646 15.3506 78.6896 15.3506C79.3094 15.3506 79.8676 15.4668 80.3644 15.6992C80.8611 15.9316 81.2713 16.2985 81.5948 16.7998C81.8865 17.2419 82.0756 17.7546 82.1622 18.3379C82.2124 18.6797 82.2329 19.1719 82.2238 19.8145H77.1241C77.1515 20.5618 77.3862 21.0859 77.8282 21.3867C78.0971 21.5736 78.4207 21.667 78.799 21.667C79.2 21.667 79.5258 21.5531 79.7765 21.3252C79.9132 21.2021 80.034 21.0312 80.1388 20.8125H82.1281ZM80.2003 18.5293C80.1684 18.0143 80.0112 17.6247 79.7286 17.3604C79.4506 17.0915 79.1043 16.957 78.6896 16.957C78.2384 16.957 77.8875 17.0983 77.6368 17.3809C77.3907 17.6634 77.2358 18.0462 77.172 18.5293H80.2003ZM90.1808 23H87.754L86.4689 20.7646L85.1769 23H82.8116L85.3546 19.2266L82.921 15.5625H85.3068L86.5509 17.7227L87.7677 15.5625H90.0851L87.6378 19.1924L90.1808 23ZM94.7472 21.6123V23.0684L93.8243 23.1025C92.9038 23.1344 92.2749 22.9749 91.9376 22.624C91.7189 22.4007 91.6095 22.0566 91.6095 21.5918V17.0049H90.5704V15.6172H91.6095V13.5391H93.5372V15.6172H94.7472V17.0049H93.5372V20.9424C93.5372 21.2477 93.576 21.4391 93.6534 21.5166C93.7309 21.5895 93.9679 21.626 94.3644 21.626C94.4236 21.626 94.4851 21.626 94.549 21.626C94.6173 21.6214 94.6834 21.6169 94.7472 21.6123ZM107.373 12.9238V14.708H104.359V23H102.239V14.708H99.2111V12.9238H107.373ZM110.21 15.5488V23H108.234V15.5488H110.21ZM110.21 12.8623V14.6602H108.234V12.8623H110.21ZM118.345 16.3486C118.946 16.9912 119.247 17.9346 119.247 19.1787C119.247 20.4912 118.951 21.4915 118.359 22.1797C117.771 22.8678 117.012 23.2119 116.082 23.2119C115.49 23.2119 114.998 23.0638 114.606 22.7676C114.391 22.6035 114.182 22.3643 113.977 22.0498V25.9326H112.049V15.5488H113.915V16.6494C114.125 16.3258 114.348 16.0706 114.585 15.8838C115.018 15.5511 115.533 15.3848 116.13 15.3848C117 15.3848 117.739 15.7061 118.345 16.3486ZM117.237 19.2744C117.237 18.7002 117.105 18.1921 116.841 17.75C116.581 17.3079 116.157 17.0869 115.569 17.0869C114.863 17.0869 114.378 17.4219 114.113 18.0918C113.977 18.4473 113.908 18.8984 113.908 19.4453C113.908 20.3112 114.138 20.9196 114.599 21.2705C114.872 21.4756 115.196 21.5781 115.569 21.5781C116.112 21.5781 116.524 21.3685 116.807 20.9492C117.094 20.5299 117.237 19.9717 117.237 19.2744ZM126.698 25.8232L126.213 25.1602C125.899 24.7591 125.564 24.1621 125.208 23.3691C124.575 21.9518 124.258 20.5573 124.258 19.1855C124.258 17.9368 124.525 16.6973 125.058 15.4668C125.418 14.6283 125.944 13.7259 126.637 12.7598H128.107L127.69 13.5254C127.115 14.5781 126.717 15.681 126.493 16.834C126.347 17.5905 126.275 18.4154 126.275 19.3086C126.275 20.7031 126.477 21.986 126.883 23.1572C127.12 23.8499 127.539 24.7386 128.141 25.8232H126.698ZM133.609 23H131.613V16.1641H129.282V14.8379C129.898 14.8105 130.328 14.7695 130.574 14.7148C130.966 14.6283 131.285 14.4551 131.531 14.1953C131.7 14.0176 131.828 13.7806 131.914 13.4844C131.964 13.3066 131.989 13.1745 131.989 13.0879H133.609V23ZM135.339 23L139.242 12.6162H140.862L136.945 23H135.339ZM142.681 15.0635C142.462 15.3551 142.357 15.7448 142.366 16.2324H140.548C140.566 15.7402 140.651 15.2731 140.801 14.8311C140.96 14.4437 141.211 14.0859 141.553 13.7578C141.808 13.5254 142.111 13.3477 142.462 13.2246C142.813 13.1016 143.244 13.04 143.754 13.04C144.702 13.04 145.465 13.2861 146.044 13.7783C146.627 14.266 146.919 14.9222 146.919 15.7471C146.919 16.3304 146.746 16.8226 146.4 17.2236C146.181 17.4743 145.953 17.6452 145.716 17.7363C145.894 17.7363 146.149 17.889 146.482 18.1943C146.978 18.6546 147.227 19.2835 147.227 20.0811C147.227 20.9196 146.935 21.6579 146.352 22.2959C145.773 22.9294 144.914 23.2461 143.775 23.2461C142.371 23.2461 141.396 22.7881 140.849 21.8721C140.562 21.3844 140.402 20.7464 140.37 19.958H142.284C142.284 20.3545 142.348 20.6826 142.476 20.9424C142.713 21.4209 143.143 21.6602 143.768 21.6602C144.151 21.6602 144.483 21.5303 144.766 21.2705C145.053 21.0062 145.196 20.6279 145.196 20.1357C145.196 19.484 144.932 19.0488 144.403 18.8301C144.103 18.707 143.629 18.6455 142.982 18.6455V17.251C143.615 17.2419 144.057 17.1803 144.308 17.0664C144.741 16.875 144.957 16.4876 144.957 15.9043C144.957 15.526 144.845 15.2184 144.622 14.9814C144.403 14.7445 144.094 14.626 143.693 14.626C143.232 14.626 142.895 14.7718 142.681 15.0635ZM149.865 25.1602L149.38 25.8232H147.938C148.539 24.7386 148.958 23.8499 149.195 23.1572C149.601 21.986 149.804 20.7031 149.804 19.3086C149.804 18.4154 149.731 17.5905 149.585 16.834C149.362 15.681 148.963 14.5781 148.389 13.5254L147.972 12.7598H149.442C150.134 13.7259 150.661 14.6283 151.021 15.4668C151.554 16.6973 151.82 17.9368 151.82 19.1855C151.82 20.5573 151.504 21.9518 150.87 23.3691C150.515 24.1621 150.18 24.7591 149.865 25.1602Z" fill="white"/>
<path d="M196 12L202 18L196 24" stroke="white" stroke-width="2" stroke-linecap="round" stroke-linejoin="round"/>
</svg>


