<svg width="217" height="36" viewBox="0 0 217 36" fill="none" xmlns="http://www.w3.org/2000/svg">
<rect width="217" height="36" rx="4" fill="#EDEFF0"/>
<path d="M102.622 23H100.517L96.4014 15.8428V23H94.4395V12.9238H96.6475L100.66 19.958V12.9238H102.622V23ZM110.812 20.8125C110.761 21.2546 110.531 21.7035 110.121 22.1592C109.483 22.8838 108.59 23.2461 107.441 23.2461C106.493 23.2461 105.657 22.9408 104.933 22.3301C104.208 21.7194 103.846 20.7259 103.846 19.3496C103.846 18.0599 104.172 17.071 104.823 16.3828C105.479 15.6947 106.329 15.3506 107.373 15.3506C107.993 15.3506 108.551 15.4668 109.048 15.6992C109.545 15.9316 109.955 16.2985 110.278 16.7998C110.57 17.2419 110.759 17.7546 110.846 18.3379C110.896 18.6797 110.916 19.1719 110.907 19.8145H105.808C105.835 20.5618 106.07 21.0859 106.512 21.3867C106.781 21.5736 107.104 21.667 107.482 21.667C107.883 21.667 108.209 21.5531 108.46 21.3252C108.597 21.2021 108.717 21.0312 108.822 20.8125H110.812ZM108.884 18.5293C108.852 18.0143 108.695 17.6247 108.412 17.3604C108.134 17.0915 107.788 16.957 107.373 16.957C106.922 16.957 106.571 17.0983 106.32 17.3809C106.074 17.6634 105.919 18.0462 105.855 18.5293H108.884ZM118.864 23H116.438L115.152 20.7646L113.86 23H111.495L114.038 19.2266L111.604 15.5625H113.99L115.234 17.7227L116.451 15.5625H118.769L116.321 19.1924L118.864 23ZM123.431 21.6123V23.0684L122.508 23.1025C121.587 23.1344 120.958 22.9749 120.621 22.624C120.402 22.4007 120.293 22.0566 120.293 21.5918V17.0049H119.254V15.6172H120.293V13.5391H122.221V15.6172H123.431V17.0049H122.221V20.9424C122.221 21.2477 122.259 21.4391 122.337 21.5166C122.414 21.5895 122.651 21.626 123.048 21.626C123.107 21.626 123.169 21.626 123.232 21.626C123.301 21.6214 123.367 21.6169 123.431 21.6123Z" fill="#888888"/>
<path d="M196 12L202 18L196 24" stroke="#888888" stroke-width="2" stroke-linecap="round" stroke-linejoin="round"/>
</svg>


