<svg width="217" height="36" viewBox="0 0 217 36" fill="none" xmlns="http://www.w3.org/2000/svg">
<rect width="217" height="36" rx="4" fill="#0091D7"/>
<path d="M86.2707 23H84.1652L80.05 15.8428V23H78.088V12.9238H80.2961L84.3087 19.958V12.9238H86.2707V23ZM94.4601 20.8125C94.41 21.2546 94.1798 21.7035 93.7697 22.1592C93.1317 22.8838 92.2384 23.2461 91.09 23.2461C90.1421 23.2461 89.3058 22.9408 88.5812 22.3301C87.8566 21.7194 87.4943 20.7259 87.4943 19.3496C87.4943 18.0599 87.8201 17.071 88.4718 16.3828C89.1281 15.6947 89.978 15.3506 91.0216 15.3506C91.6414 15.3506 92.1997 15.4668 92.6964 15.6992C93.1932 15.9316 93.6033 16.2985 93.9269 16.7998C94.2186 17.2419 94.4077 17.7546 94.4943 18.3379C94.5444 18.6797 94.5649 19.1719 94.5558 19.8145H89.4562C89.4836 20.5618 89.7183 21.0859 90.1603 21.3867C90.4292 21.5736 90.7528 21.667 91.131 21.667C91.5321 21.667 91.8579 21.5531 92.1086 21.3252C92.2453 21.2021 92.366 21.0312 92.4709 20.8125H94.4601ZM92.5324 18.5293C92.5005 18.0143 92.3433 17.6247 92.0607 17.3604C91.7827 17.0915 91.4364 16.957 91.0216 16.957C90.5705 16.957 90.2196 17.0983 89.9689 17.3809C89.7228 17.6634 89.5679 18.0462 89.5041 18.5293H92.5324ZM102.513 23H100.086L98.8009 20.7646L97.5089 23H95.1437L97.6867 19.2266L95.2531 15.5625H97.6388L98.883 17.7227L100.1 15.5625H102.417L99.9699 19.1924L102.513 23ZM107.079 21.6123V23.0684L106.156 23.1025C105.236 23.1344 104.607 22.9749 104.27 22.624C104.051 22.4007 103.942 22.0566 103.942 21.5918V17.0049H102.902V15.6172H103.942V13.5391H105.869V15.6172H107.079V17.0049H105.869V20.9424C105.869 21.2477 105.908 21.4391 105.986 21.5166C106.063 21.5895 106.3 21.626 106.696 21.626C106.756 21.626 106.817 21.626 106.881 21.626C106.949 21.6214 107.015 21.6169 107.079 21.6123ZM114.366 25.8232L113.881 25.1602C113.567 24.7591 113.232 24.1621 112.876 23.3691C112.243 21.9518 111.926 20.5573 111.926 19.1855C111.926 17.9368 112.193 16.6973 112.726 15.4668C113.086 14.6283 113.612 13.7259 114.305 12.7598H115.775L115.358 13.5254C114.783 14.5781 114.385 15.681 114.161 16.834C114.015 17.5905 113.943 18.4154 113.943 19.3086C113.943 20.7031 114.145 21.986 114.551 23.1572C114.788 23.8499 115.207 24.7386 115.809 25.8232H114.366ZM118.659 15.0635C118.441 15.3551 118.336 15.7448 118.345 16.2324H116.527C116.545 15.7402 116.629 15.2731 116.779 14.8311C116.939 14.4437 117.19 14.0859 117.531 13.7578C117.787 13.5254 118.09 13.3477 118.441 13.2246C118.791 13.1016 119.222 13.04 119.733 13.04C120.68 13.04 121.444 13.2861 122.023 13.7783C122.606 14.266 122.898 14.9222 122.898 15.7471C122.898 16.3304 122.724 16.8226 122.378 17.2236C122.159 17.4743 121.931 17.6452 121.694 17.7363C121.872 17.7363 122.127 17.889 122.46 18.1943C122.957 18.6546 123.205 19.2835 123.205 20.0811C123.205 20.9196 122.914 21.6579 122.33 22.2959C121.751 22.9294 120.892 23.2461 119.753 23.2461C118.349 23.2461 117.374 22.7881 116.827 21.8721C116.54 21.3844 116.381 20.7464 116.349 19.958H118.263C118.263 20.3545 118.327 20.6826 118.454 20.9424C118.691 21.4209 119.122 21.6602 119.746 21.6602C120.129 21.6602 120.462 21.5303 120.744 21.2705C121.031 21.0062 121.175 20.6279 121.175 20.1357C121.175 19.484 120.911 19.0488 120.382 18.8301C120.081 18.707 119.607 18.6455 118.96 18.6455V17.251C119.594 17.2419 120.036 17.1803 120.286 17.0664C120.719 16.875 120.936 16.4876 120.936 15.9043C120.936 15.526 120.824 15.2184 120.601 14.9814C120.382 14.7445 120.072 14.626 119.671 14.626C119.211 14.626 118.874 14.7718 118.659 15.0635ZM123.007 23L126.91 12.6162H128.53L124.613 23H123.007ZM130.349 15.0635C130.13 15.3551 130.025 15.7448 130.034 16.2324H128.216C128.234 15.7402 128.319 15.2731 128.469 14.8311C128.628 14.4437 128.879 14.0859 129.221 13.7578C129.476 13.5254 129.779 13.3477 130.13 13.2246C130.481 13.1016 130.912 13.04 131.422 13.04C132.37 13.04 133.133 13.2861 133.712 13.7783C134.295 14.266 134.587 14.9222 134.587 15.7471C134.587 16.3304 134.414 16.8226 134.068 17.2236C133.849 17.4743 133.621 17.6452 133.384 17.7363C133.562 17.7363 133.817 17.889 134.15 18.1943C134.646 18.6546 134.895 19.2835 134.895 20.0811C134.895 20.9196 134.603 21.6579 134.02 22.2959C133.441 22.9294 132.582 23.2461 131.443 23.2461C130.039 23.2461 129.064 22.7881 128.517 21.8721C128.23 21.3844 128.07 20.7464 128.038 19.958H129.952C129.952 20.3545 130.016 20.6826 130.144 20.9424C130.381 21.4209 130.811 21.6602 131.436 21.6602C131.819 21.6602 132.151 21.5303 132.434 21.2705C132.721 21.0062 132.864 20.6279 132.864 20.1357C132.864 19.484 132.6 19.0488 132.071 18.8301C131.771 18.707 131.297 18.6455 130.65 18.6455V17.251C131.283 17.2419 131.725 17.1803 131.976 17.0664C132.409 16.875 132.625 16.4876 132.625 15.9043C132.625 15.526 132.513 15.2184 132.29 14.9814C132.071 14.7445 131.762 14.626 131.361 14.626C130.9 14.626 130.563 14.7718 130.349 15.0635ZM137.533 25.1602L137.048 25.8232H135.606C136.207 24.7386 136.626 23.8499 136.863 23.1572C137.269 21.986 137.472 20.7031 137.472 19.3086C137.472 18.4154 137.399 17.5905 137.253 16.834C137.03 15.681 136.631 14.5781 136.057 13.5254L135.64 12.7598H137.11C137.802 13.7259 138.329 14.6283 138.689 15.4668C139.222 16.6973 139.488 17.9368 139.488 19.1855C139.488 20.5573 139.172 21.9518 138.538 23.3691C138.183 24.1621 137.848 24.7591 137.533 25.1602Z" fill="white"/>
<path d="M196 12L202 18L196 24" stroke="white" stroke-width="2" stroke-linecap="round" stroke-linejoin="round"/>
</svg>

