<svg width="326" height="36" viewBox="0 0 326 36" fill="none" xmlns="http://www.w3.org/2000/svg">
<rect width="326" height="36" rx="4" fill="#EDEFF0"/>
<path d="M157.122 23H155.017L150.902 15.8428V23H148.94V12.9238H151.148L155.16 19.958V12.9238H157.122V23ZM165.312 20.8125C165.262 21.2546 165.031 21.7035 164.621 22.1592C163.983 22.8838 163.09 23.2461 161.942 23.2461C160.994 23.2461 160.157 22.9408 159.433 22.3301C158.708 21.7194 158.346 20.7259 158.346 19.3496C158.346 18.0599 158.672 17.071 159.323 16.3828C159.98 15.6947 160.83 15.3506 161.873 15.3506C162.493 15.3506 163.051 15.4668 163.548 15.6992C164.045 15.9316 164.455 16.2985 164.779 16.7998C165.07 17.2419 165.259 17.7546 165.346 18.3379C165.396 18.6797 165.417 19.1719 165.407 19.8145H160.308C160.335 20.5618 160.57 21.0859 161.012 21.3867C161.281 21.5736 161.604 21.667 161.983 21.667C162.384 21.667 162.71 21.5531 162.96 21.3252C163.097 21.2021 163.218 21.0312 163.323 20.8125H165.312ZM163.384 18.5293C163.352 18.0143 163.195 17.6247 162.912 17.3604C162.634 17.0915 162.288 16.957 161.873 16.957C161.422 16.957 161.071 17.0983 160.821 17.3809C160.574 17.6634 160.42 18.0462 160.356 18.5293H163.384ZM173.365 23H170.938L169.653 20.7646L168.361 23H165.995L168.538 19.2266L166.105 15.5625H168.49L169.735 17.7227L170.951 15.5625H173.269L170.822 19.1924L173.365 23ZM177.931 21.6123V23.0684L177.008 23.1025C176.087 23.1344 175.459 22.9749 175.121 22.624C174.903 22.4007 174.793 22.0566 174.793 21.5918V17.0049H173.754V15.6172H174.793V13.5391H176.721V15.6172H177.931V17.0049H176.721V20.9424C176.721 21.2477 176.76 21.4391 176.837 21.5166C176.915 21.5895 177.152 21.626 177.548 21.626C177.607 21.626 177.669 21.626 177.733 21.626C177.801 21.6214 177.867 21.6169 177.931 21.6123Z" fill="#888888"/>
</svg>

