<svg width="217" height="36" viewBox="0 0 217 36" fill="none" xmlns="http://www.w3.org/2000/svg">
<rect width="217" height="36" rx="4" fill="#0091D7"/>
<path d="M60.212 19.0488H58.0382V23H55.9806V12.9238H60.923C61.6294 12.9375 62.1717 13.0241 62.5499 13.1836C62.9327 13.3431 63.2563 13.5778 63.5206 13.8877C63.7394 14.1429 63.9126 14.4255 64.0402 14.7354C64.1678 15.0452 64.2316 15.3984 64.2316 15.7949C64.2316 16.2734 64.1108 16.7451 63.8693 17.21C63.6277 17.6702 63.229 17.9961 62.673 18.1875C63.1378 18.3743 63.4659 18.641 63.6573 18.9873C63.8533 19.3291 63.9513 19.8532 63.9513 20.5596V21.2363C63.9513 21.6966 63.9695 22.0088 64.006 22.1729C64.0607 22.4326 64.1883 22.624 64.3888 22.7471V23H62.0714C62.0076 22.7767 61.962 22.5967 61.9347 22.46C61.88 22.1774 61.8504 21.888 61.8458 21.5918L61.8322 20.6553C61.823 20.0127 61.7045 19.5843 61.4767 19.3701C61.2534 19.1559 60.8318 19.0488 60.212 19.0488ZM61.4904 17.2168C61.9096 17.0254 62.1193 16.6471 62.1193 16.082C62.1193 15.4714 61.9165 15.0612 61.5109 14.8516C61.283 14.7331 60.9412 14.6738 60.4855 14.6738H58.0382V17.3809H60.424C60.8979 17.3809 61.2534 17.3262 61.4904 17.2168ZM72.2706 20.8125C72.2205 21.2546 71.9904 21.7035 71.5802 22.1592C70.9422 22.8838 70.049 23.2461 68.9005 23.2461C67.9526 23.2461 67.1163 22.9408 66.3917 22.3301C65.6671 21.7194 65.3048 20.7259 65.3048 19.3496C65.3048 18.0599 65.6307 17.071 66.2823 16.3828C66.9386 15.6947 67.7885 15.3506 68.8322 15.3506C69.4519 15.3506 70.0102 15.4668 70.507 15.6992C71.0037 15.9316 71.4139 16.2985 71.7374 16.7998C72.0291 17.2419 72.2182 17.7546 72.3048 18.3379C72.3549 18.6797 72.3754 19.1719 72.3663 19.8145H67.2667C67.2941 20.5618 67.5288 21.0859 67.9708 21.3867C68.2397 21.5736 68.5633 21.667 68.9415 21.667C69.3426 21.667 69.6684 21.5531 69.9191 21.3252C70.0558 21.2021 70.1766 21.0312 70.2814 20.8125H72.2706ZM70.3429 18.5293C70.311 18.0143 70.1538 17.6247 69.8712 17.3604C69.5932 17.0915 69.2469 16.957 68.8322 16.957C68.381 16.957 68.0301 17.0983 67.7794 17.3809C67.5333 17.6634 67.3784 18.0462 67.3146 18.5293H70.3429ZM72.9542 15.5488H75.1417L76.6935 21.0449L78.2794 15.5488H80.3712L77.6847 23H75.6271L72.9542 15.5488ZM83.4816 15.5488V23H81.506V15.5488H83.4816ZM83.4816 12.8623V14.6602H81.506V12.8623H83.4816ZM91.7531 20.8125C91.7029 21.2546 91.4728 21.7035 91.0626 22.1592C90.4246 22.8838 89.5314 23.2461 88.3829 23.2461C87.435 23.2461 86.5988 22.9408 85.8741 22.3301C85.1495 21.7194 84.7872 20.7259 84.7872 19.3496C84.7872 18.0599 85.1131 17.071 85.7648 16.3828C86.421 15.6947 87.271 15.3506 88.3146 15.3506C88.9344 15.3506 89.4926 15.4668 89.9894 15.6992C90.4861 15.9316 90.8963 16.2985 91.2198 16.7998C91.5115 17.2419 91.7006 17.7546 91.7872 18.3379C91.8374 18.6797 91.8579 19.1719 91.8488 19.8145H86.7491C86.7765 20.5618 87.0112 21.0859 87.4532 21.3867C87.7221 21.5736 88.0457 21.667 88.424 21.667C88.825 21.667 89.1508 21.5531 89.4015 21.3252C89.5382 21.2021 89.659 21.0312 89.7638 20.8125H91.7531ZM89.8253 18.5293C89.7934 18.0143 89.6362 17.6247 89.3536 17.3604C89.0756 17.0915 88.7293 16.957 88.3146 16.957C87.8634 16.957 87.5125 17.0983 87.2618 17.3809C87.0157 17.6634 86.8608 18.0462 86.797 18.5293H89.8253ZM98.8214 23L97.6525 17.5723L96.4698 23H94.4464L92.3546 15.5488H94.4464L95.6085 20.8945L96.6818 15.5488H98.6573L99.7921 20.915L100.954 15.5488H102.984L100.824 23H98.8214ZM111.776 21.5439C112.272 21.5439 112.676 21.4893 112.985 21.3799C113.573 21.1702 113.867 20.7806 113.867 20.2109C113.867 19.8783 113.721 19.6208 113.43 19.4385C113.138 19.2607 112.68 19.1035 112.056 18.9668L110.989 18.7275C109.941 18.4906 109.217 18.2331 108.816 17.9551C108.137 17.4902 107.797 16.7633 107.797 15.7744C107.797 14.8721 108.125 14.1224 108.781 13.5254C109.438 12.9284 110.401 12.6299 111.673 12.6299C112.735 12.6299 113.639 12.9124 114.387 13.4775C115.139 14.0381 115.533 14.8538 115.569 15.9248H113.546C113.51 15.3187 113.245 14.888 112.753 14.6328C112.425 14.4642 112.017 14.3799 111.529 14.3799C110.987 14.3799 110.554 14.4893 110.231 14.708C109.907 14.9268 109.745 15.2321 109.745 15.624C109.745 15.984 109.905 16.2529 110.224 16.4307C110.429 16.5492 110.866 16.6882 111.536 16.8477L113.273 17.2646C114.034 17.4469 114.608 17.6908 114.995 17.9961C115.597 18.4701 115.898 19.1559 115.898 20.0537C115.898 20.9743 115.544 21.7399 114.838 22.3506C114.136 22.9567 113.143 23.2598 111.858 23.2598C110.545 23.2598 109.513 22.9613 108.761 22.3643C108.009 21.7627 107.633 20.9378 107.633 19.8896H109.643C109.707 20.3499 109.832 20.694 110.019 20.9219C110.36 21.3366 110.946 21.5439 111.776 21.5439ZM123.677 20.8125C123.627 21.2546 123.397 21.7035 122.986 22.1592C122.348 22.8838 121.455 23.2461 120.307 23.2461C119.359 23.2461 118.523 22.9408 117.798 22.3301C117.073 21.7194 116.711 20.7259 116.711 19.3496C116.711 18.0599 117.037 17.071 117.689 16.3828C118.345 15.6947 119.195 15.3506 120.238 15.3506C120.858 15.3506 121.416 15.4668 121.913 15.6992C122.41 15.9316 122.82 16.2985 123.144 16.7998C123.435 17.2419 123.624 17.7546 123.711 18.3379C123.761 18.6797 123.782 19.1719 123.773 19.8145H118.673C118.7 20.5618 118.935 21.0859 119.377 21.3867C119.646 21.5736 119.97 21.667 120.348 21.667C120.749 21.667 121.075 21.5531 121.325 21.3252C121.462 21.2021 121.583 21.0312 121.688 20.8125H123.677ZM121.749 18.5293C121.717 18.0143 121.56 17.6247 121.277 17.3604C120.999 17.0915 120.653 16.957 120.238 16.957C119.787 16.957 119.436 17.0983 119.186 17.3809C118.94 17.6634 118.785 18.0462 118.721 18.5293H121.749ZM128.503 21.6123V23.0684L127.58 23.1025C126.66 23.1344 126.031 22.9749 125.693 22.624C125.475 22.4007 125.365 22.0566 125.365 21.5918V17.0049H124.326V15.6172H125.365V13.5391H127.293V15.6172H128.503V17.0049H127.293V20.9424C127.293 21.2477 127.332 21.4391 127.409 21.5166C127.487 21.5895 127.724 21.626 128.12 21.626C128.179 21.626 128.241 21.626 128.305 21.626C128.373 21.6214 128.439 21.6169 128.503 21.6123ZM133.165 21.6123V23.0684L132.242 23.1025C131.322 23.1344 130.693 22.9749 130.356 22.624C130.137 22.4007 130.027 22.0566 130.027 21.5918V17.0049H128.988V15.6172H130.027V13.5391H131.955V15.6172H133.165V17.0049H131.955V20.9424C131.955 21.2477 131.994 21.4391 132.071 21.5166C132.149 21.5895 132.386 21.626 132.782 21.626C132.842 21.626 132.903 21.626 132.967 21.626C133.035 21.6214 133.101 21.6169 133.165 21.6123ZM136.419 15.5488V23H134.443V15.5488H136.419ZM136.419 12.8623V14.6602H134.443V12.8623H136.419ZM141.819 16.9912C141.159 16.9912 140.705 17.2715 140.459 17.832C140.332 18.1283 140.268 18.5065 140.268 18.9668V23H138.326V15.5625H140.206V16.6494C140.457 16.2666 140.694 15.9909 140.917 15.8223C141.318 15.5215 141.826 15.3711 142.442 15.3711C143.212 15.3711 143.841 15.5739 144.328 15.9795C144.82 16.3805 145.067 17.0482 145.067 17.9824V23H143.07V18.4678C143.07 18.0758 143.018 17.7751 142.913 17.5654C142.722 17.1826 142.357 16.9912 141.819 16.9912ZM148.977 24.3057C149.186 24.4834 149.54 24.5723 150.036 24.5723C150.738 24.5723 151.207 24.3376 151.444 23.8682C151.599 23.5674 151.677 23.0615 151.677 22.3506V21.8721C151.49 22.1911 151.29 22.4303 151.075 22.5898C150.688 22.8861 150.184 23.0342 149.565 23.0342C148.608 23.0342 147.842 22.6992 147.268 22.0293C146.698 21.3548 146.413 20.4434 146.413 19.2949C146.413 18.1875 146.689 17.2578 147.24 16.5059C147.792 15.7493 148.573 15.3711 149.585 15.3711C149.959 15.3711 150.285 15.4281 150.563 15.542C151.037 15.738 151.419 16.098 151.711 16.6221V15.5488H153.605V22.6172C153.605 23.5788 153.443 24.3034 153.119 24.791C152.563 25.6296 151.497 26.0488 149.92 26.0488C148.968 26.0488 148.191 25.862 147.589 25.4883C146.987 25.1146 146.655 24.5563 146.591 23.8135H148.71C148.765 24.0413 148.854 24.2054 148.977 24.3057ZM148.649 20.457C148.913 21.0859 149.387 21.4004 150.07 21.4004C150.526 21.4004 150.911 21.2295 151.226 20.8877C151.54 20.5413 151.697 19.9922 151.697 19.2402C151.697 18.5339 151.547 17.9961 151.246 17.627C150.95 17.2578 150.551 17.0732 150.05 17.0732C149.366 17.0732 148.895 17.3945 148.635 18.0371C148.498 18.3789 148.43 18.8005 148.43 19.3018C148.43 19.7347 148.503 20.1198 148.649 20.457ZM160.564 15.8906C161.147 16.2643 161.482 16.9069 161.568 17.8184H159.62C159.593 17.5677 159.522 17.3695 159.408 17.2236C159.194 16.9593 158.83 16.8271 158.315 16.8271C157.891 16.8271 157.588 16.8932 157.405 17.0254C157.228 17.1576 157.139 17.3125 157.139 17.4902C157.139 17.7135 157.234 17.8753 157.426 17.9756C157.617 18.0804 158.294 18.2604 159.456 18.5156C160.231 18.6979 160.812 18.9736 161.199 19.3428C161.582 19.7165 161.774 20.1836 161.774 20.7441C161.774 21.4824 161.498 22.0863 160.946 22.5557C160.4 23.0205 159.552 23.2529 158.403 23.2529C157.232 23.2529 156.366 23.0068 155.806 22.5146C155.25 22.0179 154.972 21.3867 154.972 20.6211H156.947C156.988 20.9674 157.077 21.2135 157.214 21.3594C157.456 21.6191 157.902 21.749 158.554 21.749C158.937 21.749 159.24 21.6921 159.463 21.5781C159.691 21.4642 159.805 21.2933 159.805 21.0654C159.805 20.8467 159.714 20.6803 159.531 20.5664C159.349 20.4525 158.672 20.2565 157.501 19.9785C156.658 19.7689 156.063 19.5068 155.717 19.1924C155.371 18.8825 155.197 18.4359 155.197 17.8525C155.197 17.1644 155.466 16.5742 156.004 16.082C156.546 15.5853 157.307 15.3369 158.287 15.3369C159.217 15.3369 159.976 15.5215 160.564 15.8906Z" fill="white"/>
</svg>


