<svg width="355" height="200" viewBox="0 0 355 200" fill="none" xmlns="http://www.w3.org/2000/svg">
<path d="M140.11 180.396C140.735 179.192 146.164 181.554 147.05 179.975L147.867 178.522C147.39 179.464 141.723 177.59 140.86 179.135L140.11 180.396Z" fill="url(#paint0_linear_4296_1202)"/>
<path d="M139.577 181.304C138.782 182.781 138.725 186.154 140.917 188.311L141.814 186.574C139.622 184.416 139.997 180.736 140.849 179.146C140.86 179.146 139.951 180.6 139.577 181.304Z" fill="url(#paint1_linear_4296_1202)"/>
<path d="M145.165 168.278C147.038 165.984 158.111 169.823 160.054 165.916L160.849 164.587C158.793 168.176 147.64 163.917 146.119 166.688L145.165 168.278Z" fill="url(#paint2_linear_4296_1202)"/>
<path d="M155.704 151.356C157.18 148.596 164.21 146.813 165.948 143.565L166.993 141.612C165.153 145.076 158.509 146.098 156.522 149.846L155.704 151.356Z" fill="url(#paint3_linear_4296_1202)"/>
<path d="M144.79 168.937C143.62 171.06 148.299 177.727 147.038 179.987C147.038 179.987 147.436 179.442 147.924 178.476C149.65 175.001 144.472 169.675 146.073 166.756C146.073 166.767 145.176 168.244 144.79 168.937Z" fill="url(#paint4_linear_4296_1202)"/>
<path d="M155.091 152.413C153.398 155.831 161.825 162.338 160.042 165.916C160.042 165.916 160.962 164.474 161.451 163.497C162.711 160.964 154.727 153.457 156.635 149.607C156.647 149.607 155.454 151.697 155.091 152.413Z" fill="url(#paint5_linear_4296_1202)"/>
<path d="M94.4561 66.6784C93.8314 66.3491 95.058 63.5439 94.2403 63.0896L93.4907 62.6694C93.9791 62.9193 93.0024 65.8494 93.8087 66.3036L94.4561 66.6784Z" fill="url(#paint6_linear_4296_1202)"/>
<path d="M94.9324 66.9623C95.7047 67.3711 97.4423 67.4052 98.5666 66.2695L97.6694 65.8039C96.5564 66.9395 94.6371 66.7351 93.8194 66.3036C93.808 66.2922 94.5576 66.7692 94.9324 66.9623Z" fill="url(#paint7_linear_4296_1202)"/>
<path d="M88.1755 64.055C86.9831 63.0783 88.9819 57.3431 86.9603 56.3437L86.2789 55.9348C88.1301 57.0024 85.9269 62.7717 87.3578 63.5667L88.1755 64.055Z" fill="url(#paint8_linear_4296_1202)"/>
<path d="M79.4196 58.581C77.9886 57.82 77.0687 54.1631 75.3878 53.2659L74.3771 52.7208C76.1715 53.6748 76.6939 57.1159 78.6359 58.1494L79.4196 58.581Z" fill="url(#paint9_linear_4296_1202)"/>
<path d="M88.5278 64.2482C89.6294 64.8501 93.0933 62.4424 94.263 63.0898C94.263 63.0898 93.9791 62.8854 93.4794 62.6241C91.685 61.7269 88.9139 64.4072 87.4034 63.5781C87.4034 63.5895 88.1644 64.0551 88.5278 64.2482Z" fill="url(#paint10_linear_4296_1202)"/>
<path d="M79.9642 58.899C81.7359 59.7848 85.109 55.4124 86.9601 56.3437C86.9601 56.3437 86.2106 55.8667 85.7109 55.6168C84.3935 54.9695 80.498 59.0921 78.5106 58.104C78.5106 58.0926 79.5895 58.7173 79.9642 58.899Z" fill="url(#paint11_linear_4296_1202)"/>
<path d="M284.173 137.932C283.492 137.569 284.832 134.673 283.946 134.162L283.129 133.696C283.662 133.969 282.595 137.012 283.469 137.512L284.173 137.932Z" fill="url(#paint12_linear_4296_1202)"/>
<path d="M284.696 138.239C285.525 138.693 287.433 138.784 288.648 137.637L287.671 137.114C286.456 138.273 284.366 138 283.469 137.512C283.469 137.501 284.298 138.023 284.696 138.239Z" fill="url(#paint13_linear_4296_1202)"/>
<path d="M277.349 134.979C276.054 133.923 278.246 127.984 276.043 126.871L275.293 126.416C277.315 127.597 274.895 133.56 276.451 134.446L277.349 134.979Z" fill="url(#paint14_linear_4296_1202)"/>
<path d="M267.809 128.972C266.253 128.12 265.265 124.281 263.425 123.282L262.323 122.68C264.277 123.736 264.844 127.359 266.945 128.506L267.809 128.972Z" fill="url(#paint15_linear_4296_1202)"/>
<path d="M277.723 135.195C278.915 135.865 282.697 133.446 283.969 134.173C283.969 134.173 283.663 133.946 283.117 133.662C281.164 132.663 278.143 135.388 276.496 134.468C276.496 134.468 277.325 134.979 277.723 135.195Z" fill="url(#paint16_linear_4296_1202)"/>
<path d="M268.399 129.312C270.33 130.289 274.01 125.837 276.031 126.859C276.031 126.859 275.213 126.337 274.668 126.053C273.237 125.326 268.99 129.517 266.821 128.426C266.821 128.426 268.002 129.108 268.399 129.312Z" fill="url(#paint17_linear_4296_1202)"/>
<path d="M291.442 43.2947C288.25 44.737 285.138 43.9647 281.731 47.4968C281.731 47.4968 282.844 44.8052 286.706 43.3628C290.567 41.9091 293.985 41.2618 295.564 38.8428C295.564 38.8428 293.349 42.4316 291.442 43.2947Z" fill="url(#paint18_linear_4296_1202)"/>
<path d="M203.539 173.502C202.086 170.039 202.745 165.564 199.281 162.872C199.281 162.872 201.881 162.986 203.358 167.324C204.834 171.663 205.55 175.831 207.889 176.682C207.901 176.682 204.414 175.569 203.539 173.502Z" fill="url(#paint19_linear_4296_1202)"/>
<path d="M313.293 112.527C310.34 112.947 307.966 111.584 304.343 113.674C304.343 113.674 305.899 111.732 309.397 111.459C312.907 111.187 315.859 111.459 317.722 109.858C317.733 109.858 315.064 112.277 313.293 112.527Z" fill="#AAE100"/>
<path d="M166.925 27.1338C168.708 33.0849 166.629 38.3772 172.035 45.1914C172.035 45.1914 167.572 42.602 165.925 35.4698C164.279 28.3377 163.926 22.1595 160.065 18.8319C160.065 18.8319 165.857 23.5677 166.925 27.1338Z" fill="#AAE100"/>
<path d="M108.572 120.022C106.869 120.318 102.133 117.41 100.123 117.751L97.647 118.183C99.7707 117.819 103.712 120.863 106.006 120.465L108.572 120.022Z" fill="#FFA400"/>
<path d="M88.7202 123.032C87.0166 123.328 82.2808 120.432 80.282 120.784L77.8062 121.215C79.9299 120.852 83.8708 123.895 86.1649 123.498L88.7202 123.032Z" fill="#FFA400"/>
<path d="M88.5158 123.077C92.309 122.101 95.9546 118.466 100.179 117.74C100.179 117.74 98.2373 118.069 97.6467 118.171C93.0358 118.966 87.6753 123.214 85.9832 123.509L88.5158 123.077Z" fill="#FFC200"/>
<path d="M248.763 51.0058C250.251 50.154 252.443 54.1857 253.942 53.6974C253.783 53.7996 253.442 53.9359 253.147 54.0949C251.693 54.8899 249.785 50.6197 247.968 51.3919L248.763 51.0058Z" fill="#8521D3"/>
<path d="M245.175 58.0474C245.175 58.0474 245.47 57.718 245.811 57.241C246.685 55.7419 245.686 52.9368 246.969 51.926C247.048 51.8578 247.366 51.6988 247.435 51.6534L248.752 51.0061C248.752 51.0061 247.855 51.6648 247.628 52.085C247.616 52.0963 247.616 52.1077 247.605 52.1191C246.367 54.1179 248.139 56.5256 246.185 57.5477L245.175 58.0474Z" fill="#9420EF"/>
<path d="M253.022 54.1406C253.022 54.1406 253.999 53.6522 254.385 53.2547C254.397 53.2434 254.397 53.2434 254.408 53.232C255.907 51.6988 255.782 48.8369 255.782 48.8369L256.975 48.2577C256.975 48.2577 257.838 51.767 255.328 53.0617L253.022 54.1406Z" fill="#9420EF"/>
<path d="M102.667 169.335C104.154 168.483 106.346 172.515 107.845 172.026C107.686 172.128 107.346 172.265 107.05 172.424C105.597 173.219 103.689 168.948 101.872 169.721L102.667 169.335Z" fill="url(#paint20_linear_4296_1202)"/>
<path d="M99.0894 176.376C99.0894 176.376 99.3847 176.046 99.7254 175.569C100.6 174.07 99.6005 171.265 100.884 170.254C100.963 170.186 101.281 170.027 101.349 169.982L102.667 169.334C102.667 169.334 101.77 169.993 101.543 170.413C101.531 170.425 101.531 170.436 101.52 170.447C100.282 172.446 102.054 174.854 100.1 175.876L99.0894 176.376Z" fill="url(#paint21_linear_4296_1202)"/>
<path d="M106.937 172.469C106.937 172.469 107.913 171.98 108.299 171.583C108.311 171.572 108.311 171.572 108.322 171.56C109.821 170.027 109.696 167.165 109.696 167.165L110.889 166.586C110.889 166.586 111.752 170.095 109.242 171.39L106.937 172.469Z" fill="url(#paint22_linear_4296_1202)"/>
<path d="M159.009 100.874C159.145 100.976 159.509 100.965 159.509 100.965L159.407 101.192C159.293 101.249 158.952 101.215 158.907 101.101L159.009 100.874Z" fill="url(#paint23_linear_4296_1202)"/>
<path d="M150.219 49.9048C150.264 49.7004 150.06 49.3029 150.06 49.3029L150.355 49.2915C150.48 49.3824 150.627 49.7799 150.514 49.8934L150.219 49.9048Z" fill="url(#paint24_linear_4296_1202)"/>
<path d="M191.989 41.0574C190.808 40.4668 188.025 41.1596 188.025 41.1596L188.434 39.3084C189.195 38.6724 191.841 38.3885 192.398 39.2062L191.989 41.0574Z" fill="url(#paint25_linear_4296_1202)"/>
<path d="M141.757 76.0255C141.405 76.6842 141.746 78.2515 141.746 78.2515L140.713 77.9903C140.372 77.5474 140.247 76.0596 140.724 75.7643L141.757 76.0255Z" fill="url(#paint26_linear_4296_1202)"/>
<path d="M130.696 149.414C132.615 148.574 135.681 144.928 135.681 144.928L136.454 146.882C135.92 148.244 132.751 151.413 131.468 151.368L130.696 149.414Z" fill="url(#paint27_linear_4296_1202)"/>
<path d="M130.593 84.5659C130.185 84.3614 129.242 84.5999 129.242 84.5999L129.378 83.9639C129.639 83.7482 130.548 83.6459 130.73 83.9299L130.593 84.5659Z" fill="url(#paint28_linear_4296_1202)"/>
<path d="M211.671 161.248C211.376 160.726 210.16 160.271 210.16 160.271L210.785 159.681C211.228 159.635 212.295 160.203 212.295 160.658L211.671 161.248Z" fill="url(#paint29_linear_4296_1202)"/>
<path d="M214.59 37.4685C214.419 37.7638 214.567 38.4906 214.567 38.4906L214.09 38.3657C213.943 38.1613 213.897 37.4799 214.113 37.3436L214.59 37.4685Z" fill="url(#paint30_linear_4296_1202)"/>
<path d="M175.681 75.4238C175.828 75.2534 175.84 74.7537 175.84 74.7537L176.135 74.9013C176.203 75.0603 176.135 75.5146 175.976 75.5714L175.681 75.4238Z" fill="url(#paint31_linear_4296_1202)"/>
<path d="M221.699 93.8332C220.961 93.8787 219.802 94.9803 219.802 94.9803L219.484 93.9695C219.678 93.4471 220.881 92.5726 221.381 92.8225L221.699 93.8332Z" fill="url(#paint32_linear_4296_1202)"/>
<path d="M227.82 121.533C227.741 121.317 227.298 121.078 227.298 121.078L227.57 120.885C227.741 120.897 228.116 121.169 228.093 121.34L227.82 121.533Z" fill="url(#paint33_linear_4296_1202)"/>
<path d="M239.916 98.1035C240.393 98.3193 241.494 98.0013 241.494 98.0013L241.358 98.7508C241.063 99.012 240.007 99.171 239.78 98.853L239.916 98.1035Z" fill="url(#paint34_linear_4296_1202)"/>
<path d="M231.648 54.5722C231.693 54.152 231.16 53.3911 231.16 53.3911L231.773 53.3002C232.057 53.4592 232.443 54.2201 232.261 54.4814L231.648 54.5722Z" fill="url(#paint35_linear_4296_1202)"/>
<path d="M266.309 48.3597C266.252 48.7686 266.729 49.5409 266.729 49.5409L266.127 49.5976C265.866 49.4273 265.514 48.6664 265.707 48.4165L266.309 48.3597Z" fill="url(#paint36_linear_4296_1202)"/>
<path d="M292.123 73.5157C291.419 73.5611 290.329 74.6173 290.329 74.6173L290.022 73.652C290.204 73.1636 291.351 72.3232 291.817 72.5503L292.123 73.5157Z" fill="url(#paint37_linear_4296_1202)"/>
<path d="M271.454 110.891C271.068 110.369 269.694 110.039 269.694 110.039L270.295 109.313C270.772 109.21 271.999 109.676 272.056 110.164L271.454 110.891Z" fill="url(#paint38_linear_4296_1202)"/>
<path d="M287.535 120.851C287.297 121.271 287.478 122.305 287.478 122.305L286.808 122.112C286.592 121.817 286.547 120.84 286.865 120.658L287.535 120.851Z" fill="url(#paint39_linear_4296_1202)"/>
<path d="M289.194 106.916C289.126 106.507 288.444 105.917 288.444 105.917L289.001 105.678C289.307 105.758 289.864 106.382 289.75 106.678L289.194 106.916Z" fill="url(#paint40_linear_4296_1202)"/>
<path d="M270.624 97.3767C270.488 97.1609 269.966 97.0019 269.966 97.0019L270.216 96.7407C270.397 96.718 270.863 96.9338 270.874 97.1155L270.624 97.3767Z" fill="url(#paint41_linear_4296_1202)"/>
<path d="M254.339 126.893C254.816 126.996 255.747 126.496 255.747 126.496L255.77 127.2C255.554 127.495 254.634 127.836 254.362 127.598L254.339 126.893Z" fill="url(#paint42_linear_4296_1202)"/>
<path d="M292.305 162.27C292.589 161.612 292.112 160.124 292.112 160.124L293.134 160.283C293.498 160.681 293.748 162.1 293.327 162.429L292.305 162.27Z" fill="url(#paint43_linear_4296_1202)"/>
<path d="M304.253 96.6158C304.684 96.3773 305.07 95.3893 305.07 95.3893L305.547 95.9117C305.57 96.2751 305.093 97.1496 304.73 97.1382L304.253 96.6158Z" fill="url(#paint44_linear_4296_1202)"/>
<path d="M221.347 151.027C221.166 150.834 220.598 150.754 220.598 150.754L220.813 150.436C221.007 150.379 221.518 150.516 221.563 150.709L221.347 151.027Z" fill="url(#paint45_linear_4296_1202)"/>
<path d="M239.223 156.887C238.985 157.012 238.769 157.568 238.769 157.568L238.508 157.273C238.496 157.068 238.758 156.591 238.962 156.591L239.223 156.887Z" fill="url(#paint46_linear_4296_1202)"/>
<path d="M233.59 172.116C233.533 171.935 233.181 171.719 233.181 171.719L233.408 171.571C233.544 171.583 233.84 171.832 233.817 171.969L233.59 172.116Z" fill="url(#paint47_linear_4296_1202)"/>
<path d="M254.271 141.498C254.305 141.282 254.055 140.873 254.055 140.873L254.373 140.851C254.509 140.941 254.691 141.35 254.589 141.475L254.271 141.498Z" fill="url(#paint48_linear_4296_1202)"/>
<path d="M240.427 114.707C240.007 114.389 238.86 114.469 238.86 114.469L239.155 113.765C239.496 113.572 240.563 113.64 240.722 114.003L240.427 114.707Z" fill="url(#paint49_linear_4296_1202)"/>
<path d="M215.748 139.136C215.26 139.511 214.987 140.806 214.987 140.806L214.294 140.26C214.192 139.817 214.601 138.648 215.055 138.591L215.748 139.136Z" fill="url(#paint50_linear_4296_1202)"/>
<path d="M191.796 113.129C191.569 113.151 191.24 113.503 191.24 113.503L191.126 113.197C191.183 113.038 191.524 112.754 191.683 112.822L191.796 113.129Z" fill="url(#paint51_linear_4296_1202)"/>
<path d="M172.297 127.586C172.535 127.541 172.853 127.12 172.853 127.12L173.001 127.427C172.967 127.609 172.615 127.938 172.444 127.893L172.297 127.586Z" fill="url(#paint52_linear_4296_1202)"/>
<path d="M65.5981 159.658C65.6776 160.192 66.5521 160.976 66.5521 160.976L65.8252 161.271C65.4391 161.157 64.7236 160.328 64.8713 159.954L65.5981 159.658Z" fill="url(#paint53_linear_4296_1202)"/>
<path d="M175.919 170.788C176.68 170.686 177.793 169.448 177.793 169.448L178.202 170.47C178.043 171.027 176.862 172.026 176.328 171.81L175.919 170.788Z" fill="url(#paint54_linear_4296_1202)"/>
<path d="M191.955 148.426C191.796 148.381 191.455 148.528 191.455 148.528L191.467 148.279C191.546 148.176 191.876 148.086 191.966 148.176L191.955 148.426Z" fill="url(#paint55_linear_4296_1202)"/>
<path d="M178.645 140.476C178.429 140.306 177.838 140.34 177.838 140.34L177.997 139.976C178.179 139.874 178.724 139.92 178.804 140.113L178.645 140.476Z" fill="url(#paint56_linear_4296_1202)"/>
<path d="M102.928 154.695C102.44 154.718 101.667 155.422 101.667 155.422L101.474 154.752C101.611 154.411 102.406 153.854 102.735 154.025L102.928 154.695Z" fill="url(#paint57_linear_4296_1202)"/>
<path d="M163.154 164.178C162.881 163.837 161.973 163.656 161.973 163.656L162.359 163.167C162.677 163.088 163.494 163.372 163.54 163.69L163.154 164.178Z" fill="url(#paint58_linear_4296_1202)"/>
<path d="M128.652 160.305C128.561 160.953 129.31 162.145 129.31 162.145L128.379 162.236C127.97 161.975 127.425 160.782 127.72 160.396L128.652 160.305Z" fill="url(#paint59_linear_4296_1202)"/>
<path d="M139.781 136.978C139.554 137.171 139.463 137.807 139.463 137.807L139.111 137.569C139.043 137.353 139.213 136.785 139.429 136.74L139.781 136.978Z" fill="url(#paint60_linear_4296_1202)"/>
<path d="M144.517 138.046C145.119 137.887 145.88 136.774 145.88 136.774L146.311 137.557C146.243 138.012 145.403 138.943 144.949 138.829L144.517 138.046Z" fill="url(#paint61_linear_4296_1202)"/>
<path d="M171.899 142.6C172.16 142.645 172.66 142.339 172.66 142.339L172.694 142.725C172.581 142.895 172.092 143.111 171.933 142.986L171.899 142.6Z" fill="url(#paint62_linear_4296_1202)"/>
<path d="M148.879 113.958C149.265 113.765 149.628 112.902 149.628 112.902L150.037 113.379C150.049 113.697 149.606 114.446 149.288 114.435L148.879 113.958Z" fill="url(#paint63_linear_4296_1202)"/>
<path d="M145.357 53.3229C145.244 53.4932 145.301 53.9362 145.301 53.9362L145.017 53.8453C144.937 53.7204 144.937 53.3002 145.073 53.232L145.357 53.3229Z" fill="url(#paint64_linear_4296_1202)"/>
<path d="M118.317 39.3311C118.51 39.1154 118.51 38.4794 118.51 38.4794L118.884 38.6611C118.975 38.8541 118.896 39.4334 118.691 39.5128L118.317 39.3311Z" fill="url(#paint65_linear_4296_1202)"/>
<path d="M110.844 52.8342C110.526 52.5389 109.583 52.4935 109.583 52.4935L109.89 51.9484C110.185 51.8235 111.048 51.9711 111.15 52.2891L110.844 52.8342Z" fill="url(#paint66_linear_4296_1202)"/>
<path d="M89.9583 51.0064C90.2535 50.6316 90.2081 49.5981 90.2081 49.5981L90.8327 49.8821C91.0031 50.2001 90.9122 51.1541 90.5829 51.2903L89.9583 51.0064Z" fill="url(#paint67_linear_4296_1202)"/>
<path d="M59.2037 50.177C59.3627 50.7676 60.4417 51.5285 60.4417 51.5285L59.6694 51.9487C59.2151 51.8692 58.3066 51.0401 58.4315 50.5972L59.2037 50.177Z" fill="url(#paint68_linear_4296_1202)"/>
<path d="M71.9235 100.579C71.844 100.784 72.003 101.215 72.003 101.215L71.6964 101.181C71.5828 101.067 71.492 100.647 71.6169 100.545L71.9235 100.579Z" fill="url(#paint69_linear_4296_1202)"/>
<path d="M94.2518 99.8748C93.7408 99.9657 93.0139 100.852 93.0139 100.852L92.7073 100.17C92.7981 99.784 93.5704 99.0685 93.9452 99.1934L94.2518 99.8748Z" fill="url(#paint70_linear_4296_1202)"/>
<path d="M100.145 112.765C100.35 112.095 99.7366 110.721 99.7366 110.721L100.736 110.766C101.134 111.107 101.52 112.447 101.145 112.81L100.145 112.765Z" fill="url(#paint71_linear_4296_1202)"/>
<path d="M84.3593 57.6501C84.2798 56.98 83.2236 55.992 83.2236 55.992L84.1322 55.6513C84.6092 55.7989 85.461 56.8438 85.2679 57.3094L84.3593 57.6501Z" fill="url(#paint72_linear_4296_1202)"/>
<path d="M79.8624 93.8789C80.0214 94.1969 80.7482 94.5035 80.7482 94.5035L80.3507 94.8442C80.0781 94.8556 79.4535 94.4922 79.4649 94.2196L79.8624 93.8789Z" fill="url(#paint73_linear_4296_1202)"/>
<path d="M67.7671 134.605C67.8806 135.014 68.6529 135.536 68.6529 135.536L68.1191 135.843C67.8011 135.797 67.1651 135.229 67.2333 134.911L67.7671 134.605Z" fill="url(#paint74_linear_4296_1202)"/>
<path d="M85.1546 114.866C84.5641 114.469 83.0309 114.662 83.0309 114.662L83.3716 113.696C83.8259 113.412 85.2568 113.424 85.4953 113.901L85.1546 114.866Z" fill="url(#paint75_linear_4296_1202)"/>
<path d="M102.576 142.793C102.985 142.656 103.473 141.839 103.473 141.839L103.814 142.361C103.78 142.69 103.234 143.383 102.916 143.315L102.576 142.793Z" fill="url(#paint76_linear_4296_1202)"/>
<path d="M107.562 127.393C107.13 127.734 106.892 128.903 106.892 128.903L106.267 128.415C106.165 128.018 106.528 126.973 106.937 126.905L107.562 127.393Z" fill="url(#paint77_linear_4296_1202)"/>
<path d="M129.98 102.907C130.207 102.714 130.332 102.078 130.332 102.078L130.684 102.339C130.741 102.555 130.56 103.134 130.332 103.168L129.98 102.907Z" fill="url(#paint78_linear_4296_1202)"/>
<path d="M98.4537 79.3079C97.6928 79.4442 96.6252 80.7276 96.6252 80.7276L96.171 79.7168C96.3072 79.1489 97.4543 78.1041 97.9994 78.2972L98.4537 79.3079Z" fill="url(#paint79_linear_4296_1202)"/>
<path d="M203.131 100.011C203.051 100.579 203.721 101.647 203.721 101.647L202.892 101.738C202.529 101.51 202.041 100.454 202.302 100.102L203.131 100.011Z" fill="url(#paint80_linear_4296_1202)"/>
<path d="M157.782 61.5229C157.543 61.4094 157.009 61.557 157.009 61.557L157.078 61.1936C157.225 61.0687 157.736 61.0005 157.85 61.1595L157.782 61.5229Z" fill="url(#paint81_linear_4296_1202)"/>
<path d="M266.638 66.7582C266.65 66.5878 266.434 66.2698 266.434 66.2698L266.684 66.2244C266.797 66.2925 266.968 66.5992 266.888 66.7127L266.638 66.7582Z" fill="url(#paint82_linear_4296_1202)"/>
<path d="M250.568 58.695C250.693 59.1948 251.591 59.8421 251.591 59.8421L250.932 60.1828C250.557 60.1147 249.808 59.3992 249.91 59.0358L250.568 58.695Z" fill="url(#paint83_linear_4296_1202)"/>
<path d="M233.499 66.7924C233.817 66.5994 234.067 65.8157 234.067 65.8157L234.453 66.1905C234.487 66.4631 234.169 67.1445 233.885 67.1672L233.499 66.7924Z" fill="url(#paint84_linear_4296_1202)"/>
<path d="M229.047 85.7697C228.695 85.5993 227.889 85.8151 227.889 85.8151L228.002 85.27C228.218 85.0769 228.99 84.9861 229.161 85.2246L229.047 85.7697Z" fill="url(#paint85_linear_4296_1202)"/>
<path d="M194.499 71.2098C194.249 71.2211 193.84 71.5846 193.84 71.5846L193.738 71.2325C193.806 71.0621 194.226 70.7669 194.397 70.8577L194.499 71.2098Z" fill="url(#paint86_linear_4296_1202)"/>
<path d="M163.711 139.34C163.483 139.908 163.915 141.169 163.915 141.169L163.04 141.055C162.722 140.726 162.484 139.511 162.836 139.227L163.711 139.34Z" fill="url(#paint87_linear_4296_1202)"/>
<path d="M211.16 121.226C210.524 121.396 209.718 122.566 209.718 122.566L209.264 121.737C209.343 121.249 210.229 120.272 210.706 120.397L211.16 121.226Z" fill="url(#paint88_linear_4296_1202)"/>
<path d="M146.459 28.9507C146.425 29.405 146.993 30.1999 146.993 30.1999L146.346 30.3022C146.05 30.1432 145.619 29.3368 145.812 29.0529L146.459 28.9507Z" fill="url(#paint89_linear_4296_1202)"/>
<path d="M193.965 95.3776C199.371 92.4134 205.3 87.4845 205.3 87.4845L210.138 86.4851C209.945 87.405 203.108 92.4589 198.803 94.3782L193.965 95.3776Z" fill="#FFC200"/>
<path d="M123.336 85.6222C130.026 89.7447 139.214 93.2313 139.214 93.2313L143.37 97.9672C142.223 98.3306 132.331 93.9241 127.493 90.358L123.336 85.6222Z" fill="url(#paint90_linear_4296_1202)"/>
<path d="M227.752 123.452C233.169 124.77 240.143 125.099 240.143 125.099L243.993 127.382C243.3 127.881 235.657 127.075 231.602 125.735L227.752 123.452Z" fill="url(#paint91_linear_4296_1202)"/>
<path d="M125.812 63.7942C122.575 62.5109 117.862 62.4314 117.862 62.4314L116.113 59.9442C116.795 59.3423 121.78 59.9215 124.063 61.3071L125.812 63.7942Z" fill="url(#paint92_linear_4296_1202)"/>
<path d="M197.94 130.164C199.474 133.378 202.972 136.695 202.972 136.695L202.563 139.784C201.631 139.772 198.293 135.865 197.532 133.253L197.94 130.164Z" fill="url(#paint93_linear_4296_1202)"/>
<path d="M180.269 55.299C177.52 57.559 175.135 61.7497 175.135 61.7497L172.046 62.0904C171.842 61.1819 174.829 57.0025 177.18 55.6397L180.269 55.299Z" fill="url(#paint94_linear_4296_1202)"/>
<path d="M165.051 128.552C167.606 127.916 170.536 125.883 170.536 125.883L172.717 126.644C172.569 127.314 169.23 129.154 167.231 129.313L165.051 128.552Z" fill="url(#paint95_linear_4296_1202)"/>
<path d="M164.79 83.6122C164.381 85.5542 164.801 88.2004 164.801 88.2004L163.574 89.4269C163.165 89.1089 163.018 86.247 163.563 84.8387L164.79 83.6122Z" fill="url(#paint96_linear_4296_1202)"/>
<path d="M239.837 78.8418C243.403 78.7963 247.877 77.0246 247.877 77.0246L250.512 78.6941C250.103 79.5345 245.163 80.9314 242.471 80.5112L239.837 78.8418Z" fill="url(#paint97_linear_4296_1202)"/>
<path d="M50.0613 106.724C53.5251 105.894 57.5114 103.18 57.5114 103.18L60.4415 104.225C60.2258 105.134 55.717 107.575 52.9914 107.768L50.0613 106.724Z" fill="url(#paint98_linear_4296_1202)"/>
<path d="M73.0023 64.6912C74.5014 65.6793 77.2384 65.8837 77.2384 65.8837L77.511 67.644C76.9318 68.0415 74.1947 67.4737 73.2748 66.4516L73.0023 64.6912Z" fill="url(#paint99_linear_4296_1202)"/>
<path d="M273.589 84.1912C274.702 82.783 275.133 80.08 275.133 80.08L276.916 79.9551C277.257 80.5683 276.462 83.2486 275.372 84.0663L273.589 84.1912Z" fill="url(#paint100_linear_4296_1202)"/>
<path d="M186.481 99.5569C186.515 99.8636 186.992 100.318 186.992 100.318L186.583 100.466C186.367 100.397 185.981 99.9204 186.072 99.7046L186.481 99.5569Z" fill="url(#paint101_linear_4296_1202)"/>
<path d="M183.381 134.696C183.108 135.309 183.517 136.706 183.517 136.706L182.563 136.535C182.222 136.161 182.018 134.832 182.427 134.525L183.381 134.696Z" fill="url(#paint102_linear_4296_1202)"/>
<path d="M178.94 122.601C178.94 122.782 179.19 123.078 179.19 123.078L178.94 123.134C178.815 123.078 178.622 122.782 178.691 122.657L178.94 122.601Z" fill="url(#paint103_linear_4296_1202)"/>
<path d="M119.759 130.209C119.407 130.073 118.623 130.334 118.623 130.334L118.691 129.789C118.896 129.585 119.645 129.437 119.827 129.664L119.759 130.209Z" fill="url(#paint104_linear_4296_1202)"/>
<path d="M18.5236 161.134C25.4172 162.52 32.9015 163.372 39.727 161.305C42.4072 160.453 44.9853 159.079 46.791 156.887C46.9841 156.648 47.2112 156.364 47.3702 156.092L47.4611 155.956L47.5292 155.819C47.9721 155.036 48.0857 154.059 47.6996 153.23C47.2112 152.128 45.9733 151.481 44.7808 151.538C44.1676 151.549 43.5543 151.742 43.0205 152.015C42.8388 152.117 42.6571 152.219 42.4867 152.344L42.3618 152.435L42.2937 152.48L42.2369 152.537L41.9984 152.742C41.953 152.776 41.9189 152.81 41.8848 152.855L41.7712 152.969L41.6577 153.082L41.6009 153.139L41.5441 153.196L41.3283 153.446C41.2943 153.491 41.2488 153.525 41.2261 153.571C40.0336 155.161 39.9428 157.375 40.3743 159.272C41.0785 162.35 43.4748 164.644 46.5525 165.268C48.7444 165.734 51.0272 165.495 53.1963 164.973C57.6937 163.951 61.5778 161.509 64.2694 157.739C68.7781 151.47 70.5043 144.088 78.0908 140.374C82.3723 138.227 87.2786 138.046 91.9576 138.102C97.5339 138.216 103.11 138.841 108.664 139.079C113.218 139.227 117.942 139.363 122.281 137.784C123.008 137.501 123.723 137.183 124.359 136.717C125.915 135.57 127.119 133.991 128.368 132.503C130.719 129.619 133.195 126.746 136.204 124.52C139.191 122.26 142.678 120.658 146.323 119.806L146.403 120.147C143.95 120.772 141.565 121.726 139.384 123.009C137.204 124.281 135.205 125.894 133.433 127.688C131.798 129.324 130.355 131.118 128.902 132.935C127.709 134.4 126.574 135.888 125.097 137.103C124.722 137.41 124.302 137.694 123.882 137.909C122.621 138.579 121.236 139.011 119.85 139.318C116.159 140.113 112.389 140.09 108.641 139.976C103.053 139.772 97.5225 139.193 91.9576 139.113C86.5631 139.045 80.771 139.42 76.2964 142.725C70.9132 146.563 69.0166 153.241 65.2234 158.397C62.4068 162.372 58.2275 165.018 53.4916 166.086C50.6978 166.756 47.6541 166.972 44.9171 165.95C43.0546 165.268 41.4192 163.951 40.4084 162.236C38.9093 159.681 38.5345 156.376 39.886 153.673C40.0563 153.332 40.2835 153.003 40.5447 152.719L40.7945 152.435C40.8286 152.401 40.8854 152.333 40.9195 152.299C40.9876 152.231 41.1239 152.106 41.192 152.037C41.2375 151.992 41.2829 151.947 41.3283 151.913L41.6236 151.674C41.7031 151.606 41.8507 151.504 41.9302 151.447C42.7707 150.856 43.7814 150.482 44.8149 150.459C46.3935 150.413 48.0403 151.311 48.6763 152.798C49.1419 153.843 49.0397 155.081 48.5286 156.081L48.4378 156.251L48.3469 156.421C48.1198 156.773 47.8586 157.148 47.586 157.466C43.3499 162.44 35.7293 163.428 29.5625 163.122C25.8261 162.94 22.1351 162.316 18.5122 161.452L18.5236 161.134Z" fill="url(#paint105_linear_4296_1202)"/>
<path d="M224.345 104.475C227.435 102.203 230.717 100.148 234.226 98.5689C236.634 97.5014 239.166 96.695 241.744 96.1612C245.674 95.3549 249.796 95.1505 253.794 94.9006C259.416 94.5713 265.026 94.0034 270.557 92.9018C274.293 92.1522 278.007 91.255 281.641 90.1307C282.584 89.8127 283.504 89.4379 284.412 89.0291C291.738 85.7355 298.177 80.3978 305.582 77.2633C308.58 76.0594 312.294 75.2077 314.894 77.7175C315.019 77.8425 315.122 77.9674 315.247 78.0923L315.349 78.2286L315.565 78.4898C315.746 78.751 315.973 79.0577 316.11 79.3416C317.109 81.1246 316.984 83.3279 315.36 84.6907C314.134 85.7356 312.362 85.94 310.885 85.3721C309.704 84.9292 308.716 84.0434 308.001 83.0212C305.548 79.4779 305.366 75.4462 308.251 72.0959C312.407 67.3714 320.096 65.2703 326.161 64.5548C330.135 64.1233 336.677 64.0211 339.834 66.6559C339.993 66.7922 340.141 66.9398 340.277 67.0988L340.039 67.3146C339.766 67.042 339.46 66.8035 339.119 66.5991C338.789 66.3947 338.426 66.2243 338.063 66.088C335.837 65.2362 333.406 65.1 331.033 65.1227C326.263 65.2476 321.493 66.2016 317.064 67.9506C312.555 69.7677 306.365 73.4019 307.808 79.1258C308.251 80.7612 309.261 82.6805 310.738 83.6004C311.828 84.3046 313.339 84.3841 314.361 83.5209C315.11 82.9077 315.371 81.9196 315.133 80.9997C315.019 80.5227 314.781 80.023 314.497 79.6028L314.349 79.3757L314.179 79.1712L314.099 79.069L314.009 78.9782L313.827 78.7851C313.747 78.717 313.622 78.592 313.543 78.5239C313.463 78.4671 313.361 78.3876 313.293 78.3308C313.27 78.3195 313.259 78.3081 313.236 78.2967L313.021 78.1605C312.918 78.0923 312.793 78.0355 312.68 77.9788L312.566 77.9333C312.487 77.8993 312.407 77.8652 312.328 77.8311L312.078 77.7516C311.964 77.7175 311.817 77.6835 311.703 77.6494C311.317 77.5699 310.908 77.5358 310.499 77.5358C310.374 77.5358 310.193 77.5358 310.09 77.5472C309.954 77.5585 309.807 77.5699 309.67 77.5813C308.421 77.7175 307.229 78.081 306.047 78.5239C303.072 79.6709 300.301 81.2723 297.53 82.8622C293.453 85.2245 289.057 87.9615 284.753 89.8468C283.629 90.3351 282.482 90.778 281.301 91.1301C271.579 93.9807 261.483 95.2413 251.386 95.6047C248.979 95.741 246.571 95.8887 244.175 96.2294C241.211 96.6382 238.246 97.3764 235.464 98.4894L234.907 98.7166L234.623 98.8301C234.533 98.8642 234.442 98.9096 234.351 98.9437L233.806 99.1935L233.261 99.4434C230.172 100.908 227.276 102.737 224.504 104.736C224.539 104.736 224.345 104.475 224.345 104.475Z" fill="url(#paint106_linear_4296_1202)"/>
<path d="M156.93 74.6624C146.709 67.2009 143.609 72.198 139.713 65.1112C137.01 60.0801 135.557 54.6742 129.651 50.7447C123.995 46.8152 110.651 44.5665 108.186 42.3178C103.825 38.3883 105.733 25.1007 102.315 22.8179C97.0566 19.5926 83.4283 37.9568 77.7044 29.3482C74.7402 24.7486 77.1365 14.6069 79.1581 11.6768L79.442 11.8698C76.6482 16.0833 74.3086 32.6304 83.2579 30.4271C89.1068 29.0075 96.5115 19.4563 102.088 20.8645C108.8 22.4091 104.677 39.9215 110.163 41.9658C119.952 45.6227 122.826 46.0202 126.732 47.7919C139.918 53.9814 137.771 66.2469 144.415 68.666C147.266 69.7335 150.673 69.3133 157.021 74.5489C156.908 74.6965 156.942 74.6624 156.93 74.6624Z" fill="url(#paint107_linear_4296_1202)"/>
<path d="M204.845 125.178C214.964 127.824 219.144 138.67 226.934 144.621C231.557 148.255 237.576 149.141 242.675 151.878C244.89 153.048 246.957 154.615 248.331 156.739C249.012 157.807 249.66 159.01 249.512 160.328C249.353 161.725 248.047 162.667 246.696 162.633C245.287 162.645 244.231 161.327 244.197 159.976C244.118 157.943 246.094 156.921 247.899 157.159C249.205 157.284 250.33 158.068 251.25 158.942C252.465 160.101 253.521 161.361 254.702 162.531C257.019 164.882 259.608 166.938 262.38 168.732C263.72 169.595 265.139 170.549 266.741 170.742C268.864 171.026 270.409 169.425 270.659 167.403C270.761 166.631 270.602 165.847 270.295 165.132C269.341 162.917 266.979 161.577 264.64 161.327C262.709 161.1 260.574 161.702 259.359 163.303C257.984 165.075 258.234 167.54 258.836 169.584C259.802 173.002 262.595 175.376 265.9 176.489C268.501 177.375 271.329 177.647 274.054 177.284C274.577 177.216 275.099 177.17 275.622 177.147C277.723 177.057 279.881 177.329 281.777 178.249C284.56 179.567 286.32 182.258 286.104 185.37L285.945 185.359C285.968 184.541 285.866 183.712 285.616 182.94C284.594 179.657 281.334 177.954 278.086 177.659C276.769 177.522 275.429 177.579 274.111 177.772C273.805 177.818 273.487 177.863 273.169 177.886C268.24 178.295 262.539 176.909 259.586 172.65C258.859 171.594 258.359 170.39 258.053 169.152C257.53 167.097 257.473 164.678 258.848 162.929C261.641 159.351 267.717 160.294 270.216 163.758C271.249 165.177 271.624 167.131 270.909 168.766C270.409 170.004 269.33 171.049 267.99 171.287C266.684 171.537 265.366 171.094 264.219 170.504C263.845 170.311 263.481 170.095 263.118 169.879C259.938 167.892 256.951 165.575 254.339 162.872C253.18 161.702 252.113 160.407 250.92 159.272C250.341 158.715 249.694 158.204 248.967 157.886C247.593 157.284 245.605 157.432 244.81 158.863C244.084 160.226 245.06 162.259 246.684 162.259C247.445 162.27 248.24 161.941 248.717 161.327C249.205 160.703 249.262 159.862 249.069 159.101C248.876 158.318 248.467 157.591 248.047 156.909C246.707 154.831 244.697 153.275 242.528 152.128C237.428 149.38 231.398 148.448 226.798 144.78C220.223 139.681 216.532 131.583 209.377 127.166C207.957 126.314 206.424 125.644 204.823 125.235C204.834 125.235 204.845 125.178 204.845 125.178Z" fill="url(#paint108_linear_4296_1202)"/>
<path d="M192.046 74.3445C195.805 72.2093 199.837 69.9152 201.961 65.9971C203.676 62.6809 204.096 58.9104 204.607 55.2648C204.845 53.5839 205.027 51.8804 205.481 50.2336C205.629 49.7339 205.811 49.2115 206.106 48.7686C206.628 47.9623 207.639 47.6215 208.559 47.7124C209.275 47.7692 209.956 47.9963 210.592 48.3143C211.489 48.78 212.33 49.4046 213.227 49.8134C215.214 50.7788 216.94 49.8475 217.815 47.9395C218.814 45.5205 217.985 42.6472 217.236 40.2509C216.634 38.2293 215.237 35.2538 215.555 33.1755C215.907 31.1767 217.701 31.0063 219.371 31.2903C221.086 31.5855 222.733 32.1988 224.322 32.8121C226.844 33.7774 229.308 34.9131 231.852 35.7649C232.704 36.0375 235.1 36.8097 235.679 36.0261C236.259 34.7655 234.487 30.9495 233.93 29.5753C232.613 26.4749 231.023 23.3858 230.126 20.0696C230.046 19.7289 229.967 19.3768 229.921 19.0247C229.615 17.0259 230.376 15.788 232.545 15.9356C233.601 16.0038 234.623 16.2877 235.623 16.5716C238.848 17.5029 242.017 18.8203 245.367 19.1951C246.968 19.3541 248.74 19.2632 250.035 18.2184C250.943 17.5597 250.909 16.6625 250.591 15.6631C250.182 14.3797 249.433 13.2213 249.001 11.938L249.092 11.9039C249.58 13.1646 250.375 14.2775 250.852 15.5722C251.204 16.5262 251.307 17.6051 250.478 18.3433C250.16 18.6613 249.796 18.9112 249.399 19.1156C246.934 20.3421 243.8 19.6607 241.256 19.0475C239.268 18.5591 237.349 17.9118 235.384 17.378C234.294 17.1054 232.272 16.5149 231.273 17.0486C229.728 18.014 232.693 23.965 233.294 25.396C234.407 27.8945 235.623 30.3136 236.508 32.9257C236.804 33.8796 237.144 34.9926 236.951 36.0375C236.611 37.6729 234.805 37.7183 233.51 37.4571C232.795 37.3321 232.125 37.1277 231.466 36.9233C228.865 36.0488 226.412 34.9018 223.891 33.8796C222.051 33.1641 220.223 32.3578 218.247 32.2102C217.838 32.1988 217.474 32.2215 217.122 32.3805L217.043 32.4259L217.009 32.4487L216.975 32.4714C216.452 32.8575 216.407 33.6184 216.441 34.2317C216.486 34.8563 216.622 35.5037 216.793 36.1397C217.315 38.0703 218.053 40.0124 218.508 41.9999C218.973 44.01 219.257 46.2587 218.394 48.2121C217.361 50.404 215.26 51.4602 212.977 50.3359C211.466 49.6317 210.229 48.3711 208.502 48.2235C206.946 48.0985 206.322 48.973 205.924 50.3586C205.459 51.9713 205.266 53.6521 205.016 55.3216C204.459 59.0012 203.982 62.8171 202.21 66.1447C201.381 67.6325 200.223 68.9499 198.928 70.0515C196.861 71.8232 194.465 73.1406 192.08 74.4353C192.091 74.4353 192.046 74.3445 192.046 74.3445Z" fill="url(#paint109_linear_4296_1202)"/>
<path d="M117.011 97.6149C113.922 97.0471 110.73 96.4111 107.755 95.4457C105.87 94.8438 104.007 94.0716 102.338 93.004C101.043 92.1863 99.8391 91.221 98.5331 90.426C94.9556 88.2114 91.151 87.723 87.0966 88.7906C85.1659 89.2562 83.3374 90.1193 81.35 90.3465C76.9889 90.937 72.1963 89.5628 69.2889 86.1558C68.5053 85.2472 67.8466 84.2024 67.2787 83.1462C65.791 80.3864 64.837 77.3087 62.8722 74.8215C59.1585 69.938 53.0825 70.9147 47.881 72.3911C44.8374 73.2429 41.8391 74.2991 38.7614 75.0827C34.7751 76.0935 30.0847 76.7295 26.53 74.1742C23.8611 72.164 22.7822 69.1771 24.3267 66.0767C25.417 63.9188 27.3817 62.2153 29.6418 61.3635C31.6292 60.6367 33.9461 60.7843 35.0818 62.7945C35.8881 64.2141 36.0471 66.088 35.0023 67.4281C33.7303 69.0522 31.5157 69.5405 29.5396 69.5178C27.1433 69.461 24.7924 68.6433 22.8049 67.3373C20.136 65.5883 18.1485 62.9308 16.9333 60.0007L17.0015 59.9666C17.6261 61.4203 18.4211 62.7945 19.4092 64.0324C22.2711 67.6666 27.2227 70.1311 31.8677 69.0295C33.753 68.5752 35.536 67.2351 35.4565 65.134C35.3543 63.1352 34.1618 61.3635 32.0154 61.2954C30.0733 61.2386 28.2222 62.2494 26.7912 63.4986C24.0655 65.929 22.8503 69.6768 25.5192 72.641C28.8014 76.3774 34.2868 75.7301 38.6365 74.5717C43.2474 73.3905 47.6653 71.5166 52.3898 70.7898C56.7735 70.1084 60.8166 70.9261 63.5764 74.6512C65.5752 77.2973 66.5064 80.5227 68.0851 83.3847C68.3008 83.7822 68.5961 84.2591 68.8346 84.6339C68.9936 84.8611 69.1753 85.1223 69.3457 85.3381L69.7091 85.7923C72.4688 89.1086 77.0911 90.46 81.2932 89.9376C83.2579 89.7218 85.0864 88.8928 87.0057 88.4385C91.0829 87.405 94.9443 87.8934 98.5331 90.1307C99.805 90.8916 100.975 91.8342 102.201 92.6633C103.928 93.8103 105.836 94.6508 107.8 95.2981C109.845 95.9909 111.991 96.4906 114.103 96.9562C115.364 97.2288 115.966 97.331 117.011 97.5354C117.022 97.5468 117.011 97.6149 117.011 97.6149Z" fill="#1B90DD"/>
<defs>
<linearGradient id="paint0_linear_4296_1202" x1="140.71" y1="178.456" x2="147.269" y2="180.468" gradientUnits="userSpaceOnUse">
<stop stop-color="#61D3D7"/>
<stop offset="0.2216" stop-color="#57CFD7"/>
<stop offset="0.6006" stop-color="#3CC6D5"/>
<stop offset="1" stop-color="#18B9D4"/>
</linearGradient>
<linearGradient id="paint1_linear_4296_1202" x1="139.158" y1="179.136" x2="143.783" y2="187.677" gradientUnits="userSpaceOnUse">
<stop stop-color="#61D3D7"/>
<stop offset="0.2216" stop-color="#57CFD7"/>
<stop offset="0.6006" stop-color="#3CC6D5"/>
<stop offset="1" stop-color="#18B9D4"/>
</linearGradient>
<linearGradient id="paint2_linear_4296_1202" x1="146.358" y1="164.395" x2="159.65" y2="168.472" gradientUnits="userSpaceOnUse">
<stop stop-color="#61D3D7"/>
<stop offset="0.2216" stop-color="#57CFD7"/>
<stop offset="0.6006" stop-color="#3CC6D5"/>
<stop offset="1" stop-color="#18B9D4"/>
</linearGradient>
<linearGradient id="paint3_linear_4296_1202" x1="166.997" y1="141.845" x2="154.649" y2="148.305" gradientUnits="userSpaceOnUse">
<stop stop-color="#61D3D7"/>
<stop offset="0.2216" stop-color="#57CFD7"/>
<stop offset="0.6006" stop-color="#3CC6D5"/>
<stop offset="1" stop-color="#18B9D4"/>
</linearGradient>
<linearGradient id="paint4_linear_4296_1202" x1="144.371" y1="166.901" x2="151.078" y2="178.059" gradientUnits="userSpaceOnUse">
<stop stop-color="#61D3D7"/>
<stop offset="0.2216" stop-color="#57CFD7"/>
<stop offset="0.6006" stop-color="#3CC6D5"/>
<stop offset="1" stop-color="#18B9D4"/>
</linearGradient>
<linearGradient id="paint5_linear_4296_1202" x1="154.937" y1="151.269" x2="164.289" y2="162.44" gradientUnits="userSpaceOnUse">
<stop stop-color="#61D3D7"/>
<stop offset="0.2216" stop-color="#57CFD7"/>
<stop offset="0.6006" stop-color="#3CC6D5"/>
<stop offset="1" stop-color="#18B9D4"/>
</linearGradient>
<linearGradient id="paint6_linear_4296_1202" x1="93.451" y1="66.3731" x2="94.4983" y2="62.9751" gradientUnits="userSpaceOnUse">
<stop stop-color="#61D3D7"/>
<stop offset="0.2216" stop-color="#57CFD7"/>
<stop offset="0.6006" stop-color="#3CC6D5"/>
<stop offset="1" stop-color="#18B9D4"/>
</linearGradient>
<linearGradient id="paint7_linear_4296_1202" x1="93.8017" y1="67.1773" x2="98.2311" y2="64.7869" gradientUnits="userSpaceOnUse">
<stop stop-color="#61D3D7"/>
<stop offset="0.2216" stop-color="#57CFD7"/>
<stop offset="0.6006" stop-color="#3CC6D5"/>
<stop offset="1" stop-color="#18B9D4"/>
</linearGradient>
<linearGradient id="paint8_linear_4296_1202" x1="86.1681" y1="63.436" x2="88.2904" y2="56.5505" gradientUnits="userSpaceOnUse">
<stop stop-color="#61D3D7"/>
<stop offset="0.2216" stop-color="#57CFD7"/>
<stop offset="0.6006" stop-color="#3CC6D5"/>
<stop offset="1" stop-color="#18B9D4"/>
</linearGradient>
<linearGradient id="paint9_linear_4296_1202" x1="74.4974" y1="52.7237" x2="77.8357" y2="59.1275" gradientUnits="userSpaceOnUse">
<stop stop-color="#61D3D7"/>
<stop offset="0.2216" stop-color="#57CFD7"/>
<stop offset="0.6006" stop-color="#3CC6D5"/>
<stop offset="1" stop-color="#18B9D4"/>
</linearGradient>
<linearGradient id="paint10_linear_4296_1202" x1="87.4654" y1="64.4672" x2="93.2525" y2="60.9994" gradientUnits="userSpaceOnUse">
<stop stop-color="#61D3D7"/>
<stop offset="0.2216" stop-color="#57CFD7"/>
<stop offset="0.6006" stop-color="#3CC6D5"/>
<stop offset="1" stop-color="#18B9D4"/>
</linearGradient>
<linearGradient id="paint11_linear_4296_1202" x1="79.3715" y1="58.9801" x2="85.1673" y2="54.1417" gradientUnits="userSpaceOnUse">
<stop stop-color="#61D3D7"/>
<stop offset="0.2216" stop-color="#57CFD7"/>
<stop offset="0.6006" stop-color="#3CC6D5"/>
<stop offset="1" stop-color="#18B9D4"/>
</linearGradient>
<linearGradient id="paint12_linear_4296_1202" x1="283.083" y1="137.573" x2="284.23" y2="134.05" gradientUnits="userSpaceOnUse">
<stop stop-color="#5221B5"/>
<stop offset="0.116" stop-color="#692CCF"/>
<stop offset="0.2612" stop-color="#7F37E9"/>
<stop offset="0.3915" stop-color="#8D3EF9"/>
<stop offset="0.4931" stop-color="#9240FF"/>
<stop offset="0.6086" stop-color="#8F3EFB"/>
<stop offset="0.7255" stop-color="#8439EF"/>
<stop offset="0.8431" stop-color="#7331DB"/>
<stop offset="0.9605" stop-color="#5B26BE"/>
<stop offset="1" stop-color="#5121B3"/>
</linearGradient>
<linearGradient id="paint13_linear_4296_1202" x1="283.464" y1="138.426" x2="288.167" y2="135.835" gradientUnits="userSpaceOnUse">
<stop stop-color="#532E9E"/>
<stop offset="0.5121" stop-color="#BE70FF"/>
<stop offset="1" stop-color="#7C48FF"/>
</linearGradient>
<linearGradient id="paint14_linear_4296_1202" x1="275.155" y1="134.265" x2="277.48" y2="127.128" gradientUnits="userSpaceOnUse">
<stop stop-color="#5221B5"/>
<stop offset="0.116" stop-color="#692CCF"/>
<stop offset="0.2612" stop-color="#7F37E9"/>
<stop offset="0.3915" stop-color="#8D3EF9"/>
<stop offset="0.4931" stop-color="#9240FF"/>
<stop offset="0.6086" stop-color="#8F3EFB"/>
<stop offset="0.7255" stop-color="#8439EF"/>
<stop offset="0.8431" stop-color="#7331DB"/>
<stop offset="0.9605" stop-color="#5B26BE"/>
<stop offset="1" stop-color="#5121B3"/>
</linearGradient>
<linearGradient id="paint15_linear_4296_1202" x1="262.46" y1="122.679" x2="265.742" y2="129.649" gradientUnits="userSpaceOnUse">
<stop stop-color="#5221B5"/>
<stop offset="0.116" stop-color="#692CCF"/>
<stop offset="0.2612" stop-color="#7F37E9"/>
<stop offset="0.3915" stop-color="#8D3EF9"/>
<stop offset="0.4931" stop-color="#9240FF"/>
<stop offset="0.6086" stop-color="#8F3EFB"/>
<stop offset="0.7255" stop-color="#8439EF"/>
<stop offset="0.8431" stop-color="#7331DB"/>
<stop offset="0.9605" stop-color="#5B26BE"/>
<stop offset="1" stop-color="#5121B3"/>
</linearGradient>
<linearGradient id="paint16_linear_4296_1202" x1="276.566" y1="135.385" x2="282.694" y2="131.643" gradientUnits="userSpaceOnUse">
<stop stop-color="#532E9E"/>
<stop offset="0.5121" stop-color="#BE70FF"/>
<stop offset="1" stop-color="#7C48FF"/>
</linearGradient>
<linearGradient id="paint17_linear_4296_1202" x1="267.759" y1="129.383" x2="273.851" y2="124.232" gradientUnits="userSpaceOnUse">
<stop stop-color="#532E9E"/>
<stop offset="0.5121" stop-color="#BE70FF"/>
<stop offset="1" stop-color="#7C48FF"/>
</linearGradient>
<linearGradient id="paint18_linear_4296_1202" x1="281.73" y1="43.1742" x2="295.562" y2="43.1742" gradientUnits="userSpaceOnUse">
<stop stop-color="#C7122D"/>
<stop offset="0.5035" stop-color="#FF6685"/>
<stop offset="1" stop-color="#D43845"/>
</linearGradient>
<linearGradient id="paint19_linear_4296_1202" x1="203.431" y1="160.696" x2="210.968" y2="175.072" gradientUnits="userSpaceOnUse">
<stop stop-color="#532E9E"/>
<stop offset="0.5121" stop-color="#BE70FF"/>
<stop offset="1" stop-color="#7C48FF"/>
</linearGradient>
<linearGradient id="paint20_linear_4296_1202" x1="101.877" y1="170.868" x2="107.846" y2="170.868" gradientUnits="userSpaceOnUse">
<stop stop-color="#948BE2"/>
<stop offset="0.3319" stop-color="#8A81DB"/>
<stop offset="0.8981" stop-color="#7066C7"/>
<stop offset="1" stop-color="#6A60C3"/>
</linearGradient>
<linearGradient id="paint21_linear_4296_1202" x1="99.0843" y1="172.855" x2="102.671" y2="172.855" gradientUnits="userSpaceOnUse">
<stop stop-color="#948BE2"/>
<stop offset="0.3319" stop-color="#8A81DB"/>
<stop offset="0.8981" stop-color="#7066C7"/>
<stop offset="1" stop-color="#6A60C3"/>
</linearGradient>
<linearGradient id="paint22_linear_4296_1202" x1="106.935" y1="169.53" x2="111.015" y2="169.53" gradientUnits="userSpaceOnUse">
<stop stop-color="#948BE2"/>
<stop offset="0.3319" stop-color="#8A81DB"/>
<stop offset="0.8981" stop-color="#7066C7"/>
<stop offset="1" stop-color="#6A60C3"/>
</linearGradient>
<linearGradient id="paint23_linear_4296_1202" x1="159.511" y1="101.044" x2="158.907" y2="101.044" gradientUnits="userSpaceOnUse">
<stop stop-color="#0092DC"/>
<stop offset="0.3261" stop-color="#0888E4"/>
<stop offset="0.8825" stop-color="#1F6DFA"/>
<stop offset="1" stop-color="#2466FF"/>
</linearGradient>
<linearGradient id="paint24_linear_4296_1202" x1="150.557" y1="49.5981" x2="150.059" y2="49.5981" gradientUnits="userSpaceOnUse">
<stop stop-color="#7F2390"/>
<stop offset="0.2994" stop-color="#982182"/>
<stop offset="0.9341" stop-color="#D91D5F"/>
<stop offset="1" stop-color="#E01C5B"/>
</linearGradient>
<linearGradient id="paint25_linear_4296_1202" x1="192.398" y1="39.9309" x2="188.031" y2="39.9309" gradientUnits="userSpaceOnUse">
<stop stop-color="#0092DC"/>
<stop offset="0.3261" stop-color="#0888E4"/>
<stop offset="0.8825" stop-color="#1F6DFA"/>
<stop offset="1" stop-color="#2466FF"/>
</linearGradient>
<linearGradient id="paint26_linear_4296_1202" x1="141.762" y1="77.0159" x2="140.414" y2="77.0159" gradientUnits="userSpaceOnUse">
<stop stop-color="#0092DC"/>
<stop offset="0.3261" stop-color="#0888E4"/>
<stop offset="0.8825" stop-color="#1F6DFA"/>
<stop offset="1" stop-color="#2466FF"/>
</linearGradient>
<linearGradient id="paint27_linear_4296_1202" x1="134.611" y1="149.336" x2="132.889" y2="147.371" gradientUnits="userSpaceOnUse">
<stop stop-color="#0092DC"/>
<stop offset="0.2193" stop-color="#009CD4"/>
<stop offset="0.5944" stop-color="#00B7C0"/>
<stop offset="1" stop-color="#00DCA5"/>
</linearGradient>
<linearGradient id="paint28_linear_4296_1202" x1="130.727" y1="84.1864" x2="129.232" y2="84.1864" gradientUnits="userSpaceOnUse">
<stop stop-color="#FF5600"/>
<stop offset="0.1769" stop-color="#FF6000"/>
<stop offset="0.4798" stop-color="#FF7B00"/>
<stop offset="0.8695" stop-color="#FFA800"/>
<stop offset="1" stop-color="#FFB800"/>
</linearGradient>
<linearGradient id="paint29_linear_4296_1202" x1="212.295" y1="160.464" x2="210.161" y2="160.464" gradientUnits="userSpaceOnUse">
<stop stop-color="#7F2390"/>
<stop offset="0.2994" stop-color="#982182"/>
<stop offset="0.9341" stop-color="#D91D5F"/>
<stop offset="1" stop-color="#E01C5B"/>
</linearGradient>
<linearGradient id="paint30_linear_4296_1202" x1="214.589" y1="37.9133" x2="213.965" y2="37.9133" gradientUnits="userSpaceOnUse">
<stop stop-color="#0092DC"/>
<stop offset="0.3261" stop-color="#0888E4"/>
<stop offset="0.8825" stop-color="#1F6DFA"/>
<stop offset="1" stop-color="#2466FF"/>
</linearGradient>
<linearGradient id="paint31_linear_4296_1202" x1="176.161" y1="75.1617" x2="175.68" y2="75.1617" gradientUnits="userSpaceOnUse">
<stop stop-color="#948BE2"/>
<stop offset="0.3319" stop-color="#8A81DB"/>
<stop offset="0.8981" stop-color="#7066C7"/>
<stop offset="1" stop-color="#6A60C3"/>
</linearGradient>
<linearGradient id="paint32_linear_4296_1202" x1="221.704" y1="93.8812" x2="219.492" y2="93.8812" gradientUnits="userSpaceOnUse">
<stop stop-color="#7F2390"/>
<stop offset="0.2994" stop-color="#982182"/>
<stop offset="0.9341" stop-color="#D91D5F"/>
<stop offset="1" stop-color="#E01C5B"/>
</linearGradient>
<linearGradient id="paint33_linear_4296_1202" x1="228.096" y1="121.207" x2="227.297" y2="121.207" gradientUnits="userSpaceOnUse">
<stop stop-color="#0092DC"/>
<stop offset="0.3261" stop-color="#0888E4"/>
<stop offset="0.8825" stop-color="#1F6DFA"/>
<stop offset="1" stop-color="#2466FF"/>
</linearGradient>
<linearGradient id="paint34_linear_4296_1202" x1="241.501" y1="98.516" x2="239.787" y2="98.516" gradientUnits="userSpaceOnUse">
<stop stop-color="#7F2390"/>
<stop offset="0.2994" stop-color="#982182"/>
<stop offset="0.9341" stop-color="#D91D5F"/>
<stop offset="1" stop-color="#E01C5B"/>
</linearGradient>
<linearGradient id="paint35_linear_4296_1202" x1="232.308" y1="53.9354" x2="231.161" y2="53.9354" gradientUnits="userSpaceOnUse">
<stop stop-color="#948BE2"/>
<stop offset="0.3319" stop-color="#8A81DB"/>
<stop offset="0.8981" stop-color="#7066C7"/>
<stop offset="1" stop-color="#6A60C3"/>
</linearGradient>
<linearGradient id="paint36_linear_4296_1202" x1="266.727" y1="48.9769" x2="265.652" y2="48.9769" gradientUnits="userSpaceOnUse">
<stop stop-color="#0092DC"/>
<stop offset="0.3261" stop-color="#0888E4"/>
<stop offset="0.8825" stop-color="#1F6DFA"/>
<stop offset="1" stop-color="#2466FF"/>
</linearGradient>
<linearGradient id="paint37_linear_4296_1202" x1="292.119" y1="73.5668" x2="290.017" y2="73.5668" gradientUnits="userSpaceOnUse">
<stop stop-color="#7F2390"/>
<stop offset="0.2994" stop-color="#982182"/>
<stop offset="0.9341" stop-color="#D91D5F"/>
<stop offset="1" stop-color="#E01C5B"/>
</linearGradient>
<linearGradient id="paint38_linear_4296_1202" x1="272.059" y1="110.092" x2="269.693" y2="110.092" gradientUnits="userSpaceOnUse">
<stop stop-color="#948BE2"/>
<stop offset="0.3319" stop-color="#8A81DB"/>
<stop offset="0.8981" stop-color="#7066C7"/>
<stop offset="1" stop-color="#6A60C3"/>
</linearGradient>
<linearGradient id="paint39_linear_4296_1202" x1="287.537" y1="121.477" x2="286.641" y2="121.477" gradientUnits="userSpaceOnUse">
<stop stop-color="#FF5600"/>
<stop offset="0.1769" stop-color="#FF6000"/>
<stop offset="0.4798" stop-color="#FF7B00"/>
<stop offset="0.8695" stop-color="#FFA800"/>
<stop offset="1" stop-color="#FFB800"/>
</linearGradient>
<linearGradient id="paint40_linear_4296_1202" x1="289.765" y1="106.297" x2="288.45" y2="106.297" gradientUnits="userSpaceOnUse">
<stop stop-color="#0092DC"/>
<stop offset="0.2193" stop-color="#009CD4"/>
<stop offset="0.5944" stop-color="#00B7C0"/>
<stop offset="1" stop-color="#00DCA5"/>
</linearGradient>
<linearGradient id="paint41_linear_4296_1202" x1="270.875" y1="97.0527" x2="269.97" y2="97.0527" gradientUnits="userSpaceOnUse">
<stop stop-color="#0092DC"/>
<stop offset="0.3261" stop-color="#0888E4"/>
<stop offset="0.8825" stop-color="#1F6DFA"/>
<stop offset="1" stop-color="#2466FF"/>
</linearGradient>
<linearGradient id="paint42_linear_4296_1202" x1="255.765" y1="127.09" x2="254.336" y2="127.09" gradientUnits="userSpaceOnUse">
<stop stop-color="#7F2390"/>
<stop offset="0.2994" stop-color="#982182"/>
<stop offset="0.9341" stop-color="#D91D5F"/>
<stop offset="1" stop-color="#E01C5B"/>
</linearGradient>
<linearGradient id="paint43_linear_4296_1202" x1="293.557" y1="161.269" x2="292.119" y2="161.269" gradientUnits="userSpaceOnUse">
<stop stop-color="#0092DC"/>
<stop offset="0.2193" stop-color="#009CD4"/>
<stop offset="0.5944" stop-color="#00B7C0"/>
<stop offset="1" stop-color="#00DCA5"/>
</linearGradient>
<linearGradient id="paint44_linear_4296_1202" x1="305.548" y1="96.2664" x2="304.251" y2="96.2664" gradientUnits="userSpaceOnUse">
<stop stop-color="#7F2390"/>
<stop offset="0.2994" stop-color="#982182"/>
<stop offset="0.9341" stop-color="#D91D5F"/>
<stop offset="1" stop-color="#E01C5B"/>
</linearGradient>
<linearGradient id="paint45_linear_4296_1202" x1="221.563" y1="150.72" x2="220.598" y2="150.72" gradientUnits="userSpaceOnUse">
<stop stop-color="#0092DC"/>
<stop offset="0.3261" stop-color="#0888E4"/>
<stop offset="0.8825" stop-color="#1F6DFA"/>
<stop offset="1" stop-color="#2466FF"/>
</linearGradient>
<linearGradient id="paint46_linear_4296_1202" x1="239.22" y1="157.083" x2="238.497" y2="157.083" gradientUnits="userSpaceOnUse">
<stop stop-color="#FF5600"/>
<stop offset="0.1769" stop-color="#FF6000"/>
<stop offset="0.4798" stop-color="#FF7B00"/>
<stop offset="0.8695" stop-color="#FFA800"/>
<stop offset="1" stop-color="#FFB800"/>
</linearGradient>
<linearGradient id="paint47_linear_4296_1202" x1="233.822" y1="171.842" x2="233.184" y2="171.842" gradientUnits="userSpaceOnUse">
<stop stop-color="#0092DC"/>
<stop offset="0.3261" stop-color="#0888E4"/>
<stop offset="0.8825" stop-color="#1F6DFA"/>
<stop offset="1" stop-color="#2466FF"/>
</linearGradient>
<linearGradient id="paint48_linear_4296_1202" x1="254.616" y1="141.174" x2="254.056" y2="141.174" gradientUnits="userSpaceOnUse">
<stop stop-color="#7F2390"/>
<stop offset="0.2994" stop-color="#982182"/>
<stop offset="0.9341" stop-color="#D91D5F"/>
<stop offset="1" stop-color="#E01C5B"/>
</linearGradient>
<linearGradient id="paint49_linear_4296_1202" x1="240.715" y1="114.187" x2="238.859" y2="114.187" gradientUnits="userSpaceOnUse">
<stop stop-color="#0092DC"/>
<stop offset="0.3261" stop-color="#0888E4"/>
<stop offset="0.8825" stop-color="#1F6DFA"/>
<stop offset="1" stop-color="#2466FF"/>
</linearGradient>
<linearGradient id="paint50_linear_4296_1202" x1="215.749" y1="139.699" x2="214.277" y2="139.699" gradientUnits="userSpaceOnUse">
<stop stop-color="#948BE2"/>
<stop offset="0.3319" stop-color="#8A81DB"/>
<stop offset="0.8981" stop-color="#7066C7"/>
<stop offset="1" stop-color="#6A60C3"/>
</linearGradient>
<linearGradient id="paint51_linear_4296_1202" x1="191.793" y1="113.158" x2="191.123" y2="113.158" gradientUnits="userSpaceOnUse">
<stop stop-color="#7F2390"/>
<stop offset="0.2994" stop-color="#982182"/>
<stop offset="0.9341" stop-color="#D91D5F"/>
<stop offset="1" stop-color="#E01C5B"/>
</linearGradient>
<linearGradient id="paint52_linear_4296_1202" x1="173.003" y1="127.512" x2="172.299" y2="127.512" gradientUnits="userSpaceOnUse">
<stop stop-color="#948BE2"/>
<stop offset="0.3319" stop-color="#8A81DB"/>
<stop offset="0.8981" stop-color="#7066C7"/>
<stop offset="1" stop-color="#6A60C3"/>
</linearGradient>
<linearGradient id="paint53_linear_4296_1202" x1="66.5487" y1="160.464" x2="64.8538" y2="160.464" gradientUnits="userSpaceOnUse">
<stop stop-color="#0092DC"/>
<stop offset="0.3261" stop-color="#0888E4"/>
<stop offset="0.8825" stop-color="#1F6DFA"/>
<stop offset="1" stop-color="#2466FF"/>
</linearGradient>
<linearGradient id="paint54_linear_4296_1202" x1="178.202" y1="170.647" x2="175.92" y2="170.647" gradientUnits="userSpaceOnUse">
<stop stop-color="#0092DC"/>
<stop offset="0.2193" stop-color="#009CD4"/>
<stop offset="0.5944" stop-color="#00B7C0"/>
<stop offset="1" stop-color="#00DCA5"/>
</linearGradient>
<linearGradient id="paint55_linear_4296_1202" x1="191.966" y1="148.343" x2="191.458" y2="148.343" gradientUnits="userSpaceOnUse">
<stop stop-color="#0092DC"/>
<stop offset="0.3261" stop-color="#0888E4"/>
<stop offset="0.8825" stop-color="#1F6DFA"/>
<stop offset="1" stop-color="#2466FF"/>
</linearGradient>
<linearGradient id="paint56_linear_4296_1202" x1="178.797" y1="140.2" x2="177.831" y2="140.2" gradientUnits="userSpaceOnUse">
<stop stop-color="#FF5600"/>
<stop offset="0.1769" stop-color="#FF6000"/>
<stop offset="0.4798" stop-color="#FF7B00"/>
<stop offset="0.8695" stop-color="#FFA800"/>
<stop offset="1" stop-color="#FFB800"/>
</linearGradient>
<linearGradient id="paint57_linear_4296_1202" x1="102.931" y1="154.707" x2="101.482" y2="154.707" gradientUnits="userSpaceOnUse">
<stop stop-color="#7F2390"/>
<stop offset="0.2994" stop-color="#982182"/>
<stop offset="0.9341" stop-color="#D91D5F"/>
<stop offset="1" stop-color="#E01C5B"/>
</linearGradient>
<linearGradient id="paint58_linear_4296_1202" x1="163.539" y1="163.663" x2="161.972" y2="163.663" gradientUnits="userSpaceOnUse">
<stop stop-color="#0092DC"/>
<stop offset="0.3261" stop-color="#0888E4"/>
<stop offset="0.8825" stop-color="#1F6DFA"/>
<stop offset="1" stop-color="#2466FF"/>
</linearGradient>
<linearGradient id="paint59_linear_4296_1202" x1="129.307" y1="161.268" x2="127.629" y2="161.268" gradientUnits="userSpaceOnUse">
<stop stop-color="#FF4856"/>
<stop offset="0.162" stop-color="#FF5260"/>
<stop offset="0.4393" stop-color="#FF6D79"/>
<stop offset="0.796" stop-color="#FF9AA3"/>
<stop offset="1" stop-color="#FFB6BE"/>
</linearGradient>
<linearGradient id="paint60_linear_4296_1202" x1="139.782" y1="137.274" x2="139.101" y2="137.274" gradientUnits="userSpaceOnUse">
<stop stop-color="#0092DC"/>
<stop offset="0.3261" stop-color="#0888E4"/>
<stop offset="0.8825" stop-color="#1F6DFA"/>
<stop offset="1" stop-color="#2466FF"/>
</linearGradient>
<linearGradient id="paint61_linear_4296_1202" x1="146.309" y1="137.809" x2="144.514" y2="137.809" gradientUnits="userSpaceOnUse">
<stop stop-color="#7F2390"/>
<stop offset="0.2994" stop-color="#982182"/>
<stop offset="0.9341" stop-color="#D91D5F"/>
<stop offset="1" stop-color="#E01C5B"/>
</linearGradient>
<linearGradient id="paint62_linear_4296_1202" x1="172.688" y1="142.674" x2="171.895" y2="142.674" gradientUnits="userSpaceOnUse">
<stop stop-color="#0092DC"/>
<stop offset="0.3261" stop-color="#0888E4"/>
<stop offset="0.8825" stop-color="#1F6DFA"/>
<stop offset="1" stop-color="#2466FF"/>
</linearGradient>
<linearGradient id="paint63_linear_4296_1202" x1="150.038" y1="113.664" x2="148.881" y2="113.664" gradientUnits="userSpaceOnUse">
<stop stop-color="#FF5600"/>
<stop offset="0.1769" stop-color="#FF6000"/>
<stop offset="0.4798" stop-color="#FF7B00"/>
<stop offset="0.8695" stop-color="#FFA800"/>
<stop offset="1" stop-color="#FFB800"/>
</linearGradient>
<linearGradient id="paint64_linear_4296_1202" x1="145.358" y1="53.5805" x2="144.968" y2="53.5805" gradientUnits="userSpaceOnUse">
<stop stop-color="#0092DC"/>
<stop offset="0.3261" stop-color="#0888E4"/>
<stop offset="0.8825" stop-color="#1F6DFA"/>
<stop offset="1" stop-color="#2466FF"/>
</linearGradient>
<linearGradient id="paint65_linear_4296_1202" x1="118.919" y1="39.0056" x2="118.317" y2="39.0056" gradientUnits="userSpaceOnUse">
<stop stop-color="#0092DC"/>
<stop offset="0.3261" stop-color="#0888E4"/>
<stop offset="0.8825" stop-color="#1F6DFA"/>
<stop offset="1" stop-color="#2466FF"/>
</linearGradient>
<linearGradient id="paint66_linear_4296_1202" x1="111.149" y1="52.3753" x2="109.59" y2="52.3753" gradientUnits="userSpaceOnUse">
<stop stop-color="#7F2390"/>
<stop offset="0.2994" stop-color="#982182"/>
<stop offset="0.9341" stop-color="#D91D5F"/>
<stop offset="1" stop-color="#E01C5B"/>
</linearGradient>
<linearGradient id="paint67_linear_4296_1202" x1="90.9252" y1="50.4447" x2="89.9601" y2="50.4447" gradientUnits="userSpaceOnUse">
<stop stop-color="#FF5600"/>
<stop offset="0.1769" stop-color="#FF6000"/>
<stop offset="0.4798" stop-color="#FF7B00"/>
<stop offset="0.8695" stop-color="#FFA800"/>
<stop offset="1" stop-color="#FFB800"/>
</linearGradient>
<linearGradient id="paint68_linear_4296_1202" x1="60.4404" y1="51.0614" x2="58.4136" y2="51.0614" gradientUnits="userSpaceOnUse">
<stop stop-color="#0092DC"/>
<stop offset="0.2193" stop-color="#009CD4"/>
<stop offset="0.5944" stop-color="#00B7C0"/>
<stop offset="1" stop-color="#00DCA5"/>
</linearGradient>
<linearGradient id="paint69_linear_4296_1202" x1="72.0067" y1="100.878" x2="71.5627" y2="100.878" gradientUnits="userSpaceOnUse">
<stop stop-color="#0092DC"/>
<stop offset="0.3261" stop-color="#0888E4"/>
<stop offset="0.8825" stop-color="#1F6DFA"/>
<stop offset="1" stop-color="#2466FF"/>
</linearGradient>
<linearGradient id="paint70_linear_4296_1202" x1="94.2499" y1="100.013" x2="92.7039" y2="100.013" gradientUnits="userSpaceOnUse">
<stop stop-color="#FF5600"/>
<stop offset="0.1769" stop-color="#FF6000"/>
<stop offset="0.4798" stop-color="#FF7B00"/>
<stop offset="0.8695" stop-color="#FFA800"/>
<stop offset="1" stop-color="#FFB800"/>
</linearGradient>
<linearGradient id="paint71_linear_4296_1202" x1="101.293" y1="111.768" x2="99.7394" y2="111.768" gradientUnits="userSpaceOnUse">
<stop stop-color="#7F2390"/>
<stop offset="0.2994" stop-color="#982182"/>
<stop offset="0.9341" stop-color="#D91D5F"/>
<stop offset="1" stop-color="#E01C5B"/>
</linearGradient>
<linearGradient id="paint72_linear_4296_1202" x1="85.2954" y1="56.6532" x2="83.2258" y2="56.6532" gradientUnits="userSpaceOnUse">
<stop stop-color="#0092DC"/>
<stop offset="0.2193" stop-color="#009CD4"/>
<stop offset="0.5944" stop-color="#00B7C0"/>
<stop offset="1" stop-color="#00DCA5"/>
</linearGradient>
<linearGradient id="paint73_linear_4296_1202" x1="80.7448" y1="94.3655" x2="79.4644" y2="94.3655" gradientUnits="userSpaceOnUse">
<stop stop-color="#948BE2"/>
<stop offset="0.3319" stop-color="#8A81DB"/>
<stop offset="0.8981" stop-color="#7066C7"/>
<stop offset="1" stop-color="#6A60C3"/>
</linearGradient>
<linearGradient id="paint74_linear_4296_1202" x1="68.6451" y1="135.225" x2="67.2228" y2="135.225" gradientUnits="userSpaceOnUse">
<stop stop-color="#0092DC"/>
<stop offset="0.3261" stop-color="#0888E4"/>
<stop offset="0.8825" stop-color="#1F6DFA"/>
<stop offset="1" stop-color="#2466FF"/>
</linearGradient>
<linearGradient id="paint75_linear_4296_1202" x1="85.4923" y1="114.187" x2="83.0295" y2="114.187" gradientUnits="userSpaceOnUse">
<stop stop-color="#948BE2"/>
<stop offset="0.3319" stop-color="#8A81DB"/>
<stop offset="0.8981" stop-color="#7066C7"/>
<stop offset="1" stop-color="#6A60C3"/>
</linearGradient>
<linearGradient id="paint76_linear_4296_1202" x1="103.819" y1="142.579" x2="102.58" y2="142.579" gradientUnits="userSpaceOnUse">
<stop stop-color="#0092DC"/>
<stop offset="0.2193" stop-color="#009CD4"/>
<stop offset="0.5944" stop-color="#00B7C0"/>
<stop offset="1" stop-color="#00DCA5"/>
</linearGradient>
<linearGradient id="paint77_linear_4296_1202" x1="107.56" y1="127.901" x2="106.246" y2="127.901" gradientUnits="userSpaceOnUse">
<stop stop-color="#0092DC"/>
<stop offset="0.3261" stop-color="#0888E4"/>
<stop offset="0.8825" stop-color="#1F6DFA"/>
<stop offset="1" stop-color="#2466FF"/>
</linearGradient>
<linearGradient id="paint78_linear_4296_1202" x1="130.686" y1="102.622" x2="129.98" y2="102.622" gradientUnits="userSpaceOnUse">
<stop stop-color="#0092DC"/>
<stop offset="0.3261" stop-color="#0888E4"/>
<stop offset="0.8825" stop-color="#1F6DFA"/>
<stop offset="1" stop-color="#2466FF"/>
</linearGradient>
<linearGradient id="paint79_linear_4296_1202" x1="98.4561" y1="79.5013" x2="96.1733" y2="79.5013" gradientUnits="userSpaceOnUse">
<stop stop-color="#0092DC"/>
<stop offset="0.3261" stop-color="#0888E4"/>
<stop offset="0.8825" stop-color="#1F6DFA"/>
<stop offset="1" stop-color="#2466FF"/>
</linearGradient>
<linearGradient id="paint80_linear_4296_1202" x1="203.718" y1="100.872" x2="202.224" y2="100.872" gradientUnits="userSpaceOnUse">
<stop stop-color="#948BE2"/>
<stop offset="0.3319" stop-color="#8A81DB"/>
<stop offset="0.8981" stop-color="#7066C7"/>
<stop offset="1" stop-color="#6A60C3"/>
</linearGradient>
<linearGradient id="paint81_linear_4296_1202" x1="157.853" y1="61.3114" x2="157.013" y2="61.3114" gradientUnits="userSpaceOnUse">
<stop stop-color="#FF5600"/>
<stop offset="0.1769" stop-color="#FF6000"/>
<stop offset="0.4798" stop-color="#FF7B00"/>
<stop offset="0.8695" stop-color="#FFA800"/>
<stop offset="1" stop-color="#FFB800"/>
</linearGradient>
<linearGradient id="paint82_linear_4296_1202" x1="266.902" y1="66.4973" x2="266.429" y2="66.4973" gradientUnits="userSpaceOnUse">
<stop stop-color="#0092DC"/>
<stop offset="0.3261" stop-color="#0888E4"/>
<stop offset="0.8825" stop-color="#1F6DFA"/>
<stop offset="1" stop-color="#2466FF"/>
</linearGradient>
<linearGradient id="paint83_linear_4296_1202" x1="251.589" y1="59.4375" x2="249.906" y2="59.4375" gradientUnits="userSpaceOnUse">
<stop stop-color="#CE38BF"/>
<stop offset="0.7261" stop-color="#E051CA"/>
<stop offset="1" stop-color="#E85CCF"/>
</linearGradient>
<linearGradient id="paint84_linear_4296_1202" x1="234.457" y1="66.4933" x2="233.504" y2="66.4933" gradientUnits="userSpaceOnUse">
<stop stop-color="#7F2390"/>
<stop offset="0.2994" stop-color="#982182"/>
<stop offset="0.9341" stop-color="#D91D5F"/>
<stop offset="1" stop-color="#E01C5B"/>
</linearGradient>
<linearGradient id="paint85_linear_4296_1202" x1="229.158" y1="85.4475" x2="227.889" y2="85.4475" gradientUnits="userSpaceOnUse">
<stop stop-color="#0092DC"/>
<stop offset="0.3261" stop-color="#0888E4"/>
<stop offset="0.8825" stop-color="#1F6DFA"/>
<stop offset="1" stop-color="#2466FF"/>
</linearGradient>
<linearGradient id="paint86_linear_4296_1202" x1="194.5" y1="71.2126" x2="193.747" y2="71.2126" gradientUnits="userSpaceOnUse">
<stop stop-color="#0092DC"/>
<stop offset="0.3261" stop-color="#0888E4"/>
<stop offset="0.8825" stop-color="#1F6DFA"/>
<stop offset="1" stop-color="#2466FF"/>
</linearGradient>
<linearGradient id="paint87_linear_4296_1202" x1="163.918" y1="140.2" x2="162.66" y2="140.2" gradientUnits="userSpaceOnUse">
<stop stop-color="#0092DC"/>
<stop offset="0.2193" stop-color="#009CD4"/>
<stop offset="0.5944" stop-color="#00B7C0"/>
<stop offset="1" stop-color="#00DCA5"/>
</linearGradient>
<linearGradient id="paint88_linear_4296_1202" x1="211.157" y1="121.477" x2="209.255" y2="121.477" gradientUnits="userSpaceOnUse">
<stop stop-color="#0092DC"/>
<stop offset="0.3261" stop-color="#0888E4"/>
<stop offset="0.8825" stop-color="#1F6DFA"/>
<stop offset="1" stop-color="#2466FF"/>
</linearGradient>
<linearGradient id="paint89_linear_4296_1202" x1="146.987" y1="29.6304" x2="145.763" y2="29.6304" gradientUnits="userSpaceOnUse">
<stop stop-color="#7F2390"/>
<stop offset="0.2994" stop-color="#982182"/>
<stop offset="0.9341" stop-color="#D91D5F"/>
<stop offset="1" stop-color="#E01C5B"/>
</linearGradient>
<linearGradient id="paint90_linear_4296_1202" x1="128.758" y1="82.8434" x2="137.951" y2="100.75" gradientUnits="userSpaceOnUse">
<stop stop-color="#948BE2"/>
<stop offset="0.3319" stop-color="#8A81DB"/>
<stop offset="0.8981" stop-color="#7066C7"/>
<stop offset="1" stop-color="#6A60C3"/>
</linearGradient>
<linearGradient id="paint91_linear_4296_1202" x1="236.293" y1="123.972" x2="235.438" y2="126.883" gradientUnits="userSpaceOnUse">
<stop stop-color="#7E4FFF"/>
<stop offset="1" stop-color="#F211B4"/>
</linearGradient>
<linearGradient id="paint92_linear_4296_1202" x1="120.088" y1="63.5765" x2="121.851" y2="60.1533" gradientUnits="userSpaceOnUse">
<stop stop-color="#0092DC"/>
<stop offset="0.3261" stop-color="#0888E4"/>
<stop offset="0.8825" stop-color="#1F6DFA"/>
<stop offset="1" stop-color="#2466FF"/>
</linearGradient>
<linearGradient id="paint93_linear_4296_1202" x1="202.096" y1="134.305" x2="198.395" y2="135.656" gradientUnits="userSpaceOnUse">
<stop stop-color="#948BE2"/>
<stop offset="0.3319" stop-color="#8A81DB"/>
<stop offset="0.8981" stop-color="#7066C7"/>
<stop offset="1" stop-color="#6A60C3"/>
</linearGradient>
<linearGradient id="paint94_linear_4296_1202" x1="177.254" y1="60.3267" x2="175.055" y2="57.0588" gradientUnits="userSpaceOnUse">
<stop stop-color="#948BE2"/>
<stop offset="0.3319" stop-color="#8A81DB"/>
<stop offset="0.8981" stop-color="#7066C7"/>
<stop offset="1" stop-color="#6A60C3"/>
</linearGradient>
<linearGradient id="paint95_linear_4296_1202" x1="168.67" y1="126.164" x2="169.095" y2="129.049" gradientUnits="userSpaceOnUse">
<stop stop-color="#7E4FFF"/>
<stop offset="1" stop-color="#F211B4"/>
</linearGradient>
<linearGradient id="paint96_linear_4296_1202" x1="165.224" y1="86.8474" x2="163.134" y2="86.1917" gradientUnits="userSpaceOnUse">
<stop stop-color="#61D3D7"/>
<stop offset="0.2216" stop-color="#57CFD7"/>
<stop offset="0.6006" stop-color="#3CC6D5"/>
<stop offset="1" stop-color="#18B9D4"/>
</linearGradient>
<linearGradient id="paint97_linear_4296_1202" x1="245.338" y1="76.8033" x2="245.011" y2="80.7287" gradientUnits="userSpaceOnUse">
<stop stop-color="#7F2390"/>
<stop offset="0.2994" stop-color="#982182"/>
<stop offset="0.9341" stop-color="#D91D5F"/>
<stop offset="1" stop-color="#E01C5B"/>
</linearGradient>
<linearGradient id="paint98_linear_4296_1202" x1="54.9813" y1="103.536" x2="55.5241" y2="107.438" gradientUnits="userSpaceOnUse">
<stop stop-color="#61D3D7"/>
<stop offset="0.2216" stop-color="#57CFD7"/>
<stop offset="0.6006" stop-color="#3CC6D5"/>
<stop offset="1" stop-color="#18B9D4"/>
</linearGradient>
<linearGradient id="paint99_linear_4296_1202" x1="76.2833" y1="65.0302" x2="74.2198" y2="67.3225" gradientUnits="userSpaceOnUse">
<stop stop-color="#0092DC"/>
<stop offset="0.3261" stop-color="#0888E4"/>
<stop offset="0.8825" stop-color="#1F6DFA"/>
<stop offset="1" stop-color="#2466FF"/>
</linearGradient>
<linearGradient id="paint100_linear_4296_1202" x1="274.2" y1="80.9473" x2="276.307" y2="83.199" gradientUnits="userSpaceOnUse">
<stop stop-color="#0092DC"/>
<stop offset="0.2193" stop-color="#009CD4"/>
<stop offset="0.5944" stop-color="#00B7C0"/>
<stop offset="1" stop-color="#00DCA5"/>
</linearGradient>
<linearGradient id="paint101_linear_4296_1202" x1="186.987" y1="100.013" x2="186.058" y2="100.013" gradientUnits="userSpaceOnUse">
<stop stop-color="#0092DC"/>
<stop offset="0.3261" stop-color="#0888E4"/>
<stop offset="0.8825" stop-color="#1F6DFA"/>
<stop offset="1" stop-color="#2466FF"/>
</linearGradient>
<linearGradient id="paint102_linear_4296_1202" x1="183.526" y1="135.612" x2="182.213" y2="135.612" gradientUnits="userSpaceOnUse">
<stop stop-color="#0092DC"/>
<stop offset="0.3261" stop-color="#0888E4"/>
<stop offset="0.8825" stop-color="#1F6DFA"/>
<stop offset="1" stop-color="#2466FF"/>
</linearGradient>
<linearGradient id="paint103_linear_4296_1202" x1="179.19" y1="122.865" x2="178.676" y2="122.865" gradientUnits="userSpaceOnUse">
<stop stop-color="#0092DC"/>
<stop offset="0.3261" stop-color="#0888E4"/>
<stop offset="0.8825" stop-color="#1F6DFA"/>
<stop offset="1" stop-color="#2466FF"/>
</linearGradient>
<linearGradient id="paint104_linear_4296_1202" x1="119.825" y1="129.95" x2="118.618" y2="129.95" gradientUnits="userSpaceOnUse">
<stop stop-color="#0092DC"/>
<stop offset="0.2193" stop-color="#009CD4"/>
<stop offset="0.5944" stop-color="#00B7C0"/>
<stop offset="1" stop-color="#00DCA5"/>
</linearGradient>
<linearGradient id="paint105_linear_4296_1202" x1="20.1126" y1="166.967" x2="148.768" y2="127.998" gradientUnits="userSpaceOnUse">
<stop stop-color="#7E4FFF"/>
<stop offset="1" stop-color="#F211B4"/>
</linearGradient>
<linearGradient id="paint106_linear_4296_1202" x1="222.789" y1="90.5018" x2="341.426" y2="77.2749" gradientUnits="userSpaceOnUse">
<stop stop-color="#61D3D7"/>
<stop offset="0.2216" stop-color="#57CFD7"/>
<stop offset="0.6006" stop-color="#3CC6D5"/>
<stop offset="1" stop-color="#18B9D4"/>
</linearGradient>
<linearGradient id="paint107_linear_4296_1202" x1="76.3186" y1="43.174" x2="157.023" y2="43.174" gradientUnits="userSpaceOnUse">
<stop stop-color="#E55724"/>
<stop offset="0.2438" stop-color="#E9701D"/>
<stop offset="0.7602" stop-color="#F2B109"/>
<stop offset="1" stop-color="#F7D100"/>
</linearGradient>
<linearGradient id="paint108_linear_4296_1202" x1="204.83" y1="155.28" x2="286.134" y2="155.28" gradientUnits="userSpaceOnUse">
<stop stop-color="#948BE2"/>
<stop offset="0.3319" stop-color="#8A81DB"/>
<stop offset="0.8981" stop-color="#7066C7"/>
<stop offset="1" stop-color="#6A60C3"/>
</linearGradient>
<linearGradient id="paint109_linear_4296_1202" x1="192.051" y1="43.174" x2="251.14" y2="43.174" gradientUnits="userSpaceOnUse">
<stop stop-color="#7E4FFF"/>
<stop offset="1" stop-color="#F211B4"/>
</linearGradient>
</defs>
</svg>


