<svg width="278" height="156" viewBox="0 0 278 156" fill="none" xmlns="http://www.w3.org/2000/svg">
<path d="M128.993 99.5147C129.16 99.1925 130.613 99.8247 130.85 99.4022L131.069 99.0132C130.941 99.2655 129.425 98.764 129.194 99.1773L128.993 99.5147Z" fill="url(#paint0_linear_3533_13621)"/>
<path d="M128.851 99.7578C128.638 100.153 128.623 101.056 129.209 101.633L129.449 101.168C128.863 100.591 128.963 99.6059 129.191 99.1804C129.194 99.1804 128.951 99.5694 128.851 99.7578Z" fill="url(#paint1_linear_3533_13621)"/>
<path d="M130.346 96.2718C130.847 95.6579 133.81 96.6851 134.33 95.6397L134.543 95.2841C133.993 96.2445 131.008 95.1048 130.601 95.8463L130.346 96.2718Z" fill="url(#paint2_linear_3533_13621)"/>
<path d="M133.166 91.7434C133.561 91.0049 135.442 90.5277 135.907 89.6585L136.187 89.1358C135.695 90.0627 133.917 90.3362 133.385 91.3392L133.166 91.7434Z" fill="url(#paint3_linear_3533_13621)"/>
<path d="M130.246 96.448C129.933 97.0164 131.185 98.8004 130.848 99.4052C130.848 99.4052 130.954 99.2593 131.085 99.0009C131.547 98.071 130.161 96.6456 130.589 95.8645C130.589 95.8675 130.349 96.2626 130.246 96.448Z" fill="url(#paint4_linear_3533_13621)"/>
<path d="M133.002 92.0261C132.549 92.9409 134.804 94.6823 134.327 95.6397C134.327 95.6397 134.573 95.2537 134.704 94.9923C135.041 94.3146 132.905 92.3057 133.415 91.2754C133.418 91.2754 133.099 91.8346 133.002 92.0261Z" fill="url(#paint5_linear_3533_13621)"/>
<path d="M116.777 69.0831C116.61 68.995 116.938 68.2443 116.719 68.1227L116.519 68.0103C116.649 68.0772 116.388 68.8613 116.604 68.9828L116.777 69.0831Z" fill="url(#paint6_linear_3533_13621)"/>
<path d="M116.904 69.159C117.111 69.2684 117.576 69.2775 117.877 68.9736L117.637 68.849C117.339 69.1529 116.825 69.0982 116.606 68.9827C116.603 68.9796 116.804 69.1073 116.904 69.159Z" fill="url(#paint7_linear_3533_13621)"/>
<path d="M115.095 68.3811C114.776 68.1197 115.311 66.5849 114.77 66.3175L114.588 66.2081C115.083 66.4938 114.494 68.0377 114.877 68.2504L115.095 68.3811Z" fill="url(#paint8_linear_3533_13621)"/>
<path d="M112.753 66.9161C112.37 66.7124 112.124 65.7338 111.674 65.4937L111.403 65.3478C111.884 65.6031 112.023 66.524 112.543 66.8006L112.753 66.9161Z" fill="url(#paint9_linear_3533_13621)"/>
<path d="M115.19 68.4328C115.484 68.5939 116.411 67.9495 116.724 68.1228C116.724 68.1228 116.648 68.0681 116.515 67.9982C116.034 67.7581 115.293 68.4753 114.889 68.2535C114.889 68.2565 115.092 68.3811 115.19 68.4328Z" fill="url(#paint10_linear_3533_13621)"/>
<path d="M112.899 67.0013C113.373 67.2384 114.276 66.0683 114.771 66.3175C114.771 66.3175 114.57 66.1898 114.437 66.123C114.084 65.9497 113.042 67.053 112.51 66.7886C112.51 66.7855 112.798 66.9527 112.899 67.0013Z" fill="url(#paint11_linear_3533_13621)"/>
<path d="M167.548 88.1511C167.366 88.0539 167.724 87.2789 167.487 87.1421L167.269 87.0175C167.411 87.0904 167.126 87.9049 167.36 88.0387L167.548 88.1511Z" fill="url(#paint12_linear_3533_13621)"/>
<path d="M167.689 88.2334C167.91 88.355 168.421 88.3793 168.746 88.0723L168.485 87.9325C168.16 88.2425 167.6 88.1696 167.36 88.0389C167.36 88.0359 167.582 88.1757 167.689 88.2334Z" fill="url(#paint13_linear_3533_13621)"/>
<path d="M165.722 87.361C165.376 87.0783 165.962 85.4888 165.372 85.191L165.172 85.0694C165.713 85.3855 165.066 86.9811 165.482 87.2181L165.722 87.361Z" fill="url(#paint14_linear_3533_13621)"/>
<path d="M163.169 85.7533C162.753 85.5253 162.488 84.4981 161.996 84.2306L161.701 84.0696C162.224 84.3522 162.376 85.3217 162.938 85.6287L163.169 85.7533Z" fill="url(#paint15_linear_3533_13621)"/>
<path d="M165.822 87.4187C166.141 87.598 167.154 86.9507 167.494 87.1452C167.494 87.1452 167.412 87.0844 167.266 87.0084C166.743 86.741 165.935 87.4704 165.494 87.2242C165.494 87.2242 165.716 87.3609 165.822 87.4187Z" fill="url(#paint16_linear_3533_13621)"/>
<path d="M163.327 85.8444C163.843 86.1058 164.828 84.9144 165.369 85.1879C165.369 85.1879 165.15 85.0481 165.004 84.9722C164.621 84.7777 163.485 85.8991 162.904 85.6074C162.904 85.6074 163.22 85.7897 163.327 85.8444Z" fill="url(#paint17_linear_3533_13621)"/>
<path d="M169.493 62.8259C168.639 63.2118 167.806 63.0052 166.895 63.9504C166.895 63.9504 167.192 63.2301 168.226 62.8441C169.259 62.4551 170.174 62.2818 170.596 61.6345C170.596 61.6345 170.004 62.5949 169.493 62.8259Z" fill="url(#paint18_linear_3533_13621)"/>
<path d="M145.968 97.6697C145.579 96.7427 145.755 95.5453 144.828 94.825C144.828 94.825 145.524 94.8554 145.919 96.0164C146.314 97.1773 146.506 98.2927 147.132 98.5207C147.135 98.5207 146.202 98.2228 145.968 97.6697Z" fill="url(#paint19_linear_3533_13621)"/>
<path d="M175.34 81.3526C174.55 81.4651 173.915 81.1004 172.945 81.6596C172.945 81.6596 173.362 81.1399 174.298 81.0669C175.237 80.994 176.027 81.0669 176.525 80.6384C176.529 80.6384 175.814 81.2858 175.34 81.3526Z" fill="#AAE100"/>
<path d="M136.17 58.5006C136.647 60.0932 136.091 61.5094 137.537 63.3329C137.537 63.3329 136.343 62.64 135.902 60.7314C135.462 58.8228 135.367 57.1695 134.334 56.279C134.334 56.279 135.884 57.5463 136.17 58.5006Z" fill="#AAE100"/>
<path d="M120.555 83.3583C120.099 83.4373 118.831 82.6593 118.293 82.7505L117.631 82.8659C118.199 82.7687 119.254 83.5832 119.868 83.4768L120.555 83.3583Z" fill="#FFA400"/>
<path d="M115.242 84.1637C114.786 84.2428 113.519 83.4678 112.984 83.562L112.321 83.6775C112.89 83.5802 113.944 84.3947 114.558 84.2883L115.242 84.1637Z" fill="#FFA400"/>
<path d="M115.188 84.1758C116.203 83.9144 117.178 82.9419 118.309 82.7474C118.309 82.7474 117.789 82.8355 117.631 82.8629C116.397 83.0756 114.963 84.2123 114.51 84.2913L115.188 84.1758Z" fill="#FFC200"/>
<path d="M158.07 64.8891C158.468 64.6611 159.055 65.74 159.456 65.6094C159.413 65.6367 159.322 65.6732 159.243 65.7157C158.854 65.9285 158.344 64.7857 157.857 64.9924L158.07 64.8891Z" fill="#8521D3"/>
<path d="M157.109 66.7734C157.109 66.7734 157.188 66.6853 157.28 66.5577C157.514 66.1565 157.246 65.4058 157.59 65.1353C157.611 65.1171 157.696 65.0745 157.714 65.0624L158.067 64.8892C158.067 64.8892 157.827 65.0654 157.766 65.1779C157.763 65.1809 157.763 65.184 157.76 65.187C157.428 65.7219 157.903 66.3662 157.38 66.6397L157.109 66.7734Z" fill="#9420EF"/>
<path d="M159.21 65.728C159.21 65.728 159.471 65.5973 159.575 65.4909C159.578 65.4879 159.578 65.4879 159.581 65.4848C159.982 65.0745 159.948 64.3087 159.948 64.3087L160.268 64.1537C160.268 64.1537 160.499 65.0928 159.827 65.4392L159.21 65.728Z" fill="#9420EF"/>
<path d="M118.973 96.5541C119.372 96.3262 119.958 97.4051 120.359 97.2744C120.317 97.3018 120.226 97.3383 120.147 97.3808C119.758 97.5935 119.247 96.4508 118.761 96.6575L118.973 96.5541Z" fill="url(#paint20_linear_3533_13621)"/>
<path d="M118.017 98.4383C118.017 98.4383 118.096 98.3502 118.187 98.2226C118.421 97.8214 118.153 97.0707 118.497 96.8002C118.518 96.782 118.603 96.7394 118.621 96.7273L118.974 96.5541C118.974 96.5541 118.734 96.7303 118.673 96.8428C118.67 96.8458 118.67 96.8489 118.667 96.8519C118.336 97.3868 118.81 98.0311 118.287 98.3046L118.017 98.4383Z" fill="url(#paint21_linear_3533_13621)"/>
<path d="M120.116 97.3929C120.116 97.3929 120.378 97.2622 120.481 97.1558C120.484 97.1528 120.484 97.1528 120.487 97.1497C120.888 96.7394 120.855 95.9736 120.855 95.9736L121.174 95.8186C121.174 95.8186 121.405 96.7577 120.733 97.1041L120.116 97.3929Z" fill="url(#paint22_linear_3533_13621)"/>
<path d="M134.051 78.234C134.087 78.2613 134.185 78.2583 134.185 78.2583L134.157 78.3191C134.127 78.3343 134.036 78.3251 134.023 78.2948L134.051 78.234Z" fill="url(#paint23_linear_3533_13621)"/>
<path d="M131.699 64.5943C131.711 64.5396 131.656 64.4332 131.656 64.4332L131.735 64.4301C131.769 64.4545 131.808 64.5608 131.778 64.5912L131.699 64.5943Z" fill="url(#paint24_linear_3533_13621)"/>
<path d="M142.877 62.2266C142.561 62.0686 141.816 62.254 141.816 62.254L141.926 61.7586C142.129 61.5884 142.838 61.5124 142.986 61.7313L142.877 62.2266Z" fill="url(#paint25_linear_3533_13621)"/>
<path d="M129.435 71.5843C129.341 71.7606 129.432 72.18 129.432 72.18L129.155 72.1101C129.064 71.9916 129.031 71.5934 129.158 71.5144L129.435 71.5843Z" fill="url(#paint26_linear_3533_13621)"/>
<path d="M126.475 91.2235C126.988 90.9986 127.809 90.0231 127.809 90.0231L128.015 90.5458C127.873 90.9105 127.025 91.7584 126.681 91.7463L126.475 91.2235Z" fill="url(#paint27_linear_3533_13621)"/>
<path d="M126.447 73.8698C126.337 73.8151 126.085 73.8789 126.085 73.8789L126.121 73.7087C126.191 73.6509 126.434 73.6236 126.483 73.6996L126.447 73.8698Z" fill="url(#paint28_linear_3533_13621)"/>
<path d="M148.143 94.3904C148.064 94.2506 147.739 94.129 147.739 94.129L147.906 93.971C148.025 93.9588 148.311 94.1108 148.311 94.2323L148.143 94.3904Z" fill="url(#paint29_linear_3533_13621)"/>
<path d="M148.925 61.2662C148.879 61.3453 148.919 61.5398 148.919 61.5398L148.791 61.5063C148.752 61.4516 148.74 61.2693 148.797 61.2328L148.925 61.2662Z" fill="url(#paint30_linear_3533_13621)"/>
<path d="M138.513 71.4233C138.552 71.3777 138.555 71.244 138.555 71.244L138.634 71.2835C138.652 71.326 138.634 71.4476 138.592 71.4628L138.513 71.4233Z" fill="url(#paint31_linear_3533_13621)"/>
<path d="M150.827 76.3498C150.629 76.3619 150.319 76.6567 150.319 76.6567L150.234 76.3862C150.286 76.2464 150.608 76.0124 150.742 76.0793L150.827 76.3498Z" fill="url(#paint32_linear_3533_13621)"/>
<path d="M152.466 83.7623C152.445 83.7045 152.326 83.6407 152.326 83.6407L152.399 83.589C152.445 83.5921 152.545 83.665 152.539 83.7106L152.466 83.7623Z" fill="url(#paint33_linear_3533_13621)"/>
<path d="M155.702 77.4925C155.83 77.5503 156.125 77.4652 156.125 77.4652L156.088 77.6657C156.009 77.7356 155.727 77.7782 155.666 77.6931L155.702 77.4925Z" fill="url(#paint34_linear_3533_13621)"/>
<path d="M153.49 65.8433C153.502 65.7309 153.359 65.5273 153.359 65.5273L153.523 65.503C153.599 65.5455 153.703 65.7491 153.654 65.819L153.49 65.8433Z" fill="url(#paint35_linear_3533_13621)"/>
<path d="M162.768 64.1814C162.753 64.2908 162.88 64.4974 162.88 64.4974L162.719 64.5126C162.649 64.4671 162.555 64.2634 162.607 64.1966L162.768 64.1814Z" fill="url(#paint36_linear_3533_13621)"/>
<path d="M169.676 70.9128C169.487 70.925 169.195 71.2076 169.195 71.2076L169.113 70.9493C169.162 70.8186 169.469 70.5937 169.593 70.6545L169.676 70.9128Z" fill="url(#paint37_linear_3533_13621)"/>
<path d="M164.145 80.9148C164.042 80.775 163.674 80.6868 163.674 80.6868L163.835 80.4923C163.963 80.465 164.291 80.5896 164.306 80.7202L164.145 80.9148Z" fill="url(#paint38_linear_3533_13621)"/>
<path d="M168.448 83.5802C168.384 83.6927 168.432 83.9692 168.432 83.9692L168.253 83.9176C168.195 83.8385 168.183 83.5772 168.268 83.5285L168.448 83.5802Z" fill="url(#paint39_linear_3533_13621)"/>
<path d="M168.892 79.851C168.874 79.7416 168.691 79.5836 168.691 79.5836L168.84 79.5198C168.922 79.541 169.071 79.7082 169.041 79.7872L168.892 79.851Z" fill="url(#paint40_linear_3533_13621)"/>
<path d="M163.922 77.2983C163.886 77.2406 163.746 77.198 163.746 77.198L163.813 77.1281C163.862 77.122 163.986 77.1798 163.989 77.2284L163.922 77.2983Z" fill="url(#paint41_linear_3533_13621)"/>
<path d="M159.562 85.1969C159.69 85.2242 159.939 85.0905 159.939 85.0905L159.945 85.2789C159.888 85.3579 159.642 85.4491 159.569 85.3853L159.562 85.1969Z" fill="url(#paint42_linear_3533_13621)"/>
<path d="M169.724 94.6645C169.8 94.4882 169.672 94.0901 169.672 94.0901L169.945 94.1326C170.043 94.239 170.11 94.6189 169.997 94.707L169.724 94.6645Z" fill="url(#paint43_linear_3533_13621)"/>
<path d="M172.922 77.0946C173.037 77.0307 173.141 76.7663 173.141 76.7663L173.268 76.9061C173.274 77.0034 173.147 77.2374 173.05 77.2344L172.922 77.0946Z" fill="url(#paint44_linear_3533_13621)"/>
<path d="M150.734 91.655C150.685 91.6034 150.533 91.5821 150.533 91.5821L150.591 91.497C150.643 91.4818 150.779 91.5183 150.792 91.5699L150.734 91.655Z" fill="url(#paint45_linear_3533_13621)"/>
<path d="M155.517 93.2232C155.453 93.2566 155.395 93.4056 155.395 93.4056L155.325 93.3266C155.322 93.2718 155.392 93.1442 155.447 93.1442L155.517 93.2232Z" fill="url(#paint46_linear_3533_13621)"/>
<path d="M154.01 97.2988C153.995 97.2501 153.9 97.1924 153.9 97.1924L153.961 97.1529C153.998 97.1559 154.077 97.2228 154.071 97.2593L154.01 97.2988Z" fill="url(#paint47_linear_3533_13621)"/>
<path d="M159.544 89.1051C159.553 89.0474 159.486 88.938 159.486 88.938L159.571 88.9319C159.608 88.9562 159.657 89.0656 159.629 89.099L159.544 89.1051Z" fill="url(#paint48_linear_3533_13621)"/>
<path d="M155.839 81.9358C155.727 81.8507 155.42 81.872 155.42 81.872L155.499 81.6836C155.59 81.6319 155.876 81.6501 155.918 81.7474L155.839 81.9358Z" fill="url(#paint49_linear_3533_13621)"/>
<path d="M149.235 88.4731C149.104 88.5734 149.031 88.9198 149.031 88.9198L148.846 88.7739C148.819 88.6554 148.928 88.3424 149.05 88.3272L149.235 88.4731Z" fill="url(#paint50_linear_3533_13621)"/>
<path d="M142.825 81.5133C142.764 81.5194 142.676 81.6136 142.676 81.6136L142.646 81.5315C142.661 81.489 142.752 81.413 142.794 81.4312L142.825 81.5133Z" fill="url(#paint51_linear_3533_13621)"/>
<path d="M137.607 85.3822C137.671 85.3701 137.756 85.2576 137.756 85.2576L137.796 85.3397C137.787 85.3883 137.693 85.4764 137.647 85.4643L137.607 85.3822Z" fill="url(#paint52_linear_3533_13621)"/>
<path d="M109.054 93.9649C109.076 94.1078 109.31 94.3175 109.31 94.3175L109.115 94.3965C109.012 94.3661 108.82 94.1442 108.86 94.0439L109.054 93.9649Z" fill="url(#paint53_linear_3533_13621)"/>
<path d="M138.576 96.9433C138.78 96.916 139.078 96.5847 139.078 96.5847L139.187 96.8582C139.144 97.0071 138.828 97.2746 138.686 97.2168L138.576 96.9433Z" fill="url(#paint54_linear_3533_13621)"/>
<path d="M142.868 90.9592C142.826 90.947 142.734 90.9865 142.734 90.9865L142.737 90.9197C142.759 90.8923 142.847 90.868 142.871 90.8923L142.868 90.9592Z" fill="url(#paint55_linear_3533_13621)"/>
<path d="M139.306 88.8316C139.248 88.786 139.09 88.7952 139.09 88.7952L139.132 88.6979C139.181 88.6706 139.327 88.6827 139.348 88.7344L139.306 88.8316Z" fill="url(#paint56_linear_3533_13621)"/>
<path d="M119.043 92.6367C118.913 92.6428 118.706 92.8312 118.706 92.8312L118.654 92.6519C118.691 92.5607 118.904 92.4118 118.992 92.4574L119.043 92.6367Z" fill="url(#paint57_linear_3533_13621)"/>
<path d="M135.161 95.1745C135.088 95.0833 134.845 95.0347 134.845 95.0347L134.948 94.904C135.033 94.8827 135.252 94.9587 135.264 95.0438L135.161 95.1745Z" fill="url(#paint58_linear_3533_13621)"/>
<path d="M125.927 94.1381C125.903 94.3113 126.103 94.6304 126.103 94.6304L125.854 94.6547C125.745 94.5848 125.599 94.2657 125.678 94.1624L125.927 94.1381Z" fill="url(#paint59_linear_3533_13621)"/>
<path d="M128.906 87.8957C128.845 87.9473 128.821 88.1175 128.821 88.1175L128.727 88.0537C128.708 87.9959 128.754 87.844 128.812 87.8318L128.906 87.8957Z" fill="url(#paint60_linear_3533_13621)"/>
<path d="M130.173 88.1813C130.334 88.1387 130.538 87.8409 130.538 87.8409L130.653 88.0506C130.635 88.1721 130.41 88.4214 130.288 88.391L130.173 88.1813Z" fill="url(#paint61_linear_3533_13621)"/>
<path d="M137.501 89.4C137.571 89.4122 137.705 89.3301 137.705 89.3301L137.714 89.4334C137.683 89.479 137.553 89.5368 137.51 89.5033L137.501 89.4Z" fill="url(#paint62_linear_3533_13621)"/>
<path d="M131.341 81.7352C131.444 81.6835 131.541 81.4526 131.541 81.4526L131.651 81.5802C131.654 81.6653 131.535 81.8659 131.45 81.8629L131.341 81.7352Z" fill="url(#paint63_linear_3533_13621)"/>
<path d="M130.398 65.509C130.367 65.5546 130.382 65.6731 130.382 65.6731L130.306 65.6488C130.285 65.6153 130.285 65.5029 130.322 65.4847L130.398 65.509Z" fill="url(#paint64_linear_3533_13621)"/>
<path d="M123.162 61.7647C123.214 61.707 123.214 61.5368 123.214 61.5368L123.314 61.5854C123.338 61.6371 123.317 61.792 123.262 61.8133L123.162 61.7647Z" fill="url(#paint65_linear_3533_13621)"/>
<path d="M121.162 65.3782C121.076 65.2992 120.824 65.287 120.824 65.287L120.906 65.1411C120.985 65.1077 121.216 65.1472 121.244 65.2323L121.162 65.3782Z" fill="url(#paint66_linear_3533_13621)"/>
<path d="M115.573 64.8891C115.652 64.7888 115.64 64.5122 115.64 64.5122L115.807 64.5882C115.853 64.6733 115.829 64.9286 115.74 64.965L115.573 64.8891Z" fill="url(#paint67_linear_3533_13621)"/>
<path d="M107.343 64.6671C107.385 64.8251 107.674 65.0288 107.674 65.0288L107.467 65.1412C107.346 65.1199 107.103 64.8981 107.136 64.7796L107.343 64.6671Z" fill="url(#paint68_linear_3533_13621)"/>
<path d="M110.747 78.155C110.725 78.2097 110.768 78.3252 110.768 78.3252L110.686 78.3161C110.655 78.2857 110.631 78.1732 110.665 78.1459L110.747 78.155Z" fill="url(#paint69_linear_3533_13621)"/>
<path d="M116.722 77.9665C116.585 77.9908 116.391 78.2279 116.391 78.2279L116.309 78.0456C116.333 77.9422 116.54 77.7507 116.64 77.7842L116.722 77.9665Z" fill="url(#paint70_linear_3533_13621)"/>
<path d="M118.299 81.416C118.354 81.2367 118.189 80.869 118.189 80.869L118.457 80.8811C118.563 80.9723 118.667 81.3309 118.566 81.4282L118.299 81.416Z" fill="url(#paint71_linear_3533_13621)"/>
<path d="M114.074 66.667C114.053 66.4876 113.771 66.2232 113.771 66.2232L114.014 66.1321C114.141 66.1716 114.369 66.4512 114.318 66.5758L114.074 66.667Z" fill="url(#paint72_linear_3533_13621)"/>
<path d="M112.871 76.3619C112.914 76.447 113.108 76.5291 113.108 76.5291L113.002 76.6203C112.929 76.6233 112.762 76.526 112.765 76.4531L112.871 76.3619Z" fill="url(#paint73_linear_3533_13621)"/>
<path d="M109.634 87.2605C109.665 87.3699 109.871 87.5097 109.871 87.5097L109.729 87.5917C109.644 87.5796 109.473 87.4276 109.492 87.3425L109.634 87.2605Z" fill="url(#paint74_linear_3533_13621)"/>
<path d="M114.287 81.9783C114.129 81.8719 113.719 81.9236 113.719 81.9236L113.81 81.6652C113.931 81.5892 114.314 81.5923 114.378 81.7199L114.287 81.9783Z" fill="url(#paint75_linear_3533_13621)"/>
<path d="M118.949 89.4516C119.059 89.4151 119.189 89.1963 119.189 89.1963L119.28 89.3361C119.271 89.4242 119.125 89.6096 119.04 89.5914L118.949 89.4516Z" fill="url(#paint76_linear_3533_13621)"/>
<path d="M120.284 85.3305C120.168 85.4217 120.104 85.7347 120.104 85.7347L119.937 85.6041C119.91 85.4977 120.007 85.2181 120.117 85.1998L120.284 85.3305Z" fill="url(#paint77_linear_3533_13621)"/>
<path d="M126.283 78.778C126.344 78.7264 126.377 78.5562 126.377 78.5562L126.472 78.6261C126.487 78.6838 126.438 78.8388 126.377 78.8479L126.283 78.778Z" fill="url(#paint78_linear_3533_13621)"/>
<path d="M117.846 72.4627C117.643 72.4992 117.357 72.8426 117.357 72.8426L117.235 72.5721C117.272 72.4202 117.579 72.1406 117.725 72.1922L117.846 72.4627Z" fill="url(#paint79_linear_3533_13621)"/>
<path d="M145.859 78.003C145.838 78.155 146.017 78.4407 146.017 78.4407L145.795 78.465C145.698 78.4042 145.567 78.1216 145.637 78.0273L145.859 78.003Z" fill="url(#paint80_linear_3533_13621)"/>
<path d="M133.723 67.7033C133.659 67.673 133.517 67.7125 133.517 67.7125L133.535 67.6152C133.574 67.5818 133.711 67.5635 133.742 67.6061L133.723 67.7033Z" fill="url(#paint81_linear_3533_13621)"/>
<path d="M162.855 69.1045C162.859 69.0589 162.801 68.9738 162.801 68.9738L162.868 68.9616C162.898 68.9799 162.944 69.0619 162.922 69.0923L162.855 69.1045Z" fill="url(#paint82_linear_3533_13621)"/>
<path d="M158.553 66.9466C158.586 67.0803 158.826 67.2535 158.826 67.2535L158.65 67.3447C158.55 67.3265 158.349 67.135 158.377 67.0378L158.553 66.9466Z" fill="url(#paint83_linear_3533_13621)"/>
<path d="M153.985 69.1135C154.07 69.0618 154.137 68.8521 154.137 68.8521L154.241 68.9524C154.25 69.0254 154.165 69.2077 154.089 69.2138L153.985 69.1135Z" fill="url(#paint84_linear_3533_13621)"/>
<path d="M152.793 74.1919C152.699 74.1463 152.483 74.2041 152.483 74.2041L152.514 74.0582C152.572 74.0065 152.778 73.9822 152.824 74.046L152.793 74.1919Z" fill="url(#paint85_linear_3533_13621)"/>
<path d="M143.548 70.2956C143.481 70.2986 143.372 70.3959 143.372 70.3959L143.345 70.3017C143.363 70.2561 143.475 70.1771 143.521 70.2014L143.548 70.2956Z" fill="url(#paint86_linear_3533_13621)"/>
<path d="M135.309 88.5277C135.248 88.6797 135.364 89.017 135.364 89.017L135.13 88.9866C135.045 88.8985 134.981 88.5733 135.075 88.4973L135.309 88.5277Z" fill="url(#paint87_linear_3533_13621)"/>
<path d="M148.008 83.6802C147.837 83.7258 147.622 84.0388 147.622 84.0388L147.5 83.817C147.521 83.6863 147.758 83.4249 147.886 83.4583L148.008 83.6802Z" fill="url(#paint88_linear_3533_13621)"/>
<path d="M130.693 58.9868C130.684 59.1084 130.836 59.3211 130.836 59.3211L130.663 59.3485C130.584 59.3059 130.468 59.0902 130.52 59.0142L130.693 58.9868Z" fill="url(#paint89_linear_3533_13621)"/>
<path d="M143.405 76.763C144.852 75.9698 146.438 74.6508 146.438 74.6508L147.733 74.3834C147.681 74.6295 145.852 75.982 144.7 76.4956L143.405 76.763Z" fill="#FFC200"/>
<path d="M124.505 74.1524C126.295 75.2557 128.754 76.1887 128.754 76.1887L129.866 77.456C129.559 77.5533 126.912 76.3741 125.617 75.4198L124.505 74.1524Z" fill="url(#paint90_linear_3533_13621)"/>
<path d="M152.447 84.276C153.897 84.6285 155.763 84.7166 155.763 84.7166L156.793 85.3275C156.608 85.4612 154.563 85.2455 153.478 84.8868L152.447 84.276Z" fill="url(#paint91_linear_3533_13621)"/>
<path d="M125.168 68.3112C124.302 67.9677 123.04 67.9465 123.04 67.9465L122.572 67.2809C122.755 67.1198 124.089 67.2748 124.7 67.6456L125.168 68.3112Z" fill="url(#paint92_linear_3533_13621)"/>
<path d="M144.469 86.0723C144.879 86.9324 145.815 87.8198 145.815 87.8198L145.706 88.6465C145.457 88.6434 144.563 87.598 144.359 86.8989L144.469 86.0723Z" fill="url(#paint93_linear_3533_13621)"/>
<path d="M139.74 66.0378C139.005 66.6426 138.366 67.764 138.366 67.764L137.54 67.8552C137.485 67.6121 138.284 66.4937 138.913 66.129L139.74 66.0378Z" fill="url(#paint94_linear_3533_13621)"/>
<path d="M135.668 85.6406C136.352 85.4704 137.136 84.9264 137.136 84.9264L137.719 85.13C137.68 85.3093 136.786 85.8017 136.251 85.8442L135.668 85.6406Z" fill="url(#paint95_linear_3533_13621)"/>
<path d="M135.598 73.6146C135.488 74.1343 135.601 74.8424 135.601 74.8424L135.273 75.1706C135.163 75.0855 135.124 74.3196 135.27 73.9428L135.598 73.6146Z" fill="url(#paint96_linear_3533_13621)"/>
<path d="M155.681 72.338C156.635 72.3258 157.832 71.8517 157.832 71.8517L158.537 72.2984C158.428 72.5233 157.106 72.8972 156.386 72.7847L155.681 72.338Z" fill="url(#paint97_linear_3533_13621)"/>
<path d="M104.896 79.7993C105.823 79.5774 106.89 78.8511 106.89 78.8511L107.674 79.1307C107.617 79.3738 106.41 80.0272 105.681 80.0789L104.896 79.7993Z" fill="url(#paint98_linear_3533_13621)"/>
<path d="M111.035 68.5512C111.436 68.8156 112.169 68.8703 112.169 68.8703L112.242 69.3414C112.087 69.4478 111.354 69.2958 111.108 69.0223L111.035 68.5512Z" fill="url(#paint99_linear_3533_13621)"/>
<path d="M164.715 73.7701C165.013 73.3932 165.128 72.6699 165.128 72.6699L165.605 72.6365C165.697 72.8006 165.484 73.5178 165.192 73.7366L164.715 73.7701Z" fill="url(#paint100_linear_3533_13621)"/>
<path d="M141.403 77.8815C141.412 77.9635 141.54 78.0851 141.54 78.0851L141.43 78.1246C141.373 78.1064 141.269 77.9787 141.294 77.921L141.403 77.8815Z" fill="url(#paint101_linear_3533_13621)"/>
<path d="M140.573 87.2848C140.5 87.4489 140.609 87.8227 140.609 87.8227L140.354 87.7771C140.263 87.6768 140.208 87.3212 140.318 87.2392L140.573 87.2848Z" fill="url(#paint102_linear_3533_13621)"/>
<path d="M139.385 84.048C139.385 84.0967 139.452 84.1757 139.452 84.1757L139.385 84.1909C139.352 84.1757 139.3 84.0967 139.318 84.0632L139.385 84.048Z" fill="url(#paint103_linear_3533_13621)"/>
<path d="M123.548 86.0842C123.454 86.0477 123.244 86.1176 123.244 86.1176L123.262 85.9718C123.317 85.9171 123.518 85.8775 123.566 85.9383L123.548 86.0842Z" fill="url(#paint104_linear_3533_13621)"/>
<path d="M96.4562 94.3599C98.3009 94.7307 100.304 94.9586 102.13 94.4055C102.848 94.1776 103.537 93.8098 104.021 93.2233C104.072 93.1594 104.133 93.0835 104.176 93.0105L104.2 92.9741L104.218 92.9376C104.337 92.7279 104.367 92.4665 104.264 92.2447C104.133 91.9499 103.802 91.7766 103.483 91.7918C103.319 91.7949 103.155 91.8465 103.012 91.9195C102.963 91.9468 102.914 91.9742 102.869 92.0076L102.835 92.0319L102.817 92.0441L102.802 92.0593L102.738 92.114C102.726 92.1231 102.717 92.1322 102.708 92.1444L102.677 92.1748L102.647 92.2051L102.632 92.2203L102.617 92.2355L102.559 92.3024C102.55 92.3146 102.538 92.3237 102.531 92.3358C102.212 92.7613 102.188 93.354 102.304 93.8615C102.492 94.6851 103.133 95.299 103.957 95.4662C104.543 95.5908 105.154 95.527 105.735 95.3872C106.938 95.1136 107.978 94.4602 108.698 93.4512C109.905 91.7736 110.367 89.7981 112.397 88.8043C113.542 88.2299 114.855 88.1813 116.108 88.1965C117.6 88.2269 119.092 88.394 120.578 88.4578C121.797 88.4973 123.061 88.5338 124.222 88.1114C124.417 88.0354 124.608 87.9503 124.778 87.8257C125.195 87.5187 125.517 87.0963 125.851 86.6981C126.48 85.9262 127.143 85.1573 127.948 84.5616C128.748 83.9568 129.681 83.5283 130.656 83.3003L130.677 83.3915C130.021 83.5587 129.383 83.814 128.799 84.1574C128.216 84.4978 127.681 84.9293 127.207 85.4095C126.769 85.8472 126.383 86.3274 125.994 86.8136C125.675 87.2057 125.371 87.6038 124.976 87.929C124.876 88.0111 124.763 88.087 124.651 88.1448C124.313 88.3241 123.943 88.4396 123.572 88.5217C122.584 88.7344 121.575 88.7283 120.572 88.6979C119.077 88.6432 117.597 88.4882 116.108 88.4669C114.664 88.4487 113.114 88.549 111.916 89.4334C110.476 90.4607 109.968 92.2477 108.953 93.6275C108.2 94.6912 107.081 95.3993 105.814 95.685C105.066 95.8643 104.252 95.9221 103.519 95.6485C103.021 95.4662 102.583 95.1136 102.313 94.6547C101.911 93.9709 101.811 93.0865 102.173 92.3632C102.218 92.272 102.279 92.1839 102.349 92.1079L102.416 92.0319C102.425 92.0228 102.44 92.0046 102.449 91.9954C102.468 91.9772 102.504 91.9438 102.522 91.9255C102.535 91.9134 102.547 91.9012 102.559 91.8921L102.638 91.8283C102.659 91.8101 102.699 91.7827 102.72 91.7675C102.945 91.6095 103.215 91.5092 103.492 91.5031C103.914 91.4909 104.355 91.731 104.525 92.1292C104.65 92.4088 104.622 92.74 104.486 93.0075L104.461 93.0531L104.437 93.0987C104.376 93.1929 104.306 93.2932 104.233 93.3783C103.1 94.7094 101.061 94.9738 99.4103 94.8918C98.4104 94.8432 97.4226 94.676 96.4531 94.445L96.4562 94.3599Z" fill="url(#paint105_linear_3533_13621)"/>
<path d="M151.536 79.1974C152.363 78.5896 153.241 78.0395 154.18 77.6171C154.825 77.3314 155.502 77.1156 156.192 76.9728C157.244 76.757 158.347 76.7023 159.417 76.6354C160.921 76.5473 162.422 76.3953 163.903 76.1005C164.902 75.8999 165.896 75.6598 166.869 75.3589C167.121 75.2738 167.367 75.1736 167.61 75.0641C169.571 74.1828 171.294 72.7544 173.275 71.9155C174.078 71.5934 175.072 71.3655 175.768 72.0371C175.801 72.0705 175.828 72.104 175.862 72.1374L175.889 72.1739L175.947 72.2438C175.995 72.3137 176.056 72.3957 176.093 72.4717C176.36 72.9489 176.327 73.5385 175.892 73.9032C175.564 74.1828 175.09 74.2375 174.695 74.0855C174.379 73.967 174.114 73.7299 173.923 73.4564C173.266 72.5082 173.218 71.4293 173.99 70.5327C175.102 69.2684 177.159 68.7062 178.782 68.5147C179.846 68.3992 181.597 68.3719 182.442 69.0769C182.484 69.1134 182.524 69.1529 182.56 69.1955L182.496 69.2532C182.423 69.1803 182.341 69.1165 182.25 69.0618C182.162 69.007 182.065 68.9615 181.967 68.925C181.372 68.697 180.721 68.6606 180.086 68.6667C178.81 68.7001 177.533 68.9554 176.348 69.4234C175.141 69.9097 173.485 70.8822 173.871 72.414C173.99 72.8516 174.26 73.3652 174.655 73.6114C174.947 73.7998 175.351 73.8211 175.625 73.5901C175.825 73.426 175.895 73.1616 175.831 72.9154C175.801 72.7878 175.737 72.6541 175.661 72.5416L175.622 72.4808L175.576 72.4261L175.555 72.3988L175.53 72.3745L175.482 72.3228C175.461 72.3046 175.427 72.2711 175.406 72.2529C175.385 72.2377 175.357 72.2164 175.339 72.2012C175.333 72.1982 175.33 72.1952 175.324 72.1921L175.266 72.1556C175.239 72.1374 175.205 72.1222 175.175 72.107L175.145 72.0949C175.123 72.0857 175.102 72.0766 175.081 72.0675L175.014 72.0462C174.983 72.0371 174.944 72.028 174.914 72.0189C174.81 71.9976 174.701 71.9885 174.591 71.9885C174.558 71.9885 174.509 71.9885 174.482 71.9915C174.446 71.9946 174.406 71.9976 174.37 72.0006C174.035 72.0371 173.716 72.1344 173.4 72.2529C172.604 72.5599 171.862 72.9884 171.121 73.4139C170.03 74.046 168.853 74.7785 167.702 75.283C167.401 75.4136 167.094 75.5322 166.778 75.6264C164.176 76.3892 161.474 76.7266 158.772 76.8238C158.128 76.8603 157.484 76.8998 156.843 76.991C156.049 77.1004 155.256 77.2979 154.511 77.5958L154.363 77.6566L154.287 77.687C154.262 77.6961 154.238 77.7082 154.214 77.7174L154.068 77.7842L153.922 77.8511C153.095 78.2431 152.32 78.7324 151.579 79.2673C151.588 79.2673 151.536 79.1974 151.536 79.1974Z" fill="url(#paint106_linear_3533_13621)"/>
<path d="M133.495 71.2195C130.76 69.2228 129.93 70.56 128.888 68.6636C128.164 67.3172 127.775 65.8706 126.195 64.819C124.682 63.7675 121.11 63.1657 120.451 62.564C119.284 61.5124 119.795 57.9565 118.88 57.3457C117.473 56.4825 113.826 61.3969 112.294 59.0932C111.501 57.8623 112.142 55.1483 112.683 54.3642L112.759 54.4159C112.011 55.5434 111.385 59.9715 113.78 59.3819C115.345 59.002 117.327 56.4461 118.819 56.8229C120.615 57.2363 119.512 61.9227 120.98 62.4697C123.6 63.4484 124.369 63.5547 125.414 64.0288C128.942 65.6852 128.368 68.9675 130.146 69.6149C130.909 69.9005 131.821 69.7881 133.519 71.1892C133.489 71.2287 133.498 71.2195 133.495 71.2195Z" fill="url(#paint107_linear_3533_13621)"/>
<path d="M146.318 84.7378C149.026 85.4459 150.144 88.3484 152.229 89.9409C153.466 90.9134 155.077 91.1505 156.441 91.8829C157.034 92.196 157.587 92.6154 157.955 93.1837C158.137 93.4694 158.31 93.7915 158.271 94.1441C158.228 94.5179 157.879 94.7702 157.517 94.761C157.14 94.7641 156.857 94.4115 156.848 94.0499C156.827 93.5059 157.356 93.2323 157.839 93.2962C158.189 93.3296 158.49 93.5393 158.736 93.7733C159.061 94.0833 159.344 94.4207 159.66 94.7337C160.28 95.3628 160.973 95.9129 161.714 96.3931C162.073 96.6241 162.453 96.8794 162.881 96.931C163.449 97.007 163.863 96.5785 163.93 96.0375C163.957 95.8308 163.914 95.6211 163.832 95.4297C163.577 94.837 162.945 94.4784 162.319 94.4115C161.802 94.3508 161.231 94.5118 160.906 94.9404C160.538 95.4145 160.605 96.074 160.766 96.621C161.024 97.5358 161.772 98.171 162.656 98.4689C163.352 98.7059 164.109 98.7788 164.838 98.6816C164.978 98.6634 165.118 98.6512 165.258 98.6451C165.82 98.6208 166.397 98.6938 166.905 98.9399C167.65 99.2925 168.121 100.013 168.063 100.845L168.02 100.842C168.026 100.624 167.999 100.402 167.932 100.195C167.659 99.3168 166.787 98.8609 165.917 98.7819C165.565 98.7454 165.206 98.7606 164.854 98.8123C164.772 98.8244 164.686 98.8366 164.601 98.8427C163.282 98.9521 161.757 98.5813 160.966 97.4416C160.772 97.159 160.638 96.8368 160.556 96.5055C160.416 95.9554 160.401 95.3081 160.769 94.8401C161.517 93.8827 163.143 94.135 163.811 95.0619C164.088 95.4418 164.188 95.9646 163.997 96.4022C163.863 96.7335 163.574 97.0131 163.215 97.0769C162.866 97.1438 162.513 97.0252 162.206 96.8672C162.106 96.8155 162.009 96.7578 161.912 96.7C161.061 96.1682 160.261 95.5482 159.562 94.8249C159.252 94.5118 158.967 94.1654 158.648 93.8615C158.493 93.7125 158.319 93.5758 158.125 93.4907C157.757 93.3296 157.225 93.3691 157.012 93.752C156.818 94.1167 157.079 94.6608 157.514 94.6608C157.718 94.6638 157.93 94.5757 158.058 94.4115C158.189 94.2444 158.204 94.0195 158.152 93.8159C158.101 93.6062 157.991 93.4117 157.879 93.2293C157.52 92.6731 156.982 92.2568 156.402 91.9498C155.037 91.2143 153.423 90.9651 152.192 89.9835C150.433 88.6189 149.445 86.4519 147.53 85.2697C147.15 85.0417 146.74 84.8624 146.312 84.753C146.315 84.753 146.318 84.7378 146.318 84.7378Z" fill="url(#paint108_linear_3533_13621)"/>
<path d="M142.893 71.1345C143.899 70.5631 144.977 69.9492 145.546 68.9007C146.005 68.0132 146.117 67.0042 146.254 66.0286C146.318 65.5788 146.366 65.1229 146.488 64.6823C146.527 64.5485 146.576 64.4087 146.655 64.2902C146.795 64.0744 147.065 63.9833 147.312 64.0076C147.503 64.0228 147.685 64.0835 147.856 64.1686C148.096 64.2933 148.321 64.4604 148.561 64.5698C149.093 64.8281 149.554 64.5789 149.788 64.0684C150.056 63.421 149.834 62.6521 149.633 62.0108C149.472 61.4698 149.099 60.6736 149.184 60.1174C149.278 59.5825 149.758 59.5369 150.205 59.6129C150.664 59.6919 151.104 59.856 151.53 60.0202C152.205 60.2785 152.864 60.5824 153.545 60.8103C153.773 60.8833 154.414 61.09 154.569 60.8802C154.724 60.5429 154.25 59.5217 154.101 59.154C153.749 58.3243 153.323 57.4976 153.083 56.6102C153.062 56.519 153.04 56.4248 153.028 56.3306C152.946 55.7957 153.15 55.4644 153.73 55.5039C154.013 55.5222 154.286 55.5981 154.554 55.6741C155.417 55.9233 156.265 56.2759 157.162 56.3762C157.59 56.4187 158.064 56.3944 158.411 56.1148C158.654 55.9385 158.645 55.6984 158.56 55.431C158.45 55.0876 158.25 54.7776 158.134 54.4341L158.158 54.425C158.289 54.7624 158.502 55.0602 158.629 55.4067C158.724 55.662 158.751 55.9507 158.529 56.1482C158.444 56.2333 158.347 56.3002 158.24 56.3549C157.581 56.6831 156.742 56.5008 156.061 56.3367C155.53 56.206 155.016 56.0327 154.49 55.8899C154.198 55.817 153.657 55.6589 153.39 55.8018C152.977 56.0601 153.77 57.6526 153.931 58.0356C154.229 58.7042 154.554 59.3515 154.791 60.0506C154.87 60.3058 154.961 60.6037 154.91 60.8833C154.818 61.3209 154.335 61.3331 153.989 61.2632C153.797 61.2298 153.618 61.175 153.442 61.1203C152.746 60.8863 152.089 60.5794 151.414 60.3058C150.922 60.1144 150.433 59.8986 149.904 59.8591C149.795 59.856 149.697 59.8621 149.603 59.9047L149.582 59.9168L149.573 59.9229L149.564 59.929C149.424 60.0323 149.412 60.2359 149.421 60.4001C149.433 60.5672 149.469 60.7404 149.515 60.9106C149.655 61.4273 149.852 61.947 149.974 62.4789C150.098 63.0168 150.174 63.6186 149.943 64.1413C149.667 64.7279 149.105 65.0105 148.494 64.7096C148.09 64.5212 147.758 64.1838 147.296 64.1443C146.88 64.1109 146.713 64.3449 146.606 64.7157C146.482 65.1473 146.43 65.5971 146.363 66.0438C146.214 67.0285 146.087 68.0497 145.613 68.9402C145.391 69.3383 145.081 69.6908 144.734 69.9856C144.181 70.4598 143.54 70.8123 142.902 71.1588C142.905 71.1588 142.893 71.1345 142.893 71.1345Z" fill="url(#paint109_linear_3533_13621)"/>
<path d="M122.813 77.3618C121.986 77.2098 121.132 77.0396 120.336 76.7813C119.831 76.6202 119.333 76.4135 118.886 76.1279C118.539 75.909 118.217 75.6507 117.868 75.438C116.91 74.8453 115.892 74.7146 114.807 75.0003C114.291 75.1249 113.801 75.3559 113.27 75.4167C112.102 75.5747 110.82 75.207 110.042 74.2952C109.832 74.0521 109.656 73.7725 109.504 73.4898C109.106 72.7513 108.851 71.9277 108.325 71.2621C107.331 69.9553 105.705 70.2166 104.313 70.6117C103.499 70.8397 102.696 71.1223 101.873 71.332C100.806 71.6025 99.5506 71.7727 98.5994 71.0889C97.8852 70.551 97.5964 69.7516 98.0098 68.9219C98.3015 68.3445 98.8273 67.8886 99.4321 67.6607C99.964 67.4662 100.584 67.5057 100.888 68.0436C101.104 68.4235 101.146 68.925 100.867 69.2836C100.526 69.7182 99.9336 69.8489 99.4047 69.8428C98.7635 69.8276 98.1344 69.6088 97.6025 69.2593C96.8883 68.7913 96.3564 68.0801 96.0312 67.296L96.0495 67.2869C96.2166 67.6759 96.4294 68.0436 96.6938 68.3749C97.4597 69.3474 98.7848 70.0069 100.028 69.7121C100.532 69.5906 101.009 69.2319 100.988 68.6697C100.961 68.1348 100.642 67.6607 100.067 67.6425C99.5476 67.6273 99.0522 67.8977 98.6693 68.2321C97.9399 68.8824 97.6147 69.8854 98.3289 70.6786C99.2072 71.6785 100.675 71.5053 101.839 71.1953C103.073 70.8792 104.255 70.3777 105.52 70.1832C106.693 70.0009 107.775 70.2197 108.513 71.2165C109.048 71.9247 109.297 72.7878 109.72 73.5537C109.777 73.66 109.856 73.7877 109.92 73.888C109.963 73.9488 110.011 74.0187 110.057 74.0764L110.154 74.198C110.893 75.0854 112.13 75.4471 113.254 75.3073C113.78 75.2495 114.269 75.0277 114.783 74.9061C115.874 74.6295 116.907 74.7602 117.868 75.3589C118.208 75.5626 118.521 75.8148 118.849 76.0367C119.311 76.3436 119.822 76.5685 120.348 76.7418C120.895 76.9272 121.469 77.0609 122.035 77.1855C122.372 77.2584 122.533 77.2858 122.813 77.3405C122.816 77.3435 122.813 77.3618 122.813 77.3618Z" fill="#1B90DD"/>
<circle cx="139.5" cy="78" r="50" fill="white"/>
<circle cx="139.5" cy="78" r="50" fill="#0091D7" fill-opacity="0.08"/>
<g clip-path="url(#clip0_3533_13621)">
<path d="M126.667 78.5L135.834 87.6667L154.167 69.3333" stroke="#0091D7" stroke-width="5"/>
</g>
<defs>
<linearGradient id="paint0_linear_3533_13621" x1="129.154" y1="98.9956" x2="130.909" y2="99.534" gradientUnits="userSpaceOnUse">
<stop stop-color="#61D3D7"/>
<stop offset="0.2216" stop-color="#57CFD7"/>
<stop offset="0.6006" stop-color="#3CC6D5"/>
<stop offset="1" stop-color="#18B9D4"/>
</linearGradient>
<linearGradient id="paint1_linear_3533_13621" x1="128.739" y1="99.1777" x2="129.976" y2="101.463" gradientUnits="userSpaceOnUse">
<stop stop-color="#61D3D7"/>
<stop offset="0.2216" stop-color="#57CFD7"/>
<stop offset="0.6006" stop-color="#3CC6D5"/>
<stop offset="1" stop-color="#18B9D4"/>
</linearGradient>
<linearGradient id="paint2_linear_3533_13621" x1="130.665" y1="95.2327" x2="134.222" y2="96.3236" gradientUnits="userSpaceOnUse">
<stop stop-color="#61D3D7"/>
<stop offset="0.2216" stop-color="#57CFD7"/>
<stop offset="0.6006" stop-color="#3CC6D5"/>
<stop offset="1" stop-color="#18B9D4"/>
</linearGradient>
<linearGradient id="paint3_linear_3533_13621" x1="136.188" y1="89.1982" x2="132.884" y2="90.9269" gradientUnits="userSpaceOnUse">
<stop stop-color="#61D3D7"/>
<stop offset="0.2216" stop-color="#57CFD7"/>
<stop offset="0.6006" stop-color="#3CC6D5"/>
<stop offset="1" stop-color="#18B9D4"/>
</linearGradient>
<linearGradient id="paint4_linear_3533_13621" x1="130.134" y1="95.9033" x2="131.929" y2="98.8893" gradientUnits="userSpaceOnUse">
<stop stop-color="#61D3D7"/>
<stop offset="0.2216" stop-color="#57CFD7"/>
<stop offset="0.6006" stop-color="#3CC6D5"/>
<stop offset="1" stop-color="#18B9D4"/>
</linearGradient>
<linearGradient id="paint5_linear_3533_13621" x1="132.961" y1="91.72" x2="135.463" y2="94.7095" gradientUnits="userSpaceOnUse">
<stop stop-color="#61D3D7"/>
<stop offset="0.2216" stop-color="#57CFD7"/>
<stop offset="0.6006" stop-color="#3CC6D5"/>
<stop offset="1" stop-color="#18B9D4"/>
</linearGradient>
<linearGradient id="paint6_linear_3533_13621" x1="116.508" y1="69.0014" x2="116.788" y2="68.0921" gradientUnits="userSpaceOnUse">
<stop stop-color="#61D3D7"/>
<stop offset="0.2216" stop-color="#57CFD7"/>
<stop offset="0.6006" stop-color="#3CC6D5"/>
<stop offset="1" stop-color="#18B9D4"/>
</linearGradient>
<linearGradient id="paint7_linear_3533_13621" x1="116.602" y1="69.2165" x2="117.787" y2="68.5768" gradientUnits="userSpaceOnUse">
<stop stop-color="#61D3D7"/>
<stop offset="0.2216" stop-color="#57CFD7"/>
<stop offset="0.6006" stop-color="#3CC6D5"/>
<stop offset="1" stop-color="#18B9D4"/>
</linearGradient>
<linearGradient id="paint8_linear_3533_13621" x1="114.558" y1="68.2154" x2="115.126" y2="66.3728" gradientUnits="userSpaceOnUse">
<stop stop-color="#61D3D7"/>
<stop offset="0.2216" stop-color="#57CFD7"/>
<stop offset="0.6006" stop-color="#3CC6D5"/>
<stop offset="1" stop-color="#18B9D4"/>
</linearGradient>
<linearGradient id="paint9_linear_3533_13621" x1="111.436" y1="65.3486" x2="112.329" y2="67.0623" gradientUnits="userSpaceOnUse">
<stop stop-color="#61D3D7"/>
<stop offset="0.2216" stop-color="#57CFD7"/>
<stop offset="0.6006" stop-color="#3CC6D5"/>
<stop offset="1" stop-color="#18B9D4"/>
</linearGradient>
<linearGradient id="paint10_linear_3533_13621" x1="114.905" y1="68.4914" x2="116.454" y2="67.5634" gradientUnits="userSpaceOnUse">
<stop stop-color="#61D3D7"/>
<stop offset="0.2216" stop-color="#57CFD7"/>
<stop offset="0.6006" stop-color="#3CC6D5"/>
<stop offset="1" stop-color="#18B9D4"/>
</linearGradient>
<linearGradient id="paint11_linear_3533_13621" x1="112.74" y1="67.023" x2="114.291" y2="65.7282" gradientUnits="userSpaceOnUse">
<stop stop-color="#61D3D7"/>
<stop offset="0.2216" stop-color="#57CFD7"/>
<stop offset="0.6006" stop-color="#3CC6D5"/>
<stop offset="1" stop-color="#18B9D4"/>
</linearGradient>
<linearGradient id="paint12_linear_3533_13621" x1="167.256" y1="88.0549" x2="167.563" y2="87.1123" gradientUnits="userSpaceOnUse">
<stop stop-color="#5221B5"/>
<stop offset="0.116" stop-color="#692CCF"/>
<stop offset="0.2612" stop-color="#7F37E9"/>
<stop offset="0.3915" stop-color="#8D3EF9"/>
<stop offset="0.4931" stop-color="#9240FF"/>
<stop offset="0.6086" stop-color="#8F3EFB"/>
<stop offset="0.7255" stop-color="#8439EF"/>
<stop offset="0.8431" stop-color="#7331DB"/>
<stop offset="0.9605" stop-color="#5B26BE"/>
<stop offset="1" stop-color="#5121B3"/>
</linearGradient>
<linearGradient id="paint13_linear_3533_13621" x1="167.359" y1="88.2834" x2="168.617" y2="87.5902" gradientUnits="userSpaceOnUse">
<stop stop-color="#532E9E"/>
<stop offset="0.5121" stop-color="#BE70FF"/>
<stop offset="1" stop-color="#7C48FF"/>
</linearGradient>
<linearGradient id="paint14_linear_3533_13621" x1="165.135" y1="87.1697" x2="165.757" y2="85.2598" gradientUnits="userSpaceOnUse">
<stop stop-color="#5221B5"/>
<stop offset="0.116" stop-color="#692CCF"/>
<stop offset="0.2612" stop-color="#7F37E9"/>
<stop offset="0.3915" stop-color="#8D3EF9"/>
<stop offset="0.4931" stop-color="#9240FF"/>
<stop offset="0.6086" stop-color="#8F3EFB"/>
<stop offset="0.7255" stop-color="#8439EF"/>
<stop offset="0.8431" stop-color="#7331DB"/>
<stop offset="0.9605" stop-color="#5B26BE"/>
<stop offset="1" stop-color="#5121B3"/>
</linearGradient>
<linearGradient id="paint15_linear_3533_13621" x1="161.738" y1="84.0693" x2="162.616" y2="85.9346" gradientUnits="userSpaceOnUse">
<stop stop-color="#5221B5"/>
<stop offset="0.116" stop-color="#692CCF"/>
<stop offset="0.2612" stop-color="#7F37E9"/>
<stop offset="0.3915" stop-color="#8D3EF9"/>
<stop offset="0.4931" stop-color="#9240FF"/>
<stop offset="0.6086" stop-color="#8F3EFB"/>
<stop offset="0.7255" stop-color="#8439EF"/>
<stop offset="0.8431" stop-color="#7331DB"/>
<stop offset="0.9605" stop-color="#5B26BE"/>
<stop offset="1" stop-color="#5121B3"/>
</linearGradient>
<linearGradient id="paint16_linear_3533_13621" x1="165.513" y1="87.4696" x2="167.153" y2="86.4681" gradientUnits="userSpaceOnUse">
<stop stop-color="#532E9E"/>
<stop offset="0.5121" stop-color="#BE70FF"/>
<stop offset="1" stop-color="#7C48FF"/>
</linearGradient>
<linearGradient id="paint17_linear_3533_13621" x1="163.155" y1="85.8634" x2="164.786" y2="84.485" gradientUnits="userSpaceOnUse">
<stop stop-color="#532E9E"/>
<stop offset="0.5121" stop-color="#BE70FF"/>
<stop offset="1" stop-color="#7C48FF"/>
</linearGradient>
<linearGradient id="paint18_linear_3533_13621" x1="166.894" y1="62.7936" x2="170.596" y2="62.7936" gradientUnits="userSpaceOnUse">
<stop stop-color="#C7122D"/>
<stop offset="0.5035" stop-color="#FF6685"/>
<stop offset="1" stop-color="#D43845"/>
</linearGradient>
<linearGradient id="paint19_linear_3533_13621" x1="145.939" y1="94.2425" x2="147.956" y2="98.0898" gradientUnits="userSpaceOnUse">
<stop stop-color="#532E9E"/>
<stop offset="0.5121" stop-color="#BE70FF"/>
<stop offset="1" stop-color="#7C48FF"/>
</linearGradient>
<linearGradient id="paint20_linear_3533_13621" x1="118.762" y1="96.9644" x2="120.359" y2="96.9644" gradientUnits="userSpaceOnUse">
<stop stop-color="#948BE2"/>
<stop offset="0.3319" stop-color="#8A81DB"/>
<stop offset="0.8981" stop-color="#7066C7"/>
<stop offset="1" stop-color="#6A60C3"/>
</linearGradient>
<linearGradient id="paint21_linear_3533_13621" x1="118.015" y1="97.4963" x2="118.975" y2="97.4963" gradientUnits="userSpaceOnUse">
<stop stop-color="#948BE2"/>
<stop offset="0.3319" stop-color="#8A81DB"/>
<stop offset="0.8981" stop-color="#7066C7"/>
<stop offset="1" stop-color="#6A60C3"/>
</linearGradient>
<linearGradient id="paint22_linear_3533_13621" x1="120.116" y1="96.6065" x2="121.208" y2="96.6065" gradientUnits="userSpaceOnUse">
<stop stop-color="#948BE2"/>
<stop offset="0.3319" stop-color="#8A81DB"/>
<stop offset="0.8981" stop-color="#7066C7"/>
<stop offset="1" stop-color="#6A60C3"/>
</linearGradient>
<linearGradient id="paint23_linear_3533_13621" x1="134.185" y1="78.2795" x2="134.024" y2="78.2795" gradientUnits="userSpaceOnUse">
<stop stop-color="#0092DC"/>
<stop offset="0.3261" stop-color="#0888E4"/>
<stop offset="0.8825" stop-color="#1F6DFA"/>
<stop offset="1" stop-color="#2466FF"/>
</linearGradient>
<linearGradient id="paint24_linear_3533_13621" x1="131.789" y1="64.5122" x2="131.656" y2="64.5122" gradientUnits="userSpaceOnUse">
<stop stop-color="#7F2390"/>
<stop offset="0.2994" stop-color="#982182"/>
<stop offset="0.9341" stop-color="#D91D5F"/>
<stop offset="1" stop-color="#E01C5B"/>
</linearGradient>
<linearGradient id="paint25_linear_3533_13621" x1="142.986" y1="61.9252" x2="141.818" y2="61.9252" gradientUnits="userSpaceOnUse">
<stop stop-color="#0092DC"/>
<stop offset="0.3261" stop-color="#0888E4"/>
<stop offset="0.8825" stop-color="#1F6DFA"/>
<stop offset="1" stop-color="#2466FF"/>
</linearGradient>
<linearGradient id="paint26_linear_3533_13621" x1="129.436" y1="71.8493" x2="129.075" y2="71.8493" gradientUnits="userSpaceOnUse">
<stop stop-color="#0092DC"/>
<stop offset="0.3261" stop-color="#0888E4"/>
<stop offset="0.8825" stop-color="#1F6DFA"/>
<stop offset="1" stop-color="#2466FF"/>
</linearGradient>
<linearGradient id="paint27_linear_3533_13621" x1="127.522" y1="91.2027" x2="127.062" y2="90.6768" gradientUnits="userSpaceOnUse">
<stop stop-color="#0092DC"/>
<stop offset="0.2193" stop-color="#009CD4"/>
<stop offset="0.5944" stop-color="#00B7C0"/>
<stop offset="1" stop-color="#00DCA5"/>
</linearGradient>
<linearGradient id="paint28_linear_3533_13621" x1="126.482" y1="73.7682" x2="126.082" y2="73.7682" gradientUnits="userSpaceOnUse">
<stop stop-color="#FF5600"/>
<stop offset="0.1769" stop-color="#FF6000"/>
<stop offset="0.4798" stop-color="#FF7B00"/>
<stop offset="0.8695" stop-color="#FFA800"/>
<stop offset="1" stop-color="#FFB800"/>
</linearGradient>
<linearGradient id="paint29_linear_3533_13621" x1="148.31" y1="94.1806" x2="147.739" y2="94.1806" gradientUnits="userSpaceOnUse">
<stop stop-color="#7F2390"/>
<stop offset="0.2994" stop-color="#982182"/>
<stop offset="0.9341" stop-color="#D91D5F"/>
<stop offset="1" stop-color="#E01C5B"/>
</linearGradient>
<linearGradient id="paint30_linear_3533_13621" x1="148.925" y1="61.3853" x2="148.758" y2="61.3853" gradientUnits="userSpaceOnUse">
<stop stop-color="#0092DC"/>
<stop offset="0.3261" stop-color="#0888E4"/>
<stop offset="0.8825" stop-color="#1F6DFA"/>
<stop offset="1" stop-color="#2466FF"/>
</linearGradient>
<linearGradient id="paint31_linear_3533_13621" x1="138.641" y1="71.3532" x2="138.512" y2="71.3532" gradientUnits="userSpaceOnUse">
<stop stop-color="#948BE2"/>
<stop offset="0.3319" stop-color="#8A81DB"/>
<stop offset="0.8981" stop-color="#7066C7"/>
<stop offset="1" stop-color="#6A60C3"/>
</linearGradient>
<linearGradient id="paint32_linear_3533_13621" x1="150.828" y1="76.3626" x2="150.237" y2="76.3626" gradientUnits="userSpaceOnUse">
<stop stop-color="#7F2390"/>
<stop offset="0.2994" stop-color="#982182"/>
<stop offset="0.9341" stop-color="#D91D5F"/>
<stop offset="1" stop-color="#E01C5B"/>
</linearGradient>
<linearGradient id="paint33_linear_3533_13621" x1="152.54" y1="83.6753" x2="152.326" y2="83.6753" gradientUnits="userSpaceOnUse">
<stop stop-color="#0092DC"/>
<stop offset="0.3261" stop-color="#0888E4"/>
<stop offset="0.8825" stop-color="#1F6DFA"/>
<stop offset="1" stop-color="#2466FF"/>
</linearGradient>
<linearGradient id="paint34_linear_3533_13621" x1="156.127" y1="77.6029" x2="155.668" y2="77.6029" gradientUnits="userSpaceOnUse">
<stop stop-color="#7F2390"/>
<stop offset="0.2994" stop-color="#982182"/>
<stop offset="0.9341" stop-color="#D91D5F"/>
<stop offset="1" stop-color="#E01C5B"/>
</linearGradient>
<linearGradient id="paint35_linear_3533_13621" x1="153.667" y1="65.6729" x2="153.36" y2="65.6729" gradientUnits="userSpaceOnUse">
<stop stop-color="#948BE2"/>
<stop offset="0.3319" stop-color="#8A81DB"/>
<stop offset="0.8981" stop-color="#7066C7"/>
<stop offset="1" stop-color="#6A60C3"/>
</linearGradient>
<linearGradient id="paint36_linear_3533_13621" x1="162.88" y1="64.3465" x2="162.592" y2="64.3465" gradientUnits="userSpaceOnUse">
<stop stop-color="#0092DC"/>
<stop offset="0.3261" stop-color="#0888E4"/>
<stop offset="0.8825" stop-color="#1F6DFA"/>
<stop offset="1" stop-color="#2466FF"/>
</linearGradient>
<linearGradient id="paint37_linear_3533_13621" x1="169.674" y1="70.9265" x2="169.112" y2="70.9265" gradientUnits="userSpaceOnUse">
<stop stop-color="#7F2390"/>
<stop offset="0.2994" stop-color="#982182"/>
<stop offset="0.9341" stop-color="#D91D5F"/>
<stop offset="1" stop-color="#E01C5B"/>
</linearGradient>
<linearGradient id="paint38_linear_3533_13621" x1="164.307" y1="80.7008" x2="163.674" y2="80.7008" gradientUnits="userSpaceOnUse">
<stop stop-color="#948BE2"/>
<stop offset="0.3319" stop-color="#8A81DB"/>
<stop offset="0.8981" stop-color="#7066C7"/>
<stop offset="1" stop-color="#6A60C3"/>
</linearGradient>
<linearGradient id="paint39_linear_3533_13621" x1="168.448" y1="83.7477" x2="168.208" y2="83.7477" gradientUnits="userSpaceOnUse">
<stop stop-color="#FF5600"/>
<stop offset="0.1769" stop-color="#FF6000"/>
<stop offset="0.4798" stop-color="#FF7B00"/>
<stop offset="0.8695" stop-color="#FFA800"/>
<stop offset="1" stop-color="#FFB800"/>
</linearGradient>
<linearGradient id="paint40_linear_3533_13621" x1="169.045" y1="79.6853" x2="168.693" y2="79.6853" gradientUnits="userSpaceOnUse">
<stop stop-color="#0092DC"/>
<stop offset="0.2193" stop-color="#009CD4"/>
<stop offset="0.5944" stop-color="#00B7C0"/>
<stop offset="1" stop-color="#00DCA5"/>
</linearGradient>
<linearGradient id="paint41_linear_3533_13621" x1="163.99" y1="77.2116" x2="163.747" y2="77.2116" gradientUnits="userSpaceOnUse">
<stop stop-color="#0092DC"/>
<stop offset="0.3261" stop-color="#0888E4"/>
<stop offset="0.8825" stop-color="#1F6DFA"/>
<stop offset="1" stop-color="#2466FF"/>
</linearGradient>
<linearGradient id="paint42_linear_3533_13621" x1="159.944" y1="85.2493" x2="159.562" y2="85.2493" gradientUnits="userSpaceOnUse">
<stop stop-color="#7F2390"/>
<stop offset="0.2994" stop-color="#982182"/>
<stop offset="0.9341" stop-color="#D91D5F"/>
<stop offset="1" stop-color="#E01C5B"/>
</linearGradient>
<linearGradient id="paint43_linear_3533_13621" x1="170.058" y1="94.3964" x2="169.674" y2="94.3964" gradientUnits="userSpaceOnUse">
<stop stop-color="#0092DC"/>
<stop offset="0.2193" stop-color="#009CD4"/>
<stop offset="0.5944" stop-color="#00B7C0"/>
<stop offset="1" stop-color="#00DCA5"/>
</linearGradient>
<linearGradient id="paint44_linear_3533_13621" x1="173.269" y1="77.0011" x2="172.922" y2="77.0011" gradientUnits="userSpaceOnUse">
<stop stop-color="#7F2390"/>
<stop offset="0.2994" stop-color="#982182"/>
<stop offset="0.9341" stop-color="#D91D5F"/>
<stop offset="1" stop-color="#E01C5B"/>
</linearGradient>
<linearGradient id="paint45_linear_3533_13621" x1="150.792" y1="91.573" x2="150.533" y2="91.573" gradientUnits="userSpaceOnUse">
<stop stop-color="#0092DC"/>
<stop offset="0.3261" stop-color="#0888E4"/>
<stop offset="0.8825" stop-color="#1F6DFA"/>
<stop offset="1" stop-color="#2466FF"/>
</linearGradient>
<linearGradient id="paint46_linear_3533_13621" x1="155.516" y1="93.2757" x2="155.322" y2="93.2757" gradientUnits="userSpaceOnUse">
<stop stop-color="#FF5600"/>
<stop offset="0.1769" stop-color="#FF6000"/>
<stop offset="0.4798" stop-color="#FF7B00"/>
<stop offset="0.8695" stop-color="#FFA800"/>
<stop offset="1" stop-color="#FFB800"/>
</linearGradient>
<linearGradient id="paint47_linear_3533_13621" x1="154.072" y1="97.2254" x2="153.901" y2="97.2254" gradientUnits="userSpaceOnUse">
<stop stop-color="#0092DC"/>
<stop offset="0.3261" stop-color="#0888E4"/>
<stop offset="0.8825" stop-color="#1F6DFA"/>
<stop offset="1" stop-color="#2466FF"/>
</linearGradient>
<linearGradient id="paint48_linear_3533_13621" x1="159.636" y1="89.0185" x2="159.487" y2="89.0185" gradientUnits="userSpaceOnUse">
<stop stop-color="#7F2390"/>
<stop offset="0.2994" stop-color="#982182"/>
<stop offset="0.9341" stop-color="#D91D5F"/>
<stop offset="1" stop-color="#E01C5B"/>
</linearGradient>
<linearGradient id="paint49_linear_3533_13621" x1="155.916" y1="81.7965" x2="155.42" y2="81.7965" gradientUnits="userSpaceOnUse">
<stop stop-color="#0092DC"/>
<stop offset="0.3261" stop-color="#0888E4"/>
<stop offset="0.8825" stop-color="#1F6DFA"/>
<stop offset="1" stop-color="#2466FF"/>
</linearGradient>
<linearGradient id="paint50_linear_3533_13621" x1="149.235" y1="88.6237" x2="148.841" y2="88.6237" gradientUnits="userSpaceOnUse">
<stop stop-color="#948BE2"/>
<stop offset="0.3319" stop-color="#8A81DB"/>
<stop offset="0.8981" stop-color="#7066C7"/>
<stop offset="1" stop-color="#6A60C3"/>
</linearGradient>
<linearGradient id="paint51_linear_3533_13621" x1="142.824" y1="81.5213" x2="142.645" y2="81.5213" gradientUnits="userSpaceOnUse">
<stop stop-color="#7F2390"/>
<stop offset="0.2994" stop-color="#982182"/>
<stop offset="0.9341" stop-color="#D91D5F"/>
<stop offset="1" stop-color="#E01C5B"/>
</linearGradient>
<linearGradient id="paint52_linear_3533_13621" x1="137.797" y1="85.3623" x2="137.608" y2="85.3623" gradientUnits="userSpaceOnUse">
<stop stop-color="#948BE2"/>
<stop offset="0.3319" stop-color="#8A81DB"/>
<stop offset="0.8981" stop-color="#7066C7"/>
<stop offset="1" stop-color="#6A60C3"/>
</linearGradient>
<linearGradient id="paint53_linear_3533_13621" x1="109.309" y1="94.1806" x2="108.855" y2="94.1806" gradientUnits="userSpaceOnUse">
<stop stop-color="#0092DC"/>
<stop offset="0.3261" stop-color="#0888E4"/>
<stop offset="0.8825" stop-color="#1F6DFA"/>
<stop offset="1" stop-color="#2466FF"/>
</linearGradient>
<linearGradient id="paint54_linear_3533_13621" x1="139.187" y1="96.9055" x2="138.576" y2="96.9055" gradientUnits="userSpaceOnUse">
<stop stop-color="#0092DC"/>
<stop offset="0.2193" stop-color="#009CD4"/>
<stop offset="0.5944" stop-color="#00B7C0"/>
<stop offset="1" stop-color="#00DCA5"/>
</linearGradient>
<linearGradient id="paint55_linear_3533_13621" x1="142.871" y1="90.9368" x2="142.735" y2="90.9368" gradientUnits="userSpaceOnUse">
<stop stop-color="#0092DC"/>
<stop offset="0.3261" stop-color="#0888E4"/>
<stop offset="0.8825" stop-color="#1F6DFA"/>
<stop offset="1" stop-color="#2466FF"/>
</linearGradient>
<linearGradient id="paint56_linear_3533_13621" x1="139.346" y1="88.7579" x2="139.088" y2="88.7579" gradientUnits="userSpaceOnUse">
<stop stop-color="#FF5600"/>
<stop offset="0.1769" stop-color="#FF6000"/>
<stop offset="0.4798" stop-color="#FF7B00"/>
<stop offset="0.8695" stop-color="#FFA800"/>
<stop offset="1" stop-color="#FFB800"/>
</linearGradient>
<linearGradient id="paint57_linear_3533_13621" x1="119.044" y1="92.64" x2="118.656" y2="92.64" gradientUnits="userSpaceOnUse">
<stop stop-color="#7F2390"/>
<stop offset="0.2994" stop-color="#982182"/>
<stop offset="0.9341" stop-color="#D91D5F"/>
<stop offset="1" stop-color="#E01C5B"/>
</linearGradient>
<linearGradient id="paint58_linear_3533_13621" x1="135.264" y1="95.0365" x2="134.845" y2="95.0365" gradientUnits="userSpaceOnUse">
<stop stop-color="#0092DC"/>
<stop offset="0.3261" stop-color="#0888E4"/>
<stop offset="0.8825" stop-color="#1F6DFA"/>
<stop offset="1" stop-color="#2466FF"/>
</linearGradient>
<linearGradient id="paint59_linear_3533_13621" x1="126.102" y1="94.3958" x2="125.653" y2="94.3958" gradientUnits="userSpaceOnUse">
<stop stop-color="#FF4856"/>
<stop offset="0.162" stop-color="#FF5260"/>
<stop offset="0.4393" stop-color="#FF6D79"/>
<stop offset="0.796" stop-color="#FF9AA3"/>
<stop offset="1" stop-color="#FFB6BE"/>
</linearGradient>
<linearGradient id="paint60_linear_3533_13621" x1="128.906" y1="87.9749" x2="128.724" y2="87.9749" gradientUnits="userSpaceOnUse">
<stop stop-color="#0092DC"/>
<stop offset="0.3261" stop-color="#0888E4"/>
<stop offset="0.8825" stop-color="#1F6DFA"/>
<stop offset="1" stop-color="#2466FF"/>
</linearGradient>
<linearGradient id="paint61_linear_3533_13621" x1="130.652" y1="88.118" x2="130.172" y2="88.118" gradientUnits="userSpaceOnUse">
<stop stop-color="#7F2390"/>
<stop offset="0.2994" stop-color="#982182"/>
<stop offset="0.9341" stop-color="#D91D5F"/>
<stop offset="1" stop-color="#E01C5B"/>
</linearGradient>
<linearGradient id="paint62_linear_3533_13621" x1="137.712" y1="89.4199" x2="137.5" y2="89.4199" gradientUnits="userSpaceOnUse">
<stop stop-color="#0092DC"/>
<stop offset="0.3261" stop-color="#0888E4"/>
<stop offset="0.8825" stop-color="#1F6DFA"/>
<stop offset="1" stop-color="#2466FF"/>
</linearGradient>
<linearGradient id="paint63_linear_3533_13621" x1="131.651" y1="81.6567" x2="131.341" y2="81.6567" gradientUnits="userSpaceOnUse">
<stop stop-color="#FF5600"/>
<stop offset="0.1769" stop-color="#FF6000"/>
<stop offset="0.4798" stop-color="#FF7B00"/>
<stop offset="0.8695" stop-color="#FFA800"/>
<stop offset="1" stop-color="#FFB800"/>
</linearGradient>
<linearGradient id="paint64_linear_3533_13621" x1="130.398" y1="65.5779" x2="130.293" y2="65.5779" gradientUnits="userSpaceOnUse">
<stop stop-color="#0092DC"/>
<stop offset="0.3261" stop-color="#0888E4"/>
<stop offset="0.8825" stop-color="#1F6DFA"/>
<stop offset="1" stop-color="#2466FF"/>
</linearGradient>
<linearGradient id="paint65_linear_3533_13621" x1="123.323" y1="61.6776" x2="123.162" y2="61.6776" gradientUnits="userSpaceOnUse">
<stop stop-color="#0092DC"/>
<stop offset="0.3261" stop-color="#0888E4"/>
<stop offset="0.8825" stop-color="#1F6DFA"/>
<stop offset="1" stop-color="#2466FF"/>
</linearGradient>
<linearGradient id="paint66_linear_3533_13621" x1="121.243" y1="65.2554" x2="120.826" y2="65.2554" gradientUnits="userSpaceOnUse">
<stop stop-color="#7F2390"/>
<stop offset="0.2994" stop-color="#982182"/>
<stop offset="0.9341" stop-color="#D91D5F"/>
<stop offset="1" stop-color="#E01C5B"/>
</linearGradient>
<linearGradient id="paint67_linear_3533_13621" x1="115.832" y1="64.7388" x2="115.574" y2="64.7388" gradientUnits="userSpaceOnUse">
<stop stop-color="#FF5600"/>
<stop offset="0.1769" stop-color="#FF6000"/>
<stop offset="0.4798" stop-color="#FF7B00"/>
<stop offset="0.8695" stop-color="#FFA800"/>
<stop offset="1" stop-color="#FFB800"/>
</linearGradient>
<linearGradient id="paint68_linear_3533_13621" x1="107.674" y1="64.9038" x2="107.131" y2="64.9038" gradientUnits="userSpaceOnUse">
<stop stop-color="#0092DC"/>
<stop offset="0.2193" stop-color="#009CD4"/>
<stop offset="0.5944" stop-color="#00B7C0"/>
<stop offset="1" stop-color="#00DCA5"/>
</linearGradient>
<linearGradient id="paint69_linear_3533_13621" x1="110.769" y1="78.2351" x2="110.65" y2="78.2351" gradientUnits="userSpaceOnUse">
<stop stop-color="#0092DC"/>
<stop offset="0.3261" stop-color="#0888E4"/>
<stop offset="0.8825" stop-color="#1F6DFA"/>
<stop offset="1" stop-color="#2466FF"/>
</linearGradient>
<linearGradient id="paint70_linear_3533_13621" x1="116.721" y1="78.0035" x2="116.308" y2="78.0035" gradientUnits="userSpaceOnUse">
<stop stop-color="#FF5600"/>
<stop offset="0.1769" stop-color="#FF6000"/>
<stop offset="0.4798" stop-color="#FF7B00"/>
<stop offset="0.8695" stop-color="#FFA800"/>
<stop offset="1" stop-color="#FFB800"/>
</linearGradient>
<linearGradient id="paint71_linear_3533_13621" x1="118.606" y1="81.1491" x2="118.19" y2="81.1491" gradientUnits="userSpaceOnUse">
<stop stop-color="#7F2390"/>
<stop offset="0.2994" stop-color="#982182"/>
<stop offset="0.9341" stop-color="#D91D5F"/>
<stop offset="1" stop-color="#E01C5B"/>
</linearGradient>
<linearGradient id="paint72_linear_3533_13621" x1="114.325" y1="66.4002" x2="113.771" y2="66.4002" gradientUnits="userSpaceOnUse">
<stop stop-color="#0092DC"/>
<stop offset="0.2193" stop-color="#009CD4"/>
<stop offset="0.5944" stop-color="#00B7C0"/>
<stop offset="1" stop-color="#00DCA5"/>
</linearGradient>
<linearGradient id="paint73_linear_3533_13621" x1="113.107" y1="76.4921" x2="112.765" y2="76.4921" gradientUnits="userSpaceOnUse">
<stop stop-color="#948BE2"/>
<stop offset="0.3319" stop-color="#8A81DB"/>
<stop offset="0.8981" stop-color="#7066C7"/>
<stop offset="1" stop-color="#6A60C3"/>
</linearGradient>
<linearGradient id="paint74_linear_3533_13621" x1="109.869" y1="87.4263" x2="109.489" y2="87.4263" gradientUnits="userSpaceOnUse">
<stop stop-color="#0092DC"/>
<stop offset="0.3261" stop-color="#0888E4"/>
<stop offset="0.8825" stop-color="#1F6DFA"/>
<stop offset="1" stop-color="#2466FF"/>
</linearGradient>
<linearGradient id="paint75_linear_3533_13621" x1="114.377" y1="81.7964" x2="113.718" y2="81.7964" gradientUnits="userSpaceOnUse">
<stop stop-color="#948BE2"/>
<stop offset="0.3319" stop-color="#8A81DB"/>
<stop offset="0.8981" stop-color="#7066C7"/>
<stop offset="1" stop-color="#6A60C3"/>
</linearGradient>
<linearGradient id="paint76_linear_3533_13621" x1="119.282" y1="89.3943" x2="118.95" y2="89.3943" gradientUnits="userSpaceOnUse">
<stop stop-color="#0092DC"/>
<stop offset="0.2193" stop-color="#009CD4"/>
<stop offset="0.5944" stop-color="#00B7C0"/>
<stop offset="1" stop-color="#00DCA5"/>
</linearGradient>
<linearGradient id="paint77_linear_3533_13621" x1="120.283" y1="85.4664" x2="119.932" y2="85.4664" gradientUnits="userSpaceOnUse">
<stop stop-color="#0092DC"/>
<stop offset="0.3261" stop-color="#0888E4"/>
<stop offset="0.8825" stop-color="#1F6DFA"/>
<stop offset="1" stop-color="#2466FF"/>
</linearGradient>
<linearGradient id="paint78_linear_3533_13621" x1="126.472" y1="78.7017" x2="126.283" y2="78.7017" gradientUnits="userSpaceOnUse">
<stop stop-color="#0092DC"/>
<stop offset="0.3261" stop-color="#0888E4"/>
<stop offset="0.8825" stop-color="#1F6DFA"/>
<stop offset="1" stop-color="#2466FF"/>
</linearGradient>
<linearGradient id="paint79_linear_3533_13621" x1="117.847" y1="72.5144" x2="117.236" y2="72.5144" gradientUnits="userSpaceOnUse">
<stop stop-color="#0092DC"/>
<stop offset="0.3261" stop-color="#0888E4"/>
<stop offset="0.8825" stop-color="#1F6DFA"/>
<stop offset="1" stop-color="#2466FF"/>
</linearGradient>
<linearGradient id="paint80_linear_3533_13621" x1="146.016" y1="78.2335" x2="145.616" y2="78.2335" gradientUnits="userSpaceOnUse">
<stop stop-color="#948BE2"/>
<stop offset="0.3319" stop-color="#8A81DB"/>
<stop offset="0.8981" stop-color="#7066C7"/>
<stop offset="1" stop-color="#6A60C3"/>
</linearGradient>
<linearGradient id="paint81_linear_3533_13621" x1="133.742" y1="67.6467" x2="133.517" y2="67.6467" gradientUnits="userSpaceOnUse">
<stop stop-color="#FF5600"/>
<stop offset="0.1769" stop-color="#FF6000"/>
<stop offset="0.4798" stop-color="#FF7B00"/>
<stop offset="0.8695" stop-color="#FFA800"/>
<stop offset="1" stop-color="#FFB800"/>
</linearGradient>
<linearGradient id="paint82_linear_3533_13621" x1="162.926" y1="69.0347" x2="162.8" y2="69.0347" gradientUnits="userSpaceOnUse">
<stop stop-color="#0092DC"/>
<stop offset="0.3261" stop-color="#0888E4"/>
<stop offset="0.8825" stop-color="#1F6DFA"/>
<stop offset="1" stop-color="#2466FF"/>
</linearGradient>
<linearGradient id="paint83_linear_3533_13621" x1="158.826" y1="67.1453" x2="158.375" y2="67.1453" gradientUnits="userSpaceOnUse">
<stop stop-color="#CE38BF"/>
<stop offset="0.7261" stop-color="#E051CA"/>
<stop offset="1" stop-color="#E85CCF"/>
</linearGradient>
<linearGradient id="paint84_linear_3533_13621" x1="154.242" y1="69.0334" x2="153.986" y2="69.0334" gradientUnits="userSpaceOnUse">
<stop stop-color="#7F2390"/>
<stop offset="0.2994" stop-color="#982182"/>
<stop offset="0.9341" stop-color="#D91D5F"/>
<stop offset="1" stop-color="#E01C5B"/>
</linearGradient>
<linearGradient id="paint85_linear_3533_13621" x1="152.823" y1="74.1057" x2="152.484" y2="74.1057" gradientUnits="userSpaceOnUse">
<stop stop-color="#0092DC"/>
<stop offset="0.3261" stop-color="#0888E4"/>
<stop offset="0.8825" stop-color="#1F6DFA"/>
<stop offset="1" stop-color="#2466FF"/>
</linearGradient>
<linearGradient id="paint86_linear_3533_13621" x1="143.549" y1="70.2964" x2="143.347" y2="70.2964" gradientUnits="userSpaceOnUse">
<stop stop-color="#0092DC"/>
<stop offset="0.3261" stop-color="#0888E4"/>
<stop offset="0.8825" stop-color="#1F6DFA"/>
<stop offset="1" stop-color="#2466FF"/>
</linearGradient>
<linearGradient id="paint87_linear_3533_13621" x1="135.365" y1="88.7579" x2="135.028" y2="88.7579" gradientUnits="userSpaceOnUse">
<stop stop-color="#0092DC"/>
<stop offset="0.2193" stop-color="#009CD4"/>
<stop offset="0.5944" stop-color="#00B7C0"/>
<stop offset="1" stop-color="#00DCA5"/>
</linearGradient>
<linearGradient id="paint88_linear_3533_13621" x1="148.007" y1="83.7474" x2="147.498" y2="83.7474" gradientUnits="userSpaceOnUse">
<stop stop-color="#0092DC"/>
<stop offset="0.3261" stop-color="#0888E4"/>
<stop offset="0.8825" stop-color="#1F6DFA"/>
<stop offset="1" stop-color="#2466FF"/>
</linearGradient>
<linearGradient id="paint89_linear_3533_13621" x1="130.834" y1="59.1687" x2="130.507" y2="59.1687" gradientUnits="userSpaceOnUse">
<stop stop-color="#7F2390"/>
<stop offset="0.2994" stop-color="#982182"/>
<stop offset="0.9341" stop-color="#D91D5F"/>
<stop offset="1" stop-color="#E01C5B"/>
</linearGradient>
<linearGradient id="paint90_linear_3533_13621" x1="125.956" y1="73.4088" x2="128.416" y2="78.2008" gradientUnits="userSpaceOnUse">
<stop stop-color="#948BE2"/>
<stop offset="0.3319" stop-color="#8A81DB"/>
<stop offset="0.8981" stop-color="#7066C7"/>
<stop offset="1" stop-color="#6A60C3"/>
</linearGradient>
<linearGradient id="paint91_linear_3533_13621" x1="154.733" y1="84.4151" x2="154.504" y2="85.1942" gradientUnits="userSpaceOnUse">
<stop stop-color="#7E4FFF"/>
<stop offset="1" stop-color="#F211B4"/>
</linearGradient>
<linearGradient id="paint92_linear_3533_13621" x1="123.636" y1="68.2529" x2="124.108" y2="67.3368" gradientUnits="userSpaceOnUse">
<stop stop-color="#0092DC"/>
<stop offset="0.3261" stop-color="#0888E4"/>
<stop offset="0.8825" stop-color="#1F6DFA"/>
<stop offset="1" stop-color="#2466FF"/>
</linearGradient>
<linearGradient id="paint93_linear_3533_13621" x1="145.581" y1="87.1804" x2="144.59" y2="87.5419" gradientUnits="userSpaceOnUse">
<stop stop-color="#948BE2"/>
<stop offset="0.3319" stop-color="#8A81DB"/>
<stop offset="0.8981" stop-color="#7066C7"/>
<stop offset="1" stop-color="#6A60C3"/>
</linearGradient>
<linearGradient id="paint94_linear_3533_13621" x1="138.933" y1="67.3832" x2="138.345" y2="66.5087" gradientUnits="userSpaceOnUse">
<stop stop-color="#948BE2"/>
<stop offset="0.3319" stop-color="#8A81DB"/>
<stop offset="0.8981" stop-color="#7066C7"/>
<stop offset="1" stop-color="#6A60C3"/>
</linearGradient>
<linearGradient id="paint95_linear_3533_13621" x1="136.637" y1="85.0015" x2="136.75" y2="85.7736" gradientUnits="userSpaceOnUse">
<stop stop-color="#7E4FFF"/>
<stop offset="1" stop-color="#F211B4"/>
</linearGradient>
<linearGradient id="paint96_linear_3533_13621" x1="135.714" y1="74.4803" x2="135.155" y2="74.3048" gradientUnits="userSpaceOnUse">
<stop stop-color="#61D3D7"/>
<stop offset="0.2216" stop-color="#57CFD7"/>
<stop offset="0.6006" stop-color="#3CC6D5"/>
<stop offset="1" stop-color="#18B9D4"/>
</linearGradient>
<linearGradient id="paint97_linear_3533_13621" x1="157.153" y1="71.7924" x2="157.065" y2="72.8429" gradientUnits="userSpaceOnUse">
<stop stop-color="#7F2390"/>
<stop offset="0.2994" stop-color="#982182"/>
<stop offset="0.9341" stop-color="#D91D5F"/>
<stop offset="1" stop-color="#E01C5B"/>
</linearGradient>
<linearGradient id="paint98_linear_3533_13621" x1="106.213" y1="78.9464" x2="106.358" y2="79.9905" gradientUnits="userSpaceOnUse">
<stop stop-color="#61D3D7"/>
<stop offset="0.2216" stop-color="#57CFD7"/>
<stop offset="0.6006" stop-color="#3CC6D5"/>
<stop offset="1" stop-color="#18B9D4"/>
</linearGradient>
<linearGradient id="paint99_linear_3533_13621" x1="111.913" y1="68.6419" x2="111.361" y2="69.2553" gradientUnits="userSpaceOnUse">
<stop stop-color="#0092DC"/>
<stop offset="0.3261" stop-color="#0888E4"/>
<stop offset="0.8825" stop-color="#1F6DFA"/>
<stop offset="1" stop-color="#2466FF"/>
</linearGradient>
<linearGradient id="paint100_linear_3533_13621" x1="164.878" y1="72.902" x2="165.442" y2="73.5046" gradientUnits="userSpaceOnUse">
<stop stop-color="#0092DC"/>
<stop offset="0.2193" stop-color="#009CD4"/>
<stop offset="0.5944" stop-color="#00B7C0"/>
<stop offset="1" stop-color="#00DCA5"/>
</linearGradient>
<linearGradient id="paint101_linear_3533_13621" x1="141.539" y1="78.0035" x2="141.29" y2="78.0035" gradientUnits="userSpaceOnUse">
<stop stop-color="#0092DC"/>
<stop offset="0.3261" stop-color="#0888E4"/>
<stop offset="0.8825" stop-color="#1F6DFA"/>
<stop offset="1" stop-color="#2466FF"/>
</linearGradient>
<linearGradient id="paint102_linear_3533_13621" x1="140.612" y1="87.5299" x2="140.26" y2="87.5299" gradientUnits="userSpaceOnUse">
<stop stop-color="#0092DC"/>
<stop offset="0.3261" stop-color="#0888E4"/>
<stop offset="0.8825" stop-color="#1F6DFA"/>
<stop offset="1" stop-color="#2466FF"/>
</linearGradient>
<linearGradient id="paint103_linear_3533_13621" x1="139.452" y1="84.1188" x2="139.314" y2="84.1188" gradientUnits="userSpaceOnUse">
<stop stop-color="#0092DC"/>
<stop offset="0.3261" stop-color="#0888E4"/>
<stop offset="0.8825" stop-color="#1F6DFA"/>
<stop offset="1" stop-color="#2466FF"/>
</linearGradient>
<linearGradient id="paint104_linear_3533_13621" x1="123.566" y1="86.0147" x2="123.243" y2="86.0147" gradientUnits="userSpaceOnUse">
<stop stop-color="#0092DC"/>
<stop offset="0.2193" stop-color="#009CD4"/>
<stop offset="0.5944" stop-color="#00B7C0"/>
<stop offset="1" stop-color="#00DCA5"/>
</linearGradient>
<linearGradient id="paint105_linear_3533_13621" x1="96.8814" y1="95.9206" x2="131.31" y2="85.4923" gradientUnits="userSpaceOnUse">
<stop stop-color="#7E4FFF"/>
<stop offset="1" stop-color="#F211B4"/>
</linearGradient>
<linearGradient id="paint106_linear_3533_13621" x1="151.12" y1="75.4583" x2="182.867" y2="71.9187" gradientUnits="userSpaceOnUse">
<stop stop-color="#61D3D7"/>
<stop offset="0.2216" stop-color="#57CFD7"/>
<stop offset="0.6006" stop-color="#3CC6D5"/>
<stop offset="1" stop-color="#18B9D4"/>
</linearGradient>
<linearGradient id="paint107_linear_3533_13621" x1="111.923" y1="62.7931" x2="133.52" y2="62.7931" gradientUnits="userSpaceOnUse">
<stop stop-color="#E55724"/>
<stop offset="0.2438" stop-color="#E9701D"/>
<stop offset="0.7602" stop-color="#F2B109"/>
<stop offset="1" stop-color="#F7D100"/>
</linearGradient>
<linearGradient id="paint108_linear_3533_13621" x1="146.314" y1="92.7932" x2="168.071" y2="92.7932" gradientUnits="userSpaceOnUse">
<stop stop-color="#948BE2"/>
<stop offset="0.3319" stop-color="#8A81DB"/>
<stop offset="0.8981" stop-color="#7066C7"/>
<stop offset="1" stop-color="#6A60C3"/>
</linearGradient>
<linearGradient id="paint109_linear_3533_13621" x1="142.894" y1="62.7931" x2="158.706" y2="62.7931" gradientUnits="userSpaceOnUse">
<stop stop-color="#7E4FFF"/>
<stop offset="1" stop-color="#F211B4"/>
</linearGradient>
<clipPath id="clip0_3533_13621">
<rect width="44" height="44" fill="white" transform="translate(117.5 56.5)"/>
</clipPath>
</defs>
</svg>


