<svg width="356" height="200" viewBox="0 0 356 200" fill="none" xmlns="http://www.w3.org/2000/svg">
<path d="M140.61 180.396C141.235 179.192 146.664 181.554 147.549 179.975L148.367 178.522C147.89 179.464 142.223 177.59 141.36 179.135L140.61 180.396Z" fill="url(#paint0_linear_4291_307)"/>
<path d="M140.076 181.304C139.281 182.781 139.224 186.154 141.416 188.311L142.313 186.574C140.121 184.416 140.496 180.736 141.348 179.146C141.359 179.146 140.451 180.6 140.076 181.304Z" fill="url(#paint1_linear_4291_307)"/>
<path d="M145.664 168.278C147.538 165.984 158.611 169.823 160.553 165.916L161.348 164.587C159.292 168.176 148.14 163.917 146.618 166.688L145.664 168.278Z" fill="url(#paint2_linear_4291_307)"/>
<path d="M156.203 151.356C157.68 148.596 164.709 146.813 166.447 143.565L167.492 141.612C165.652 145.076 159.008 146.098 157.021 149.846L156.203 151.356Z" fill="url(#paint3_linear_4291_307)"/>
<path d="M145.289 168.937C144.119 171.06 148.798 177.727 147.538 179.987C147.538 179.987 147.935 179.442 148.424 178.476C150.15 175.001 144.971 169.675 146.572 166.756C146.572 166.767 145.675 168.244 145.289 168.937Z" fill="url(#paint4_linear_4291_307)"/>
<path d="M155.59 152.412C153.898 155.831 162.325 162.338 160.542 165.916C160.542 165.916 161.462 164.474 161.95 163.497C163.211 160.964 155.227 153.457 157.135 149.607C157.146 149.607 155.954 151.697 155.59 152.412Z" fill="url(#paint5_linear_4291_307)"/>
<path d="M94.9557 66.6784C94.3311 66.349 95.5576 63.5439 94.7399 63.0896L93.9904 62.6694C94.4787 62.9192 93.502 65.8493 94.3084 66.3036L94.9557 66.6784Z" fill="url(#paint6_linear_4291_307)"/>
<path d="M95.4325 66.9622C96.2047 67.3711 97.9423 67.4052 99.0667 66.2695L98.1695 65.8038C97.0565 66.9395 95.1372 66.7351 94.3195 66.3035C94.3081 66.2922 95.0577 66.7692 95.4325 66.9622Z" fill="url(#paint7_linear_4291_307)"/>
<path d="M88.6759 64.055C87.4834 63.0783 89.4823 57.343 87.4607 56.3436L86.7793 55.9348C88.6305 57.0023 86.4272 62.7716 87.8582 63.5666L88.6759 64.055Z" fill="url(#paint8_linear_4291_307)"/>
<path d="M79.9194 58.5809C78.4885 57.82 77.5685 54.163 75.8877 53.2658L74.877 52.7207C76.6714 53.6747 77.1938 57.1158 79.1358 58.1493L79.9194 58.5809Z" fill="url(#paint9_linear_4291_307)"/>
<path d="M89.0277 64.2481C90.1293 64.85 93.5932 62.4424 94.7629 63.0897C94.7629 63.0897 94.479 62.8853 93.9793 62.6241C92.1849 61.7269 89.4138 64.4071 87.9033 63.5781C87.9033 63.5894 88.6642 64.055 89.0277 64.2481Z" fill="url(#paint10_linear_4291_307)"/>
<path d="M80.4644 58.8989C82.2361 59.7848 85.6091 55.4124 87.4603 56.3436C87.4603 56.3436 86.7108 55.8666 86.2111 55.6168C84.8936 54.9694 80.9982 59.092 79.0107 58.104C79.0107 58.0926 80.0897 58.7172 80.4644 58.8989Z" fill="url(#paint11_linear_4291_307)"/>
<path d="M284.674 137.932C283.992 137.569 285.332 134.673 284.446 134.162L283.629 133.696C284.162 133.968 283.095 137.012 283.969 137.512L284.674 137.932Z" fill="url(#paint12_linear_4291_307)"/>
<path d="M285.196 138.239C286.025 138.693 287.933 138.784 289.149 137.637L288.172 137.114C286.957 138.273 284.867 138 283.97 137.512C283.97 137.501 284.799 138.023 285.196 138.239Z" fill="url(#paint13_linear_4291_307)"/>
<path d="M277.849 134.979C276.554 133.923 278.746 127.984 276.543 126.871L275.793 126.416C277.815 127.597 275.395 133.56 276.951 134.446L277.849 134.979Z" fill="url(#paint14_linear_4291_307)"/>
<path d="M268.309 128.972C266.753 128.12 265.765 124.281 263.925 123.282L262.823 122.68C264.777 123.736 265.344 127.359 267.446 128.506L268.309 128.972Z" fill="url(#paint15_linear_4291_307)"/>
<path d="M278.223 135.195C279.415 135.865 283.197 133.446 284.469 134.173C284.469 134.173 284.162 133.946 283.617 133.662C281.664 132.663 278.643 135.388 276.996 134.468C276.996 134.468 277.825 134.979 278.223 135.195Z" fill="url(#paint16_linear_4291_307)"/>
<path d="M268.899 129.312C270.83 130.289 274.509 125.837 276.531 126.859C276.531 126.859 275.713 126.337 275.168 126.053C273.737 125.326 269.489 129.517 267.32 128.426C267.32 128.426 268.501 129.108 268.899 129.312Z" fill="url(#paint17_linear_4291_307)"/>
<path d="M291.942 43.2946C288.75 44.737 285.639 43.9647 282.231 47.4967C282.231 47.4967 283.344 44.8051 287.206 43.3628C291.067 41.9091 294.486 41.2617 296.064 38.8427C296.064 38.8427 293.85 42.4315 291.942 43.2946Z" fill="url(#paint18_linear_4291_307)"/>
<path d="M204.039 173.502C202.585 170.038 203.244 165.564 199.78 162.872C199.78 162.872 202.381 162.986 203.857 167.324C205.334 171.662 206.049 175.83 208.389 176.682C208.4 176.682 204.914 175.569 204.039 173.502Z" fill="url(#paint19_linear_4291_307)"/>
<path d="M313.793 112.527C310.84 112.947 308.467 111.584 304.844 113.674C304.844 113.674 306.4 111.732 309.898 111.459C313.407 111.187 316.36 111.459 318.222 109.858C318.234 109.858 315.565 112.277 313.793 112.527Z" fill="#AAE100"/>
<path d="M167.425 27.1338C169.208 33.0848 167.13 38.3772 172.536 45.1913C172.536 45.1913 168.072 42.6019 166.426 35.4698C164.779 28.3376 164.427 22.1594 160.565 18.8318C160.565 18.8318 166.357 23.5677 167.425 27.1338Z" fill="#AAE100"/>
<path d="M109.073 120.022C107.369 120.318 102.633 117.41 100.623 117.751L98.1475 118.183C100.271 117.819 104.212 120.863 106.506 120.465L109.073 120.022Z" fill="#FFA400"/>
<path d="M89.2207 123.032C87.5171 123.328 82.7813 120.432 80.7825 120.784L78.3066 121.215C80.4304 120.852 84.3713 123.895 86.6654 123.498L89.2207 123.032Z" fill="#FFA400"/>
<path d="M89.016 123.077C92.8092 122.101 96.4548 118.466 100.68 117.74C100.68 117.74 98.7376 118.069 98.147 118.171C93.5361 118.966 88.1756 123.214 86.4834 123.509L89.016 123.077Z" fill="#FFC200"/>
<path d="M249.264 51.0058C250.751 50.154 252.943 54.1857 254.443 53.6974C254.284 53.7996 253.943 53.9359 253.648 54.0948C252.194 54.8898 250.286 50.6196 248.469 51.3919L249.264 51.0058Z" fill="#8521D3"/>
<path d="M245.675 58.0474C245.675 58.0474 245.97 57.718 246.311 57.241C247.185 55.7419 246.186 52.9367 247.469 51.926C247.549 51.8578 247.867 51.6988 247.935 51.6534L249.252 51.006C249.252 51.006 248.355 51.6647 248.128 52.085C248.117 52.0963 248.117 52.1077 248.105 52.119C246.867 54.1178 248.639 56.5255 246.686 57.5476L245.675 58.0474Z" fill="#9420EF"/>
<path d="M253.522 54.1405C253.522 54.1405 254.499 53.6522 254.885 53.2547C254.897 53.2433 254.897 53.2433 254.908 53.232C256.407 51.6988 256.282 48.8368 256.282 48.8368L257.475 48.2576C257.475 48.2576 258.338 51.7669 255.828 53.0616L253.522 54.1405Z" fill="#9420EF"/>
<path d="M103.167 169.335C104.655 168.483 106.847 172.515 108.346 172.026C108.187 172.128 107.846 172.265 107.551 172.424C106.097 173.219 104.189 168.948 102.372 169.721L103.167 169.335Z" fill="url(#paint20_linear_4291_307)"/>
<path d="M99.5898 176.376C99.5898 176.376 99.8851 176.046 100.226 175.569C101.1 174.07 100.101 171.265 101.384 170.254C101.464 170.186 101.782 170.027 101.85 169.982L103.167 169.334C103.167 169.334 102.27 169.993 102.043 170.413C102.032 170.424 102.032 170.436 102.02 170.447C100.782 172.446 102.554 174.854 100.601 175.876L99.5898 176.376Z" fill="url(#paint21_linear_4291_307)"/>
<path d="M107.437 172.469C107.437 172.469 108.413 171.98 108.799 171.583C108.811 171.572 108.811 171.572 108.822 171.56C110.321 170.027 110.196 167.165 110.196 167.165L111.389 166.586C111.389 166.586 112.252 170.095 109.742 171.39L107.437 172.469Z" fill="url(#paint22_linear_4291_307)"/>
<path d="M159.509 100.874C159.646 100.976 160.009 100.965 160.009 100.965L159.907 101.192C159.793 101.249 159.453 101.215 159.407 101.101L159.509 100.874Z" fill="url(#paint23_linear_4291_307)"/>
<path d="M150.719 49.9047C150.764 49.7003 150.56 49.3028 150.56 49.3028L150.855 49.2914C150.98 49.3823 151.127 49.7798 151.014 49.8934L150.719 49.9047Z" fill="url(#paint24_linear_4291_307)"/>
<path d="M192.489 41.0573C191.308 40.4668 188.525 41.1595 188.525 41.1595L188.934 39.3083C189.695 38.6724 192.341 38.3884 192.898 39.2061L192.489 41.0573Z" fill="url(#paint25_linear_4291_307)"/>
<path d="M142.257 76.0255C141.905 76.6842 142.246 78.2515 142.246 78.2515L141.213 77.9902C140.872 77.5473 140.747 76.0596 141.224 75.7643L142.257 76.0255Z" fill="url(#paint26_linear_4291_307)"/>
<path d="M131.195 149.414C133.115 148.574 136.181 144.928 136.181 144.928L136.953 146.881C136.42 148.244 133.251 151.413 131.968 151.367L131.195 149.414Z" fill="url(#paint27_linear_4291_307)"/>
<path d="M131.094 84.5658C130.685 84.3614 129.742 84.5999 129.742 84.5999L129.878 83.9639C130.14 83.7481 131.048 83.6459 131.23 83.9298L131.094 84.5658Z" fill="url(#paint28_linear_4291_307)"/>
<path d="M212.171 161.248C211.875 160.726 210.66 160.271 210.66 160.271L211.285 159.681C211.728 159.635 212.795 160.203 212.795 160.657L212.171 161.248Z" fill="url(#paint29_linear_4291_307)"/>
<path d="M215.09 37.4684C214.919 37.7637 215.067 38.4906 215.067 38.4906L214.59 38.3656C214.442 38.1612 214.397 37.4798 214.613 37.3435L215.09 37.4684Z" fill="url(#paint30_linear_4291_307)"/>
<path d="M176.181 75.4237C176.328 75.2534 176.34 74.7537 176.34 74.7537L176.635 74.9013C176.703 75.0603 176.635 75.5146 176.476 75.5714L176.181 75.4237Z" fill="url(#paint31_linear_4291_307)"/>
<path d="M222.199 93.8332C221.461 93.8786 220.302 94.9803 220.302 94.9803L219.984 93.9695C220.177 93.4471 221.381 92.5726 221.881 92.8224L222.199 93.8332Z" fill="url(#paint32_linear_4291_307)"/>
<path d="M228.32 121.533C228.241 121.317 227.798 121.078 227.798 121.078L228.07 120.885C228.241 120.897 228.616 121.169 228.593 121.339L228.32 121.533Z" fill="url(#paint33_linear_4291_307)"/>
<path d="M240.416 98.1034C240.893 98.3192 241.994 98.0012 241.994 98.0012L241.858 98.7508C241.563 99.012 240.506 99.171 240.279 98.853L240.416 98.1034Z" fill="url(#paint34_linear_4291_307)"/>
<path d="M232.148 54.5722C232.193 54.1519 231.659 53.391 231.659 53.391L232.272 53.3002C232.556 53.4592 232.943 54.2201 232.761 54.4813L232.148 54.5722Z" fill="url(#paint35_linear_4291_307)"/>
<path d="M266.809 48.3597C266.752 48.7685 267.229 49.5408 267.229 49.5408L266.627 49.5976C266.366 49.4272 266.014 48.6663 266.207 48.4165L266.809 48.3597Z" fill="url(#paint36_linear_4291_307)"/>
<path d="M292.623 73.5157C291.919 73.5611 290.829 74.6173 290.829 74.6173L290.522 73.6519C290.704 73.1636 291.851 72.3232 292.317 72.5503L292.623 73.5157Z" fill="url(#paint37_linear_4291_307)"/>
<path d="M271.954 110.891C271.568 110.369 270.193 110.039 270.193 110.039L270.795 109.313C271.272 109.21 272.499 109.676 272.556 110.164L271.954 110.891Z" fill="url(#paint38_linear_4291_307)"/>
<path d="M288.035 120.851C287.797 121.271 287.979 122.305 287.979 122.305L287.309 122.112C287.093 121.816 287.047 120.84 287.365 120.658L288.035 120.851Z" fill="url(#paint39_linear_4291_307)"/>
<path d="M289.694 106.916C289.626 106.507 288.944 105.917 288.944 105.917L289.501 105.678C289.807 105.758 290.364 106.382 290.25 106.678L289.694 106.916Z" fill="url(#paint40_linear_4291_307)"/>
<path d="M271.125 97.3767C270.988 97.1609 270.466 97.0019 270.466 97.0019L270.716 96.7407C270.897 96.718 271.363 96.9337 271.374 97.1154L271.125 97.3767Z" fill="url(#paint41_linear_4291_307)"/>
<path d="M254.839 126.893C255.316 126.996 256.247 126.496 256.247 126.496L256.27 127.2C256.054 127.495 255.134 127.836 254.862 127.598L254.839 126.893Z" fill="url(#paint42_linear_4291_307)"/>
<path d="M292.805 162.27C293.089 161.612 292.612 160.124 292.612 160.124L293.634 160.283C293.998 160.681 294.248 162.1 293.827 162.429L292.805 162.27Z" fill="url(#paint43_linear_4291_307)"/>
<path d="M304.753 96.6158C305.184 96.3773 305.571 95.3892 305.571 95.3892L306.048 95.9116C306.07 96.2751 305.593 97.1496 305.23 97.1382L304.753 96.6158Z" fill="url(#paint44_linear_4291_307)"/>
<path d="M221.847 151.027C221.666 150.834 221.098 150.754 221.098 150.754L221.313 150.436C221.507 150.379 222.018 150.516 222.063 150.709L221.847 151.027Z" fill="url(#paint45_linear_4291_307)"/>
<path d="M239.724 156.887C239.485 157.012 239.269 157.568 239.269 157.568L239.008 157.273C238.997 157.068 239.258 156.591 239.462 156.591L239.724 156.887Z" fill="url(#paint46_linear_4291_307)"/>
<path d="M234.09 172.116C234.033 171.935 233.681 171.719 233.681 171.719L233.908 171.571C234.044 171.583 234.339 171.832 234.317 171.969L234.09 172.116Z" fill="url(#paint47_linear_4291_307)"/>
<path d="M254.77 141.498C254.805 141.282 254.555 140.873 254.555 140.873L254.873 140.851C255.009 140.941 255.191 141.35 255.088 141.475L254.77 141.498Z" fill="url(#paint48_linear_4291_307)"/>
<path d="M240.927 114.707C240.506 114.389 239.359 114.469 239.359 114.469L239.655 113.765C239.995 113.572 241.063 113.64 241.222 114.003L240.927 114.707Z" fill="url(#paint49_linear_4291_307)"/>
<path d="M216.248 139.136C215.759 139.511 215.487 140.806 215.487 140.806L214.794 140.26C214.692 139.817 215.101 138.648 215.555 138.591L216.248 139.136Z" fill="url(#paint50_linear_4291_307)"/>
<path d="M192.296 113.128C192.069 113.151 191.74 113.503 191.74 113.503L191.626 113.197C191.683 113.038 192.023 112.754 192.182 112.822L192.296 113.128Z" fill="url(#paint51_linear_4291_307)"/>
<path d="M172.797 127.586C173.035 127.541 173.353 127.12 173.353 127.12L173.501 127.427C173.467 127.609 173.115 127.938 172.945 127.893L172.797 127.586Z" fill="url(#paint52_linear_4291_307)"/>
<path d="M66.0982 159.658C66.1777 160.192 67.0522 160.976 67.0522 160.976L66.3253 161.271C65.9392 161.157 65.2237 160.328 65.3713 159.953L66.0982 159.658Z" fill="url(#paint53_linear_4291_307)"/>
<path d="M176.419 170.788C177.18 170.686 178.293 169.448 178.293 169.448L178.702 170.47C178.543 171.026 177.362 172.026 176.828 171.81L176.419 170.788Z" fill="url(#paint54_linear_4291_307)"/>
<path d="M192.455 148.426C192.296 148.381 191.955 148.528 191.955 148.528L191.966 148.278C192.046 148.176 192.375 148.085 192.466 148.176L192.455 148.426Z" fill="url(#paint55_linear_4291_307)"/>
<path d="M179.145 140.476C178.929 140.306 178.339 140.34 178.339 140.34L178.498 139.976C178.68 139.874 179.225 139.92 179.304 140.113L179.145 140.476Z" fill="url(#paint56_linear_4291_307)"/>
<path d="M103.428 154.695C102.94 154.718 102.168 155.422 102.168 155.422L101.975 154.752C102.111 154.411 102.906 153.854 103.235 154.025L103.428 154.695Z" fill="url(#paint57_linear_4291_307)"/>
<path d="M163.654 164.178C163.381 163.837 162.473 163.656 162.473 163.656L162.859 163.167C163.177 163.088 163.994 163.372 164.04 163.69L163.654 164.178Z" fill="url(#paint58_linear_4291_307)"/>
<path d="M129.152 160.305C129.061 160.953 129.811 162.145 129.811 162.145L128.88 162.236C128.471 161.975 127.926 160.782 128.221 160.396L129.152 160.305Z" fill="url(#paint59_linear_4291_307)"/>
<path d="M140.281 136.978C140.054 137.171 139.963 137.807 139.963 137.807L139.611 137.569C139.543 137.353 139.713 136.785 139.929 136.74L140.281 136.978Z" fill="url(#paint60_linear_4291_307)"/>
<path d="M145.018 138.046C145.619 137.887 146.38 136.774 146.38 136.774L146.812 137.557C146.744 138.012 145.903 138.943 145.449 138.829L145.018 138.046Z" fill="url(#paint61_linear_4291_307)"/>
<path d="M172.399 142.6C172.661 142.645 173.16 142.339 173.16 142.339L173.194 142.725C173.081 142.895 172.592 143.111 172.433 142.986L172.399 142.6Z" fill="url(#paint62_linear_4291_307)"/>
<path d="M149.379 113.958C149.765 113.765 150.128 112.902 150.128 112.902L150.537 113.379C150.549 113.697 150.106 114.446 149.788 114.435L149.379 113.958Z" fill="url(#paint63_linear_4291_307)"/>
<path d="M145.858 53.3229C145.744 53.4932 145.801 53.9361 145.801 53.9361L145.517 53.8453C145.437 53.7203 145.437 53.3001 145.574 53.232L145.858 53.3229Z" fill="url(#paint64_linear_4291_307)"/>
<path d="M118.816 39.3311C119.009 39.1153 119.009 38.4793 119.009 38.4793L119.384 38.661C119.475 38.8541 119.396 39.4333 119.191 39.5128L118.816 39.3311Z" fill="url(#paint65_linear_4291_307)"/>
<path d="M111.344 52.8342C111.026 52.5389 110.083 52.4934 110.083 52.4934L110.39 51.9483C110.685 51.8234 111.548 51.971 111.65 52.289L111.344 52.8342Z" fill="url(#paint66_linear_4291_307)"/>
<path d="M90.458 51.0063C90.7533 50.6316 90.7079 49.5981 90.7079 49.5981L91.3325 49.882C91.5028 50.2 91.412 51.154 91.0826 51.2903L90.458 51.0063Z" fill="url(#paint67_linear_4291_307)"/>
<path d="M59.7039 50.1769C59.8629 50.7675 60.9418 51.5284 60.9418 51.5284L60.1695 51.9486C59.7152 51.8691 58.8067 51.0401 58.9316 50.5971L59.7039 50.1769Z" fill="url(#paint68_linear_4291_307)"/>
<path d="M72.4235 100.579C72.344 100.783 72.503 101.215 72.503 101.215L72.1963 101.181C72.0828 101.067 71.9919 100.647 72.1168 100.545L72.4235 100.579Z" fill="url(#paint69_linear_4291_307)"/>
<path d="M94.7516 99.8748C94.2405 99.9657 93.5137 100.852 93.5137 100.852L93.207 100.17C93.2979 99.784 94.0702 99.0685 94.4449 99.1934L94.7516 99.8748Z" fill="url(#paint70_linear_4291_307)"/>
<path d="M100.645 112.765C100.85 112.095 100.236 110.721 100.236 110.721L101.236 110.766C101.633 111.107 102.019 112.447 101.645 112.81L100.645 112.765Z" fill="url(#paint71_linear_4291_307)"/>
<path d="M84.8593 57.6501C84.7798 56.98 83.7236 55.992 83.7236 55.992L84.6322 55.6512C85.1092 55.7989 85.961 56.8437 85.7679 57.3094L84.8593 57.6501Z" fill="url(#paint72_linear_4291_307)"/>
<path d="M80.3625 93.8788C80.5215 94.1968 81.2483 94.5035 81.2483 94.5035L80.8508 94.8442C80.5783 94.8555 79.9536 94.4921 79.965 94.2196L80.3625 93.8788Z" fill="url(#paint73_linear_4291_307)"/>
<path d="M68.2674 134.605C68.3809 135.014 69.1532 135.536 69.1532 135.536L68.6194 135.843C68.3014 135.797 67.6654 135.229 67.7336 134.911L68.2674 134.605Z" fill="url(#paint74_linear_4291_307)"/>
<path d="M85.655 114.866C85.0644 114.469 83.5312 114.662 83.5312 114.662L83.872 113.696C84.3262 113.412 85.7572 113.424 85.9957 113.901L85.655 114.866Z" fill="url(#paint75_linear_4291_307)"/>
<path d="M103.076 142.793C103.485 142.656 103.973 141.839 103.973 141.839L104.314 142.361C104.28 142.69 103.735 143.383 103.417 143.315L103.076 142.793Z" fill="url(#paint76_linear_4291_307)"/>
<path d="M108.062 127.393C107.631 127.734 107.392 128.903 107.392 128.903L106.767 128.415C106.665 128.018 107.029 126.973 107.437 126.905L108.062 127.393Z" fill="url(#paint77_linear_4291_307)"/>
<path d="M130.48 102.907C130.708 102.714 130.833 102.078 130.833 102.078L131.185 102.339C131.241 102.555 131.06 103.134 130.833 103.168L130.48 102.907Z" fill="url(#paint78_linear_4291_307)"/>
<path d="M98.9536 79.3079C98.1927 79.4441 97.1252 80.7275 97.1252 80.7275L96.6709 79.7167C96.8072 79.1489 97.9542 78.104 98.4994 78.2971L98.9536 79.3079Z" fill="url(#paint79_linear_4291_307)"/>
<path d="M203.631 100.011C203.552 100.579 204.222 101.647 204.222 101.647L203.393 101.737C203.029 101.51 202.541 100.454 202.802 100.102L203.631 100.011Z" fill="url(#paint80_linear_4291_307)"/>
<path d="M158.282 61.5229C158.044 61.4093 157.51 61.557 157.51 61.557L157.578 61.1936C157.726 61.0686 158.237 61.0005 158.35 61.1595L158.282 61.5229Z" fill="url(#paint81_linear_4291_307)"/>
<path d="M267.138 66.7581C267.149 66.5877 266.934 66.2697 266.934 66.2697L267.183 66.2243C267.297 66.2924 267.467 66.5991 267.388 66.7127L267.138 66.7581Z" fill="url(#paint82_linear_4291_307)"/>
<path d="M251.069 58.695C251.194 59.1947 252.091 59.8421 252.091 59.8421L251.432 60.1828C251.057 60.1146 250.308 59.3991 250.41 59.0357L251.069 58.695Z" fill="url(#paint83_linear_4291_307)"/>
<path d="M233.999 66.7924C234.317 66.5993 234.567 65.8157 234.567 65.8157L234.953 66.1905C234.987 66.463 234.669 67.1444 234.385 67.1671L233.999 66.7924Z" fill="url(#paint84_linear_4291_307)"/>
<path d="M229.547 85.7696C229.195 85.5993 228.389 85.815 228.389 85.815L228.502 85.2699C228.718 85.0768 229.49 84.986 229.661 85.2245L229.547 85.7696Z" fill="url(#paint85_linear_4291_307)"/>
<path d="M194.999 71.2097C194.749 71.2211 194.34 71.5845 194.34 71.5845L194.238 71.2325C194.306 71.0621 194.727 70.7668 194.897 70.8577L194.999 71.2097Z" fill="url(#paint86_linear_4291_307)"/>
<path d="M164.21 139.34C163.983 139.908 164.415 141.169 164.415 141.169L163.54 141.055C163.222 140.726 162.984 139.511 163.336 139.227L164.21 139.34Z" fill="url(#paint87_linear_4291_307)"/>
<path d="M211.66 121.226C211.024 121.396 210.218 122.566 210.218 122.566L209.764 121.737C209.843 121.249 210.729 120.272 211.206 120.397L211.66 121.226Z" fill="url(#paint88_linear_4291_307)"/>
<path d="M146.959 28.9506C146.925 29.4049 147.493 30.1999 147.493 30.1999L146.846 30.3021C146.55 30.1431 146.119 29.3368 146.312 29.0528L146.959 28.9506Z" fill="url(#paint89_linear_4291_307)"/>
<path d="M194.466 95.3775C199.872 92.4134 205.8 87.4845 205.8 87.4845L210.638 86.485C210.445 87.405 203.608 92.4588 199.304 94.3781L194.466 95.3775Z" fill="#FFC200"/>
<path d="M123.837 85.6221C130.526 89.7447 139.714 93.2313 139.714 93.2313L143.871 97.9671C142.724 98.3306 132.832 93.9241 127.994 90.358L123.837 85.6221Z" fill="url(#paint90_linear_4291_307)"/>
<path d="M228.252 123.452C233.669 124.77 240.642 125.099 240.642 125.099L244.492 127.382C243.8 127.881 236.156 127.075 232.102 125.735L228.252 123.452Z" fill="url(#paint91_linear_4291_307)"/>
<path d="M126.312 63.7942C123.075 62.5109 118.362 62.4314 118.362 62.4314L116.613 59.9442C117.295 59.3423 122.28 59.9215 124.563 61.307L126.312 63.7942Z" fill="url(#paint92_linear_4291_307)"/>
<path d="M198.44 130.164C199.973 133.378 203.471 136.694 203.471 136.694L203.062 139.784C202.131 139.772 198.792 135.865 198.031 133.253L198.44 130.164Z" fill="url(#paint93_linear_4291_307)"/>
<path d="M180.769 55.2989C178.02 57.5589 175.635 61.7496 175.635 61.7496L172.546 62.0903C172.342 61.1818 175.329 57.0024 177.679 55.6396L180.769 55.2989Z" fill="url(#paint94_linear_4291_307)"/>
<path d="M165.551 128.552C168.106 127.916 171.036 125.883 171.036 125.883L173.217 126.644C173.069 127.314 169.73 129.153 167.731 129.312L165.551 128.552Z" fill="url(#paint95_linear_4291_307)"/>
<path d="M165.29 83.6121C164.881 85.5542 165.301 88.2003 165.301 88.2003L164.075 89.4269C163.666 89.1089 163.518 86.2469 164.063 84.8387L165.29 83.6121Z" fill="url(#paint96_linear_4291_307)"/>
<path d="M240.337 78.8417C243.903 78.7963 248.378 77.0246 248.378 77.0246L251.012 78.6941C250.604 79.5345 245.663 80.9314 242.972 80.5112L240.337 78.8417Z" fill="url(#paint97_linear_4291_307)"/>
<path d="M50.5615 106.723C54.0254 105.894 58.0117 103.18 58.0117 103.18L60.9418 104.225C60.726 105.134 56.2173 107.575 53.4916 107.768L50.5615 106.723Z" fill="url(#paint98_linear_4291_307)"/>
<path d="M73.502 64.6912C75.0011 65.6792 77.7381 65.8836 77.7381 65.8836L78.0107 67.644C77.4315 68.0415 74.6944 67.4736 73.7745 66.4515L73.502 64.6912Z" fill="url(#paint99_linear_4291_307)"/>
<path d="M274.089 84.1912C275.202 82.7829 275.633 80.0799 275.633 80.0799L277.416 79.955C277.757 80.5683 276.962 83.2485 275.872 84.0662L274.089 84.1912Z" fill="url(#paint100_linear_4291_307)"/>
<path d="M186.981 99.5569C187.015 99.8635 187.492 100.318 187.492 100.318L187.083 100.465C186.867 100.397 186.481 99.9203 186.572 99.7045L186.981 99.5569Z" fill="url(#paint101_linear_4291_307)"/>
<path d="M183.881 134.696C183.608 135.309 184.017 136.706 184.017 136.706L183.063 136.535C182.723 136.161 182.518 134.832 182.927 134.525L183.881 134.696Z" fill="url(#paint102_linear_4291_307)"/>
<path d="M179.441 122.6C179.441 122.782 179.691 123.077 179.691 123.077L179.441 123.134C179.316 123.077 179.123 122.782 179.191 122.657L179.441 122.6Z" fill="url(#paint103_linear_4291_307)"/>
<path d="M120.259 130.209C119.907 130.073 119.123 130.334 119.123 130.334L119.191 129.789C119.396 129.585 120.145 129.437 120.327 129.664L120.259 130.209Z" fill="url(#paint104_linear_4291_307)"/>
<path d="M19.0241 161.134C25.9177 162.52 33.402 163.372 40.2275 161.305C42.9077 160.453 45.4858 159.079 47.2915 156.887C47.4846 156.648 47.7117 156.364 47.8707 156.092L47.9616 155.956L48.0297 155.819C48.4726 155.036 48.5862 154.059 48.2001 153.23C47.7117 152.128 46.4738 151.481 45.2813 151.538C44.6681 151.549 44.0548 151.742 43.521 152.015C43.3393 152.117 43.1576 152.219 42.9872 152.344L42.8623 152.435L42.7942 152.48L42.7374 152.537L42.4989 152.742C42.4534 152.776 42.4194 152.81 42.3853 152.855L42.2717 152.969L42.1582 153.082L42.1014 153.139L42.0446 153.196L41.8288 153.446C41.7947 153.491 41.7493 153.525 41.7266 153.571C40.5341 155.161 40.4433 157.375 40.8748 159.272C41.579 162.35 43.9753 164.644 47.053 165.268C49.2449 165.734 51.5276 165.495 53.6968 164.973C58.1942 163.951 62.0783 161.509 64.7699 157.739C69.2786 151.47 71.0048 144.088 78.5913 140.374C82.8728 138.227 87.779 138.046 92.4581 138.102C98.0344 138.216 103.611 138.841 109.164 139.079C113.718 139.227 118.443 139.363 122.781 137.784C123.508 137.501 124.224 137.183 124.859 136.717C126.415 135.57 127.619 133.991 128.869 132.503C131.219 129.619 133.695 126.745 136.705 124.52C139.692 122.259 143.178 120.658 146.824 119.806L146.903 120.147C144.45 120.772 142.065 121.726 139.885 123.009C137.704 124.281 135.705 125.894 133.934 127.688C132.298 129.324 130.856 131.118 129.402 132.935C128.21 134.4 127.074 135.888 125.598 137.103C125.223 137.41 124.803 137.694 124.383 137.909C123.122 138.579 121.736 139.011 120.351 139.318C116.66 140.113 112.889 140.09 109.141 139.976C103.554 139.772 98.023 139.193 92.4581 139.113C87.0636 139.045 81.2715 139.42 76.7969 142.725C71.4137 146.563 69.5171 153.241 65.7238 158.397C62.9073 162.372 58.728 165.018 53.9921 166.086C51.1983 166.756 48.1546 166.972 45.4176 165.95C43.5551 165.268 41.9197 163.951 40.9089 162.236C39.4098 159.681 39.035 156.376 40.3865 153.673C40.5568 153.332 40.784 153.003 41.0452 152.719L41.295 152.435C41.3291 152.401 41.3859 152.333 41.42 152.299C41.4881 152.23 41.6244 152.106 41.6925 152.037C41.738 151.992 41.7834 151.947 41.8288 151.913L42.1241 151.674C42.2036 151.606 42.3512 151.504 42.4307 151.447C43.2711 150.856 44.2819 150.482 45.3154 150.459C46.894 150.413 48.5408 151.311 49.1768 152.798C49.6424 153.843 49.5402 155.081 49.0291 156.081L48.9383 156.251L48.8474 156.421C48.6203 156.773 48.3591 157.148 48.0865 157.466C43.8504 162.44 36.2298 163.428 30.063 163.122C26.3266 162.94 22.6356 162.315 19.0127 161.452L19.0241 161.134Z" fill="url(#paint105_linear_4291_307)"/>
<path d="M224.846 104.474C227.935 102.203 231.217 100.147 234.726 98.5688C237.134 97.5013 239.667 96.6949 242.245 96.1612C246.174 95.3548 250.297 95.1504 254.294 94.9005C259.916 94.5712 265.526 94.0033 271.057 92.9017C274.794 92.1522 278.507 91.255 282.142 90.1306C283.084 89.8126 284.004 89.4378 284.913 89.029C292.238 85.7355 298.677 80.3977 306.082 77.2632C309.08 76.0594 312.794 75.2076 315.395 77.7175C315.52 77.8424 315.622 77.9673 315.747 78.0922L315.849 78.2285L316.065 78.4897C316.246 78.7509 316.474 79.0576 316.61 79.3415C317.609 81.1246 317.484 83.3278 315.86 84.6906C314.634 85.7355 312.862 85.9399 311.386 85.3721C310.205 84.9291 309.216 84.0433 308.501 83.0212C306.048 79.4778 305.866 75.4461 308.751 72.0958C312.908 67.3713 320.596 65.2702 326.661 64.5548C330.636 64.1232 337.177 64.021 340.335 66.6558C340.494 66.7921 340.641 66.9397 340.777 67.0987L340.539 67.3145C340.266 67.0419 339.96 66.8034 339.619 66.599C339.29 66.3946 338.926 66.2242 338.563 66.0879C336.337 65.2362 333.907 65.0999 331.533 65.1226C326.763 65.2475 321.993 66.2015 317.564 67.9505C313.055 69.7676 306.866 73.4018 308.308 79.1257C308.751 80.7611 309.762 82.6805 311.238 83.6004C312.328 84.3045 313.839 84.384 314.861 83.5209C315.61 82.9076 315.872 81.9195 315.633 80.9996C315.52 80.5226 315.281 80.0229 314.997 79.6027L314.85 79.3756L314.679 79.1712L314.6 79.0689L314.509 78.9781L314.327 78.785C314.248 78.7169 314.123 78.5919 314.043 78.5238C313.964 78.467 313.862 78.3875 313.793 78.3307C313.771 78.3194 313.759 78.308 313.737 78.2967L313.521 78.1604C313.419 78.0922 313.294 78.0355 313.18 77.9787L313.067 77.9333C312.987 77.8992 312.908 77.8651 312.828 77.831L312.578 77.7515C312.465 77.7175 312.317 77.6834 312.203 77.6493C311.817 77.5698 311.408 77.5358 311 77.5358C310.875 77.5358 310.693 77.5358 310.591 77.5471C310.454 77.5585 310.307 77.5698 310.17 77.5812C308.921 77.7175 307.729 78.0809 306.548 78.5238C303.572 79.6709 300.801 81.2722 298.03 82.8622C293.953 85.2244 289.558 87.9614 285.253 89.8467C284.129 90.335 282.982 90.778 281.801 91.13C272.079 93.9806 261.983 95.2412 251.887 95.6047C249.479 95.741 247.071 95.8886 244.675 96.2293C241.711 96.6381 238.747 97.3764 235.964 98.4893L235.408 98.7165L235.124 98.83C235.033 98.8641 234.942 98.9095 234.851 98.9436L234.306 99.1935L233.761 99.4433C230.672 100.908 227.776 102.737 225.005 104.736C225.039 104.736 224.846 104.474 224.846 104.474Z" fill="url(#paint106_linear_4291_307)"/>
<path d="M157.43 74.6624C147.209 67.2008 144.109 72.1979 140.213 65.1112C137.51 60.08 136.057 54.6741 130.151 50.7446C124.495 46.8151 111.151 44.5664 108.686 42.3178C104.325 38.3882 106.233 25.1006 102.815 22.8179C97.5566 19.5925 83.9283 37.9567 78.2044 29.3481C75.2402 24.7486 77.6365 14.6068 79.6581 11.6767L79.942 11.8698C77.1482 16.0832 74.8086 32.6303 83.7579 30.427C89.6068 29.0074 97.0115 19.4562 102.588 20.8645C109.3 22.409 105.177 39.9214 110.663 41.9657C120.452 45.6226 123.326 46.0201 127.232 47.7918C140.418 53.9813 138.271 66.2469 144.915 68.6659C147.766 69.7334 151.173 69.3132 157.521 74.5488C157.408 74.6964 157.442 74.6624 157.43 74.6624Z" fill="url(#paint107_linear_4291_307)"/>
<path d="M205.345 125.178C215.464 127.824 219.643 138.67 227.434 144.621C232.057 148.255 238.076 149.141 243.175 151.878C245.39 153.048 247.457 154.615 248.831 156.739C249.512 157.807 250.16 159.01 250.012 160.328C249.853 161.725 248.547 162.667 247.195 162.633C245.787 162.645 244.731 161.327 244.697 159.976C244.617 157.943 246.593 156.921 248.399 157.159C249.705 157.284 250.83 158.068 251.749 158.942C252.965 160.101 254.021 161.361 255.202 162.531C257.519 164.882 260.108 166.938 262.879 168.732C264.219 169.595 265.639 170.549 267.24 170.742C269.364 171.026 270.909 169.425 271.159 167.403C271.261 166.631 271.102 165.847 270.795 165.132C269.841 162.917 267.479 161.577 265.139 161.327C263.209 161.1 261.074 161.702 259.858 163.303C258.484 165.075 258.734 167.539 259.336 169.584C260.301 173.002 263.095 175.376 266.4 176.489C269.001 177.375 271.829 177.647 274.554 177.284C275.077 177.216 275.599 177.17 276.121 177.147C278.223 177.057 280.38 177.329 282.277 178.249C285.059 179.566 286.82 182.258 286.604 185.37L286.445 185.359C286.468 184.541 286.365 183.712 286.116 182.939C285.093 179.657 281.834 177.954 278.586 177.659C277.269 177.522 275.928 177.579 274.611 177.772C274.304 177.818 273.986 177.863 273.668 177.886C268.739 178.295 263.038 176.909 260.085 172.65C259.359 171.594 258.859 170.39 258.552 169.152C258.03 167.097 257.973 164.678 259.347 162.929C262.141 159.351 268.217 160.294 270.716 163.758C271.749 165.177 272.124 167.131 271.408 168.766C270.909 170.004 269.83 171.049 268.49 171.287C267.184 171.537 265.866 171.094 264.719 170.504C264.344 170.311 263.981 170.095 263.618 169.879C260.438 167.892 257.451 165.575 254.839 162.872C253.68 161.702 252.613 160.407 251.42 159.272C250.841 158.715 250.194 158.204 249.467 157.886C248.093 157.284 246.105 157.432 245.31 158.863C244.583 160.226 245.56 162.258 247.184 162.258C247.945 162.27 248.74 161.94 249.217 161.327C249.705 160.703 249.762 159.862 249.569 159.101C249.376 158.318 248.967 157.591 248.547 156.909C247.207 154.831 245.197 153.275 243.027 152.128C237.928 149.38 231.898 148.448 227.298 144.78C220.722 139.681 217.031 131.583 209.876 127.166C208.457 126.314 206.924 125.644 205.322 125.235C205.334 125.235 205.345 125.178 205.345 125.178Z" fill="url(#paint108_linear_4291_307)"/>
<path d="M192.546 74.3444C196.305 72.2093 200.337 69.9152 202.461 65.997C204.175 62.6808 204.596 58.9103 205.107 55.2647C205.345 53.5839 205.527 51.8803 205.981 50.2336C206.129 49.7339 206.311 49.2115 206.606 48.7685C207.128 47.9622 208.139 47.6215 209.059 47.7123C209.774 47.7691 210.456 47.9963 211.092 48.3143C211.989 48.7799 212.829 49.4045 213.727 49.8134C215.714 50.7787 217.44 49.8474 218.315 47.9395C219.314 45.5204 218.485 42.6471 217.736 40.2508C217.134 38.2293 215.737 35.2538 216.055 33.1754C216.407 31.1766 218.201 31.0063 219.871 31.2902C221.586 31.5855 223.232 32.1987 224.822 32.812C227.344 33.7774 229.808 34.9131 232.352 35.7648C233.204 36.0374 235.6 36.8097 236.179 36.026C236.759 34.7654 234.987 30.9495 234.43 29.5753C233.113 26.4748 231.523 23.3857 230.626 20.0695C230.546 19.7288 230.467 19.3767 230.421 19.0247C230.115 17.0259 230.876 15.7879 233.045 15.9356C234.101 16.0037 235.123 16.2877 236.123 16.5716C239.348 17.5028 242.516 18.8203 245.867 19.195C247.468 19.354 249.24 19.2632 250.535 18.2183C251.443 17.5596 251.409 16.6624 251.091 15.663C250.682 14.3797 249.933 13.2213 249.501 11.9379L249.592 11.9039C250.08 13.1645 250.875 14.2775 251.352 15.5722C251.704 16.5261 251.806 17.6051 250.977 18.3433C250.659 18.6613 250.296 18.9111 249.899 19.1155C247.434 20.3421 244.3 19.6607 241.756 19.0474C239.768 18.559 237.849 17.9117 235.884 17.3779C234.794 17.1054 232.772 16.5148 231.773 17.0486C230.228 18.0139 233.192 23.965 233.794 25.3959C234.907 27.8945 236.123 30.3135 237.008 32.9256C237.304 33.8796 237.644 34.9926 237.451 36.0374C237.111 37.6728 235.305 37.7182 234.01 37.457C233.295 37.3321 232.625 37.1277 231.966 36.9232C229.365 36.0487 226.912 34.9017 224.391 33.8796C222.551 33.1641 220.722 32.3577 218.746 32.2101C218.338 32.1987 217.974 32.2215 217.622 32.3805L217.543 32.4259L217.508 32.4486L217.474 32.4713C216.952 32.8574 216.907 33.6184 216.941 34.2316C216.986 34.8563 217.122 35.5036 217.293 36.1396C217.815 38.0703 218.553 40.0123 219.008 41.9998C219.473 44.01 219.757 46.2587 218.894 48.212C217.861 50.4039 215.76 51.4601 213.477 50.3358C211.966 49.6317 210.728 48.371 209.002 48.2234C207.446 48.0985 206.822 48.973 206.424 50.3585C205.958 51.9712 205.765 53.652 205.516 55.3215C204.959 59.0012 204.482 62.8171 202.71 66.1447C201.881 67.6324 200.723 68.9498 199.428 70.0515C197.361 71.8232 194.965 73.1406 192.58 74.4352C192.591 74.4352 192.546 74.3444 192.546 74.3444Z" fill="url(#paint109_linear_4291_307)"/>
<path d="M117.511 97.6149C114.422 97.047 111.231 96.411 108.255 95.4457C106.37 94.8438 104.507 94.0715 102.838 93.0039C101.543 92.1862 100.339 91.2209 99.0333 90.4259C95.4559 88.2113 91.6513 87.7229 87.5969 88.7905C85.6662 89.2561 83.8377 90.1193 81.8502 90.3464C77.4892 90.937 72.6965 89.5628 69.7891 86.1557C69.0055 85.2471 68.3468 84.2023 67.779 83.1461C66.2912 80.3864 65.3372 77.3086 63.3725 74.8214C59.6587 69.938 53.5828 70.9147 48.3813 72.3911C45.3376 73.2428 42.3394 74.299 39.2617 75.0827C35.2754 76.0934 30.5849 76.7294 27.0302 74.1741C24.3613 72.1639 23.2824 69.177 24.827 66.0766C25.9172 63.9188 27.882 62.2152 30.142 61.3635C32.1295 60.6366 34.4463 60.7842 35.582 62.7944C36.3883 64.214 36.5473 66.088 35.5025 67.4281C34.2305 69.0521 32.0159 69.5405 30.0398 69.5177C27.6435 69.461 25.2926 68.6433 23.3051 67.3372C20.6363 65.5882 18.6488 62.9307 17.4336 60.0006L17.5017 59.9666C18.1264 61.4202 18.9214 62.7944 19.9094 64.0323C22.7714 67.6666 27.723 70.131 32.368 69.0294C34.2532 68.5751 36.0363 67.235 35.9568 65.134C35.8546 63.1351 34.6621 61.3635 32.5156 61.2953C30.5736 61.2385 28.7224 62.2493 27.2914 63.4986C24.5658 65.929 23.3506 69.6767 26.0194 72.6409C29.3016 76.3773 34.787 75.73 39.1367 74.5716C43.7477 73.3905 48.1655 71.5166 52.89 70.7897C57.2738 70.1083 61.3169 70.926 64.0766 74.6511C66.0754 77.2973 67.0067 80.5226 68.5853 83.3846C68.8011 83.7821 69.0964 84.2591 69.3349 84.6339C69.4939 84.861 69.6756 85.1222 69.8459 85.338L70.2094 85.7923C72.9691 89.1085 77.5914 90.46 81.7934 89.9375C83.7582 89.7218 85.5867 88.8927 87.506 88.4384C91.5831 87.405 95.4445 87.8933 99.0333 90.1306C100.305 90.8915 101.475 91.8342 102.702 92.6632C104.428 93.8103 106.336 94.6507 108.301 95.298C110.345 95.9908 112.491 96.4905 114.604 96.9562C115.864 97.2287 116.466 97.3309 117.511 97.5354C117.522 97.5467 117.511 97.6149 117.511 97.6149Z" fill="#1B90DD"/>
<defs>
<linearGradient id="paint0_linear_4291_307" x1="141.21" y1="178.456" x2="147.769" y2="180.468" gradientUnits="userSpaceOnUse">
<stop stop-color="#61D3D7"/>
<stop offset="0.2216" stop-color="#57CFD7"/>
<stop offset="0.6006" stop-color="#3CC6D5"/>
<stop offset="1" stop-color="#18B9D4"/>
</linearGradient>
<linearGradient id="paint1_linear_4291_307" x1="139.658" y1="179.136" x2="144.282" y2="187.678" gradientUnits="userSpaceOnUse">
<stop stop-color="#61D3D7"/>
<stop offset="0.2216" stop-color="#57CFD7"/>
<stop offset="0.6006" stop-color="#3CC6D5"/>
<stop offset="1" stop-color="#18B9D4"/>
</linearGradient>
<linearGradient id="paint2_linear_4291_307" x1="146.857" y1="164.395" x2="160.15" y2="168.472" gradientUnits="userSpaceOnUse">
<stop stop-color="#61D3D7"/>
<stop offset="0.2216" stop-color="#57CFD7"/>
<stop offset="0.6006" stop-color="#3CC6D5"/>
<stop offset="1" stop-color="#18B9D4"/>
</linearGradient>
<linearGradient id="paint3_linear_4291_307" x1="167.496" y1="141.845" x2="155.149" y2="148.305" gradientUnits="userSpaceOnUse">
<stop stop-color="#61D3D7"/>
<stop offset="0.2216" stop-color="#57CFD7"/>
<stop offset="0.6006" stop-color="#3CC6D5"/>
<stop offset="1" stop-color="#18B9D4"/>
</linearGradient>
<linearGradient id="paint4_linear_4291_307" x1="144.871" y1="166.901" x2="151.578" y2="178.059" gradientUnits="userSpaceOnUse">
<stop stop-color="#61D3D7"/>
<stop offset="0.2216" stop-color="#57CFD7"/>
<stop offset="0.6006" stop-color="#3CC6D5"/>
<stop offset="1" stop-color="#18B9D4"/>
</linearGradient>
<linearGradient id="paint5_linear_4291_307" x1="155.437" y1="151.269" x2="164.789" y2="162.44" gradientUnits="userSpaceOnUse">
<stop stop-color="#61D3D7"/>
<stop offset="0.2216" stop-color="#57CFD7"/>
<stop offset="0.6006" stop-color="#3CC6D5"/>
<stop offset="1" stop-color="#18B9D4"/>
</linearGradient>
<linearGradient id="paint6_linear_4291_307" x1="93.9506" y1="66.373" x2="94.9979" y2="62.975" gradientUnits="userSpaceOnUse">
<stop stop-color="#61D3D7"/>
<stop offset="0.2216" stop-color="#57CFD7"/>
<stop offset="0.6006" stop-color="#3CC6D5"/>
<stop offset="1" stop-color="#18B9D4"/>
</linearGradient>
<linearGradient id="paint7_linear_4291_307" x1="94.3018" y1="67.1773" x2="98.7312" y2="64.7869" gradientUnits="userSpaceOnUse">
<stop stop-color="#61D3D7"/>
<stop offset="0.2216" stop-color="#57CFD7"/>
<stop offset="0.6006" stop-color="#3CC6D5"/>
<stop offset="1" stop-color="#18B9D4"/>
</linearGradient>
<linearGradient id="paint8_linear_4291_307" x1="86.6685" y1="63.436" x2="88.7907" y2="56.5504" gradientUnits="userSpaceOnUse">
<stop stop-color="#61D3D7"/>
<stop offset="0.2216" stop-color="#57CFD7"/>
<stop offset="0.6006" stop-color="#3CC6D5"/>
<stop offset="1" stop-color="#18B9D4"/>
</linearGradient>
<linearGradient id="paint9_linear_4291_307" x1="74.9973" y1="52.7236" x2="78.3356" y2="59.1275" gradientUnits="userSpaceOnUse">
<stop stop-color="#61D3D7"/>
<stop offset="0.2216" stop-color="#57CFD7"/>
<stop offset="0.6006" stop-color="#3CC6D5"/>
<stop offset="1" stop-color="#18B9D4"/>
</linearGradient>
<linearGradient id="paint10_linear_4291_307" x1="87.9653" y1="64.4671" x2="93.7524" y2="60.9993" gradientUnits="userSpaceOnUse">
<stop stop-color="#61D3D7"/>
<stop offset="0.2216" stop-color="#57CFD7"/>
<stop offset="0.6006" stop-color="#3CC6D5"/>
<stop offset="1" stop-color="#18B9D4"/>
</linearGradient>
<linearGradient id="paint11_linear_4291_307" x1="79.8717" y1="58.9801" x2="85.6675" y2="54.1416" gradientUnits="userSpaceOnUse">
<stop stop-color="#61D3D7"/>
<stop offset="0.2216" stop-color="#57CFD7"/>
<stop offset="0.6006" stop-color="#3CC6D5"/>
<stop offset="1" stop-color="#18B9D4"/>
</linearGradient>
<linearGradient id="paint12_linear_4291_307" x1="283.583" y1="137.573" x2="284.73" y2="134.05" gradientUnits="userSpaceOnUse">
<stop stop-color="#5221B5"/>
<stop offset="0.116" stop-color="#692CCF"/>
<stop offset="0.2612" stop-color="#7F37E9"/>
<stop offset="0.3915" stop-color="#8D3EF9"/>
<stop offset="0.4931" stop-color="#9240FF"/>
<stop offset="0.6086" stop-color="#8F3EFB"/>
<stop offset="0.7255" stop-color="#8439EF"/>
<stop offset="0.8431" stop-color="#7331DB"/>
<stop offset="0.9605" stop-color="#5B26BE"/>
<stop offset="1" stop-color="#5121B3"/>
</linearGradient>
<linearGradient id="paint13_linear_4291_307" x1="283.964" y1="138.426" x2="288.667" y2="135.835" gradientUnits="userSpaceOnUse">
<stop stop-color="#532E9E"/>
<stop offset="0.5121" stop-color="#BE70FF"/>
<stop offset="1" stop-color="#7C48FF"/>
</linearGradient>
<linearGradient id="paint14_linear_4291_307" x1="275.655" y1="134.265" x2="277.98" y2="127.128" gradientUnits="userSpaceOnUse">
<stop stop-color="#5221B5"/>
<stop offset="0.116" stop-color="#692CCF"/>
<stop offset="0.2612" stop-color="#7F37E9"/>
<stop offset="0.3915" stop-color="#8D3EF9"/>
<stop offset="0.4931" stop-color="#9240FF"/>
<stop offset="0.6086" stop-color="#8F3EFB"/>
<stop offset="0.7255" stop-color="#8439EF"/>
<stop offset="0.8431" stop-color="#7331DB"/>
<stop offset="0.9605" stop-color="#5B26BE"/>
<stop offset="1" stop-color="#5121B3"/>
</linearGradient>
<linearGradient id="paint15_linear_4291_307" x1="262.961" y1="122.679" x2="266.242" y2="129.649" gradientUnits="userSpaceOnUse">
<stop stop-color="#5221B5"/>
<stop offset="0.116" stop-color="#692CCF"/>
<stop offset="0.2612" stop-color="#7F37E9"/>
<stop offset="0.3915" stop-color="#8D3EF9"/>
<stop offset="0.4931" stop-color="#9240FF"/>
<stop offset="0.6086" stop-color="#8F3EFB"/>
<stop offset="0.7255" stop-color="#8439EF"/>
<stop offset="0.8431" stop-color="#7331DB"/>
<stop offset="0.9605" stop-color="#5B26BE"/>
<stop offset="1" stop-color="#5121B3"/>
</linearGradient>
<linearGradient id="paint16_linear_4291_307" x1="277.065" y1="135.385" x2="283.193" y2="131.643" gradientUnits="userSpaceOnUse">
<stop stop-color="#532E9E"/>
<stop offset="0.5121" stop-color="#BE70FF"/>
<stop offset="1" stop-color="#7C48FF"/>
</linearGradient>
<linearGradient id="paint17_linear_4291_307" x1="268.259" y1="129.383" x2="274.351" y2="124.232" gradientUnits="userSpaceOnUse">
<stop stop-color="#532E9E"/>
<stop offset="0.5121" stop-color="#BE70FF"/>
<stop offset="1" stop-color="#7C48FF"/>
</linearGradient>
<linearGradient id="paint18_linear_4291_307" x1="282.23" y1="43.1741" x2="296.063" y2="43.1741" gradientUnits="userSpaceOnUse">
<stop stop-color="#C7122D"/>
<stop offset="0.5035" stop-color="#FF6685"/>
<stop offset="1" stop-color="#D43845"/>
</linearGradient>
<linearGradient id="paint19_linear_4291_307" x1="203.93" y1="160.696" x2="211.468" y2="175.072" gradientUnits="userSpaceOnUse">
<stop stop-color="#532E9E"/>
<stop offset="0.5121" stop-color="#BE70FF"/>
<stop offset="1" stop-color="#7C48FF"/>
</linearGradient>
<linearGradient id="paint20_linear_4291_307" x1="102.377" y1="170.868" x2="108.346" y2="170.868" gradientUnits="userSpaceOnUse">
<stop stop-color="#948BE2"/>
<stop offset="0.3319" stop-color="#8A81DB"/>
<stop offset="0.8981" stop-color="#7066C7"/>
<stop offset="1" stop-color="#6A60C3"/>
</linearGradient>
<linearGradient id="paint21_linear_4291_307" x1="99.5848" y1="172.855" x2="103.172" y2="172.855" gradientUnits="userSpaceOnUse">
<stop stop-color="#948BE2"/>
<stop offset="0.3319" stop-color="#8A81DB"/>
<stop offset="0.8981" stop-color="#7066C7"/>
<stop offset="1" stop-color="#6A60C3"/>
</linearGradient>
<linearGradient id="paint22_linear_4291_307" x1="107.435" y1="169.53" x2="111.515" y2="169.53" gradientUnits="userSpaceOnUse">
<stop stop-color="#948BE2"/>
<stop offset="0.3319" stop-color="#8A81DB"/>
<stop offset="0.8981" stop-color="#7066C7"/>
<stop offset="1" stop-color="#6A60C3"/>
</linearGradient>
<linearGradient id="paint23_linear_4291_307" x1="160.011" y1="101.044" x2="159.408" y2="101.044" gradientUnits="userSpaceOnUse">
<stop stop-color="#0092DC"/>
<stop offset="0.3261" stop-color="#0888E4"/>
<stop offset="0.8825" stop-color="#1F6DFA"/>
<stop offset="1" stop-color="#2466FF"/>
</linearGradient>
<linearGradient id="paint24_linear_4291_307" x1="151.057" y1="49.598" x2="150.559" y2="49.598" gradientUnits="userSpaceOnUse">
<stop stop-color="#7F2390"/>
<stop offset="0.2994" stop-color="#982182"/>
<stop offset="0.9341" stop-color="#D91D5F"/>
<stop offset="1" stop-color="#E01C5B"/>
</linearGradient>
<linearGradient id="paint25_linear_4291_307" x1="192.898" y1="39.9309" x2="188.531" y2="39.9309" gradientUnits="userSpaceOnUse">
<stop stop-color="#0092DC"/>
<stop offset="0.3261" stop-color="#0888E4"/>
<stop offset="0.8825" stop-color="#1F6DFA"/>
<stop offset="1" stop-color="#2466FF"/>
</linearGradient>
<linearGradient id="paint26_linear_4291_307" x1="142.262" y1="77.0158" x2="140.914" y2="77.0158" gradientUnits="userSpaceOnUse">
<stop stop-color="#0092DC"/>
<stop offset="0.3261" stop-color="#0888E4"/>
<stop offset="0.8825" stop-color="#1F6DFA"/>
<stop offset="1" stop-color="#2466FF"/>
</linearGradient>
<linearGradient id="paint27_linear_4291_307" x1="135.111" y1="149.336" x2="133.389" y2="147.371" gradientUnits="userSpaceOnUse">
<stop stop-color="#0092DC"/>
<stop offset="0.2193" stop-color="#009CD4"/>
<stop offset="0.5944" stop-color="#00B7C0"/>
<stop offset="1" stop-color="#00DCA5"/>
</linearGradient>
<linearGradient id="paint28_linear_4291_307" x1="131.227" y1="84.1863" x2="129.732" y2="84.1863" gradientUnits="userSpaceOnUse">
<stop stop-color="#FF5600"/>
<stop offset="0.1769" stop-color="#FF6000"/>
<stop offset="0.4798" stop-color="#FF7B00"/>
<stop offset="0.8695" stop-color="#FFA800"/>
<stop offset="1" stop-color="#FFB800"/>
</linearGradient>
<linearGradient id="paint29_linear_4291_307" x1="212.794" y1="160.464" x2="210.661" y2="160.464" gradientUnits="userSpaceOnUse">
<stop stop-color="#7F2390"/>
<stop offset="0.2994" stop-color="#982182"/>
<stop offset="0.9341" stop-color="#D91D5F"/>
<stop offset="1" stop-color="#E01C5B"/>
</linearGradient>
<linearGradient id="paint30_linear_4291_307" x1="215.089" y1="37.9132" x2="214.465" y2="37.9132" gradientUnits="userSpaceOnUse">
<stop stop-color="#0092DC"/>
<stop offset="0.3261" stop-color="#0888E4"/>
<stop offset="0.8825" stop-color="#1F6DFA"/>
<stop offset="1" stop-color="#2466FF"/>
</linearGradient>
<linearGradient id="paint31_linear_4291_307" x1="176.661" y1="75.1617" x2="176.179" y2="75.1617" gradientUnits="userSpaceOnUse">
<stop stop-color="#948BE2"/>
<stop offset="0.3319" stop-color="#8A81DB"/>
<stop offset="0.8981" stop-color="#7066C7"/>
<stop offset="1" stop-color="#6A60C3"/>
</linearGradient>
<linearGradient id="paint32_linear_4291_307" x1="222.204" y1="93.8811" x2="219.992" y2="93.8811" gradientUnits="userSpaceOnUse">
<stop stop-color="#7F2390"/>
<stop offset="0.2994" stop-color="#982182"/>
<stop offset="0.9341" stop-color="#D91D5F"/>
<stop offset="1" stop-color="#E01C5B"/>
</linearGradient>
<linearGradient id="paint33_linear_4291_307" x1="228.596" y1="121.207" x2="227.797" y2="121.207" gradientUnits="userSpaceOnUse">
<stop stop-color="#0092DC"/>
<stop offset="0.3261" stop-color="#0888E4"/>
<stop offset="0.8825" stop-color="#1F6DFA"/>
<stop offset="1" stop-color="#2466FF"/>
</linearGradient>
<linearGradient id="paint34_linear_4291_307" x1="242.001" y1="98.5159" x2="240.286" y2="98.5159" gradientUnits="userSpaceOnUse">
<stop stop-color="#7F2390"/>
<stop offset="0.2994" stop-color="#982182"/>
<stop offset="0.9341" stop-color="#D91D5F"/>
<stop offset="1" stop-color="#E01C5B"/>
</linearGradient>
<linearGradient id="paint35_linear_4291_307" x1="232.807" y1="53.9354" x2="231.661" y2="53.9354" gradientUnits="userSpaceOnUse">
<stop stop-color="#948BE2"/>
<stop offset="0.3319" stop-color="#8A81DB"/>
<stop offset="0.8981" stop-color="#7066C7"/>
<stop offset="1" stop-color="#6A60C3"/>
</linearGradient>
<linearGradient id="paint36_linear_4291_307" x1="267.227" y1="48.9768" x2="266.152" y2="48.9768" gradientUnits="userSpaceOnUse">
<stop stop-color="#0092DC"/>
<stop offset="0.3261" stop-color="#0888E4"/>
<stop offset="0.8825" stop-color="#1F6DFA"/>
<stop offset="1" stop-color="#2466FF"/>
</linearGradient>
<linearGradient id="paint37_linear_4291_307" x1="292.619" y1="73.5668" x2="290.517" y2="73.5668" gradientUnits="userSpaceOnUse">
<stop stop-color="#7F2390"/>
<stop offset="0.2994" stop-color="#982182"/>
<stop offset="0.9341" stop-color="#D91D5F"/>
<stop offset="1" stop-color="#E01C5B"/>
</linearGradient>
<linearGradient id="paint38_linear_4291_307" x1="272.559" y1="110.092" x2="270.193" y2="110.092" gradientUnits="userSpaceOnUse">
<stop stop-color="#948BE2"/>
<stop offset="0.3319" stop-color="#8A81DB"/>
<stop offset="0.8981" stop-color="#7066C7"/>
<stop offset="1" stop-color="#6A60C3"/>
</linearGradient>
<linearGradient id="paint39_linear_4291_307" x1="288.037" y1="121.477" x2="287.142" y2="121.477" gradientUnits="userSpaceOnUse">
<stop stop-color="#FF5600"/>
<stop offset="0.1769" stop-color="#FF6000"/>
<stop offset="0.4798" stop-color="#FF7B00"/>
<stop offset="0.8695" stop-color="#FFA800"/>
<stop offset="1" stop-color="#FFB800"/>
</linearGradient>
<linearGradient id="paint40_linear_4291_307" x1="290.265" y1="106.297" x2="288.95" y2="106.297" gradientUnits="userSpaceOnUse">
<stop stop-color="#0092DC"/>
<stop offset="0.2193" stop-color="#009CD4"/>
<stop offset="0.5944" stop-color="#00B7C0"/>
<stop offset="1" stop-color="#00DCA5"/>
</linearGradient>
<linearGradient id="paint41_linear_4291_307" x1="271.376" y1="97.0527" x2="270.47" y2="97.0527" gradientUnits="userSpaceOnUse">
<stop stop-color="#0092DC"/>
<stop offset="0.3261" stop-color="#0888E4"/>
<stop offset="0.8825" stop-color="#1F6DFA"/>
<stop offset="1" stop-color="#2466FF"/>
</linearGradient>
<linearGradient id="paint42_linear_4291_307" x1="256.265" y1="127.089" x2="254.836" y2="127.089" gradientUnits="userSpaceOnUse">
<stop stop-color="#7F2390"/>
<stop offset="0.2994" stop-color="#982182"/>
<stop offset="0.9341" stop-color="#D91D5F"/>
<stop offset="1" stop-color="#E01C5B"/>
</linearGradient>
<linearGradient id="paint43_linear_4291_307" x1="294.057" y1="161.269" x2="292.619" y2="161.269" gradientUnits="userSpaceOnUse">
<stop stop-color="#0092DC"/>
<stop offset="0.2193" stop-color="#009CD4"/>
<stop offset="0.5944" stop-color="#00B7C0"/>
<stop offset="1" stop-color="#00DCA5"/>
</linearGradient>
<linearGradient id="paint44_linear_4291_307" x1="306.048" y1="96.2664" x2="304.752" y2="96.2664" gradientUnits="userSpaceOnUse">
<stop stop-color="#7F2390"/>
<stop offset="0.2994" stop-color="#982182"/>
<stop offset="0.9341" stop-color="#D91D5F"/>
<stop offset="1" stop-color="#E01C5B"/>
</linearGradient>
<linearGradient id="paint45_linear_4291_307" x1="222.063" y1="150.72" x2="221.098" y2="150.72" gradientUnits="userSpaceOnUse">
<stop stop-color="#0092DC"/>
<stop offset="0.3261" stop-color="#0888E4"/>
<stop offset="0.8825" stop-color="#1F6DFA"/>
<stop offset="1" stop-color="#2466FF"/>
</linearGradient>
<linearGradient id="paint46_linear_4291_307" x1="239.721" y1="157.083" x2="238.998" y2="157.083" gradientUnits="userSpaceOnUse">
<stop stop-color="#FF5600"/>
<stop offset="0.1769" stop-color="#FF6000"/>
<stop offset="0.4798" stop-color="#FF7B00"/>
<stop offset="0.8695" stop-color="#FFA800"/>
<stop offset="1" stop-color="#FFB800"/>
</linearGradient>
<linearGradient id="paint47_linear_4291_307" x1="234.322" y1="171.842" x2="233.684" y2="171.842" gradientUnits="userSpaceOnUse">
<stop stop-color="#0092DC"/>
<stop offset="0.3261" stop-color="#0888E4"/>
<stop offset="0.8825" stop-color="#1F6DFA"/>
<stop offset="1" stop-color="#2466FF"/>
</linearGradient>
<linearGradient id="paint48_linear_4291_307" x1="255.116" y1="141.174" x2="254.556" y2="141.174" gradientUnits="userSpaceOnUse">
<stop stop-color="#7F2390"/>
<stop offset="0.2994" stop-color="#982182"/>
<stop offset="0.9341" stop-color="#D91D5F"/>
<stop offset="1" stop-color="#E01C5B"/>
</linearGradient>
<linearGradient id="paint49_linear_4291_307" x1="241.214" y1="114.187" x2="239.358" y2="114.187" gradientUnits="userSpaceOnUse">
<stop stop-color="#0092DC"/>
<stop offset="0.3261" stop-color="#0888E4"/>
<stop offset="0.8825" stop-color="#1F6DFA"/>
<stop offset="1" stop-color="#2466FF"/>
</linearGradient>
<linearGradient id="paint50_linear_4291_307" x1="216.249" y1="139.699" x2="214.777" y2="139.699" gradientUnits="userSpaceOnUse">
<stop stop-color="#948BE2"/>
<stop offset="0.3319" stop-color="#8A81DB"/>
<stop offset="0.8981" stop-color="#7066C7"/>
<stop offset="1" stop-color="#6A60C3"/>
</linearGradient>
<linearGradient id="paint51_linear_4291_307" x1="192.293" y1="113.158" x2="191.623" y2="113.158" gradientUnits="userSpaceOnUse">
<stop stop-color="#7F2390"/>
<stop offset="0.2994" stop-color="#982182"/>
<stop offset="0.9341" stop-color="#D91D5F"/>
<stop offset="1" stop-color="#E01C5B"/>
</linearGradient>
<linearGradient id="paint52_linear_4291_307" x1="173.504" y1="127.512" x2="172.799" y2="127.512" gradientUnits="userSpaceOnUse">
<stop stop-color="#948BE2"/>
<stop offset="0.3319" stop-color="#8A81DB"/>
<stop offset="0.8981" stop-color="#7066C7"/>
<stop offset="1" stop-color="#6A60C3"/>
</linearGradient>
<linearGradient id="paint53_linear_4291_307" x1="67.0488" y1="160.464" x2="65.3538" y2="160.464" gradientUnits="userSpaceOnUse">
<stop stop-color="#0092DC"/>
<stop offset="0.3261" stop-color="#0888E4"/>
<stop offset="0.8825" stop-color="#1F6DFA"/>
<stop offset="1" stop-color="#2466FF"/>
</linearGradient>
<linearGradient id="paint54_linear_4291_307" x1="178.701" y1="170.647" x2="176.42" y2="170.647" gradientUnits="userSpaceOnUse">
<stop stop-color="#0092DC"/>
<stop offset="0.2193" stop-color="#009CD4"/>
<stop offset="0.5944" stop-color="#00B7C0"/>
<stop offset="1" stop-color="#00DCA5"/>
</linearGradient>
<linearGradient id="paint55_linear_4291_307" x1="192.466" y1="148.343" x2="191.958" y2="148.343" gradientUnits="userSpaceOnUse">
<stop stop-color="#0092DC"/>
<stop offset="0.3261" stop-color="#0888E4"/>
<stop offset="0.8825" stop-color="#1F6DFA"/>
<stop offset="1" stop-color="#2466FF"/>
</linearGradient>
<linearGradient id="paint56_linear_4291_307" x1="179.297" y1="140.2" x2="178.331" y2="140.2" gradientUnits="userSpaceOnUse">
<stop stop-color="#FF5600"/>
<stop offset="0.1769" stop-color="#FF6000"/>
<stop offset="0.4798" stop-color="#FF7B00"/>
<stop offset="0.8695" stop-color="#FFA800"/>
<stop offset="1" stop-color="#FFB800"/>
</linearGradient>
<linearGradient id="paint57_linear_4291_307" x1="103.431" y1="154.707" x2="101.982" y2="154.707" gradientUnits="userSpaceOnUse">
<stop stop-color="#7F2390"/>
<stop offset="0.2994" stop-color="#982182"/>
<stop offset="0.9341" stop-color="#D91D5F"/>
<stop offset="1" stop-color="#E01C5B"/>
</linearGradient>
<linearGradient id="paint58_linear_4291_307" x1="164.039" y1="163.663" x2="162.472" y2="163.663" gradientUnits="userSpaceOnUse">
<stop stop-color="#0092DC"/>
<stop offset="0.3261" stop-color="#0888E4"/>
<stop offset="0.8825" stop-color="#1F6DFA"/>
<stop offset="1" stop-color="#2466FF"/>
</linearGradient>
<linearGradient id="paint59_linear_4291_307" x1="129.808" y1="161.268" x2="128.129" y2="161.268" gradientUnits="userSpaceOnUse">
<stop stop-color="#FF4856"/>
<stop offset="0.162" stop-color="#FF5260"/>
<stop offset="0.4393" stop-color="#FF6D79"/>
<stop offset="0.796" stop-color="#FF9AA3"/>
<stop offset="1" stop-color="#FFB6BE"/>
</linearGradient>
<linearGradient id="paint60_linear_4291_307" x1="140.282" y1="137.274" x2="139.601" y2="137.274" gradientUnits="userSpaceOnUse">
<stop stop-color="#0092DC"/>
<stop offset="0.3261" stop-color="#0888E4"/>
<stop offset="0.8825" stop-color="#1F6DFA"/>
<stop offset="1" stop-color="#2466FF"/>
</linearGradient>
<linearGradient id="paint61_linear_4291_307" x1="146.81" y1="137.809" x2="145.015" y2="137.809" gradientUnits="userSpaceOnUse">
<stop stop-color="#7F2390"/>
<stop offset="0.2994" stop-color="#982182"/>
<stop offset="0.9341" stop-color="#D91D5F"/>
<stop offset="1" stop-color="#E01C5B"/>
</linearGradient>
<linearGradient id="paint62_linear_4291_307" x1="173.189" y1="142.674" x2="172.395" y2="142.674" gradientUnits="userSpaceOnUse">
<stop stop-color="#0092DC"/>
<stop offset="0.3261" stop-color="#0888E4"/>
<stop offset="0.8825" stop-color="#1F6DFA"/>
<stop offset="1" stop-color="#2466FF"/>
</linearGradient>
<linearGradient id="paint63_linear_4291_307" x1="150.538" y1="113.664" x2="149.381" y2="113.664" gradientUnits="userSpaceOnUse">
<stop stop-color="#FF5600"/>
<stop offset="0.1769" stop-color="#FF6000"/>
<stop offset="0.4798" stop-color="#FF7B00"/>
<stop offset="0.8695" stop-color="#FFA800"/>
<stop offset="1" stop-color="#FFB800"/>
</linearGradient>
<linearGradient id="paint64_linear_4291_307" x1="145.858" y1="53.5805" x2="145.468" y2="53.5805" gradientUnits="userSpaceOnUse">
<stop stop-color="#0092DC"/>
<stop offset="0.3261" stop-color="#0888E4"/>
<stop offset="0.8825" stop-color="#1F6DFA"/>
<stop offset="1" stop-color="#2466FF"/>
</linearGradient>
<linearGradient id="paint65_linear_4291_307" x1="119.419" y1="39.0056" x2="118.817" y2="39.0056" gradientUnits="userSpaceOnUse">
<stop stop-color="#0092DC"/>
<stop offset="0.3261" stop-color="#0888E4"/>
<stop offset="0.8825" stop-color="#1F6DFA"/>
<stop offset="1" stop-color="#2466FF"/>
</linearGradient>
<linearGradient id="paint66_linear_4291_307" x1="111.649" y1="52.3752" x2="110.089" y2="52.3752" gradientUnits="userSpaceOnUse">
<stop stop-color="#7F2390"/>
<stop offset="0.2994" stop-color="#982182"/>
<stop offset="0.9341" stop-color="#D91D5F"/>
<stop offset="1" stop-color="#E01C5B"/>
</linearGradient>
<linearGradient id="paint67_linear_4291_307" x1="91.425" y1="50.4447" x2="90.4599" y2="50.4447" gradientUnits="userSpaceOnUse">
<stop stop-color="#FF5600"/>
<stop offset="0.1769" stop-color="#FF6000"/>
<stop offset="0.4798" stop-color="#FF7B00"/>
<stop offset="0.8695" stop-color="#FFA800"/>
<stop offset="1" stop-color="#FFB800"/>
</linearGradient>
<linearGradient id="paint68_linear_4291_307" x1="60.9405" y1="51.0613" x2="58.9137" y2="51.0613" gradientUnits="userSpaceOnUse">
<stop stop-color="#0092DC"/>
<stop offset="0.2193" stop-color="#009CD4"/>
<stop offset="0.5944" stop-color="#00B7C0"/>
<stop offset="1" stop-color="#00DCA5"/>
</linearGradient>
<linearGradient id="paint69_linear_4291_307" x1="72.5066" y1="100.878" x2="72.0626" y2="100.878" gradientUnits="userSpaceOnUse">
<stop stop-color="#0092DC"/>
<stop offset="0.3261" stop-color="#0888E4"/>
<stop offset="0.8825" stop-color="#1F6DFA"/>
<stop offset="1" stop-color="#2466FF"/>
</linearGradient>
<linearGradient id="paint70_linear_4291_307" x1="94.7497" y1="100.013" x2="93.2036" y2="100.013" gradientUnits="userSpaceOnUse">
<stop stop-color="#FF5600"/>
<stop offset="0.1769" stop-color="#FF6000"/>
<stop offset="0.4798" stop-color="#FF7B00"/>
<stop offset="0.8695" stop-color="#FFA800"/>
<stop offset="1" stop-color="#FFB800"/>
</linearGradient>
<linearGradient id="paint71_linear_4291_307" x1="101.793" y1="111.768" x2="100.239" y2="111.768" gradientUnits="userSpaceOnUse">
<stop stop-color="#7F2390"/>
<stop offset="0.2994" stop-color="#982182"/>
<stop offset="0.9341" stop-color="#D91D5F"/>
<stop offset="1" stop-color="#E01C5B"/>
</linearGradient>
<linearGradient id="paint72_linear_4291_307" x1="85.7954" y1="56.6532" x2="83.7258" y2="56.6532" gradientUnits="userSpaceOnUse">
<stop stop-color="#0092DC"/>
<stop offset="0.2193" stop-color="#009CD4"/>
<stop offset="0.5944" stop-color="#00B7C0"/>
<stop offset="1" stop-color="#00DCA5"/>
</linearGradient>
<linearGradient id="paint73_linear_4291_307" x1="81.2449" y1="94.3654" x2="79.9646" y2="94.3654" gradientUnits="userSpaceOnUse">
<stop stop-color="#948BE2"/>
<stop offset="0.3319" stop-color="#8A81DB"/>
<stop offset="0.8981" stop-color="#7066C7"/>
<stop offset="1" stop-color="#6A60C3"/>
</linearGradient>
<linearGradient id="paint74_linear_4291_307" x1="69.1454" y1="135.225" x2="67.7231" y2="135.225" gradientUnits="userSpaceOnUse">
<stop stop-color="#0092DC"/>
<stop offset="0.3261" stop-color="#0888E4"/>
<stop offset="0.8825" stop-color="#1F6DFA"/>
<stop offset="1" stop-color="#2466FF"/>
</linearGradient>
<linearGradient id="paint75_linear_4291_307" x1="85.9927" y1="114.186" x2="83.5298" y2="114.186" gradientUnits="userSpaceOnUse">
<stop stop-color="#948BE2"/>
<stop offset="0.3319" stop-color="#8A81DB"/>
<stop offset="0.8981" stop-color="#7066C7"/>
<stop offset="1" stop-color="#6A60C3"/>
</linearGradient>
<linearGradient id="paint76_linear_4291_307" x1="104.319" y1="142.579" x2="103.08" y2="142.579" gradientUnits="userSpaceOnUse">
<stop stop-color="#0092DC"/>
<stop offset="0.2193" stop-color="#009CD4"/>
<stop offset="0.5944" stop-color="#00B7C0"/>
<stop offset="1" stop-color="#00DCA5"/>
</linearGradient>
<linearGradient id="paint77_linear_4291_307" x1="108.06" y1="127.901" x2="106.747" y2="127.901" gradientUnits="userSpaceOnUse">
<stop stop-color="#0092DC"/>
<stop offset="0.3261" stop-color="#0888E4"/>
<stop offset="0.8825" stop-color="#1F6DFA"/>
<stop offset="1" stop-color="#2466FF"/>
</linearGradient>
<linearGradient id="paint78_linear_4291_307" x1="131.186" y1="102.622" x2="130.48" y2="102.622" gradientUnits="userSpaceOnUse">
<stop stop-color="#0092DC"/>
<stop offset="0.3261" stop-color="#0888E4"/>
<stop offset="0.8825" stop-color="#1F6DFA"/>
<stop offset="1" stop-color="#2466FF"/>
</linearGradient>
<linearGradient id="paint79_linear_4291_307" x1="98.956" y1="79.5012" x2="96.6732" y2="79.5012" gradientUnits="userSpaceOnUse">
<stop stop-color="#0092DC"/>
<stop offset="0.3261" stop-color="#0888E4"/>
<stop offset="0.8825" stop-color="#1F6DFA"/>
<stop offset="1" stop-color="#2466FF"/>
</linearGradient>
<linearGradient id="paint80_linear_4291_307" x1="204.219" y1="100.872" x2="202.724" y2="100.872" gradientUnits="userSpaceOnUse">
<stop stop-color="#948BE2"/>
<stop offset="0.3319" stop-color="#8A81DB"/>
<stop offset="0.8981" stop-color="#7066C7"/>
<stop offset="1" stop-color="#6A60C3"/>
</linearGradient>
<linearGradient id="paint81_linear_4291_307" x1="158.353" y1="61.3114" x2="157.513" y2="61.3114" gradientUnits="userSpaceOnUse">
<stop stop-color="#FF5600"/>
<stop offset="0.1769" stop-color="#FF6000"/>
<stop offset="0.4798" stop-color="#FF7B00"/>
<stop offset="0.8695" stop-color="#FFA800"/>
<stop offset="1" stop-color="#FFB800"/>
</linearGradient>
<linearGradient id="paint82_linear_4291_307" x1="267.402" y1="66.4972" x2="266.929" y2="66.4972" gradientUnits="userSpaceOnUse">
<stop stop-color="#0092DC"/>
<stop offset="0.3261" stop-color="#0888E4"/>
<stop offset="0.8825" stop-color="#1F6DFA"/>
<stop offset="1" stop-color="#2466FF"/>
</linearGradient>
<linearGradient id="paint83_linear_4291_307" x1="252.089" y1="59.4375" x2="250.406" y2="59.4375" gradientUnits="userSpaceOnUse">
<stop stop-color="#CE38BF"/>
<stop offset="0.7261" stop-color="#E051CA"/>
<stop offset="1" stop-color="#E85CCF"/>
</linearGradient>
<linearGradient id="paint84_linear_4291_307" x1="234.957" y1="66.4932" x2="234.003" y2="66.4932" gradientUnits="userSpaceOnUse">
<stop stop-color="#7F2390"/>
<stop offset="0.2994" stop-color="#982182"/>
<stop offset="0.9341" stop-color="#D91D5F"/>
<stop offset="1" stop-color="#E01C5B"/>
</linearGradient>
<linearGradient id="paint85_linear_4291_307" x1="229.658" y1="85.4474" x2="228.389" y2="85.4474" gradientUnits="userSpaceOnUse">
<stop stop-color="#0092DC"/>
<stop offset="0.3261" stop-color="#0888E4"/>
<stop offset="0.8825" stop-color="#1F6DFA"/>
<stop offset="1" stop-color="#2466FF"/>
</linearGradient>
<linearGradient id="paint86_linear_4291_307" x1="195" y1="71.2126" x2="194.248" y2="71.2126" gradientUnits="userSpaceOnUse">
<stop stop-color="#0092DC"/>
<stop offset="0.3261" stop-color="#0888E4"/>
<stop offset="0.8825" stop-color="#1F6DFA"/>
<stop offset="1" stop-color="#2466FF"/>
</linearGradient>
<linearGradient id="paint87_linear_4291_307" x1="164.418" y1="140.2" x2="163.16" y2="140.2" gradientUnits="userSpaceOnUse">
<stop stop-color="#0092DC"/>
<stop offset="0.2193" stop-color="#009CD4"/>
<stop offset="0.5944" stop-color="#00B7C0"/>
<stop offset="1" stop-color="#00DCA5"/>
</linearGradient>
<linearGradient id="paint88_linear_4291_307" x1="211.657" y1="121.477" x2="209.755" y2="121.477" gradientUnits="userSpaceOnUse">
<stop stop-color="#0092DC"/>
<stop offset="0.3261" stop-color="#0888E4"/>
<stop offset="0.8825" stop-color="#1F6DFA"/>
<stop offset="1" stop-color="#2466FF"/>
</linearGradient>
<linearGradient id="paint89_linear_4291_307" x1="147.487" y1="29.6303" x2="146.263" y2="29.6303" gradientUnits="userSpaceOnUse">
<stop stop-color="#7F2390"/>
<stop offset="0.2994" stop-color="#982182"/>
<stop offset="0.9341" stop-color="#D91D5F"/>
<stop offset="1" stop-color="#E01C5B"/>
</linearGradient>
<linearGradient id="paint90_linear_4291_307" x1="129.258" y1="82.8434" x2="138.451" y2="100.75" gradientUnits="userSpaceOnUse">
<stop stop-color="#948BE2"/>
<stop offset="0.3319" stop-color="#8A81DB"/>
<stop offset="0.8981" stop-color="#7066C7"/>
<stop offset="1" stop-color="#6A60C3"/>
</linearGradient>
<linearGradient id="paint91_linear_4291_307" x1="236.793" y1="123.972" x2="235.938" y2="126.883" gradientUnits="userSpaceOnUse">
<stop stop-color="#7E4FFF"/>
<stop offset="1" stop-color="#F211B4"/>
</linearGradient>
<linearGradient id="paint92_linear_4291_307" x1="120.588" y1="63.5765" x2="122.351" y2="60.1532" gradientUnits="userSpaceOnUse">
<stop stop-color="#0092DC"/>
<stop offset="0.3261" stop-color="#0888E4"/>
<stop offset="0.8825" stop-color="#1F6DFA"/>
<stop offset="1" stop-color="#2466FF"/>
</linearGradient>
<linearGradient id="paint93_linear_4291_307" x1="202.595" y1="134.305" x2="198.895" y2="135.656" gradientUnits="userSpaceOnUse">
<stop stop-color="#948BE2"/>
<stop offset="0.3319" stop-color="#8A81DB"/>
<stop offset="0.8981" stop-color="#7066C7"/>
<stop offset="1" stop-color="#6A60C3"/>
</linearGradient>
<linearGradient id="paint94_linear_4291_307" x1="177.754" y1="60.3266" x2="175.554" y2="57.0588" gradientUnits="userSpaceOnUse">
<stop stop-color="#948BE2"/>
<stop offset="0.3319" stop-color="#8A81DB"/>
<stop offset="0.8981" stop-color="#7066C7"/>
<stop offset="1" stop-color="#6A60C3"/>
</linearGradient>
<linearGradient id="paint95_linear_4291_307" x1="169.17" y1="126.163" x2="169.595" y2="129.048" gradientUnits="userSpaceOnUse">
<stop stop-color="#7E4FFF"/>
<stop offset="1" stop-color="#F211B4"/>
</linearGradient>
<linearGradient id="paint96_linear_4291_307" x1="165.725" y1="86.8473" x2="163.634" y2="86.1916" gradientUnits="userSpaceOnUse">
<stop stop-color="#61D3D7"/>
<stop offset="0.2216" stop-color="#57CFD7"/>
<stop offset="0.6006" stop-color="#3CC6D5"/>
<stop offset="1" stop-color="#18B9D4"/>
</linearGradient>
<linearGradient id="paint97_linear_4291_307" x1="245.839" y1="76.8032" x2="245.511" y2="80.7286" gradientUnits="userSpaceOnUse">
<stop stop-color="#7F2390"/>
<stop offset="0.2994" stop-color="#982182"/>
<stop offset="0.9341" stop-color="#D91D5F"/>
<stop offset="1" stop-color="#E01C5B"/>
</linearGradient>
<linearGradient id="paint98_linear_4291_307" x1="55.4815" y1="103.536" x2="56.0243" y2="107.438" gradientUnits="userSpaceOnUse">
<stop stop-color="#61D3D7"/>
<stop offset="0.2216" stop-color="#57CFD7"/>
<stop offset="0.6006" stop-color="#3CC6D5"/>
<stop offset="1" stop-color="#18B9D4"/>
</linearGradient>
<linearGradient id="paint99_linear_4291_307" x1="76.783" y1="65.0301" x2="74.7195" y2="67.3224" gradientUnits="userSpaceOnUse">
<stop stop-color="#0092DC"/>
<stop offset="0.3261" stop-color="#0888E4"/>
<stop offset="0.8825" stop-color="#1F6DFA"/>
<stop offset="1" stop-color="#2466FF"/>
</linearGradient>
<linearGradient id="paint100_linear_4291_307" x1="274.7" y1="80.9473" x2="276.807" y2="83.199" gradientUnits="userSpaceOnUse">
<stop stop-color="#0092DC"/>
<stop offset="0.2193" stop-color="#009CD4"/>
<stop offset="0.5944" stop-color="#00B7C0"/>
<stop offset="1" stop-color="#00DCA5"/>
</linearGradient>
<linearGradient id="paint101_linear_4291_307" x1="187.487" y1="100.013" x2="186.558" y2="100.013" gradientUnits="userSpaceOnUse">
<stop stop-color="#0092DC"/>
<stop offset="0.3261" stop-color="#0888E4"/>
<stop offset="0.8825" stop-color="#1F6DFA"/>
<stop offset="1" stop-color="#2466FF"/>
</linearGradient>
<linearGradient id="paint102_linear_4291_307" x1="184.026" y1="135.612" x2="182.713" y2="135.612" gradientUnits="userSpaceOnUse">
<stop stop-color="#0092DC"/>
<stop offset="0.3261" stop-color="#0888E4"/>
<stop offset="0.8825" stop-color="#1F6DFA"/>
<stop offset="1" stop-color="#2466FF"/>
</linearGradient>
<linearGradient id="paint103_linear_4291_307" x1="179.69" y1="122.865" x2="179.177" y2="122.865" gradientUnits="userSpaceOnUse">
<stop stop-color="#0092DC"/>
<stop offset="0.3261" stop-color="#0888E4"/>
<stop offset="0.8825" stop-color="#1F6DFA"/>
<stop offset="1" stop-color="#2466FF"/>
</linearGradient>
<linearGradient id="paint104_linear_4291_307" x1="120.325" y1="129.95" x2="119.118" y2="129.95" gradientUnits="userSpaceOnUse">
<stop stop-color="#0092DC"/>
<stop offset="0.2193" stop-color="#009CD4"/>
<stop offset="0.5944" stop-color="#00B7C0"/>
<stop offset="1" stop-color="#00DCA5"/>
</linearGradient>
<linearGradient id="paint105_linear_4291_307" x1="20.6131" y1="166.967" x2="149.269" y2="127.998" gradientUnits="userSpaceOnUse">
<stop stop-color="#7E4FFF"/>
<stop offset="1" stop-color="#F211B4"/>
</linearGradient>
<linearGradient id="paint106_linear_4291_307" x1="223.289" y1="90.5017" x2="341.926" y2="77.2748" gradientUnits="userSpaceOnUse">
<stop stop-color="#61D3D7"/>
<stop offset="0.2216" stop-color="#57CFD7"/>
<stop offset="0.6006" stop-color="#3CC6D5"/>
<stop offset="1" stop-color="#18B9D4"/>
</linearGradient>
<linearGradient id="paint107_linear_4291_307" x1="76.8186" y1="43.1739" x2="157.523" y2="43.1739" gradientUnits="userSpaceOnUse">
<stop stop-color="#E55724"/>
<stop offset="0.2438" stop-color="#E9701D"/>
<stop offset="0.7602" stop-color="#F2B109"/>
<stop offset="1" stop-color="#F7D100"/>
</linearGradient>
<linearGradient id="paint108_linear_4291_307" x1="205.33" y1="155.28" x2="286.634" y2="155.28" gradientUnits="userSpaceOnUse">
<stop stop-color="#948BE2"/>
<stop offset="0.3319" stop-color="#8A81DB"/>
<stop offset="0.8981" stop-color="#7066C7"/>
<stop offset="1" stop-color="#6A60C3"/>
</linearGradient>
<linearGradient id="paint109_linear_4291_307" x1="192.55" y1="43.174" x2="251.64" y2="43.174" gradientUnits="userSpaceOnUse">
<stop stop-color="#7E4FFF"/>
<stop offset="1" stop-color="#F211B4"/>
</linearGradient>
</defs>
</svg>

