<svg width="324" height="178" viewBox="0 0 324 178" fill="none" xmlns="http://www.w3.org/2000/svg">
<path d="M123.61 169.396C124.235 168.192 129.664 170.554 130.549 168.975L131.367 167.522C130.89 168.464 125.223 166.59 124.36 168.135L123.61 169.396Z" fill="url(#paint0_linear_4640_308)"/>
<path d="M123.076 170.304C122.281 171.781 122.224 175.154 124.416 177.311L125.313 175.574C123.121 173.416 123.496 169.736 124.348 168.146C124.359 168.146 123.451 169.6 123.076 170.304Z" fill="url(#paint1_linear_4640_308)"/>
<path d="M128.664 157.278C130.538 154.984 141.611 158.823 143.553 154.916L144.348 153.587C142.292 157.176 131.14 152.917 129.618 155.688L128.664 157.278Z" fill="url(#paint2_linear_4640_308)"/>
<path d="M139.203 140.356C140.68 137.596 147.709 135.813 149.447 132.565L150.492 130.612C148.652 134.076 142.008 135.098 140.021 138.846L139.203 140.356Z" fill="url(#paint3_linear_4640_308)"/>
<path d="M128.289 157.937C127.119 160.06 131.798 166.727 130.538 168.987C130.538 168.987 130.935 168.442 131.424 167.476C133.15 164.001 127.971 158.675 129.572 155.756C129.572 155.767 128.675 157.244 128.289 157.937Z" fill="url(#paint4_linear_4640_308)"/>
<path d="M138.59 141.412C136.898 144.831 145.325 151.338 143.542 154.916C143.542 154.916 144.462 153.474 144.95 152.497C146.211 149.964 138.227 142.457 140.135 138.607C140.146 138.607 138.954 140.697 138.59 141.412Z" fill="url(#paint5_linear_4640_308)"/>
<path d="M77.9557 55.6784C77.3311 55.349 78.5576 52.5439 77.7399 52.0896L76.9904 51.6694C77.4787 51.9192 76.502 54.8493 77.3084 55.3036L77.9557 55.6784Z" fill="url(#paint6_linear_4640_308)"/>
<path d="M78.4325 55.9622C79.2047 56.3711 80.9423 56.4052 82.0667 55.2695L81.1695 54.8038C80.0565 55.9395 78.1372 55.7351 77.3195 55.3035C77.3081 55.2922 78.0577 55.7692 78.4325 55.9622Z" fill="url(#paint7_linear_4640_308)"/>
<path d="M71.6759 53.055C70.4834 52.0783 72.4823 46.343 70.4607 45.3436L69.7793 44.9348C71.6305 46.0023 69.4272 51.7716 70.8582 52.5666L71.6759 53.055Z" fill="url(#paint8_linear_4640_308)"/>
<path d="M62.9194 47.5809C61.4885 46.82 60.5685 43.163 58.8877 42.2658L57.877 41.7207C59.6714 42.6747 60.1938 46.1158 62.1358 47.1493L62.9194 47.5809Z" fill="url(#paint9_linear_4640_308)"/>
<path d="M72.0277 53.2481C73.1293 53.85 76.5932 51.4424 77.7629 52.0897C77.7629 52.0897 77.479 51.8853 76.9793 51.6241C75.1849 50.7269 72.4138 53.4071 70.9033 52.5781C70.9033 52.5894 71.6642 53.055 72.0277 53.2481Z" fill="url(#paint10_linear_4640_308)"/>
<path d="M63.4644 47.8989C65.2361 48.7848 68.6091 44.4124 70.4603 45.3436C70.4603 45.3436 69.7108 44.8666 69.2111 44.6168C67.8936 43.9694 63.9982 48.092 62.0107 47.104C62.0107 47.0926 63.0897 47.7172 63.4644 47.8989Z" fill="url(#paint11_linear_4640_308)"/>
<path d="M267.674 126.932C266.992 126.569 268.332 123.673 267.446 123.162L266.629 122.696C267.162 122.968 266.095 126.012 266.969 126.512L267.674 126.932Z" fill="url(#paint12_linear_4640_308)"/>
<path d="M268.196 127.239C269.025 127.693 270.933 127.784 272.149 126.637L271.172 126.114C269.957 127.273 267.867 127 266.97 126.512C266.97 126.501 267.799 127.023 268.196 127.239Z" fill="url(#paint13_linear_4640_308)"/>
<path d="M260.849 123.979C259.554 122.923 261.746 116.984 259.543 115.871L258.793 115.416C260.815 116.597 258.395 122.56 259.951 123.446L260.849 123.979Z" fill="url(#paint14_linear_4640_308)"/>
<path d="M251.309 117.972C249.753 117.12 248.765 113.281 246.925 112.282L245.823 111.68C247.777 112.736 248.344 116.359 250.446 117.506L251.309 117.972Z" fill="url(#paint15_linear_4640_308)"/>
<path d="M261.223 124.195C262.415 124.865 266.197 122.446 267.469 123.173C267.469 123.173 267.162 122.946 266.617 122.662C264.664 121.663 261.643 124.388 259.996 123.468C259.996 123.468 260.825 123.979 261.223 124.195Z" fill="url(#paint16_linear_4640_308)"/>
<path d="M251.899 118.312C253.83 119.289 257.509 114.837 259.531 115.859C259.531 115.859 258.713 115.337 258.168 115.053C256.737 114.326 252.489 118.517 250.32 117.426C250.32 117.426 251.501 118.108 251.899 118.312Z" fill="url(#paint17_linear_4640_308)"/>
<path d="M274.942 32.2946C271.75 33.737 268.639 32.9647 265.231 36.4967C265.231 36.4967 266.344 33.8051 270.206 32.3628C274.067 30.9091 277.486 30.2617 279.064 27.8427C279.064 27.8427 276.85 31.4315 274.942 32.2946Z" fill="url(#paint18_linear_4640_308)"/>
<path d="M187.039 162.502C185.585 159.038 186.244 154.564 182.78 151.872C182.78 151.872 185.381 151.986 186.857 156.324C188.334 160.662 189.049 164.83 191.389 165.682C191.4 165.682 187.914 164.569 187.039 162.502Z" fill="url(#paint19_linear_4640_308)"/>
<path d="M296.793 101.527C293.84 101.947 291.467 100.584 287.844 102.674C287.844 102.674 289.4 100.732 292.898 100.459C296.407 100.187 299.36 100.459 301.222 98.8578C301.234 98.8578 298.565 101.277 296.793 101.527Z" fill="#AAE100"/>
<path d="M150.425 16.1338C152.208 22.0848 150.13 27.3772 155.536 34.1913C155.536 34.1913 151.072 31.6019 149.426 24.4698C147.779 17.3376 147.427 11.1594 143.565 7.83185C143.565 7.83185 149.357 12.5677 150.425 16.1338Z" fill="#AAE100"/>
<path d="M92.0729 109.022C90.3693 109.318 85.6335 106.41 83.6233 106.751L81.1475 107.183C83.2712 106.819 87.2121 109.863 89.5062 109.465L92.0729 109.022Z" fill="#FFA400"/>
<path d="M72.2207 112.032C70.5171 112.328 65.7813 109.432 63.7825 109.784L61.3066 110.215C63.4304 109.852 67.3713 112.895 69.6654 112.498L72.2207 112.032Z" fill="#FFA400"/>
<path d="M72.016 112.077C75.8092 111.101 79.4548 107.466 83.6796 106.74C83.6796 106.74 81.7376 107.069 81.147 107.171C76.5361 107.966 71.1756 112.214 69.4834 112.509L72.016 112.077Z" fill="#FFC200"/>
<path d="M232.264 40.0058C233.751 39.154 235.943 43.1857 237.443 42.6974C237.284 42.7996 236.943 42.9359 236.648 43.0948C235.194 43.8898 233.286 39.6196 231.469 40.3919L232.264 40.0058Z" fill="#8521D3"/>
<path d="M228.675 47.0474C228.675 47.0474 228.97 46.718 229.311 46.241C230.185 44.7419 229.186 41.9367 230.469 40.926C230.549 40.8578 230.867 40.6988 230.935 40.6534L232.252 40.006C232.252 40.006 231.355 40.6647 231.128 41.085C231.117 41.0963 231.117 41.1077 231.105 41.119C229.867 43.1178 231.639 45.5255 229.686 46.5476L228.675 47.0474Z" fill="#9420EF"/>
<path d="M236.522 43.1405C236.522 43.1405 237.499 42.6522 237.885 42.2547C237.897 42.2433 237.897 42.2433 237.908 42.232C239.407 40.6988 239.282 37.8368 239.282 37.8368L240.475 37.2576C240.475 37.2576 241.338 40.7669 238.828 42.0616L236.522 43.1405Z" fill="#9420EF"/>
<path d="M86.1671 158.335C87.6548 157.483 89.8467 161.515 91.3458 161.026C91.1868 161.128 90.8461 161.265 90.5508 161.424C89.0971 162.219 87.1892 157.948 85.3721 158.721L86.1671 158.335Z" fill="url(#paint20_linear_4640_308)"/>
<path d="M82.5898 165.376C82.5898 165.376 82.8851 165.046 83.2258 164.569C84.1003 163.07 83.1009 160.265 84.3842 159.254C84.4637 159.186 84.7817 159.027 84.8499 158.982L86.1673 158.334C86.1673 158.334 85.2701 158.993 85.0429 159.413C85.0316 159.424 85.0316 159.436 85.0202 159.447C83.7823 161.446 85.554 163.854 83.6006 164.876L82.5898 165.376Z" fill="url(#paint21_linear_4640_308)"/>
<path d="M90.4365 161.469C90.4365 161.469 91.4132 160.98 91.7994 160.583C91.8107 160.572 91.8107 160.572 91.8221 160.56C93.3212 159.027 93.1963 156.165 93.1963 156.165L94.3887 155.586C94.3887 155.586 95.2519 159.095 92.742 160.39L90.4365 161.469Z" fill="url(#paint22_linear_4640_308)"/>
<path d="M142.509 89.8741C142.646 89.9764 143.009 89.965 143.009 89.965L142.907 90.1921C142.793 90.2489 142.453 90.2149 142.407 90.1013L142.509 89.8741Z" fill="url(#paint23_linear_4640_308)"/>
<path d="M133.719 38.9047C133.764 38.7003 133.56 38.3028 133.56 38.3028L133.855 38.2914C133.98 38.3823 134.127 38.7798 134.014 38.8934L133.719 38.9047Z" fill="url(#paint24_linear_4640_308)"/>
<path d="M175.489 30.0573C174.308 29.4668 171.525 30.1595 171.525 30.1595L171.934 28.3083C172.695 27.6724 175.341 27.3884 175.898 28.2061L175.489 30.0573Z" fill="url(#paint25_linear_4640_308)"/>
<path d="M125.257 65.0255C124.905 65.6842 125.246 67.2515 125.246 67.2515L124.213 66.9902C123.872 66.5473 123.747 65.0596 124.224 64.7643L125.257 65.0255Z" fill="url(#paint26_linear_4640_308)"/>
<path d="M114.195 138.414C116.115 137.574 119.181 133.928 119.181 133.928L119.953 135.881C119.42 137.244 116.251 140.413 114.968 140.367L114.195 138.414Z" fill="url(#paint27_linear_4640_308)"/>
<path d="M114.094 73.5658C113.685 73.3614 112.742 73.5999 112.742 73.5999L112.878 72.9639C113.14 72.7481 114.048 72.6459 114.23 72.9298L114.094 73.5658Z" fill="url(#paint28_linear_4640_308)"/>
<path d="M195.171 150.248C194.875 149.726 193.66 149.271 193.66 149.271L194.285 148.681C194.728 148.635 195.795 149.203 195.795 149.657L195.171 150.248Z" fill="url(#paint29_linear_4640_308)"/>
<path d="M198.09 26.4684C197.919 26.7637 198.067 27.4906 198.067 27.4906L197.59 27.3656C197.442 27.1612 197.397 26.4798 197.613 26.3435L198.09 26.4684Z" fill="url(#paint30_linear_4640_308)"/>
<path d="M159.181 64.4237C159.328 64.2534 159.34 63.7537 159.34 63.7537L159.635 63.9013C159.703 64.0603 159.635 64.5146 159.476 64.5714L159.181 64.4237Z" fill="url(#paint31_linear_4640_308)"/>
<path d="M205.199 82.8332C204.461 82.8786 203.302 83.9803 203.302 83.9803L202.984 82.9695C203.177 82.4471 204.381 81.5726 204.881 81.8224L205.199 82.8332Z" fill="url(#paint32_linear_4640_308)"/>
<path d="M211.32 110.533C211.241 110.317 210.798 110.078 210.798 110.078L211.07 109.885C211.241 109.897 211.616 110.169 211.593 110.339L211.32 110.533Z" fill="url(#paint33_linear_4640_308)"/>
<path d="M223.416 87.1034C223.893 87.3192 224.994 87.0012 224.994 87.0012L224.858 87.7508C224.563 88.012 223.506 88.171 223.279 87.853L223.416 87.1034Z" fill="url(#paint34_linear_4640_308)"/>
<path d="M215.148 43.5722C215.193 43.1519 214.659 42.391 214.659 42.391L215.272 42.3002C215.556 42.4592 215.943 43.2201 215.761 43.4813L215.148 43.5722Z" fill="url(#paint35_linear_4640_308)"/>
<path d="M249.809 37.3597C249.752 37.7685 250.229 38.5408 250.229 38.5408L249.627 38.5976C249.366 38.4272 249.014 37.6663 249.207 37.4165L249.809 37.3597Z" fill="url(#paint36_linear_4640_308)"/>
<path d="M275.623 62.5157C274.919 62.5611 273.829 63.6173 273.829 63.6173L273.522 62.6519C273.704 62.1636 274.851 61.3232 275.317 61.5503L275.623 62.5157Z" fill="url(#paint37_linear_4640_308)"/>
<path d="M254.954 99.8912C254.568 99.3688 253.193 99.0394 253.193 99.0394L253.795 98.3126C254.272 98.2104 255.499 98.676 255.556 99.1643L254.954 99.8912Z" fill="url(#paint38_linear_4640_308)"/>
<path d="M271.035 109.851C270.797 110.271 270.979 111.305 270.979 111.305L270.309 111.112C270.093 110.816 270.047 109.84 270.365 109.658L271.035 109.851Z" fill="url(#paint39_linear_4640_308)"/>
<path d="M272.694 95.9161C272.626 95.5073 271.944 94.9167 271.944 94.9167L272.501 94.6782C272.807 94.7577 273.364 95.3824 273.25 95.6776L272.694 95.9161Z" fill="url(#paint40_linear_4640_308)"/>
<path d="M254.125 86.3767C253.988 86.1609 253.466 86.0019 253.466 86.0019L253.716 85.7407C253.897 85.718 254.363 85.9337 254.374 86.1154L254.125 86.3767Z" fill="url(#paint41_linear_4640_308)"/>
<path d="M237.839 115.893C238.316 115.996 239.247 115.496 239.247 115.496L239.27 116.2C239.054 116.495 238.134 116.836 237.862 116.598L237.839 115.893Z" fill="url(#paint42_linear_4640_308)"/>
<path d="M275.805 151.27C276.089 150.612 275.612 149.124 275.612 149.124L276.634 149.283C276.998 149.681 277.248 151.1 276.827 151.429L275.805 151.27Z" fill="url(#paint43_linear_4640_308)"/>
<path d="M287.753 85.6158C288.184 85.3773 288.571 84.3892 288.571 84.3892L289.048 84.9116C289.07 85.2751 288.593 86.1496 288.23 86.1382L287.753 85.6158Z" fill="url(#paint44_linear_4640_308)"/>
<path d="M204.847 140.027C204.666 139.834 204.098 139.754 204.098 139.754L204.313 139.436C204.507 139.379 205.018 139.516 205.063 139.709L204.847 140.027Z" fill="url(#paint45_linear_4640_308)"/>
<path d="M222.724 145.887C222.485 146.012 222.269 146.568 222.269 146.568L222.008 146.273C221.997 146.068 222.258 145.591 222.462 145.591L222.724 145.887Z" fill="url(#paint46_linear_4640_308)"/>
<path d="M217.09 161.116C217.033 160.935 216.681 160.719 216.681 160.719L216.908 160.571C217.044 160.583 217.339 160.832 217.317 160.969L217.09 161.116Z" fill="url(#paint47_linear_4640_308)"/>
<path d="M237.77 130.498C237.805 130.282 237.555 129.873 237.555 129.873L237.873 129.851C238.009 129.941 238.191 130.35 238.088 130.475L237.77 130.498Z" fill="url(#paint48_linear_4640_308)"/>
<path d="M223.927 103.707C223.506 103.389 222.359 103.469 222.359 103.469L222.655 102.765C222.995 102.572 224.063 102.64 224.222 103.003L223.927 103.707Z" fill="url(#paint49_linear_4640_308)"/>
<path d="M199.248 128.136C198.759 128.511 198.487 129.806 198.487 129.806L197.794 129.26C197.692 128.817 198.101 127.648 198.555 127.591L199.248 128.136Z" fill="url(#paint50_linear_4640_308)"/>
<path d="M175.296 102.128C175.069 102.151 174.74 102.503 174.74 102.503L174.626 102.197C174.683 102.038 175.023 101.754 175.182 101.822L175.296 102.128Z" fill="url(#paint51_linear_4640_308)"/>
<path d="M155.797 116.586C156.035 116.541 156.353 116.12 156.353 116.12L156.501 116.427C156.467 116.609 156.115 116.938 155.945 116.893L155.797 116.586Z" fill="url(#paint52_linear_4640_308)"/>
<path d="M49.0982 148.658C49.1777 149.192 50.0522 149.976 50.0522 149.976L49.3253 150.271C48.9392 150.157 48.2237 149.328 48.3713 148.953L49.0982 148.658Z" fill="url(#paint53_linear_4640_308)"/>
<path d="M159.419 159.788C160.18 159.686 161.293 158.448 161.293 158.448L161.702 159.47C161.543 160.026 160.362 161.026 159.828 160.81L159.419 159.788Z" fill="url(#paint54_linear_4640_308)"/>
<path d="M175.455 137.426C175.296 137.381 174.955 137.528 174.955 137.528L174.966 137.278C175.046 137.176 175.375 137.085 175.466 137.176L175.455 137.426Z" fill="url(#paint55_linear_4640_308)"/>
<path d="M162.145 129.476C161.929 129.306 161.339 129.34 161.339 129.34L161.498 128.976C161.68 128.874 162.225 128.92 162.304 129.113L162.145 129.476Z" fill="url(#paint56_linear_4640_308)"/>
<path d="M86.4283 143.695C85.9399 143.718 85.1677 144.422 85.1677 144.422L84.9746 143.752C85.1109 143.411 85.9059 142.854 86.2352 143.025L86.4283 143.695Z" fill="url(#paint57_linear_4640_308)"/>
<path d="M146.654 153.178C146.381 152.837 145.473 152.656 145.473 152.656L145.859 152.167C146.177 152.088 146.994 152.372 147.04 152.69L146.654 153.178Z" fill="url(#paint58_linear_4640_308)"/>
<path d="M112.152 149.305C112.061 149.953 112.811 151.145 112.811 151.145L111.88 151.236C111.471 150.975 110.926 149.782 111.221 149.396L112.152 149.305Z" fill="url(#paint59_linear_4640_308)"/>
<path d="M123.281 125.978C123.054 126.171 122.963 126.807 122.963 126.807L122.611 126.569C122.543 126.353 122.713 125.785 122.929 125.74L123.281 125.978Z" fill="url(#paint60_linear_4640_308)"/>
<path d="M128.018 127.046C128.619 126.887 129.38 125.774 129.38 125.774L129.812 126.557C129.744 127.012 128.903 127.943 128.449 127.829L128.018 127.046Z" fill="url(#paint61_linear_4640_308)"/>
<path d="M155.399 131.6C155.661 131.645 156.16 131.339 156.16 131.339L156.194 131.725C156.081 131.895 155.592 132.111 155.433 131.986L155.399 131.6Z" fill="url(#paint62_linear_4640_308)"/>
<path d="M132.379 102.958C132.765 102.765 133.128 101.902 133.128 101.902L133.537 102.379C133.549 102.697 133.106 103.446 132.788 103.435L132.379 102.958Z" fill="url(#paint63_linear_4640_308)"/>
<path d="M128.858 42.3229C128.744 42.4932 128.801 42.9361 128.801 42.9361L128.517 42.8453C128.437 42.7203 128.437 42.3001 128.574 42.232L128.858 42.3229Z" fill="url(#paint64_linear_4640_308)"/>
<path d="M101.816 28.3311C102.009 28.1153 102.009 27.4793 102.009 27.4793L102.384 27.661C102.475 27.8541 102.396 28.4333 102.191 28.5128L101.816 28.3311Z" fill="url(#paint65_linear_4640_308)"/>
<path d="M94.3436 41.8342C94.0256 41.5389 93.083 41.4934 93.083 41.4934L93.3896 40.9483C93.6849 40.8234 94.5481 40.971 94.6503 41.289L94.3436 41.8342Z" fill="url(#paint66_linear_4640_308)"/>
<path d="M73.458 40.0063C73.7533 39.6316 73.7079 38.5981 73.7079 38.5981L74.3325 38.882C74.5028 39.2 74.412 40.154 74.0826 40.2903L73.458 40.0063Z" fill="url(#paint67_linear_4640_308)"/>
<path d="M42.7039 39.1769C42.8629 39.7675 43.9418 40.5284 43.9418 40.5284L43.1695 40.9486C42.7152 40.8691 41.8067 40.0401 41.9316 39.5971L42.7039 39.1769Z" fill="url(#paint68_linear_4640_308)"/>
<path d="M55.4235 89.5791C55.344 89.7835 55.503 90.215 55.503 90.215L55.1963 90.181C55.0828 90.0674 54.9919 89.6472 55.1168 89.545L55.4235 89.5791Z" fill="url(#paint69_linear_4640_308)"/>
<path d="M77.7516 88.8748C77.2405 88.9657 76.5137 89.8515 76.5137 89.8515L76.207 89.1701C76.2979 88.784 77.0702 88.0685 77.4449 88.1934L77.7516 88.8748Z" fill="url(#paint70_linear_4640_308)"/>
<path d="M83.6452 101.765C83.8496 101.095 83.2363 99.7207 83.2363 99.7207L84.2357 99.7661C84.6332 100.107 85.0194 101.447 84.6446 101.81L83.6452 101.765Z" fill="url(#paint71_linear_4640_308)"/>
<path d="M67.8593 46.6501C67.7798 45.98 66.7236 44.992 66.7236 44.992L67.6322 44.6512C68.1092 44.7989 68.961 45.8437 68.7679 46.3094L67.8593 46.6501Z" fill="url(#paint72_linear_4640_308)"/>
<path d="M63.3625 82.8788C63.5215 83.1968 64.2483 83.5035 64.2483 83.5035L63.8508 83.8442C63.5783 83.8555 62.9536 83.4921 62.965 83.2196L63.3625 82.8788Z" fill="url(#paint73_linear_4640_308)"/>
<path d="M51.2674 123.605C51.3809 124.014 52.1532 124.536 52.1532 124.536L51.6194 124.843C51.3014 124.797 50.6654 124.229 50.7336 123.911L51.2674 123.605Z" fill="url(#paint74_linear_4640_308)"/>
<path d="M68.655 103.866C68.0644 103.469 66.5312 103.662 66.5312 103.662L66.872 102.696C67.3262 102.412 68.7572 102.424 68.9957 102.901L68.655 103.866Z" fill="url(#paint75_linear_4640_308)"/>
<path d="M86.0762 131.793C86.485 131.656 86.9734 130.839 86.9734 130.839L87.3141 131.361C87.28 131.69 86.7349 132.383 86.4169 132.315L86.0762 131.793Z" fill="url(#paint76_linear_4640_308)"/>
<path d="M91.0621 116.393C90.6306 116.734 90.3921 117.903 90.3921 117.903L89.7674 117.415C89.6652 117.018 90.0286 115.973 90.4375 115.905L91.0621 116.393Z" fill="url(#paint77_linear_4640_308)"/>
<path d="M113.48 91.9072C113.708 91.7141 113.833 91.0781 113.833 91.0781L114.185 91.3393C114.241 91.5551 114.06 92.1343 113.833 92.1684L113.48 91.9072Z" fill="url(#paint78_linear_4640_308)"/>
<path d="M81.9536 68.3079C81.1927 68.4441 80.1252 69.7275 80.1252 69.7275L79.6709 68.7167C79.8072 68.1489 80.9542 67.104 81.4994 67.2971L81.9536 68.3079Z" fill="url(#paint79_linear_4640_308)"/>
<path d="M186.631 89.0112C186.552 89.5791 187.222 90.6466 187.222 90.6466L186.393 90.7375C186.029 90.5103 185.541 89.4542 185.802 89.1021L186.631 89.0112Z" fill="url(#paint80_linear_4640_308)"/>
<path d="M141.282 50.5229C141.044 50.4093 140.51 50.557 140.51 50.557L140.578 50.1936C140.726 50.0686 141.237 50.0005 141.35 50.1595L141.282 50.5229Z" fill="url(#paint81_linear_4640_308)"/>
<path d="M250.138 55.7581C250.149 55.5877 249.934 55.2697 249.934 55.2697L250.183 55.2243C250.297 55.2924 250.467 55.5991 250.388 55.7127L250.138 55.7581Z" fill="url(#paint82_linear_4640_308)"/>
<path d="M234.069 47.695C234.194 48.1947 235.091 48.8421 235.091 48.8421L234.432 49.1828C234.057 49.1146 233.308 48.3991 233.41 48.0357L234.069 47.695Z" fill="url(#paint83_linear_4640_308)"/>
<path d="M216.999 55.7924C217.317 55.5993 217.567 54.8157 217.567 54.8157L217.953 55.1905C217.987 55.463 217.669 56.1444 217.385 56.1671L216.999 55.7924Z" fill="url(#paint84_linear_4640_308)"/>
<path d="M212.547 74.7696C212.195 74.5993 211.389 74.815 211.389 74.815L211.502 74.2699C211.718 74.0768 212.49 73.986 212.661 74.2245L212.547 74.7696Z" fill="url(#paint85_linear_4640_308)"/>
<path d="M177.999 60.2097C177.749 60.2211 177.34 60.5845 177.34 60.5845L177.238 60.2325C177.306 60.0621 177.727 59.7668 177.897 59.8577L177.999 60.2097Z" fill="url(#paint86_linear_4640_308)"/>
<path d="M147.21 128.34C146.983 128.908 147.415 130.169 147.415 130.169L146.54 130.055C146.222 129.726 145.984 128.511 146.336 128.227L147.21 128.34Z" fill="url(#paint87_linear_4640_308)"/>
<path d="M194.66 110.226C194.024 110.396 193.218 111.566 193.218 111.566L192.764 110.737C192.843 110.249 193.729 109.272 194.206 109.397L194.66 110.226Z" fill="url(#paint88_linear_4640_308)"/>
<path d="M129.959 17.9506C129.925 18.4049 130.493 19.1999 130.493 19.1999L129.846 19.3021C129.55 19.1431 129.119 18.3368 129.312 18.0528L129.959 17.9506Z" fill="url(#paint89_linear_4640_308)"/>
<path d="M177.466 84.3775C182.872 81.4134 188.8 76.4845 188.8 76.4845L193.638 75.485C193.445 76.405 186.608 81.4588 182.304 83.3781L177.466 84.3775Z" fill="#FFC200"/>
<path d="M106.837 74.6221C113.526 78.7447 122.714 82.2313 122.714 82.2313L126.871 86.9671C125.724 87.3306 115.832 82.9241 110.994 79.358L106.837 74.6221Z" fill="url(#paint90_linear_4640_308)"/>
<path d="M211.252 112.452C216.669 113.77 223.642 114.099 223.642 114.099L227.492 116.382C226.8 116.881 219.156 116.075 215.102 114.735L211.252 112.452Z" fill="url(#paint91_linear_4640_308)"/>
<path d="M109.312 52.7942C106.075 51.5109 101.362 51.4314 101.362 51.4314L99.6133 48.9442C100.295 48.3423 105.28 48.9215 107.563 50.307L109.312 52.7942Z" fill="url(#paint92_linear_4640_308)"/>
<path d="M181.44 119.164C182.973 122.378 186.471 125.694 186.471 125.694L186.062 128.784C185.131 128.772 181.792 124.865 181.031 122.253L181.44 119.164Z" fill="url(#paint93_linear_4640_308)"/>
<path d="M163.769 44.2989C161.02 46.5589 158.635 50.7496 158.635 50.7496L155.546 51.0903C155.342 50.1818 158.329 46.0024 160.679 44.6396L163.769 44.2989Z" fill="url(#paint94_linear_4640_308)"/>
<path d="M148.551 117.552C151.106 116.916 154.036 114.883 154.036 114.883L156.217 115.644C156.069 116.314 152.73 118.153 150.731 118.312L148.551 117.552Z" fill="url(#paint95_linear_4640_308)"/>
<path d="M148.29 72.6121C147.881 74.5542 148.301 77.2003 148.301 77.2003L147.075 78.4269C146.666 78.1089 146.518 75.2469 147.063 73.8387L148.29 72.6121Z" fill="url(#paint96_linear_4640_308)"/>
<path d="M223.337 67.8417C226.903 67.7963 231.378 66.0246 231.378 66.0246L234.012 67.6941C233.604 68.5345 228.663 69.9314 225.972 69.5112L223.337 67.8417Z" fill="url(#paint97_linear_4640_308)"/>
<path d="M33.5615 95.7235C37.0254 94.8944 41.0117 92.1801 41.0117 92.1801L43.9418 93.225C43.726 94.1335 39.2173 96.5753 36.4916 96.7683L33.5615 95.7235Z" fill="url(#paint98_linear_4640_308)"/>
<path d="M56.502 53.6912C58.0011 54.6792 60.7381 54.8836 60.7381 54.8836L61.0107 56.644C60.4315 57.0415 57.6944 56.4736 56.7745 55.4515L56.502 53.6912Z" fill="url(#paint99_linear_4640_308)"/>
<path d="M257.089 73.1912C258.202 71.7829 258.633 69.0799 258.633 69.0799L260.416 68.955C260.757 69.5683 259.962 72.2485 258.872 73.0662L257.089 73.1912Z" fill="url(#paint100_linear_4640_308)"/>
<path d="M169.981 88.5569C170.015 88.8635 170.492 89.3178 170.492 89.3178L170.083 89.4654C169.867 89.3973 169.481 88.9203 169.572 88.7045L169.981 88.5569Z" fill="url(#paint101_linear_4640_308)"/>
<path d="M166.881 123.696C166.608 124.309 167.017 125.706 167.017 125.706L166.063 125.535C165.723 125.161 165.518 123.832 165.927 123.525L166.881 123.696Z" fill="url(#paint102_linear_4640_308)"/>
<path d="M162.441 111.6C162.441 111.782 162.691 112.077 162.691 112.077L162.441 112.134C162.316 112.077 162.123 111.782 162.191 111.657L162.441 111.6Z" fill="url(#paint103_linear_4640_308)"/>
<path d="M103.259 119.209C102.907 119.073 102.123 119.334 102.123 119.334L102.191 118.789C102.396 118.585 103.145 118.437 103.327 118.664L103.259 119.209Z" fill="url(#paint104_linear_4640_308)"/>
<path d="M2.02405 150.134C8.91772 151.52 16.402 152.372 23.2275 150.305C25.9077 149.453 28.4858 148.079 30.2915 145.887C30.4846 145.648 30.7117 145.364 30.8707 145.092L30.9616 144.956L31.0297 144.819C31.4726 144.036 31.5862 143.059 31.2001 142.23C30.7117 141.128 29.4738 140.481 28.2813 140.538C27.6681 140.549 27.0548 140.742 26.521 141.015C26.3393 141.117 26.1576 141.219 25.9872 141.344L25.8623 141.435L25.7942 141.48L25.7374 141.537L25.4989 141.742C25.4534 141.776 25.4194 141.81 25.3853 141.855L25.2717 141.969L25.1582 142.082L25.1014 142.139L25.0446 142.196L24.8288 142.446C24.7947 142.491 24.7493 142.525 24.7266 142.571C23.5341 144.161 23.4433 146.375 23.8748 148.272C24.579 151.35 26.9753 153.644 30.053 154.268C32.2449 154.734 34.5276 154.495 36.6968 153.973C41.1942 152.951 45.0783 150.509 47.7699 146.739C52.2786 140.47 54.0048 133.088 61.5913 129.374C65.8728 127.227 70.779 127.046 75.4581 127.102C81.0344 127.216 86.6106 127.841 92.1642 128.079C96.7183 128.227 101.443 128.363 105.781 126.784C106.508 126.501 107.224 126.183 107.859 125.717C109.415 124.57 110.619 122.991 111.869 121.503C114.219 118.619 116.695 115.745 119.705 113.52C122.692 111.259 126.178 109.658 129.824 108.806L129.903 109.147C127.45 109.772 125.065 110.726 122.885 112.009C120.704 113.281 118.705 114.894 116.934 116.688C115.298 118.324 113.856 120.118 112.402 121.935C111.21 123.4 110.074 124.888 108.598 126.103C108.223 126.41 107.803 126.694 107.383 126.909C106.122 127.579 104.736 128.011 103.351 128.318C99.6598 129.113 95.8893 129.09 92.1415 128.976C86.5538 128.772 81.023 128.193 75.4581 128.113C70.0636 128.045 64.2715 128.42 59.7969 131.725C54.4137 135.563 52.5171 142.241 48.7238 147.397C45.9073 151.372 41.728 154.018 36.9921 155.086C34.1983 155.756 31.1546 155.972 28.4176 154.95C26.5551 154.268 24.9197 152.951 23.9089 151.236C22.4098 148.681 22.035 145.376 23.3865 142.673C23.5568 142.332 23.784 142.003 24.0452 141.719L24.295 141.435C24.3291 141.401 24.3859 141.333 24.42 141.299C24.4881 141.23 24.6244 141.106 24.6925 141.037C24.738 140.992 24.7834 140.947 24.8288 140.913L25.1241 140.674C25.2036 140.606 25.3512 140.504 25.4307 140.447C26.2711 139.856 27.2819 139.482 28.3154 139.459C29.894 139.413 31.5408 140.311 32.1768 141.798C32.6424 142.843 32.5402 144.081 32.0291 145.081L31.9383 145.251L31.8474 145.421C31.6203 145.773 31.3591 146.148 31.0865 146.466C26.8504 151.44 19.2298 152.428 13.063 152.122C9.32657 151.94 5.63556 151.315 2.0127 150.452L2.02405 150.134Z" fill="url(#paint105_linear_4640_308)"/>
<path d="M207.846 93.4744C210.935 91.2031 214.217 89.1474 217.726 87.5688C220.134 86.5013 222.667 85.6949 225.245 85.1612C229.174 84.3548 233.297 84.1504 237.294 83.9005C242.916 83.5712 248.526 83.0033 254.057 81.9017C257.794 81.1522 261.507 80.255 265.142 79.1306C266.084 78.8126 267.004 78.4378 267.913 78.029C275.238 74.7355 281.677 69.3977 289.082 66.2632C292.08 65.0594 295.794 64.2076 298.395 66.7175C298.52 66.8424 298.622 66.9673 298.747 67.0922L298.849 67.2285L299.065 67.4897C299.246 67.7509 299.474 68.0576 299.61 68.3415C300.609 70.1246 300.484 72.3278 298.86 73.6906C297.634 74.7355 295.862 74.9399 294.386 74.3721C293.205 73.9291 292.216 73.0433 291.501 72.0212C289.048 68.4778 288.866 64.4461 291.751 61.0958C295.908 56.3713 303.596 54.2702 309.661 53.5548C313.636 53.1232 320.177 53.021 323.335 55.6558C323.494 55.7921 323.641 55.9397 323.777 56.0987L323.539 56.3145C323.266 56.0419 322.96 55.8034 322.619 55.599C322.29 55.3946 321.926 55.2242 321.563 55.0879C319.337 54.2362 316.907 54.0999 314.533 54.1226C309.763 54.2475 304.993 55.2015 300.564 56.9505C296.055 58.7676 289.866 62.4018 291.308 68.1257C291.751 69.7611 292.762 71.6805 294.238 72.6004C295.328 73.3045 296.839 73.384 297.861 72.5209C298.61 71.9076 298.872 70.9195 298.633 69.9996C298.52 69.5226 298.281 69.0229 297.997 68.6027L297.85 68.3756L297.679 68.1712L297.6 68.0689L297.509 67.9781L297.327 67.785C297.248 67.7169 297.123 67.5919 297.043 67.5238C296.964 67.467 296.862 67.3875 296.793 67.3307C296.771 67.3194 296.759 67.308 296.737 67.2967L296.521 67.1604C296.419 67.0922 296.294 67.0355 296.18 66.9787L296.067 66.9333C295.987 66.8992 295.908 66.8651 295.828 66.831L295.578 66.7515C295.465 66.7175 295.317 66.6834 295.203 66.6493C294.817 66.5698 294.408 66.5358 294 66.5358C293.875 66.5358 293.693 66.5358 293.591 66.5471C293.454 66.5585 293.307 66.5698 293.17 66.5812C291.921 66.7175 290.729 67.0809 289.548 67.5238C286.572 68.6709 283.801 70.2722 281.03 71.8622C276.953 74.2244 272.558 76.9614 268.253 78.8467C267.129 79.335 265.982 79.778 264.801 80.13C255.079 82.9806 244.983 84.2412 234.887 84.6047C232.479 84.741 230.071 84.8886 227.675 85.2293C224.711 85.6381 221.747 86.3764 218.964 87.4893L218.408 87.7165L218.124 87.83C218.033 87.8641 217.942 87.9095 217.851 87.9436L217.306 88.1935L216.761 88.4433C213.672 89.9084 210.776 91.7368 208.005 93.7357C208.039 93.7357 207.846 93.4744 207.846 93.4744Z" fill="url(#paint106_linear_4640_308)"/>
<path d="M140.43 63.6624C130.209 56.2008 127.109 61.1979 123.213 54.1112C120.51 49.08 119.057 43.6741 113.151 39.7446C107.495 35.8151 94.1509 33.5664 91.6864 31.3178C87.3254 27.3882 89.2333 14.1006 85.8149 11.8179C80.5566 8.59249 66.9283 26.9567 61.2044 18.3481C58.2402 13.7486 60.6365 3.60679 62.6581 0.676697L62.942 0.869765C60.1482 5.08319 57.8086 21.6303 66.7579 19.427C72.6068 18.0074 80.0115 8.45621 85.5878 9.86447C92.2997 11.409 88.1771 28.9214 93.6625 30.9657C103.452 34.6226 106.326 35.0201 110.232 36.7918C123.418 42.9813 121.271 55.2469 127.915 57.6659C130.766 58.7334 134.173 58.3132 140.521 63.5488C140.408 63.6964 140.442 63.6624 140.43 63.6624Z" fill="url(#paint107_linear_4640_308)"/>
<path d="M188.345 114.178C198.464 116.824 202.643 127.67 210.434 133.621C215.057 137.255 221.076 138.141 226.175 140.878C228.39 142.048 230.457 143.615 231.831 145.739C232.512 146.807 233.16 148.01 233.012 149.328C232.853 150.725 231.547 151.667 230.195 151.633C228.787 151.645 227.731 150.327 227.697 148.976C227.617 146.943 229.593 145.921 231.399 146.159C232.705 146.284 233.83 147.068 234.749 147.942C235.965 149.101 237.021 150.361 238.202 151.531C240.519 153.882 243.108 155.938 245.879 157.732C247.219 158.595 248.639 159.549 250.24 159.742C252.364 160.026 253.909 158.425 254.159 156.403C254.261 155.631 254.102 154.847 253.795 154.132C252.841 151.917 250.479 150.577 248.139 150.327C246.209 150.1 244.074 150.702 242.858 152.303C241.484 154.075 241.734 156.539 242.336 158.584C243.301 162.002 246.095 164.376 249.4 165.489C252.001 166.375 254.829 166.647 257.554 166.284C258.077 166.216 258.599 166.17 259.121 166.147C261.223 166.057 263.38 166.329 265.277 167.249C268.059 168.566 269.82 171.258 269.604 174.37L269.445 174.359C269.468 173.541 269.365 172.712 269.116 171.939C268.093 168.657 264.834 166.954 261.586 166.659C260.269 166.522 258.928 166.579 257.611 166.772C257.304 166.818 256.986 166.863 256.668 166.886C251.739 167.295 246.038 165.909 243.085 161.65C242.359 160.594 241.859 159.39 241.552 158.152C241.03 156.097 240.973 153.678 242.347 151.929C245.141 148.351 251.217 149.294 253.716 152.758C254.749 154.177 255.124 156.131 254.408 157.766C253.909 159.004 252.83 160.049 251.49 160.287C250.184 160.537 248.866 160.094 247.719 159.504C247.344 159.311 246.981 159.095 246.618 158.879C243.438 156.892 240.451 154.575 237.839 151.872C236.68 150.702 235.613 149.407 234.42 148.272C233.841 147.715 233.194 147.204 232.467 146.886C231.093 146.284 229.105 146.432 228.31 147.863C227.583 149.226 228.56 151.258 230.184 151.258C230.945 151.27 231.74 150.94 232.217 150.327C232.705 149.703 232.762 148.862 232.569 148.101C232.376 147.318 231.967 146.591 231.547 145.909C230.207 143.831 228.197 142.275 226.027 141.128C220.928 138.38 214.898 137.448 210.298 133.78C203.722 128.681 200.031 120.583 192.876 116.166C191.457 115.314 189.924 114.644 188.322 114.235C188.334 114.235 188.345 114.178 188.345 114.178Z" fill="url(#paint108_linear_4640_308)"/>
<path d="M175.546 63.3444C179.305 61.2093 183.337 58.9152 185.461 54.997C187.175 51.6808 187.596 47.9103 188.107 44.2647C188.345 42.5839 188.527 40.8803 188.981 39.2336C189.129 38.7339 189.311 38.2115 189.606 37.7685C190.128 36.9622 191.139 36.6215 192.059 36.7123C192.774 36.7691 193.456 36.9963 194.092 37.3143C194.989 37.7799 195.829 38.4045 196.727 38.8134C198.714 39.7787 200.44 38.8474 201.315 36.9395C202.314 34.5204 201.485 31.6471 200.736 29.2508C200.134 27.2293 198.737 24.2538 199.055 22.1754C199.407 20.1766 201.201 20.0063 202.871 20.2902C204.586 20.5855 206.232 21.1987 207.822 21.812C210.344 22.7774 212.808 23.9131 215.352 24.7648C216.204 25.0374 218.6 25.8097 219.179 25.026C219.759 23.7654 217.987 19.9495 217.43 18.5753C216.113 15.4748 214.523 12.3857 213.626 9.06952C213.546 8.72881 213.467 8.37674 213.421 8.02468C213.115 6.02586 213.876 4.78795 216.045 4.93559C217.101 5.00373 218.123 5.28765 219.123 5.57158C222.348 6.50285 225.516 7.82025 228.867 8.19503C230.468 8.35403 232.24 8.26318 233.535 7.21834C234.443 6.55963 234.409 5.66243 234.091 4.66302C233.682 3.37969 232.933 2.22128 232.501 0.937941L232.592 0.90387C233.08 2.16449 233.875 3.27747 234.352 4.57217C234.704 5.52615 234.806 6.60506 233.977 7.34326C233.659 7.66126 233.296 7.91111 232.899 8.11553C230.434 9.34209 227.3 8.66067 224.756 8.04739C222.768 7.55904 220.849 6.9117 218.884 6.37792C217.794 6.10535 215.772 5.51479 214.773 6.04857C213.228 7.01391 216.192 12.965 216.794 14.3959C217.907 16.8945 219.123 19.3135 220.008 21.9256C220.304 22.8796 220.644 23.9926 220.451 25.0374C220.111 26.6728 218.305 26.7182 217.01 26.457C216.295 26.3321 215.625 26.1277 214.966 25.9232C212.365 25.0487 209.912 23.9017 207.391 22.8796C205.551 22.1641 203.722 21.3577 201.746 21.2101C201.338 21.1987 200.974 21.2215 200.622 21.3805L200.543 21.4259L200.508 21.4486L200.474 21.4713C199.952 21.8574 199.907 22.6184 199.941 23.2316C199.986 23.8563 200.122 24.5036 200.293 25.1396C200.815 27.0703 201.553 29.0123 202.008 30.9998C202.473 33.01 202.757 35.2587 201.894 37.212C200.861 39.4039 198.76 40.4601 196.477 39.3358C194.966 38.6317 193.728 37.371 192.002 37.2234C190.446 37.0985 189.822 37.973 189.424 39.3585C188.958 40.9712 188.765 42.652 188.516 44.3215C187.959 48.0012 187.482 51.8171 185.71 55.1447C184.881 56.6324 183.723 57.9498 182.428 59.0515C180.361 60.8232 177.965 62.1406 175.58 63.4352C175.591 63.4352 175.546 63.3444 175.546 63.3444Z" fill="url(#paint109_linear_4640_308)"/>
<path d="M100.511 86.6149C97.422 86.047 94.2307 85.411 91.2551 84.4457C89.3699 83.8438 87.5073 83.0715 85.8379 82.0039C84.5432 81.1862 83.3393 80.2209 82.0333 79.4259C78.4559 77.2113 74.6513 76.7229 70.5969 77.7905C68.6662 78.2561 66.8377 79.1193 64.8502 79.3464C60.4892 79.937 55.6965 78.5628 52.7891 75.1557C52.0055 74.2471 51.3468 73.2023 50.779 72.1461C49.2912 69.3864 48.3372 66.3086 46.3725 63.8214C42.6587 58.938 36.5828 59.9147 31.3813 61.3911C28.3376 62.2428 25.3394 63.299 22.2617 64.0827C18.2754 65.0934 13.5849 65.7294 10.0302 63.1741C7.36133 61.1639 6.28242 58.177 7.82697 55.0766C8.91724 52.9188 10.882 51.2152 13.142 50.3635C15.1295 49.6366 17.4463 49.7842 18.582 51.7944C19.3883 53.214 19.5473 55.088 18.5025 56.4281C17.2305 58.0521 15.0159 58.5405 13.0398 58.5177C10.6435 58.461 8.2926 57.6433 6.30514 56.3372C3.63625 54.5882 1.64879 51.9307 0.433594 49.0006L0.501734 48.9666C1.12637 50.4202 1.92135 51.7944 2.90941 53.0323C5.77136 56.6666 10.723 59.131 15.368 58.0294C17.2532 57.5751 19.0363 56.235 18.9568 54.134C18.8546 52.1351 17.6621 50.3635 15.5156 50.2953C13.5736 50.2385 11.7224 51.2493 10.2914 52.4986C7.56576 54.929 6.35056 58.6767 9.01945 61.6409C12.3016 65.3773 17.787 64.73 22.1367 63.5716C26.7477 62.3905 31.1655 60.5166 35.89 59.7897C40.2738 59.1083 44.3169 59.926 47.0766 63.6511C49.0754 66.2973 50.0067 69.5226 51.5853 72.3846C51.8011 72.7821 52.0964 73.2591 52.3349 73.6339C52.4939 73.861 52.6756 74.1222 52.8459 74.338L53.2094 74.7923C55.9691 78.1085 60.5914 79.46 64.7934 78.9375C66.7582 78.7218 68.5867 77.8927 70.506 77.4384C74.5831 76.405 78.4445 76.8933 82.0333 79.1306C83.3053 79.8915 84.4751 80.8342 85.7016 81.6632C87.4279 82.8103 89.3358 83.6507 91.3006 84.298C93.3448 84.9908 95.4913 85.4905 97.6037 85.9562C98.8643 86.2287 99.4662 86.3309 100.511 86.5354C100.522 86.5467 100.511 86.6149 100.511 86.6149Z" fill="#1B90DD"/>
<defs>
<linearGradient id="paint0_linear_4640_308" x1="124.21" y1="167.456" x2="130.769" y2="169.468" gradientUnits="userSpaceOnUse">
<stop stop-color="#61D3D7"/>
<stop offset="0.2216" stop-color="#57CFD7"/>
<stop offset="0.6006" stop-color="#3CC6D5"/>
<stop offset="1" stop-color="#18B9D4"/>
</linearGradient>
<linearGradient id="paint1_linear_4640_308" x1="122.658" y1="168.136" x2="127.282" y2="176.678" gradientUnits="userSpaceOnUse">
<stop stop-color="#61D3D7"/>
<stop offset="0.2216" stop-color="#57CFD7"/>
<stop offset="0.6006" stop-color="#3CC6D5"/>
<stop offset="1" stop-color="#18B9D4"/>
</linearGradient>
<linearGradient id="paint2_linear_4640_308" x1="129.857" y1="153.395" x2="143.15" y2="157.472" gradientUnits="userSpaceOnUse">
<stop stop-color="#61D3D7"/>
<stop offset="0.2216" stop-color="#57CFD7"/>
<stop offset="0.6006" stop-color="#3CC6D5"/>
<stop offset="1" stop-color="#18B9D4"/>
</linearGradient>
<linearGradient id="paint3_linear_4640_308" x1="150.496" y1="130.845" x2="138.149" y2="137.305" gradientUnits="userSpaceOnUse">
<stop stop-color="#61D3D7"/>
<stop offset="0.2216" stop-color="#57CFD7"/>
<stop offset="0.6006" stop-color="#3CC6D5"/>
<stop offset="1" stop-color="#18B9D4"/>
</linearGradient>
<linearGradient id="paint4_linear_4640_308" x1="127.871" y1="155.901" x2="134.578" y2="167.059" gradientUnits="userSpaceOnUse">
<stop stop-color="#61D3D7"/>
<stop offset="0.2216" stop-color="#57CFD7"/>
<stop offset="0.6006" stop-color="#3CC6D5"/>
<stop offset="1" stop-color="#18B9D4"/>
</linearGradient>
<linearGradient id="paint5_linear_4640_308" x1="138.437" y1="140.269" x2="147.789" y2="151.44" gradientUnits="userSpaceOnUse">
<stop stop-color="#61D3D7"/>
<stop offset="0.2216" stop-color="#57CFD7"/>
<stop offset="0.6006" stop-color="#3CC6D5"/>
<stop offset="1" stop-color="#18B9D4"/>
</linearGradient>
<linearGradient id="paint6_linear_4640_308" x1="76.9506" y1="55.373" x2="77.9979" y2="51.975" gradientUnits="userSpaceOnUse">
<stop stop-color="#61D3D7"/>
<stop offset="0.2216" stop-color="#57CFD7"/>
<stop offset="0.6006" stop-color="#3CC6D5"/>
<stop offset="1" stop-color="#18B9D4"/>
</linearGradient>
<linearGradient id="paint7_linear_4640_308" x1="77.3018" y1="56.1773" x2="81.7312" y2="53.7869" gradientUnits="userSpaceOnUse">
<stop stop-color="#61D3D7"/>
<stop offset="0.2216" stop-color="#57CFD7"/>
<stop offset="0.6006" stop-color="#3CC6D5"/>
<stop offset="1" stop-color="#18B9D4"/>
</linearGradient>
<linearGradient id="paint8_linear_4640_308" x1="69.6685" y1="52.436" x2="71.7907" y2="45.5504" gradientUnits="userSpaceOnUse">
<stop stop-color="#61D3D7"/>
<stop offset="0.2216" stop-color="#57CFD7"/>
<stop offset="0.6006" stop-color="#3CC6D5"/>
<stop offset="1" stop-color="#18B9D4"/>
</linearGradient>
<linearGradient id="paint9_linear_4640_308" x1="57.9973" y1="41.7236" x2="61.3356" y2="48.1275" gradientUnits="userSpaceOnUse">
<stop stop-color="#61D3D7"/>
<stop offset="0.2216" stop-color="#57CFD7"/>
<stop offset="0.6006" stop-color="#3CC6D5"/>
<stop offset="1" stop-color="#18B9D4"/>
</linearGradient>
<linearGradient id="paint10_linear_4640_308" x1="70.9653" y1="53.4671" x2="76.7524" y2="49.9993" gradientUnits="userSpaceOnUse">
<stop stop-color="#61D3D7"/>
<stop offset="0.2216" stop-color="#57CFD7"/>
<stop offset="0.6006" stop-color="#3CC6D5"/>
<stop offset="1" stop-color="#18B9D4"/>
</linearGradient>
<linearGradient id="paint11_linear_4640_308" x1="62.8717" y1="47.9801" x2="68.6675" y2="43.1416" gradientUnits="userSpaceOnUse">
<stop stop-color="#61D3D7"/>
<stop offset="0.2216" stop-color="#57CFD7"/>
<stop offset="0.6006" stop-color="#3CC6D5"/>
<stop offset="1" stop-color="#18B9D4"/>
</linearGradient>
<linearGradient id="paint12_linear_4640_308" x1="266.583" y1="126.573" x2="267.73" y2="123.05" gradientUnits="userSpaceOnUse">
<stop stop-color="#5221B5"/>
<stop offset="0.116" stop-color="#692CCF"/>
<stop offset="0.2612" stop-color="#7F37E9"/>
<stop offset="0.3915" stop-color="#8D3EF9"/>
<stop offset="0.4931" stop-color="#9240FF"/>
<stop offset="0.6086" stop-color="#8F3EFB"/>
<stop offset="0.7255" stop-color="#8439EF"/>
<stop offset="0.8431" stop-color="#7331DB"/>
<stop offset="0.9605" stop-color="#5B26BE"/>
<stop offset="1" stop-color="#5121B3"/>
</linearGradient>
<linearGradient id="paint13_linear_4640_308" x1="266.964" y1="127.426" x2="271.667" y2="124.835" gradientUnits="userSpaceOnUse">
<stop stop-color="#532E9E"/>
<stop offset="0.5121" stop-color="#BE70FF"/>
<stop offset="1" stop-color="#7C48FF"/>
</linearGradient>
<linearGradient id="paint14_linear_4640_308" x1="258.655" y1="123.265" x2="260.98" y2="116.128" gradientUnits="userSpaceOnUse">
<stop stop-color="#5221B5"/>
<stop offset="0.116" stop-color="#692CCF"/>
<stop offset="0.2612" stop-color="#7F37E9"/>
<stop offset="0.3915" stop-color="#8D3EF9"/>
<stop offset="0.4931" stop-color="#9240FF"/>
<stop offset="0.6086" stop-color="#8F3EFB"/>
<stop offset="0.7255" stop-color="#8439EF"/>
<stop offset="0.8431" stop-color="#7331DB"/>
<stop offset="0.9605" stop-color="#5B26BE"/>
<stop offset="1" stop-color="#5121B3"/>
</linearGradient>
<linearGradient id="paint15_linear_4640_308" x1="245.961" y1="111.679" x2="249.242" y2="118.649" gradientUnits="userSpaceOnUse">
<stop stop-color="#5221B5"/>
<stop offset="0.116" stop-color="#692CCF"/>
<stop offset="0.2612" stop-color="#7F37E9"/>
<stop offset="0.3915" stop-color="#8D3EF9"/>
<stop offset="0.4931" stop-color="#9240FF"/>
<stop offset="0.6086" stop-color="#8F3EFB"/>
<stop offset="0.7255" stop-color="#8439EF"/>
<stop offset="0.8431" stop-color="#7331DB"/>
<stop offset="0.9605" stop-color="#5B26BE"/>
<stop offset="1" stop-color="#5121B3"/>
</linearGradient>
<linearGradient id="paint16_linear_4640_308" x1="260.065" y1="124.385" x2="266.193" y2="120.643" gradientUnits="userSpaceOnUse">
<stop stop-color="#532E9E"/>
<stop offset="0.5121" stop-color="#BE70FF"/>
<stop offset="1" stop-color="#7C48FF"/>
</linearGradient>
<linearGradient id="paint17_linear_4640_308" x1="251.259" y1="118.383" x2="257.351" y2="113.232" gradientUnits="userSpaceOnUse">
<stop stop-color="#532E9E"/>
<stop offset="0.5121" stop-color="#BE70FF"/>
<stop offset="1" stop-color="#7C48FF"/>
</linearGradient>
<linearGradient id="paint18_linear_4640_308" x1="265.23" y1="32.1741" x2="279.063" y2="32.1741" gradientUnits="userSpaceOnUse">
<stop stop-color="#C7122D"/>
<stop offset="0.5035" stop-color="#FF6685"/>
<stop offset="1" stop-color="#D43845"/>
</linearGradient>
<linearGradient id="paint19_linear_4640_308" x1="186.93" y1="149.696" x2="194.468" y2="164.072" gradientUnits="userSpaceOnUse">
<stop stop-color="#532E9E"/>
<stop offset="0.5121" stop-color="#BE70FF"/>
<stop offset="1" stop-color="#7C48FF"/>
</linearGradient>
<linearGradient id="paint20_linear_4640_308" x1="85.3774" y1="159.868" x2="91.3461" y2="159.868" gradientUnits="userSpaceOnUse">
<stop stop-color="#948BE2"/>
<stop offset="0.3319" stop-color="#8A81DB"/>
<stop offset="0.8981" stop-color="#7066C7"/>
<stop offset="1" stop-color="#6A60C3"/>
</linearGradient>
<linearGradient id="paint21_linear_4640_308" x1="82.5848" y1="161.855" x2="86.1717" y2="161.855" gradientUnits="userSpaceOnUse">
<stop stop-color="#948BE2"/>
<stop offset="0.3319" stop-color="#8A81DB"/>
<stop offset="0.8981" stop-color="#7066C7"/>
<stop offset="1" stop-color="#6A60C3"/>
</linearGradient>
<linearGradient id="paint22_linear_4640_308" x1="90.4351" y1="158.53" x2="94.5149" y2="158.53" gradientUnits="userSpaceOnUse">
<stop stop-color="#948BE2"/>
<stop offset="0.3319" stop-color="#8A81DB"/>
<stop offset="0.8981" stop-color="#7066C7"/>
<stop offset="1" stop-color="#6A60C3"/>
</linearGradient>
<linearGradient id="paint23_linear_4640_308" x1="143.011" y1="90.0442" x2="142.408" y2="90.0442" gradientUnits="userSpaceOnUse">
<stop stop-color="#0092DC"/>
<stop offset="0.3261" stop-color="#0888E4"/>
<stop offset="0.8825" stop-color="#1F6DFA"/>
<stop offset="1" stop-color="#2466FF"/>
</linearGradient>
<linearGradient id="paint24_linear_4640_308" x1="134.057" y1="38.598" x2="133.559" y2="38.598" gradientUnits="userSpaceOnUse">
<stop stop-color="#7F2390"/>
<stop offset="0.2994" stop-color="#982182"/>
<stop offset="0.9341" stop-color="#D91D5F"/>
<stop offset="1" stop-color="#E01C5B"/>
</linearGradient>
<linearGradient id="paint25_linear_4640_308" x1="175.898" y1="28.9309" x2="171.531" y2="28.9309" gradientUnits="userSpaceOnUse">
<stop stop-color="#0092DC"/>
<stop offset="0.3261" stop-color="#0888E4"/>
<stop offset="0.8825" stop-color="#1F6DFA"/>
<stop offset="1" stop-color="#2466FF"/>
</linearGradient>
<linearGradient id="paint26_linear_4640_308" x1="125.262" y1="66.0158" x2="123.914" y2="66.0158" gradientUnits="userSpaceOnUse">
<stop stop-color="#0092DC"/>
<stop offset="0.3261" stop-color="#0888E4"/>
<stop offset="0.8825" stop-color="#1F6DFA"/>
<stop offset="1" stop-color="#2466FF"/>
</linearGradient>
<linearGradient id="paint27_linear_4640_308" x1="118.111" y1="138.336" x2="116.389" y2="136.371" gradientUnits="userSpaceOnUse">
<stop stop-color="#0092DC"/>
<stop offset="0.2193" stop-color="#009CD4"/>
<stop offset="0.5944" stop-color="#00B7C0"/>
<stop offset="1" stop-color="#00DCA5"/>
</linearGradient>
<linearGradient id="paint28_linear_4640_308" x1="114.227" y1="73.1863" x2="112.732" y2="73.1863" gradientUnits="userSpaceOnUse">
<stop stop-color="#FF5600"/>
<stop offset="0.1769" stop-color="#FF6000"/>
<stop offset="0.4798" stop-color="#FF7B00"/>
<stop offset="0.8695" stop-color="#FFA800"/>
<stop offset="1" stop-color="#FFB800"/>
</linearGradient>
<linearGradient id="paint29_linear_4640_308" x1="195.794" y1="149.464" x2="193.661" y2="149.464" gradientUnits="userSpaceOnUse">
<stop stop-color="#7F2390"/>
<stop offset="0.2994" stop-color="#982182"/>
<stop offset="0.9341" stop-color="#D91D5F"/>
<stop offset="1" stop-color="#E01C5B"/>
</linearGradient>
<linearGradient id="paint30_linear_4640_308" x1="198.089" y1="26.9132" x2="197.465" y2="26.9132" gradientUnits="userSpaceOnUse">
<stop stop-color="#0092DC"/>
<stop offset="0.3261" stop-color="#0888E4"/>
<stop offset="0.8825" stop-color="#1F6DFA"/>
<stop offset="1" stop-color="#2466FF"/>
</linearGradient>
<linearGradient id="paint31_linear_4640_308" x1="159.661" y1="64.1617" x2="159.179" y2="64.1617" gradientUnits="userSpaceOnUse">
<stop stop-color="#948BE2"/>
<stop offset="0.3319" stop-color="#8A81DB"/>
<stop offset="0.8981" stop-color="#7066C7"/>
<stop offset="1" stop-color="#6A60C3"/>
</linearGradient>
<linearGradient id="paint32_linear_4640_308" x1="205.204" y1="82.8811" x2="202.992" y2="82.8811" gradientUnits="userSpaceOnUse">
<stop stop-color="#7F2390"/>
<stop offset="0.2994" stop-color="#982182"/>
<stop offset="0.9341" stop-color="#D91D5F"/>
<stop offset="1" stop-color="#E01C5B"/>
</linearGradient>
<linearGradient id="paint33_linear_4640_308" x1="211.596" y1="110.207" x2="210.797" y2="110.207" gradientUnits="userSpaceOnUse">
<stop stop-color="#0092DC"/>
<stop offset="0.3261" stop-color="#0888E4"/>
<stop offset="0.8825" stop-color="#1F6DFA"/>
<stop offset="1" stop-color="#2466FF"/>
</linearGradient>
<linearGradient id="paint34_linear_4640_308" x1="225.001" y1="87.5159" x2="223.286" y2="87.5159" gradientUnits="userSpaceOnUse">
<stop stop-color="#7F2390"/>
<stop offset="0.2994" stop-color="#982182"/>
<stop offset="0.9341" stop-color="#D91D5F"/>
<stop offset="1" stop-color="#E01C5B"/>
</linearGradient>
<linearGradient id="paint35_linear_4640_308" x1="215.807" y1="42.9354" x2="214.661" y2="42.9354" gradientUnits="userSpaceOnUse">
<stop stop-color="#948BE2"/>
<stop offset="0.3319" stop-color="#8A81DB"/>
<stop offset="0.8981" stop-color="#7066C7"/>
<stop offset="1" stop-color="#6A60C3"/>
</linearGradient>
<linearGradient id="paint36_linear_4640_308" x1="250.227" y1="37.9768" x2="249.152" y2="37.9768" gradientUnits="userSpaceOnUse">
<stop stop-color="#0092DC"/>
<stop offset="0.3261" stop-color="#0888E4"/>
<stop offset="0.8825" stop-color="#1F6DFA"/>
<stop offset="1" stop-color="#2466FF"/>
</linearGradient>
<linearGradient id="paint37_linear_4640_308" x1="275.619" y1="62.5668" x2="273.517" y2="62.5668" gradientUnits="userSpaceOnUse">
<stop stop-color="#7F2390"/>
<stop offset="0.2994" stop-color="#982182"/>
<stop offset="0.9341" stop-color="#D91D5F"/>
<stop offset="1" stop-color="#E01C5B"/>
</linearGradient>
<linearGradient id="paint38_linear_4640_308" x1="255.559" y1="99.0918" x2="253.193" y2="99.0918" gradientUnits="userSpaceOnUse">
<stop stop-color="#948BE2"/>
<stop offset="0.3319" stop-color="#8A81DB"/>
<stop offset="0.8981" stop-color="#7066C7"/>
<stop offset="1" stop-color="#6A60C3"/>
</linearGradient>
<linearGradient id="paint39_linear_4640_308" x1="271.037" y1="110.477" x2="270.142" y2="110.477" gradientUnits="userSpaceOnUse">
<stop stop-color="#FF5600"/>
<stop offset="0.1769" stop-color="#FF6000"/>
<stop offset="0.4798" stop-color="#FF7B00"/>
<stop offset="0.8695" stop-color="#FFA800"/>
<stop offset="1" stop-color="#FFB800"/>
</linearGradient>
<linearGradient id="paint40_linear_4640_308" x1="273.265" y1="95.2969" x2="271.95" y2="95.2969" gradientUnits="userSpaceOnUse">
<stop stop-color="#0092DC"/>
<stop offset="0.2193" stop-color="#009CD4"/>
<stop offset="0.5944" stop-color="#00B7C0"/>
<stop offset="1" stop-color="#00DCA5"/>
</linearGradient>
<linearGradient id="paint41_linear_4640_308" x1="254.376" y1="86.0527" x2="253.47" y2="86.0527" gradientUnits="userSpaceOnUse">
<stop stop-color="#0092DC"/>
<stop offset="0.3261" stop-color="#0888E4"/>
<stop offset="0.8825" stop-color="#1F6DFA"/>
<stop offset="1" stop-color="#2466FF"/>
</linearGradient>
<linearGradient id="paint42_linear_4640_308" x1="239.265" y1="116.089" x2="237.836" y2="116.089" gradientUnits="userSpaceOnUse">
<stop stop-color="#7F2390"/>
<stop offset="0.2994" stop-color="#982182"/>
<stop offset="0.9341" stop-color="#D91D5F"/>
<stop offset="1" stop-color="#E01C5B"/>
</linearGradient>
<linearGradient id="paint43_linear_4640_308" x1="277.057" y1="150.269" x2="275.619" y2="150.269" gradientUnits="userSpaceOnUse">
<stop stop-color="#0092DC"/>
<stop offset="0.2193" stop-color="#009CD4"/>
<stop offset="0.5944" stop-color="#00B7C0"/>
<stop offset="1" stop-color="#00DCA5"/>
</linearGradient>
<linearGradient id="paint44_linear_4640_308" x1="289.048" y1="85.2664" x2="287.752" y2="85.2664" gradientUnits="userSpaceOnUse">
<stop stop-color="#7F2390"/>
<stop offset="0.2994" stop-color="#982182"/>
<stop offset="0.9341" stop-color="#D91D5F"/>
<stop offset="1" stop-color="#E01C5B"/>
</linearGradient>
<linearGradient id="paint45_linear_4640_308" x1="205.063" y1="139.72" x2="204.098" y2="139.72" gradientUnits="userSpaceOnUse">
<stop stop-color="#0092DC"/>
<stop offset="0.3261" stop-color="#0888E4"/>
<stop offset="0.8825" stop-color="#1F6DFA"/>
<stop offset="1" stop-color="#2466FF"/>
</linearGradient>
<linearGradient id="paint46_linear_4640_308" x1="222.721" y1="146.083" x2="221.998" y2="146.083" gradientUnits="userSpaceOnUse">
<stop stop-color="#FF5600"/>
<stop offset="0.1769" stop-color="#FF6000"/>
<stop offset="0.4798" stop-color="#FF7B00"/>
<stop offset="0.8695" stop-color="#FFA800"/>
<stop offset="1" stop-color="#FFB800"/>
</linearGradient>
<linearGradient id="paint47_linear_4640_308" x1="217.322" y1="160.842" x2="216.684" y2="160.842" gradientUnits="userSpaceOnUse">
<stop stop-color="#0092DC"/>
<stop offset="0.3261" stop-color="#0888E4"/>
<stop offset="0.8825" stop-color="#1F6DFA"/>
<stop offset="1" stop-color="#2466FF"/>
</linearGradient>
<linearGradient id="paint48_linear_4640_308" x1="238.116" y1="130.174" x2="237.556" y2="130.174" gradientUnits="userSpaceOnUse">
<stop stop-color="#7F2390"/>
<stop offset="0.2994" stop-color="#982182"/>
<stop offset="0.9341" stop-color="#D91D5F"/>
<stop offset="1" stop-color="#E01C5B"/>
</linearGradient>
<linearGradient id="paint49_linear_4640_308" x1="224.214" y1="103.187" x2="222.358" y2="103.187" gradientUnits="userSpaceOnUse">
<stop stop-color="#0092DC"/>
<stop offset="0.3261" stop-color="#0888E4"/>
<stop offset="0.8825" stop-color="#1F6DFA"/>
<stop offset="1" stop-color="#2466FF"/>
</linearGradient>
<linearGradient id="paint50_linear_4640_308" x1="199.249" y1="128.699" x2="197.777" y2="128.699" gradientUnits="userSpaceOnUse">
<stop stop-color="#948BE2"/>
<stop offset="0.3319" stop-color="#8A81DB"/>
<stop offset="0.8981" stop-color="#7066C7"/>
<stop offset="1" stop-color="#6A60C3"/>
</linearGradient>
<linearGradient id="paint51_linear_4640_308" x1="175.293" y1="102.158" x2="174.623" y2="102.158" gradientUnits="userSpaceOnUse">
<stop stop-color="#7F2390"/>
<stop offset="0.2994" stop-color="#982182"/>
<stop offset="0.9341" stop-color="#D91D5F"/>
<stop offset="1" stop-color="#E01C5B"/>
</linearGradient>
<linearGradient id="paint52_linear_4640_308" x1="156.504" y1="116.512" x2="155.799" y2="116.512" gradientUnits="userSpaceOnUse">
<stop stop-color="#948BE2"/>
<stop offset="0.3319" stop-color="#8A81DB"/>
<stop offset="0.8981" stop-color="#7066C7"/>
<stop offset="1" stop-color="#6A60C3"/>
</linearGradient>
<linearGradient id="paint53_linear_4640_308" x1="50.0488" y1="149.464" x2="48.3538" y2="149.464" gradientUnits="userSpaceOnUse">
<stop stop-color="#0092DC"/>
<stop offset="0.3261" stop-color="#0888E4"/>
<stop offset="0.8825" stop-color="#1F6DFA"/>
<stop offset="1" stop-color="#2466FF"/>
</linearGradient>
<linearGradient id="paint54_linear_4640_308" x1="161.701" y1="159.647" x2="159.42" y2="159.647" gradientUnits="userSpaceOnUse">
<stop stop-color="#0092DC"/>
<stop offset="0.2193" stop-color="#009CD4"/>
<stop offset="0.5944" stop-color="#00B7C0"/>
<stop offset="1" stop-color="#00DCA5"/>
</linearGradient>
<linearGradient id="paint55_linear_4640_308" x1="175.466" y1="137.343" x2="174.958" y2="137.343" gradientUnits="userSpaceOnUse">
<stop stop-color="#0092DC"/>
<stop offset="0.3261" stop-color="#0888E4"/>
<stop offset="0.8825" stop-color="#1F6DFA"/>
<stop offset="1" stop-color="#2466FF"/>
</linearGradient>
<linearGradient id="paint56_linear_4640_308" x1="162.297" y1="129.2" x2="161.331" y2="129.2" gradientUnits="userSpaceOnUse">
<stop stop-color="#FF5600"/>
<stop offset="0.1769" stop-color="#FF6000"/>
<stop offset="0.4798" stop-color="#FF7B00"/>
<stop offset="0.8695" stop-color="#FFA800"/>
<stop offset="1" stop-color="#FFB800"/>
</linearGradient>
<linearGradient id="paint57_linear_4640_308" x1="86.431" y1="143.707" x2="84.9823" y2="143.707" gradientUnits="userSpaceOnUse">
<stop stop-color="#7F2390"/>
<stop offset="0.2994" stop-color="#982182"/>
<stop offset="0.9341" stop-color="#D91D5F"/>
<stop offset="1" stop-color="#E01C5B"/>
</linearGradient>
<linearGradient id="paint58_linear_4640_308" x1="147.039" y1="152.663" x2="145.472" y2="152.663" gradientUnits="userSpaceOnUse">
<stop stop-color="#0092DC"/>
<stop offset="0.3261" stop-color="#0888E4"/>
<stop offset="0.8825" stop-color="#1F6DFA"/>
<stop offset="1" stop-color="#2466FF"/>
</linearGradient>
<linearGradient id="paint59_linear_4640_308" x1="112.808" y1="150.268" x2="111.129" y2="150.268" gradientUnits="userSpaceOnUse">
<stop stop-color="#FF4856"/>
<stop offset="0.162" stop-color="#FF5260"/>
<stop offset="0.4393" stop-color="#FF6D79"/>
<stop offset="0.796" stop-color="#FF9AA3"/>
<stop offset="1" stop-color="#FFB6BE"/>
</linearGradient>
<linearGradient id="paint60_linear_4640_308" x1="123.282" y1="126.274" x2="122.601" y2="126.274" gradientUnits="userSpaceOnUse">
<stop stop-color="#0092DC"/>
<stop offset="0.3261" stop-color="#0888E4"/>
<stop offset="0.8825" stop-color="#1F6DFA"/>
<stop offset="1" stop-color="#2466FF"/>
</linearGradient>
<linearGradient id="paint61_linear_4640_308" x1="129.81" y1="126.809" x2="128.015" y2="126.809" gradientUnits="userSpaceOnUse">
<stop stop-color="#7F2390"/>
<stop offset="0.2994" stop-color="#982182"/>
<stop offset="0.9341" stop-color="#D91D5F"/>
<stop offset="1" stop-color="#E01C5B"/>
</linearGradient>
<linearGradient id="paint62_linear_4640_308" x1="156.189" y1="131.674" x2="155.395" y2="131.674" gradientUnits="userSpaceOnUse">
<stop stop-color="#0092DC"/>
<stop offset="0.3261" stop-color="#0888E4"/>
<stop offset="0.8825" stop-color="#1F6DFA"/>
<stop offset="1" stop-color="#2466FF"/>
</linearGradient>
<linearGradient id="paint63_linear_4640_308" x1="133.538" y1="102.664" x2="132.381" y2="102.664" gradientUnits="userSpaceOnUse">
<stop stop-color="#FF5600"/>
<stop offset="0.1769" stop-color="#FF6000"/>
<stop offset="0.4798" stop-color="#FF7B00"/>
<stop offset="0.8695" stop-color="#FFA800"/>
<stop offset="1" stop-color="#FFB800"/>
</linearGradient>
<linearGradient id="paint64_linear_4640_308" x1="128.858" y1="42.5805" x2="128.468" y2="42.5805" gradientUnits="userSpaceOnUse">
<stop stop-color="#0092DC"/>
<stop offset="0.3261" stop-color="#0888E4"/>
<stop offset="0.8825" stop-color="#1F6DFA"/>
<stop offset="1" stop-color="#2466FF"/>
</linearGradient>
<linearGradient id="paint65_linear_4640_308" x1="102.419" y1="28.0056" x2="101.817" y2="28.0056" gradientUnits="userSpaceOnUse">
<stop stop-color="#0092DC"/>
<stop offset="0.3261" stop-color="#0888E4"/>
<stop offset="0.8825" stop-color="#1F6DFA"/>
<stop offset="1" stop-color="#2466FF"/>
</linearGradient>
<linearGradient id="paint66_linear_4640_308" x1="94.6492" y1="41.3752" x2="93.0895" y2="41.3752" gradientUnits="userSpaceOnUse">
<stop stop-color="#7F2390"/>
<stop offset="0.2994" stop-color="#982182"/>
<stop offset="0.9341" stop-color="#D91D5F"/>
<stop offset="1" stop-color="#E01C5B"/>
</linearGradient>
<linearGradient id="paint67_linear_4640_308" x1="74.425" y1="39.4447" x2="73.4599" y2="39.4447" gradientUnits="userSpaceOnUse">
<stop stop-color="#FF5600"/>
<stop offset="0.1769" stop-color="#FF6000"/>
<stop offset="0.4798" stop-color="#FF7B00"/>
<stop offset="0.8695" stop-color="#FFA800"/>
<stop offset="1" stop-color="#FFB800"/>
</linearGradient>
<linearGradient id="paint68_linear_4640_308" x1="43.9405" y1="40.0613" x2="41.9137" y2="40.0613" gradientUnits="userSpaceOnUse">
<stop stop-color="#0092DC"/>
<stop offset="0.2193" stop-color="#009CD4"/>
<stop offset="0.5944" stop-color="#00B7C0"/>
<stop offset="1" stop-color="#00DCA5"/>
</linearGradient>
<linearGradient id="paint69_linear_4640_308" x1="55.5066" y1="89.8782" x2="55.0626" y2="89.8782" gradientUnits="userSpaceOnUse">
<stop stop-color="#0092DC"/>
<stop offset="0.3261" stop-color="#0888E4"/>
<stop offset="0.8825" stop-color="#1F6DFA"/>
<stop offset="1" stop-color="#2466FF"/>
</linearGradient>
<linearGradient id="paint70_linear_4640_308" x1="77.7497" y1="89.0128" x2="76.2036" y2="89.0128" gradientUnits="userSpaceOnUse">
<stop stop-color="#FF5600"/>
<stop offset="0.1769" stop-color="#FF6000"/>
<stop offset="0.4798" stop-color="#FF7B00"/>
<stop offset="0.8695" stop-color="#FFA800"/>
<stop offset="1" stop-color="#FFB800"/>
</linearGradient>
<linearGradient id="paint71_linear_4640_308" x1="84.7929" y1="100.768" x2="83.2391" y2="100.768" gradientUnits="userSpaceOnUse">
<stop stop-color="#7F2390"/>
<stop offset="0.2994" stop-color="#982182"/>
<stop offset="0.9341" stop-color="#D91D5F"/>
<stop offset="1" stop-color="#E01C5B"/>
</linearGradient>
<linearGradient id="paint72_linear_4640_308" x1="68.7954" y1="45.6532" x2="66.7258" y2="45.6532" gradientUnits="userSpaceOnUse">
<stop stop-color="#0092DC"/>
<stop offset="0.2193" stop-color="#009CD4"/>
<stop offset="0.5944" stop-color="#00B7C0"/>
<stop offset="1" stop-color="#00DCA5"/>
</linearGradient>
<linearGradient id="paint73_linear_4640_308" x1="64.2449" y1="83.3654" x2="62.9646" y2="83.3654" gradientUnits="userSpaceOnUse">
<stop stop-color="#948BE2"/>
<stop offset="0.3319" stop-color="#8A81DB"/>
<stop offset="0.8981" stop-color="#7066C7"/>
<stop offset="1" stop-color="#6A60C3"/>
</linearGradient>
<linearGradient id="paint74_linear_4640_308" x1="52.1454" y1="124.225" x2="50.7231" y2="124.225" gradientUnits="userSpaceOnUse">
<stop stop-color="#0092DC"/>
<stop offset="0.3261" stop-color="#0888E4"/>
<stop offset="0.8825" stop-color="#1F6DFA"/>
<stop offset="1" stop-color="#2466FF"/>
</linearGradient>
<linearGradient id="paint75_linear_4640_308" x1="68.9927" y1="103.186" x2="66.5298" y2="103.186" gradientUnits="userSpaceOnUse">
<stop stop-color="#948BE2"/>
<stop offset="0.3319" stop-color="#8A81DB"/>
<stop offset="0.8981" stop-color="#7066C7"/>
<stop offset="1" stop-color="#6A60C3"/>
</linearGradient>
<linearGradient id="paint76_linear_4640_308" x1="87.3192" y1="131.579" x2="86.0803" y2="131.579" gradientUnits="userSpaceOnUse">
<stop stop-color="#0092DC"/>
<stop offset="0.2193" stop-color="#009CD4"/>
<stop offset="0.5944" stop-color="#00B7C0"/>
<stop offset="1" stop-color="#00DCA5"/>
</linearGradient>
<linearGradient id="paint77_linear_4640_308" x1="91.06" y1="116.901" x2="89.7467" y2="116.901" gradientUnits="userSpaceOnUse">
<stop stop-color="#0092DC"/>
<stop offset="0.3261" stop-color="#0888E4"/>
<stop offset="0.8825" stop-color="#1F6DFA"/>
<stop offset="1" stop-color="#2466FF"/>
</linearGradient>
<linearGradient id="paint78_linear_4640_308" x1="114.186" y1="91.6222" x2="113.48" y2="91.6222" gradientUnits="userSpaceOnUse">
<stop stop-color="#0092DC"/>
<stop offset="0.3261" stop-color="#0888E4"/>
<stop offset="0.8825" stop-color="#1F6DFA"/>
<stop offset="1" stop-color="#2466FF"/>
</linearGradient>
<linearGradient id="paint79_linear_4640_308" x1="81.956" y1="68.5012" x2="79.6732" y2="68.5012" gradientUnits="userSpaceOnUse">
<stop stop-color="#0092DC"/>
<stop offset="0.3261" stop-color="#0888E4"/>
<stop offset="0.8825" stop-color="#1F6DFA"/>
<stop offset="1" stop-color="#2466FF"/>
</linearGradient>
<linearGradient id="paint80_linear_4640_308" x1="187.219" y1="89.8725" x2="185.724" y2="89.8725" gradientUnits="userSpaceOnUse">
<stop stop-color="#948BE2"/>
<stop offset="0.3319" stop-color="#8A81DB"/>
<stop offset="0.8981" stop-color="#7066C7"/>
<stop offset="1" stop-color="#6A60C3"/>
</linearGradient>
<linearGradient id="paint81_linear_4640_308" x1="141.353" y1="50.3114" x2="140.513" y2="50.3114" gradientUnits="userSpaceOnUse">
<stop stop-color="#FF5600"/>
<stop offset="0.1769" stop-color="#FF6000"/>
<stop offset="0.4798" stop-color="#FF7B00"/>
<stop offset="0.8695" stop-color="#FFA800"/>
<stop offset="1" stop-color="#FFB800"/>
</linearGradient>
<linearGradient id="paint82_linear_4640_308" x1="250.402" y1="55.4972" x2="249.929" y2="55.4972" gradientUnits="userSpaceOnUse">
<stop stop-color="#0092DC"/>
<stop offset="0.3261" stop-color="#0888E4"/>
<stop offset="0.8825" stop-color="#1F6DFA"/>
<stop offset="1" stop-color="#2466FF"/>
</linearGradient>
<linearGradient id="paint83_linear_4640_308" x1="235.089" y1="48.4375" x2="233.406" y2="48.4375" gradientUnits="userSpaceOnUse">
<stop stop-color="#CE38BF"/>
<stop offset="0.7261" stop-color="#E051CA"/>
<stop offset="1" stop-color="#E85CCF"/>
</linearGradient>
<linearGradient id="paint84_linear_4640_308" x1="217.957" y1="55.4932" x2="217.003" y2="55.4932" gradientUnits="userSpaceOnUse">
<stop stop-color="#7F2390"/>
<stop offset="0.2994" stop-color="#982182"/>
<stop offset="0.9341" stop-color="#D91D5F"/>
<stop offset="1" stop-color="#E01C5B"/>
</linearGradient>
<linearGradient id="paint85_linear_4640_308" x1="212.658" y1="74.4474" x2="211.389" y2="74.4474" gradientUnits="userSpaceOnUse">
<stop stop-color="#0092DC"/>
<stop offset="0.3261" stop-color="#0888E4"/>
<stop offset="0.8825" stop-color="#1F6DFA"/>
<stop offset="1" stop-color="#2466FF"/>
</linearGradient>
<linearGradient id="paint86_linear_4640_308" x1="178" y1="60.2126" x2="177.248" y2="60.2126" gradientUnits="userSpaceOnUse">
<stop stop-color="#0092DC"/>
<stop offset="0.3261" stop-color="#0888E4"/>
<stop offset="0.8825" stop-color="#1F6DFA"/>
<stop offset="1" stop-color="#2466FF"/>
</linearGradient>
<linearGradient id="paint87_linear_4640_308" x1="147.418" y1="129.2" x2="146.16" y2="129.2" gradientUnits="userSpaceOnUse">
<stop stop-color="#0092DC"/>
<stop offset="0.2193" stop-color="#009CD4"/>
<stop offset="0.5944" stop-color="#00B7C0"/>
<stop offset="1" stop-color="#00DCA5"/>
</linearGradient>
<linearGradient id="paint88_linear_4640_308" x1="194.657" y1="110.477" x2="192.755" y2="110.477" gradientUnits="userSpaceOnUse">
<stop stop-color="#0092DC"/>
<stop offset="0.3261" stop-color="#0888E4"/>
<stop offset="0.8825" stop-color="#1F6DFA"/>
<stop offset="1" stop-color="#2466FF"/>
</linearGradient>
<linearGradient id="paint89_linear_4640_308" x1="130.487" y1="18.6303" x2="129.263" y2="18.6303" gradientUnits="userSpaceOnUse">
<stop stop-color="#7F2390"/>
<stop offset="0.2994" stop-color="#982182"/>
<stop offset="0.9341" stop-color="#D91D5F"/>
<stop offset="1" stop-color="#E01C5B"/>
</linearGradient>
<linearGradient id="paint90_linear_4640_308" x1="112.258" y1="71.8434" x2="121.451" y2="89.7503" gradientUnits="userSpaceOnUse">
<stop stop-color="#948BE2"/>
<stop offset="0.3319" stop-color="#8A81DB"/>
<stop offset="0.8981" stop-color="#7066C7"/>
<stop offset="1" stop-color="#6A60C3"/>
</linearGradient>
<linearGradient id="paint91_linear_4640_308" x1="219.793" y1="112.972" x2="218.938" y2="115.883" gradientUnits="userSpaceOnUse">
<stop stop-color="#7E4FFF"/>
<stop offset="1" stop-color="#F211B4"/>
</linearGradient>
<linearGradient id="paint92_linear_4640_308" x1="103.588" y1="52.5765" x2="105.351" y2="49.1532" gradientUnits="userSpaceOnUse">
<stop stop-color="#0092DC"/>
<stop offset="0.3261" stop-color="#0888E4"/>
<stop offset="0.8825" stop-color="#1F6DFA"/>
<stop offset="1" stop-color="#2466FF"/>
</linearGradient>
<linearGradient id="paint93_linear_4640_308" x1="185.595" y1="123.305" x2="181.895" y2="124.656" gradientUnits="userSpaceOnUse">
<stop stop-color="#948BE2"/>
<stop offset="0.3319" stop-color="#8A81DB"/>
<stop offset="0.8981" stop-color="#7066C7"/>
<stop offset="1" stop-color="#6A60C3"/>
</linearGradient>
<linearGradient id="paint94_linear_4640_308" x1="160.754" y1="49.3266" x2="158.554" y2="46.0588" gradientUnits="userSpaceOnUse">
<stop stop-color="#948BE2"/>
<stop offset="0.3319" stop-color="#8A81DB"/>
<stop offset="0.8981" stop-color="#7066C7"/>
<stop offset="1" stop-color="#6A60C3"/>
</linearGradient>
<linearGradient id="paint95_linear_4640_308" x1="152.17" y1="115.163" x2="152.595" y2="118.048" gradientUnits="userSpaceOnUse">
<stop stop-color="#7E4FFF"/>
<stop offset="1" stop-color="#F211B4"/>
</linearGradient>
<linearGradient id="paint96_linear_4640_308" x1="148.725" y1="75.8473" x2="146.634" y2="75.1916" gradientUnits="userSpaceOnUse">
<stop stop-color="#61D3D7"/>
<stop offset="0.2216" stop-color="#57CFD7"/>
<stop offset="0.6006" stop-color="#3CC6D5"/>
<stop offset="1" stop-color="#18B9D4"/>
</linearGradient>
<linearGradient id="paint97_linear_4640_308" x1="228.839" y1="65.8032" x2="228.511" y2="69.7286" gradientUnits="userSpaceOnUse">
<stop stop-color="#7F2390"/>
<stop offset="0.2994" stop-color="#982182"/>
<stop offset="0.9341" stop-color="#D91D5F"/>
<stop offset="1" stop-color="#E01C5B"/>
</linearGradient>
<linearGradient id="paint98_linear_4640_308" x1="38.4815" y1="92.5364" x2="39.0243" y2="96.4382" gradientUnits="userSpaceOnUse">
<stop stop-color="#61D3D7"/>
<stop offset="0.2216" stop-color="#57CFD7"/>
<stop offset="0.6006" stop-color="#3CC6D5"/>
<stop offset="1" stop-color="#18B9D4"/>
</linearGradient>
<linearGradient id="paint99_linear_4640_308" x1="59.783" y1="54.0301" x2="57.7195" y2="56.3224" gradientUnits="userSpaceOnUse">
<stop stop-color="#0092DC"/>
<stop offset="0.3261" stop-color="#0888E4"/>
<stop offset="0.8825" stop-color="#1F6DFA"/>
<stop offset="1" stop-color="#2466FF"/>
</linearGradient>
<linearGradient id="paint100_linear_4640_308" x1="257.7" y1="69.9473" x2="259.807" y2="72.199" gradientUnits="userSpaceOnUse">
<stop stop-color="#0092DC"/>
<stop offset="0.2193" stop-color="#009CD4"/>
<stop offset="0.5944" stop-color="#00B7C0"/>
<stop offset="1" stop-color="#00DCA5"/>
</linearGradient>
<linearGradient id="paint101_linear_4640_308" x1="170.487" y1="89.0128" x2="169.558" y2="89.0128" gradientUnits="userSpaceOnUse">
<stop stop-color="#0092DC"/>
<stop offset="0.3261" stop-color="#0888E4"/>
<stop offset="0.8825" stop-color="#1F6DFA"/>
<stop offset="1" stop-color="#2466FF"/>
</linearGradient>
<linearGradient id="paint102_linear_4640_308" x1="167.026" y1="124.612" x2="165.713" y2="124.612" gradientUnits="userSpaceOnUse">
<stop stop-color="#0092DC"/>
<stop offset="0.3261" stop-color="#0888E4"/>
<stop offset="0.8825" stop-color="#1F6DFA"/>
<stop offset="1" stop-color="#2466FF"/>
</linearGradient>
<linearGradient id="paint103_linear_4640_308" x1="162.69" y1="111.865" x2="162.177" y2="111.865" gradientUnits="userSpaceOnUse">
<stop stop-color="#0092DC"/>
<stop offset="0.3261" stop-color="#0888E4"/>
<stop offset="0.8825" stop-color="#1F6DFA"/>
<stop offset="1" stop-color="#2466FF"/>
</linearGradient>
<linearGradient id="paint104_linear_4640_308" x1="103.325" y1="118.95" x2="102.118" y2="118.95" gradientUnits="userSpaceOnUse">
<stop stop-color="#0092DC"/>
<stop offset="0.2193" stop-color="#009CD4"/>
<stop offset="0.5944" stop-color="#00B7C0"/>
<stop offset="1" stop-color="#00DCA5"/>
</linearGradient>
<linearGradient id="paint105_linear_4640_308" x1="3.61309" y1="155.967" x2="132.269" y2="116.998" gradientUnits="userSpaceOnUse">
<stop stop-color="#7E4FFF"/>
<stop offset="1" stop-color="#F211B4"/>
</linearGradient>
<linearGradient id="paint106_linear_4640_308" x1="206.289" y1="79.5017" x2="324.926" y2="66.2748" gradientUnits="userSpaceOnUse">
<stop stop-color="#61D3D7"/>
<stop offset="0.2216" stop-color="#57CFD7"/>
<stop offset="0.6006" stop-color="#3CC6D5"/>
<stop offset="1" stop-color="#18B9D4"/>
</linearGradient>
<linearGradient id="paint107_linear_4640_308" x1="59.8186" y1="32.1739" x2="140.523" y2="32.1739" gradientUnits="userSpaceOnUse">
<stop stop-color="#E55724"/>
<stop offset="0.2438" stop-color="#E9701D"/>
<stop offset="0.7602" stop-color="#F2B109"/>
<stop offset="1" stop-color="#F7D100"/>
</linearGradient>
<linearGradient id="paint108_linear_4640_308" x1="188.33" y1="144.28" x2="269.634" y2="144.28" gradientUnits="userSpaceOnUse">
<stop stop-color="#948BE2"/>
<stop offset="0.3319" stop-color="#8A81DB"/>
<stop offset="0.8981" stop-color="#7066C7"/>
<stop offset="1" stop-color="#6A60C3"/>
</linearGradient>
<linearGradient id="paint109_linear_4640_308" x1="175.55" y1="32.174" x2="234.64" y2="32.174" gradientUnits="userSpaceOnUse">
<stop stop-color="#7E4FFF"/>
<stop offset="1" stop-color="#F211B4"/>
</linearGradient>
</defs>
</svg>
