<svg width="25" height="25" viewBox="0 0 25 25" fill="none" xmlns="http://www.w3.org/2000/svg">
<rect width="25" height="25" rx="2" fill="#40AEE3"/>
<path d="M13.5625 9.47656C13.2969 9.15885 12.9167 9 12.4219 9C11.7448 9 11.2839 9.2526 11.0391 9.75781C10.8984 10.0495 10.8151 10.513 10.7891 11.1484H8.625C8.66146 10.1849 8.83594 9.40625 9.14844 8.8125C9.74219 7.68229 10.7969 7.11719 12.3125 7.11719C13.5104 7.11719 14.4635 7.45052 15.1719 8.11719C15.8802 8.77865 16.2344 9.65625 16.2344 10.75C16.2344 11.5885 15.9844 12.3333 15.4844 12.9844C15.1562 13.4167 14.6172 13.8984 13.8672 14.4297L12.9766 15.0625C12.4193 15.4583 12.0365 15.7448 11.8281 15.9219C11.625 16.099 11.4531 16.3047 11.3125 16.5391H16.2578V18.5H8.5C8.52083 17.6875 8.69531 16.9453 9.02344 16.2734C9.34115 15.5182 10.0911 14.7188 11.2734 13.875C12.2995 13.1406 12.9635 12.6146 13.2656 12.2969C13.7292 11.8021 13.9609 11.2604 13.9609 10.6719C13.9609 10.1927 13.8281 9.79427 13.5625 9.47656Z" fill="white"/>
</svg>
