<svg width="25" height="25" viewBox="0 0 25 25" fill="none" xmlns="http://www.w3.org/2000/svg">
<rect width="25" height="25" rx="2" fill="#40AEE3"/>
<path d="M11.0625 9.42969C10.8125 9.76302 10.6927 10.2083 10.7031 10.7656H8.625C8.64583 10.2031 8.74219 9.66927 8.91406 9.16406C9.09635 8.72135 9.38281 8.3125 9.77344 7.9375C10.0651 7.67188 10.4115 7.46875 10.8125 7.32812C11.2135 7.1875 11.7057 7.11719 12.2891 7.11719C13.3724 7.11719 14.2448 7.39844 14.9062 7.96094C15.5729 8.51823 15.9062 9.26823 15.9062 10.2109C15.9062 10.8776 15.7083 11.4401 15.3125 11.8984C15.0625 12.1849 14.8021 12.3802 14.5312 12.4844C14.7344 12.4844 15.026 12.6589 15.4062 13.0078C15.974 13.5339 16.2578 14.2526 16.2578 15.1641C16.2578 16.1224 15.9245 16.9661 15.2578 17.6953C14.5964 18.4193 13.6146 18.7812 12.3125 18.7812C10.7083 18.7812 9.59375 18.2578 8.96875 17.2109C8.64062 16.6536 8.45833 15.9245 8.42188 15.0234H10.6094C10.6094 15.4766 10.6823 15.8516 10.8281 16.1484C11.099 16.6953 11.5911 16.9688 12.3047 16.9688C12.7422 16.9688 13.1224 16.8203 13.4453 16.5234C13.7734 16.2214 13.9375 15.7891 13.9375 15.2266C13.9375 14.4818 13.6354 13.9844 13.0312 13.7344C12.6875 13.5938 12.1458 13.5234 11.4062 13.5234V11.9297C12.1302 11.9193 12.6354 11.849 12.9219 11.7188C13.4167 11.5 13.6641 11.0573 13.6641 10.3906C13.6641 9.95833 13.5365 9.60677 13.2812 9.33594C13.0312 9.0651 12.6771 8.92969 12.2188 8.92969C11.6927 8.92969 11.3073 9.09635 11.0625 9.42969Z" fill="white"/>
</svg>
