<svg width="21" height="20" viewBox="0 0 21 20" fill="none" xmlns="http://www.w3.org/2000/svg">
<path d="M18.8337 13.4917C18.8337 16.525 17.0253 18.3333 13.992 18.3333H13.0003C12.542 18.3333 12.167 17.9583 12.167 17.5V12.6917C12.167 12.4667 12.3503 12.275 12.5753 12.275L14.042 12.25C14.1587 12.2417 14.2587 12.1583 14.2837 12.0417L14.5753 10.45C14.6003 10.3 14.4837 10.1583 14.3253 10.1583L12.5503 10.1833C12.317 10.1833 12.1337 10 12.1253 9.775L12.092 7.73333C12.092 7.6 12.2003 7.48334 12.342 7.48334L14.342 7.45C14.4837 7.45 14.592 7.34168 14.592 7.20001L14.5587 5.19999C14.5587 5.05833 14.4503 4.95 14.3087 4.95L12.0587 4.98334C10.6753 5.00834 9.57533 6.14167 9.60033 7.525L9.64199 9.81667C9.65033 10.05 9.46699 10.2333 9.23366 10.2417L8.23366 10.2583C8.09199 10.2583 7.98367 10.3667 7.98367 10.5083L8.00867 12.0917C8.00867 12.2333 8.11699 12.3417 8.25866 12.3417L9.25866 12.325C9.49199 12.325 9.67533 12.5083 9.68366 12.7333L9.75866 17.4833C9.76699 17.95 9.39199 18.3333 8.92532 18.3333H7.00866C3.97533 18.3333 2.16699 16.525 2.16699 13.4833V6.50833C2.16699 3.475 3.97533 1.66667 7.00866 1.66667H13.992C17.0253 1.66667 18.8337 3.475 18.8337 6.50833V13.4917Z" fill="#0091D7"/>
</svg>
