<svg width="390" height="20" viewBox="0 0 390 20" fill="none" xmlns="http://www.w3.org/2000/svg">
<rect width="20" height="20" rx="10" fill="#5A97CC"/>
<path d="M6 10.2143L9.85714 13.2143L15 6.78571" stroke="white" stroke-width="2" />
<rect x="30.5" y="9" width="52.5" height="2" rx="1" fill="#5A97CC" />
<rect x="93" width="20" height="20" rx="10" fill="#5A97CC" />
<path
d="M103.672 7.23242C103.473 6.99414 103.188 6.875 102.816 6.875C102.309 6.875 101.963 7.06445 101.779 7.44336C101.674 7.66211 101.611 8.00977 101.592 8.48633H99.9688C99.9961 7.76367 100.127 7.17969 100.361 6.73438C100.807 5.88672 101.598 5.46289 102.734 5.46289C103.633 5.46289 104.348 5.71289 104.879 6.21289C105.41 6.70898 105.676 7.36719 105.676 8.1875C105.676 8.81641 105.488 9.375 105.113 9.86328C104.867 10.1875 104.463 10.5488 103.9 10.9473L103.232 11.4219C102.814 11.7188 102.527 11.9336 102.371 12.0664C102.219 12.1992 102.09 12.3535 101.984 12.5293H105.693V14H99.875C99.8906 13.3906 100.021 12.834 100.268 12.3301C100.506 11.7637 101.068 11.1641 101.955 10.5312C102.725 9.98047 103.223 9.58594 103.449 9.34766C103.797 8.97656 103.971 8.57031 103.971 8.12891C103.971 7.76953 103.871 7.4707 103.672 7.23242Z"
fill="white" />
<rect x="123" y="9" width="52.5" height="2" rx="1" fill="#CFE1EF" />
<rect x="185.5" width="20" height="20" rx="10" fill="#CFE1EF" />
<path
d="M194.297 7.19727C194.109 7.44727 194.02 7.78125 194.027 8.19922H192.469C192.484 7.77734 192.557 7.37695 192.686 6.99805C192.822 6.66602 193.037 6.35938 193.33 6.07812C193.549 5.87891 193.809 5.72656 194.109 5.62109C194.41 5.51562 194.779 5.46289 195.217 5.46289C196.029 5.46289 196.684 5.67383 197.18 6.0957C197.68 6.51367 197.93 7.07617 197.93 7.7832C197.93 8.2832 197.781 8.70508 197.484 9.04883C197.297 9.26367 197.102 9.41016 196.898 9.48828C197.051 9.48828 197.27 9.61914 197.555 9.88086C197.98 10.2754 198.193 10.8145 198.193 11.498C198.193 12.2168 197.943 12.8496 197.443 13.3965C196.947 13.9395 196.211 14.2109 195.234 14.2109C194.031 14.2109 193.195 13.8184 192.727 13.0332C192.48 12.6152 192.344 12.0684 192.316 11.3926H193.957C193.957 11.7324 194.012 12.0137 194.121 12.2363C194.324 12.6465 194.693 12.8516 195.229 12.8516C195.557 12.8516 195.842 12.7402 196.084 12.5176C196.33 12.291 196.453 11.9668 196.453 11.5449C196.453 10.9863 196.227 10.6133 195.773 10.4258C195.516 10.3203 195.109 10.2676 194.555 10.2676V9.07227C195.098 9.06445 195.477 9.01172 195.691 8.91406C196.062 8.75 196.248 8.41797 196.248 7.91797C196.248 7.59375 196.152 7.33008 195.961 7.12695C195.773 6.92383 195.508 6.82227 195.164 6.82227C194.77 6.82227 194.48 6.94727 194.297 7.19727Z"
fill="white" />
<rect x="215.5" y="9" width="52.5" height="2" rx="1" fill="#CFE1EF" />
<rect x="278" width="20" height="20" rx="10" fill="#CFE1EF" />
<path
d="M290.775 10.8652V12.1719H289.814V14H288.18V12.1719H284.816V10.7129L287.939 5.55664H289.814V10.8652H290.775ZM286.053 10.8652H288.18V7.19727L286.053 10.8652Z"
fill="white" />
<rect x="308" y="9" width="52.5" height="2" rx="1" fill="#CFE1EF" />
<rect x="370.5" width="20" height="20" rx="10" fill="#CFE1EF" />
<path
d="M380.199 9.78125C379.996 9.78125 379.82 9.80664 379.672 9.85742C379.41 9.95117 379.213 10.125 379.08 10.3789L377.58 10.3086L378.178 5.61523H382.859V7.0332H379.385L379.08 8.89062C379.338 8.72266 379.539 8.61133 379.684 8.55664C379.926 8.4668 380.221 8.42188 380.568 8.42188C381.271 8.42188 381.885 8.6582 382.408 9.13086C382.932 9.60352 383.193 10.291 383.193 11.1934C383.193 11.9785 382.941 12.6797 382.438 13.2969C381.934 13.9141 381.18 14.2227 380.176 14.2227C379.367 14.2227 378.703 14.0059 378.184 13.5723C377.664 13.1387 377.375 12.5234 377.316 11.7266H378.98C379.047 12.0898 379.174 12.3711 379.361 12.5703C379.549 12.7656 379.822 12.8633 380.182 12.8633C380.596 12.8633 380.91 12.7188 381.125 12.4297C381.344 12.1367 381.453 11.7695 381.453 11.3281C381.453 10.8945 381.352 10.5293 381.148 10.2324C380.945 9.93164 380.629 9.78125 380.199 9.78125Z"
fill="white" />
</svg>
