<svg width="390" height="20" viewBox="0 0 390 20" fill="none" xmlns="http://www.w3.org/2000/svg">
<rect width="20" height="20" rx="10" fill="#5A97CC"/>
<path d="M5.5 10.2143L9.35714 13.2143L14.5 6.78571" stroke="white" stroke-width="2"/>
<rect x="30" y="9" width="52.5" height="2" rx="1" fill="#5A97CC"/>
<rect x="92.5" width="20" height="20" rx="10" fill="#5A97CC"/>
<path d="M98 10.2143L101.857 13.2143L107 6.78571" stroke="white" stroke-width="2"/>
<rect x="122.5" y="9" width="52.5" height="2" rx="1" fill="#5A97CC"/>
<rect x="185" width="20" height="20" rx="10" fill="#5A97CC"/>
<path d="M190.5 10.2143L194.357 13.2143L199.5 6.78571" stroke="white" stroke-width="2"/>
<rect x="215" y="9" width="52.5" height="2" rx="1" fill="#5A97CC"/>
<rect x="277.5" width="20" height="20" rx="10" fill="#5A97CC"/>
<path d="M283 10.2143L286.857 13.2143L292 6.78571" stroke="white" stroke-width="2"/>
<rect x="307.5" y="9" width="52.5" height="2" rx="1" fill="#5A97CC"/>
<rect x="370" width="20" height="20" rx="10" fill="#5A97CC"/>
<path d="M379.699 9.78125C379.496 9.78125 379.32 9.80664 379.172 9.85742C378.91 9.95117 378.713 10.125 378.58 10.3789L377.08 10.3086L377.678 5.61523H382.359V7.0332H378.885L378.58 8.89062C378.838 8.72266 379.039 8.61133 379.184 8.55664C379.426 8.4668 379.721 8.42188 380.068 8.42188C380.771 8.42188 381.385 8.6582 381.908 9.13086C382.432 9.60352 382.693 10.291 382.693 11.1934C382.693 11.9785 382.441 12.6797 381.938 13.2969C381.434 13.9141 380.68 14.2227 379.676 14.2227C378.867 14.2227 378.203 14.0059 377.684 13.5723C377.164 13.1387 376.875 12.5234 376.816 11.7266H378.48C378.547 12.0898 378.674 12.3711 378.861 12.5703C379.049 12.7656 379.322 12.8633 379.682 12.8633C380.096 12.8633 380.41 12.7188 380.625 12.4297C380.844 12.1367 380.953 11.7695 380.953 11.3281C380.953 10.8945 380.852 10.5293 380.648 10.2324C380.445 9.93164 380.129 9.78125 379.699 9.78125Z" fill="white"/>
</svg>


