<svg width="390" height="20" viewBox="0 0 390 20" fill="none" xmlns="http://www.w3.org/2000/svg">
<rect width="20" height="20" rx="10" fill="#5A97CC"/>
<path d="M11.041 14H9.33008V8.14062H7.33203V7.00391C7.85938 6.98047 8.22852 6.94531 8.43945 6.89844C8.77539 6.82422 9.04883 6.67578 9.25977 6.45312C9.4043 6.30078 9.51367 6.09766 9.58789 5.84375C9.63086 5.69141 9.65234 5.57812 9.65234 5.50391H11.041V14Z" fill="white"/>
<rect x="30" y="9" width="52.5" height="2" rx="1" fill="#CFE1EF"/>
<rect x="92.5" width="20" height="20" rx="10" fill="#CFE1EF"/>
<path d="M103.172 7.23242C102.973 6.99414 102.688 6.875 102.316 6.875C101.809 6.875 101.463 7.06445 101.279 7.44336C101.174 7.66211 101.111 8.00977 101.092 8.48633H99.4688C99.4961 7.76367 99.627 7.17969 99.8613 6.73438C100.307 5.88672 101.098 5.46289 102.234 5.46289C103.133 5.46289 103.848 5.71289 104.379 6.21289C104.91 6.70898 105.176 7.36719 105.176 8.1875C105.176 8.81641 104.988 9.375 104.613 9.86328C104.367 10.1875 103.963 10.5488 103.4 10.9473L102.732 11.4219C102.314 11.7188 102.027 11.9336 101.871 12.0664C101.719 12.1992 101.59 12.3535 101.484 12.5293H105.193V14H99.375C99.3906 13.3906 99.5215 12.834 99.7676 12.3301C100.006 11.7637 100.568 11.1641 101.455 10.5312C102.225 9.98047 102.723 9.58594 102.949 9.34766C103.297 8.97656 103.471 8.57031 103.471 8.12891C103.471 7.76953 103.371 7.4707 103.172 7.23242Z" fill="white"/>
<rect x="122.5" y="9" width="52.5" height="2" rx="1" fill="#CFE1EF"/>
<rect x="185" width="20" height="20" rx="10" fill="#CFE1EF"/>
<path d="M193.797 7.19727C193.609 7.44727 193.52 7.78125 193.527 8.19922H191.969C191.984 7.77734 192.057 7.37695 192.186 6.99805C192.322 6.66602 192.537 6.35938 192.83 6.07812C193.049 5.87891 193.309 5.72656 193.609 5.62109C193.91 5.51562 194.279 5.46289 194.717 5.46289C195.529 5.46289 196.184 5.67383 196.68 6.0957C197.18 6.51367 197.43 7.07617 197.43 7.7832C197.43 8.2832 197.281 8.70508 196.984 9.04883C196.797 9.26367 196.602 9.41016 196.398 9.48828C196.551 9.48828 196.77 9.61914 197.055 9.88086C197.48 10.2754 197.693 10.8145 197.693 11.498C197.693 12.2168 197.443 12.8496 196.943 13.3965C196.447 13.9395 195.711 14.2109 194.734 14.2109C193.531 14.2109 192.695 13.8184 192.227 13.0332C191.98 12.6152 191.844 12.0684 191.816 11.3926H193.457C193.457 11.7324 193.512 12.0137 193.621 12.2363C193.824 12.6465 194.193 12.8516 194.729 12.8516C195.057 12.8516 195.342 12.7402 195.584 12.5176C195.83 12.291 195.953 11.9668 195.953 11.5449C195.953 10.9863 195.727 10.6133 195.273 10.4258C195.016 10.3203 194.609 10.2676 194.055 10.2676V9.07227C194.598 9.06445 194.977 9.01172 195.191 8.91406C195.562 8.75 195.748 8.41797 195.748 7.91797C195.748 7.59375 195.652 7.33008 195.461 7.12695C195.273 6.92383 195.008 6.82227 194.664 6.82227C194.27 6.82227 193.98 6.94727 193.797 7.19727Z" fill="white"/>
<rect x="215" y="9" width="52.5" height="2" rx="1" fill="#CFE1EF"/>
<rect x="277.5" width="20" height="20" rx="10" fill="#CFE1EF"/>
<path d="M290.275 10.8652V12.1719H289.314V14H287.68V12.1719H284.316V10.7129L287.439 5.55664H289.314V10.8652H290.275ZM285.553 10.8652H287.68V7.19727L285.553 10.8652Z" fill="white"/>
<rect x="307.5" y="9" width="52.5" height="2" rx="1" fill="#CFE1EF"/>
<rect x="370" width="20" height="20" rx="10" fill="#CFE1EF"/>
<path d="M379.699 9.78125C379.496 9.78125 379.32 9.80664 379.172 9.85742C378.91 9.95117 378.713 10.125 378.58 10.3789L377.08 10.3086L377.678 5.61523H382.359V7.0332H378.885L378.58 8.89062C378.838 8.72266 379.039 8.61133 379.184 8.55664C379.426 8.4668 379.721 8.42188 380.068 8.42188C380.771 8.42188 381.385 8.6582 381.908 9.13086C382.432 9.60352 382.693 10.291 382.693 11.1934C382.693 11.9785 382.441 12.6797 381.938 13.2969C381.434 13.9141 380.68 14.2227 379.676 14.2227C378.867 14.2227 378.203 14.0059 377.684 13.5723C377.164 13.1387 376.875 12.5234 376.816 11.7266H378.48C378.547 12.0898 378.674 12.3711 378.861 12.5703C379.049 12.7656 379.322 12.8633 379.682 12.8633C380.096 12.8633 380.41 12.7188 380.625 12.4297C380.844 12.1367 380.953 11.7695 380.953 11.3281C380.953 10.8945 380.852 10.5293 380.648 10.2324C380.445 9.93164 380.129 9.78125 379.699 9.78125Z" fill="white"/>
</svg>


