<svg xmlns="http://www.w3.org/2000/svg" xmlns:xlink="http://www.w3.org/1999/xlink" width="325" height="20" viewBox="0 0 330 20" fill="none">
	<symbol id="image1" viewBox="32 32 330 20">
		<rect x="32" y="32" width="20" height="20" rx="10" fill="#5A97CC" />
		<path
			d="M43.041 46H41.3301V40.1406H39.332V39.0039C39.8594 38.9805 40.2285 38.9453 40.4395 38.8984C40.7754 38.8242 41.0488 38.6758 41.2598 38.4531C41.4043 38.3008 41.5137 38.0977 41.5879 37.8438C41.6309 37.6914 41.6523 37.5781 41.6523 37.5039H43.041V46Z"
			fill="white" />
		<rect x="62" y="41" width="36.5" height="2" rx="1" fill="#CFE1EF" />
		<rect x="108.5" y="32" width="20" height="20" rx="10" fill="#CFE1EF" />
		<path
			d="M119.172 39.2324C118.973 38.9941 118.688 38.875 118.316 38.875C117.809 38.875 117.463 39.0645 117.279 39.4434C117.174 39.6621 117.111 40.0098 117.092 40.4863H115.469C115.496 39.7637 115.627 39.1797 115.861 38.7344C116.307 37.8867 117.098 37.4629 118.234 37.4629C119.133 37.4629 119.848 37.7129 120.379 38.2129C120.91 38.709 121.176 39.3672 121.176 40.1875C121.176 40.8164 120.988 41.375 120.613 41.8633C120.367 42.1875 119.963 42.5488 119.4 42.9473L118.732 43.4219C118.314 43.7188 118.027 43.9336 117.871 44.0664C117.719 44.1992 117.59 44.3535 117.484 44.5293H121.193V46H115.375C115.391 45.3906 115.521 44.834 115.768 44.3301C116.006 43.7637 116.568 43.1641 117.455 42.5312C118.225 41.9805 118.723 41.5859 118.949 41.3477C119.297 40.9766 119.471 40.5703 119.471 40.1289C119.471 39.7695 119.371 39.4707 119.172 39.2324Z"
			fill="white" />
		<rect x="138.5" y="41" width="36.5" height="2" rx="1" fill="#CFE1EF" />
		<rect x="185" y="32" width="20" height="20" rx="10" fill="#CFE1EF" />
		<path
			d="M193.797 39.1973C193.609 39.4473 193.52 39.7812 193.527 40.1992H191.969C191.984 39.7773 192.057 39.377 192.186 38.998C192.322 38.666 192.537 38.3594 192.83 38.0781C193.049 37.8789 193.309 37.7266 193.609 37.6211C193.91 37.5156 194.279 37.4629 194.717 37.4629C195.529 37.4629 196.184 37.6738 196.68 38.0957C197.18 38.5137 197.43 39.0762 197.43 39.7832C197.43 40.2832 197.281 40.7051 196.984 41.0488C196.797 41.2637 196.602 41.4102 196.398 41.4883C196.551 41.4883 196.77 41.6191 197.055 41.8809C197.48 42.2754 197.693 42.8145 197.693 43.498C197.693 44.2168 197.443 44.8496 196.943 45.3965C196.447 45.9395 195.711 46.2109 194.734 46.2109C193.531 46.2109 192.695 45.8184 192.227 45.0332C191.98 44.6152 191.844 44.0684 191.816 43.3926H193.457C193.457 43.7324 193.512 44.0137 193.621 44.2363C193.824 44.6465 194.193 44.8516 194.729 44.8516C195.057 44.8516 195.342 44.7402 195.584 44.5176C195.83 44.291 195.953 43.9668 195.953 43.5449C195.953 42.9863 195.727 42.6133 195.273 42.4258C195.016 42.3203 194.609 42.2676 194.055 42.2676V41.0723C194.598 41.0645 194.977 41.0117 195.191 40.9141C195.562 40.75 195.748 40.418 195.748 39.918C195.748 39.5938 195.652 39.3301 195.461 39.127C195.273 38.9238 195.008 38.8223 194.664 38.8223C194.27 38.8223 193.98 38.9473 193.797 39.1973Z"
			fill="white" />
		<rect x="215" y="41" width="36.5" height="2" rx="1" fill="#CFE1EF" />
		<rect x="261.5" y="32" width="20" height="20" rx="10" fill="#CFE1EF" />
		<path
			d="M274.275 42.8652V44.1719H273.314V46H271.68V44.1719H268.316V42.7129L271.439 37.5566H273.314V42.8652H274.275ZM269.553 42.8652H271.68V39.1973L269.553 42.8652Z"
			fill="white" />
		<rect x="291.5" y="41" width="36.5" height="2" rx="1" fill="#CFE1EF" />
		<rect x="338" y="32" width="20" height="20" rx="10" fill="#CFE1EF" />
		<path
			d="M347.699 41.7812C347.496 41.7812 347.32 41.8066 347.172 41.8574C346.91 41.9512 346.713 42.125 346.58 42.3789L345.08 42.3086L345.678 37.6152H350.359V39.0332H346.885L346.58 40.8906C346.838 40.7227 347.039 40.6113 347.184 40.5566C347.426 40.4668 347.721 40.4219 348.068 40.4219C348.771 40.4219 349.385 40.6582 349.908 41.1309C350.432 41.6035 350.693 42.291 350.693 43.1934C350.693 43.9785 350.441 44.6797 349.938 45.2969C349.434 45.9141 348.68 46.2227 347.676 46.2227C346.867 46.2227 346.203 46.0059 345.684 45.5723C345.164 45.1387 344.875 44.5234 344.816 43.7266H346.48C346.547 44.0898 346.674 44.3711 346.861 44.5703C347.049 44.7656 347.322 44.8633 347.682 44.8633C348.096 44.8633 348.41 44.7188 348.625 44.4297C348.844 44.1367 348.953 43.7695 348.953 43.3281C348.953 42.8945 348.852 42.5293 348.648 42.2324C348.445 41.9316 348.129 41.7812 347.699 41.7812Z"
			fill="white" />
	</symbol>
	<symbol id="image2" viewBox="32 32 330 20">
		<rect x="32" y="32" width="20" height="20" rx="10" fill="#5A97CC" />
		<path d="M37.5 42.2143L41.3571 45.2143L46.5 38.7857" stroke="white" stroke-width="2" />
		<rect x="62" y="41" width="36.5" height="2" rx="1" fill="#5A97CC" />
		<rect x="108.5" y="32" width="20" height="20" rx="10" fill="#5A97CC" />
		<path
			d="M119.172 39.2324C118.973 38.9941 118.688 38.875 118.316 38.875C117.809 38.875 117.463 39.0645 117.279 39.4434C117.174 39.6621 117.111 40.0098 117.092 40.4863H115.469C115.496 39.7637 115.627 39.1797 115.861 38.7344C116.307 37.8867 117.098 37.4629 118.234 37.4629C119.133 37.4629 119.848 37.7129 120.379 38.2129C120.91 38.709 121.176 39.3672 121.176 40.1875C121.176 40.8164 120.988 41.375 120.613 41.8633C120.367 42.1875 119.963 42.5488 119.4 42.9473L118.732 43.4219C118.314 43.7188 118.027 43.9336 117.871 44.0664C117.719 44.1992 117.59 44.3535 117.484 44.5293H121.193V46H115.375C115.391 45.3906 115.521 44.834 115.768 44.3301C116.006 43.7637 116.568 43.1641 117.455 42.5312C118.225 41.9805 118.723 41.5859 118.949 41.3477C119.297 40.9766 119.471 40.5703 119.471 40.1289C119.471 39.7695 119.371 39.4707 119.172 39.2324Z"
			fill="white" />
		<rect x="138.5" y="41" width="36.5" height="2" rx="1" fill="#CFE1EF" />
		<rect x="185" y="32" width="20" height="20" rx="10" fill="#CFE1EF" />
		<path
			d="M193.797 39.1973C193.609 39.4473 193.52 39.7812 193.527 40.1992H191.969C191.984 39.7773 192.057 39.377 192.186 38.998C192.322 38.666 192.537 38.3594 192.83 38.0781C193.049 37.8789 193.309 37.7266 193.609 37.6211C193.91 37.5156 194.279 37.4629 194.717 37.4629C195.529 37.4629 196.184 37.6738 196.68 38.0957C197.18 38.5137 197.43 39.0762 197.43 39.7832C197.43 40.2832 197.281 40.7051 196.984 41.0488C196.797 41.2637 196.602 41.4102 196.398 41.4883C196.551 41.4883 196.77 41.6191 197.055 41.8809C197.48 42.2754 197.693 42.8145 197.693 43.498C197.693 44.2168 197.443 44.8496 196.943 45.3965C196.447 45.9395 195.711 46.2109 194.734 46.2109C193.531 46.2109 192.695 45.8184 192.227 45.0332C191.98 44.6152 191.844 44.0684 191.816 43.3926H193.457C193.457 43.7324 193.512 44.0137 193.621 44.2363C193.824 44.6465 194.193 44.8516 194.729 44.8516C195.057 44.8516 195.342 44.7402 195.584 44.5176C195.83 44.291 195.953 43.9668 195.953 43.5449C195.953 42.9863 195.727 42.6133 195.273 42.4258C195.016 42.3203 194.609 42.2676 194.055 42.2676V41.0723C194.598 41.0645 194.977 41.0117 195.191 40.9141C195.562 40.75 195.748 40.418 195.748 39.918C195.748 39.5938 195.652 39.3301 195.461 39.127C195.273 38.9238 195.008 38.8223 194.664 38.8223C194.27 38.8223 193.98 38.9473 193.797 39.1973Z"
			fill="white" />
		<rect x="215" y="41" width="36.5" height="2" rx="1" fill="#CFE1EF" />
		<rect x="261.5" y="32" width="20" height="20" rx="10" fill="#CFE1EF" />
		<path
			d="M274.275 42.8652V44.1719H273.314V46H271.68V44.1719H268.316V42.7129L271.439 37.5566H273.314V42.8652H274.275ZM269.553 42.8652H271.68V39.1973L269.553 42.8652Z"
			fill="white" />
		<rect x="291.5" y="41" width="36.5" height="2" rx="1" fill="#CFE1EF" />
		<rect x="338" y="32" width="20" height="20" rx="10" fill="#CFE1EF" />
		<path
			d="M347.699 41.7812C347.496 41.7812 347.32 41.8066 347.172 41.8574C346.91 41.9512 346.713 42.125 346.58 42.3789L345.08 42.3086L345.678 37.6152H350.359V39.0332H346.885L346.58 40.8906C346.838 40.7227 347.039 40.6113 347.184 40.5566C347.426 40.4668 347.721 40.4219 348.068 40.4219C348.771 40.4219 349.385 40.6582 349.908 41.1309C350.432 41.6035 350.693 42.291 350.693 43.1934C350.693 43.9785 350.441 44.6797 349.938 45.2969C349.434 45.9141 348.68 46.2227 347.676 46.2227C346.867 46.2227 346.203 46.0059 345.684 45.5723C345.164 45.1387 344.875 44.5234 344.816 43.7266H346.48C346.547 44.0898 346.674 44.3711 346.861 44.5703C347.049 44.7656 347.322 44.8633 347.682 44.8633C348.096 44.8633 348.41 44.7188 348.625 44.4297C348.844 44.1367 348.953 43.7695 348.953 43.3281C348.953 42.8945 348.852 42.5293 348.648 42.2324C348.445 41.9316 348.129 41.7812 347.699 41.7812Z"
			fill="white" />
	</symbol>
	<symbol id="image3_1" viewBox="32 32 330 20">
		<rect x="32" y="32" width="20" height="20" rx="10" fill="#5A97CC" />
		<path d="M37.5 42.2143L41.3571 45.2143L46.5 38.7857" stroke="white" stroke-width="2" />
		<rect x="62" y="41" width="36.5" height="2" rx="1" fill="#5A97CC" />
		<rect x="108.5" y="32" width="20" height="20" rx="10" fill="#5A97CC" />
		<path d="M114 42.2143L117.857 45.2143L123 38.7857" stroke="white" stroke-width="2" />
		<rect x="138.5" y="41" width="36.5" height="2" rx="1" fill="#5A97CC" />
		<rect x="185" y="32" width="20" height="20" rx="10" fill="#5A97CC" />
		<path
			d="M193.797 39.1973C193.609 39.4473 193.52 39.7812 193.527 40.1992H191.969C191.984 39.7773 192.057 39.377 192.186 38.998C192.322 38.666 192.537 38.3594 192.83 38.0781C193.049 37.8789 193.309 37.7266 193.609 37.6211C193.91 37.5156 194.279 37.4629 194.717 37.4629C195.529 37.4629 196.184 37.6738 196.68 38.0957C197.18 38.5137 197.43 39.0762 197.43 39.7832C197.43 40.2832 197.281 40.7051 196.984 41.0488C196.797 41.2637 196.602 41.4102 196.398 41.4883C196.551 41.4883 196.77 41.6191 197.055 41.8809C197.48 42.2754 197.693 42.8145 197.693 43.498C197.693 44.2168 197.443 44.8496 196.943 45.3965C196.447 45.9395 195.711 46.2109 194.734 46.2109C193.531 46.2109 192.695 45.8184 192.227 45.0332C191.98 44.6152 191.844 44.0684 191.816 43.3926H193.457C193.457 43.7324 193.512 44.0137 193.621 44.2363C193.824 44.6465 194.193 44.8516 194.729 44.8516C195.057 44.8516 195.342 44.7402 195.584 44.5176C195.83 44.291 195.953 43.9668 195.953 43.5449C195.953 42.9863 195.727 42.6133 195.273 42.4258C195.016 42.3203 194.609 42.2676 194.055 42.2676V41.0723C194.598 41.0645 194.977 41.0117 195.191 40.9141C195.562 40.75 195.748 40.418 195.748 39.918C195.748 39.5938 195.652 39.3301 195.461 39.127C195.273 38.9238 195.008 38.8223 194.664 38.8223C194.27 38.8223 193.98 38.9473 193.797 39.1973Z"
			fill="white" />
		<rect x="215" y="41" width="36.5" height="2" rx="1" fill="#CFE1EF" />
		<rect x="261.5" y="32" width="20" height="20" rx="10" fill="#CFE1EF" />
		<path
			d="M274.275 42.8652V44.1719H273.314V46H271.68V44.1719H268.316V42.7129L271.439 37.5566H273.314V42.8652H274.275ZM269.553 42.8652H271.68V39.1973L269.553 42.8652Z"
			fill="white" />
		<rect x="291.5" y="41" width="36.5" height="2" rx="1" fill="#CFE1EF" />
		<rect x="338" y="32" width="20" height="20" rx="10" fill="#CFE1EF" />
		<path
			d="M347.699 41.7812C347.496 41.7812 347.32 41.8066 347.172 41.8574C346.91 41.9512 346.713 42.125 346.58 42.3789L345.08 42.3086L345.678 37.6152H350.359V39.0332H346.885L346.58 40.8906C346.838 40.7227 347.039 40.6113 347.184 40.5566C347.426 40.4668 347.721 40.4219 348.068 40.4219C348.771 40.4219 349.385 40.6582 349.908 41.1309C350.432 41.6035 350.693 42.291 350.693 43.1934C350.693 43.9785 350.441 44.6797 349.938 45.2969C349.434 45.9141 348.68 46.2227 347.676 46.2227C346.867 46.2227 346.203 46.0059 345.684 45.5723C345.164 45.1387 344.875 44.5234 344.816 43.7266H346.48C346.547 44.0898 346.674 44.3711 346.861 44.5703C347.049 44.7656 347.322 44.8633 347.682 44.8633C348.096 44.8633 348.41 44.7188 348.625 44.4297C348.844 44.1367 348.953 43.7695 348.953 43.3281C348.953 42.8945 348.852 42.5293 348.648 42.2324C348.445 41.9316 348.129 41.7812 347.699 41.7812Z"
			fill="white" />
	</symbol>
	<symbol id="image3_2" viewBox="32 32 330 20">
		<rect x="32" y="32" width="20" height="20" rx="10" fill="#5A97CC" />
		<path d="M37.5 42.2143L41.3571 45.2143L46.5 38.7857" stroke="white" stroke-width="2" />
		<rect x="62" y="41" width="36.5" height="2" rx="1" fill="#5A97CC" />
		<rect x="108.5" y="32" width="20" height="20" rx="10" fill="#5A97CC" />
		<path d="M114 42.2143L117.857 45.2143L123 38.7857" stroke="white" stroke-width="2" />
		<rect x="138.5" y="41" width="36.5" height="2" rx="1" fill="#5A97CC" />
		<rect x="185" y="32" width="20" height="20" rx="10" fill="#5A97CC" />
		<path
			d="M193.797 39.1973C193.609 39.4473 193.52 39.7812 193.527 40.1992H191.969C191.984 39.7773 192.057 39.377 192.186 38.998C192.322 38.666 192.537 38.3594 192.83 38.0781C193.049 37.8789 193.309 37.7266 193.609 37.6211C193.91 37.5156 194.279 37.4629 194.717 37.4629C195.529 37.4629 196.184 37.6738 196.68 38.0957C197.18 38.5137 197.43 39.0762 197.43 39.7832C197.43 40.2832 197.281 40.7051 196.984 41.0488C196.797 41.2637 196.602 41.4102 196.398 41.4883C196.551 41.4883 196.77 41.6191 197.055 41.8809C197.48 42.2754 197.693 42.8145 197.693 43.498C197.693 44.2168 197.443 44.8496 196.943 45.3965C196.447 45.9395 195.711 46.2109 194.734 46.2109C193.531 46.2109 192.695 45.8184 192.227 45.0332C191.98 44.6152 191.844 44.0684 191.816 43.3926H193.457C193.457 43.7324 193.512 44.0137 193.621 44.2363C193.824 44.6465 194.193 44.8516 194.729 44.8516C195.057 44.8516 195.342 44.7402 195.584 44.5176C195.83 44.291 195.953 43.9668 195.953 43.5449C195.953 42.9863 195.727 42.6133 195.273 42.4258C195.016 42.3203 194.609 42.2676 194.055 42.2676V41.0723C194.598 41.0645 194.977 41.0117 195.191 40.9141C195.562 40.75 195.748 40.418 195.748 39.918C195.748 39.5938 195.652 39.3301 195.461 39.127C195.273 38.9238 195.008 38.8223 194.664 38.8223C194.27 38.8223 193.98 38.9473 193.797 39.1973Z"
			fill="white" />
		<rect x="215" y="41" width="36.5" height="2" rx="1" fill="#CFE1EF" />
		<rect x="215" y="41" width="12.1667" height="2" fill="#5A97CC" />
		<rect x="261.5" y="32" width="20" height="20" rx="10" fill="#CFE1EF" />
		<path
			d="M274.275 42.8652V44.1719H273.314V46H271.68V44.1719H268.316V42.7129L271.439 37.5566H273.314V42.8652H274.275ZM269.553 42.8652H271.68V39.1973L269.553 42.8652Z"
			fill="white" />
		<rect x="291.5" y="41" width="36.5" height="2" rx="1" fill="#CFE1EF" />
		<rect x="338" y="32" width="20" height="20" rx="10" fill="#CFE1EF" />
		<path
			d="M347.699 41.7812C347.496 41.7812 347.32 41.8066 347.172 41.8574C346.91 41.9512 346.713 42.125 346.58 42.3789L345.08 42.3086L345.678 37.6152H350.359V39.0332H346.885L346.58 40.8906C346.838 40.7227 347.039 40.6113 347.184 40.5566C347.426 40.4668 347.721 40.4219 348.068 40.4219C348.771 40.4219 349.385 40.6582 349.908 41.1309C350.432 41.6035 350.693 42.291 350.693 43.1934C350.693 43.9785 350.441 44.6797 349.938 45.2969C349.434 45.9141 348.68 46.2227 347.676 46.2227C346.867 46.2227 346.203 46.0059 345.684 45.5723C345.164 45.1387 344.875 44.5234 344.816 43.7266H346.48C346.547 44.0898 346.674 44.3711 346.861 44.5703C347.049 44.7656 347.322 44.8633 347.682 44.8633C348.096 44.8633 348.41 44.7188 348.625 44.4297C348.844 44.1367 348.953 43.7695 348.953 43.3281C348.953 42.8945 348.852 42.5293 348.648 42.2324C348.445 41.9316 348.129 41.7812 347.699 41.7812Z"
			fill="white" />
	</symbol>
	<symbol id="image3_3" viewBox="32 32 330 20">
		<rect x="32" y="32" width="20" height="20" rx="10" fill="#5A97CC" />
		<path d="M37.5 42.2143L41.3571 45.2143L46.5 38.7857" stroke="white" stroke-width="2" />
		<rect x="62" y="41" width="36.5" height="2" rx="1" fill="#5A97CC" />
		<rect x="108.5" y="32" width="20" height="20" rx="10" fill="#5A97CC" />
		<path d="M114 42.2143L117.857 45.2143L123 38.7857" stroke="white" stroke-width="2" />
		<rect x="138.5" y="41" width="36.5" height="2" rx="1" fill="#5A97CC" />
		<rect x="185" y="32" width="20" height="20" rx="10" fill="#5A97CC" />
		<path
			d="M193.797 39.1973C193.609 39.4473 193.52 39.7812 193.527 40.1992H191.969C191.984 39.7773 192.057 39.377 192.186 38.998C192.322 38.666 192.537 38.3594 192.83 38.0781C193.049 37.8789 193.309 37.7266 193.609 37.6211C193.91 37.5156 194.279 37.4629 194.717 37.4629C195.529 37.4629 196.184 37.6738 196.68 38.0957C197.18 38.5137 197.43 39.0762 197.43 39.7832C197.43 40.2832 197.281 40.7051 196.984 41.0488C196.797 41.2637 196.602 41.4102 196.398 41.4883C196.551 41.4883 196.77 41.6191 197.055 41.8809C197.48 42.2754 197.693 42.8145 197.693 43.498C197.693 44.2168 197.443 44.8496 196.943 45.3965C196.447 45.9395 195.711 46.2109 194.734 46.2109C193.531 46.2109 192.695 45.8184 192.227 45.0332C191.98 44.6152 191.844 44.0684 191.816 43.3926H193.457C193.457 43.7324 193.512 44.0137 193.621 44.2363C193.824 44.6465 194.193 44.8516 194.729 44.8516C195.057 44.8516 195.342 44.7402 195.584 44.5176C195.83 44.291 195.953 43.9668 195.953 43.5449C195.953 42.9863 195.727 42.6133 195.273 42.4258C195.016 42.3203 194.609 42.2676 194.055 42.2676V41.0723C194.598 41.0645 194.977 41.0117 195.191 40.9141C195.562 40.75 195.748 40.418 195.748 39.918C195.748 39.5938 195.652 39.3301 195.461 39.127C195.273 38.9238 195.008 38.8223 194.664 38.8223C194.27 38.8223 193.98 38.9473 193.797 39.1973Z"
			fill="white" />
		<rect x="215" y="41" width="36.5" height="2" rx="1" fill="#CFE1EF" />
		<rect x="215" y="41" width="24.34" height="2" fill="#5A97CC" />
		<rect x="261.5" y="32" width="20" height="20" rx="10" fill="#CFE1EF" />
		<path
			d="M274.275 42.8652V44.1719H273.314V46H271.68V44.1719H268.316V42.7129L271.439 37.5566H273.314V42.8652H274.275ZM269.553 42.8652H271.68V39.1973L269.553 42.8652Z"
			fill="white" />
		<rect x="291.5" y="41" width="36.5" height="2" rx="1" fill="#CFE1EF" />
		<rect x="338" y="32" width="20" height="20" rx="10" fill="#CFE1EF" />
		<path
			d="M347.699 41.7812C347.496 41.7812 347.32 41.8066 347.172 41.8574C346.91 41.9512 346.713 42.125 346.58 42.3789L345.08 42.3086L345.678 37.6152H350.359V39.0332H346.885L346.58 40.8906C346.838 40.7227 347.039 40.6113 347.184 40.5566C347.426 40.4668 347.721 40.4219 348.068 40.4219C348.771 40.4219 349.385 40.6582 349.908 41.1309C350.432 41.6035 350.693 42.291 350.693 43.1934C350.693 43.9785 350.441 44.6797 349.938 45.2969C349.434 45.9141 348.68 46.2227 347.676 46.2227C346.867 46.2227 346.203 46.0059 345.684 45.5723C345.164 45.1387 344.875 44.5234 344.816 43.7266H346.48C346.547 44.0898 346.674 44.3711 346.861 44.5703C347.049 44.7656 347.322 44.8633 347.682 44.8633C348.096 44.8633 348.41 44.7188 348.625 44.4297C348.844 44.1367 348.953 43.7695 348.953 43.3281C348.953 42.8945 348.852 42.5293 348.648 42.2324C348.445 41.9316 348.129 41.7812 347.699 41.7812Z"
			fill="white" />
	</symbol>
	<symbol id="image4" viewBox="32 32 330 20">
		<rect x="32" y="32" width="20" height="20" rx="10" fill="#5A97CC" />
		<path d="M37.5 42.2143L41.3571 45.2143L46.5 38.7857" stroke="white" stroke-width="2" />
		<rect x="62" y="41" width="36.5" height="2" rx="1" fill="#5A97CC" />
		<rect x="108.5" y="32" width="20" height="20" rx="10" fill="#5A97CC" />
		<path d="M114 42.2143L117.857 45.2143L123 38.7857" stroke="white" stroke-width="2" />
		<rect x="138.5" y="41" width="36.5" height="2" rx="1" fill="#5A97CC" />
		<rect x="185" y="32" width="20" height="20" rx="10" fill="#5A97CC" />
		<path d="M190.5 42.2143L194.357 45.2143L199.5 38.7857" stroke="white" stroke-width="2" />
		<rect x="215" y="41" width="36.5" height="2" rx="1" fill="#5A97CC" />
		<rect x="261.5" y="32" width="20" height="20" rx="10" fill="#5A97CC" />
		<path
			d="M274.275 42.8652V44.1719H273.314V46H271.68V44.1719H268.316V42.7129L271.439 37.5566H273.314V42.8652H274.275ZM269.553 42.8652H271.68V39.1973L269.553 42.8652Z"
			fill="white" />
		<rect x="291.5" y="41" width="36.5" height="2" rx="1" fill="#CFE1EF" />
		<rect x="338" y="32" width="20" height="20" rx="10" fill="#CFE1EF" />
		<path
			d="M347.699 41.7812C347.496 41.7812 347.32 41.8066 347.172 41.8574C346.91 41.9512 346.713 42.125 346.58 42.3789L345.08 42.3086L345.678 37.6152H350.359V39.0332H346.885L346.58 40.8906C346.838 40.7227 347.039 40.6113 347.184 40.5566C347.426 40.4668 347.721 40.4219 348.068 40.4219C348.771 40.4219 349.385 40.6582 349.908 41.1309C350.432 41.6035 350.693 42.291 350.693 43.1934C350.693 43.9785 350.441 44.6797 349.938 45.2969C349.434 45.9141 348.68 46.2227 347.676 46.2227C346.867 46.2227 346.203 46.0059 345.684 45.5723C345.164 45.1387 344.875 44.5234 344.816 43.7266H346.48C346.547 44.0898 346.674 44.3711 346.861 44.5703C347.049 44.7656 347.322 44.8633 347.682 44.8633C348.096 44.8633 348.41 44.7188 348.625 44.4297C348.844 44.1367 348.953 43.7695 348.953 43.3281C348.953 42.8945 348.852 42.5293 348.648 42.2324C348.445 41.9316 348.129 41.7812 347.699 41.7812Z"
			fill="white" />
	</symbol>
	<symbol id="image5" viewBox="32 32 330 20">
		<rect x="32" y="32" width="20" height="20" rx="10" fill="#5A97CC" />
		<path d="M37.5 42.2143L41.3571 45.2143L46.5 38.7857" stroke="white" stroke-width="2" />
		<rect x="62" y="41" width="36.5" height="2" rx="1" fill="#5A97CC" />
		<rect x="108.5" y="32" width="20" height="20" rx="10" fill="#5A97CC" />
		<path d="M114 42.2143L117.857 45.2143L123 38.7857" stroke="white" stroke-width="2" />
		<rect x="138.5" y="41" width="36.5" height="2" rx="1" fill="#5A97CC" />
		<rect x="185" y="32" width="20" height="20" rx="10" fill="#5A97CC" />
		<path d="M190.5 42.2143L194.357 45.2143L199.5 38.7857" stroke="white" stroke-width="2" />
		<rect x="215" y="41" width="36.5" height="2" rx="1" fill="#5A97CC" />
		<rect x="261.5" y="32" width="20" height="20" rx="10" fill="#5A97CC" />
		<path d="M267 42.2143L270.857 45.2143L276 38.7857" stroke="white" stroke-width="2" />
		<rect x="291.5" y="41" width="36.5" height="2" rx="1" fill="#5A97CC" />
		<rect x="338" y="32" width="20" height="20" rx="10" fill="#5A97CC" />
		<path
			d="M347.699 41.7812C347.496 41.7812 347.32 41.8066 347.172 41.8574C346.91 41.9512 346.713 42.125 346.58 42.3789L345.08 42.3086L345.678 37.6152H350.359V39.0332H346.885L346.58 40.8906C346.838 40.7227 347.039 40.6113 347.184 40.5566C347.426 40.4668 347.721 40.4219 348.068 40.4219C348.771 40.4219 349.385 40.6582 349.908 41.1309C350.432 41.6035 350.693 42.291 350.693 43.1934C350.693 43.9785 350.441 44.6797 349.938 45.2969C349.434 45.9141 348.68 46.2227 347.676 46.2227C346.867 46.2227 346.203 46.0059 345.684 45.5723C345.164 45.1387 344.875 44.5234 344.816 43.7266H346.48C346.547 44.0898 346.674 44.3711 346.861 44.5703C347.049 44.7656 347.322 44.8633 347.682 44.8633C348.096 44.8633 348.41 44.7188 348.625 44.4297C348.844 44.1367 348.953 43.7695 348.953 43.3281C348.953 42.8945 348.852 42.5293 348.648 42.2324C348.445 41.9316 348.129 41.7812 347.699 41.7812Z"
			fill="white" />
	</symbol>
<use id="image_use" xlink:href="#image1"></use>
</svg>
