<svg width="20" height="20" viewBox="0 0 20 20" fill="none" xmlns="http://www.w3.org/2000/svg">
<g clip-path="url(#clip0_3687_1100)">
<path d="M9.34504 2.52865C9.29681 1.97848 8.80965 1.56566 8.26894 1.67813C7.17883 1.90489 6.14056 2.34435 5.21494 2.97482C4.01293 3.79354 3.0411 4.90698 2.3924 6.20864C1.7437 7.5103 1.43983 8.95663 1.50986 10.4093C1.57989 11.8619 2.02147 13.2723 2.79237 14.5056C3.56328 15.7388 4.63771 16.7536 5.91289 17.4529C7.18808 18.1522 8.62137 18.5126 10.0757 18.4997C11.5299 18.4867 12.9566 18.1008 14.2191 17.379C15.1914 16.8231 16.0412 16.0822 16.7226 15.2016C17.0606 14.7648 16.9029 14.146 16.4294 13.8617L14.3782 12.6296C13.9047 12.3453 13.2974 12.5103 12.9073 12.9012C12.6497 13.1593 12.3578 13.383 12.0387 13.5655C11.4286 13.9143 10.7393 14.1008 10.0366 14.107C9.33385 14.1133 8.64128 13.9391 8.02511 13.6012C7.40894 13.2633 6.88977 12.773 6.51727 12.1771C6.14478 11.5812 5.9314 10.8997 5.89756 10.1978C5.86373 9.49584 6.01056 8.79698 6.32401 8.16801C6.63746 7.53905 7.10705 7.00104 7.68786 6.60543C7.9917 6.39848 8.32066 6.23412 8.66553 6.11564C9.18785 5.93619 9.60223 5.46249 9.554 4.91231L9.34504 2.52865Z" fill="#40AEE3"/>
<path opacity="0.45" d="M10.738 2.5364C10.7923 1.98679 11.284 1.57941 11.8235 1.69789C12.8058 1.91366 13.7448 2.30267 14.5953 2.84928C15.7272 3.57663 16.6702 4.56225 17.3468 5.7251C18.0234 6.88794 18.4143 8.19479 18.4874 9.53818C18.5424 10.5478 18.4166 11.5563 18.1188 12.517C17.9553 13.0445 17.3581 13.2707 16.8535 13.0463L14.6672 12.0746C14.1625 11.8502 13.9489 11.2582 14.0449 10.7144C14.0993 10.4061 14.1186 10.0916 14.1014 9.77683C14.0661 9.12766 13.8772 8.49614 13.5502 7.93422C13.2233 7.37229 12.7676 6.896 12.2206 6.54452C11.9555 6.3741 11.6725 6.23539 11.3776 6.1304C10.8573 5.94517 10.4482 5.46689 10.5026 4.91728L10.738 2.5364Z" fill="#40AEE3"/>
</g>
<defs>
<clipPath id="clip0_3687_1100">
<rect width="20" height="20" fill="white"/>
</clipPath>
</defs>
</svg>
