<svg width="217" height="36" viewBox="0 0 217 36" fill="none" xmlns="http://www.w3.org/2000/svg">
<rect width="217" height="36" rx="4" fill="#0091D7"/>
<path d="M102.622 23H100.517L96.4016 15.8428V23H94.4397V12.9238H96.6477L100.66 19.958V12.9238H102.622V23ZM110.812 20.8125C110.762 21.2546 110.531 21.7035 110.121 22.1592C109.483 22.8838 108.59 23.2461 107.442 23.2461C106.494 23.2461 105.657 22.9408 104.933 22.3301C104.208 21.7194 103.846 20.7259 103.846 19.3496C103.846 18.0599 104.172 17.071 104.823 16.3828C105.48 15.6947 106.33 15.3506 107.373 15.3506C107.993 15.3506 108.551 15.4668 109.048 15.6992C109.545 15.9316 109.955 16.2985 110.279 16.7998C110.57 17.2419 110.759 17.7546 110.846 18.3379C110.896 18.6797 110.917 19.1719 110.907 19.8145H105.808C105.835 20.5618 106.07 21.0859 106.512 21.3867C106.781 21.5736 107.104 21.667 107.483 21.667C107.884 21.667 108.21 21.5531 108.46 21.3252C108.597 21.2021 108.718 21.0312 108.823 20.8125H110.812ZM108.884 18.5293C108.852 18.0143 108.695 17.6247 108.412 17.3604C108.134 17.0915 107.788 16.957 107.373 16.957C106.922 16.957 106.571 17.0983 106.321 17.3809C106.074 17.6634 105.92 18.0462 105.856 18.5293H108.884ZM118.865 23H116.438L115.153 20.7646L113.861 23H111.495L114.038 19.2266L111.605 15.5625H113.99L115.235 17.7227L116.451 15.5625H118.769L116.322 19.1924L118.865 23ZM123.431 21.6123V23.0684L122.508 23.1025C121.587 23.1344 120.959 22.9749 120.621 22.624C120.403 22.4007 120.293 22.0566 120.293 21.5918V17.0049H119.254V15.6172H120.293V13.5391H122.221V15.6172H123.431V17.0049H122.221V20.9424C122.221 21.2477 122.26 21.4391 122.337 21.5166C122.415 21.5895 122.652 21.626 123.048 21.626C123.107 21.626 123.169 21.626 123.233 21.626C123.301 21.6214 123.367 21.6169 123.431 21.6123Z" fill="white"/>
<path d="M196 12L202 18L196 24" stroke="white" stroke-width="2" stroke-linecap="round" stroke-linejoin="round"/>
</svg>

