<svg width="217" height="36" viewBox="0 0 217 36" fill="none" xmlns="http://www.w3.org/2000/svg" xmlns:xlink="http://www.w3.org/1999/xlink">
<symbol id="btn2s4" viewBox="0 0 217 36">
		<rect width="217" height="36" rx="4" fill="#EDEFF0" />
		<path
			d="M102.622 23H100.517L96.4015 15.8428V23H94.4396V12.9238H96.6476L100.66 19.958V12.9238H102.622V23ZM110.812 20.8125C110.762 21.2546 110.531 21.7035 110.121 22.1592C109.483 22.8838 108.59 23.2461 107.442 23.2461C106.494 23.2461 105.657 22.9408 104.933 22.3301C104.208 21.7194 103.846 20.7259 103.846 19.3496C103.846 18.0599 104.172 17.071 104.823 16.3828C105.48 15.6947 106.33 15.3506 107.373 15.3506C107.993 15.3506 108.551 15.4668 109.048 15.6992C109.545 15.9316 109.955 16.2985 110.278 16.7998C110.57 17.2419 110.759 17.7546 110.846 18.3379C110.896 18.6797 110.916 19.1719 110.907 19.8145H105.808C105.835 20.5618 106.07 21.0859 106.512 21.3867C106.781 21.5736 107.104 21.667 107.483 21.667C107.884 21.667 108.209 21.5531 108.46 21.3252C108.597 21.2021 108.718 21.0312 108.822 20.8125H110.812ZM108.884 18.5293C108.852 18.0143 108.695 17.6247 108.412 17.3604C108.134 17.0915 107.788 16.957 107.373 16.957C106.922 16.957 106.571 17.0983 106.32 17.3809C106.074 17.6634 105.919 18.0462 105.856 18.5293H108.884ZM118.864 23H116.438L115.152 20.7646L113.86 23H111.495L114.038 19.2266L111.605 15.5625H113.99L115.234 17.7227L116.451 15.5625H118.769L116.321 19.1924L118.864 23ZM123.431 21.6123V23.0684L122.508 23.1025C121.587 23.1344 120.958 22.9749 120.621 22.624C120.402 22.4007 120.293 22.0566 120.293 21.5918V17.0049H119.254V15.6172H120.293V13.5391H122.221V15.6172H123.431V17.0049H122.221V20.9424C122.221 21.2477 122.26 21.4391 122.337 21.5166C122.415 21.5895 122.651 21.626 123.048 21.626C123.107 21.626 123.169 21.626 123.233 21.626C123.301 21.6214 123.367 21.6169 123.431 21.6123Z"
			fill="#888888" />
		<path d="M196 12L202 18L196 24" stroke="#888888" stroke-width="2" stroke-linecap="round"
			stroke-linejoin="round" />
</symbol>

<symbol id="btn2b4" viewBox="0 0 217 36">
		<rect width="217" height="36" rx="4" fill="#0091D7" />
		<path
			d="M102.622 23H100.517L96.4016 15.8428V23H94.4397V12.9238H96.6477L100.66 19.958V12.9238H102.622V23ZM110.812 20.8125C110.762 21.2546 110.531 21.7035 110.121 22.1592C109.483 22.8838 108.59 23.2461 107.442 23.2461C106.494 23.2461 105.657 22.9408 104.933 22.3301C104.208 21.7194 103.846 20.7259 103.846 19.3496C103.846 18.0599 104.172 17.071 104.823 16.3828C105.48 15.6947 106.33 15.3506 107.373 15.3506C107.993 15.3506 108.551 15.4668 109.048 15.6992C109.545 15.9316 109.955 16.2985 110.279 16.7998C110.57 17.2419 110.759 17.7546 110.846 18.3379C110.896 18.6797 110.917 19.1719 110.907 19.8145H105.808C105.835 20.5618 106.07 21.0859 106.512 21.3867C106.781 21.5736 107.104 21.667 107.483 21.667C107.884 21.667 108.21 21.5531 108.46 21.3252C108.597 21.2021 108.718 21.0312 108.823 20.8125H110.812ZM108.884 18.5293C108.852 18.0143 108.695 17.6247 108.412 17.3604C108.134 17.0915 107.788 16.957 107.373 16.957C106.922 16.957 106.571 17.0983 106.321 17.3809C106.074 17.6634 105.92 18.0462 105.856 18.5293H108.884ZM118.865 23H116.438L115.153 20.7646L113.861 23H111.495L114.038 19.2266L111.605 15.5625H113.99L115.235 17.7227L116.451 15.5625H118.769L116.322 19.1924L118.865 23ZM123.431 21.6123V23.0684L122.508 23.1025C121.587 23.1344 120.959 22.9749 120.621 22.624C120.403 22.4007 120.293 22.0566 120.293 21.5918V17.0049H119.254V15.6172H120.293V13.5391H122.221V15.6172H123.431V17.0049H122.221V20.9424C122.221 21.2477 122.26 21.4391 122.337 21.5166C122.415 21.5895 122.652 21.626 123.048 21.626C123.107 21.626 123.169 21.626 123.233 21.626C123.301 21.6214 123.367 21.6169 123.431 21.6123Z"
			fill="white" />
		<path d="M196 12L202 18L196 24" stroke="white" stroke-width="2" stroke-linecap="round"
			stroke-linejoin="round" />
</symbol>

<symbol id="btn3_1" viewBox="0 0 217 36">
		<rect width="217" height="36" rx="4" fill="#0091D7" />
		<path
			d="M73.9385 23H71.833L67.7178 15.8428V23H65.7559V12.9238H67.9639L71.9766 19.958V12.9238H73.9385V23ZM82.1279 20.8125C82.0778 21.2546 81.8477 21.7035 81.4375 22.1592C80.7995 22.8838 79.9062 23.2461 78.7578 23.2461C77.8099 23.2461 76.9736 22.9408 76.249 22.3301C75.5244 21.7194 75.1621 20.7259 75.1621 19.3496C75.1621 18.0599 75.488 17.071 76.1396 16.3828C76.7959 15.6947 77.6458 15.3506 78.6895 15.3506C79.3092 15.3506 79.8675 15.4668 80.3643 15.6992C80.861 15.9316 81.2712 16.2985 81.5947 16.7998C81.8864 17.2419 82.0755 17.7546 82.1621 18.3379C82.2122 18.6797 82.2327 19.1719 82.2236 19.8145H77.124C77.1514 20.5618 77.3861 21.0859 77.8281 21.3867C78.097 21.5736 78.4206 21.667 78.7988 21.667C79.1999 21.667 79.5257 21.5531 79.7764 21.3252C79.9131 21.2021 80.0339 21.0312 80.1387 20.8125H82.1279ZM80.2002 18.5293C80.1683 18.0143 80.0111 17.6247 79.7285 17.3604C79.4505 17.0915 79.1042 16.957 78.6895 16.957C78.2383 16.957 77.8874 17.0983 77.6367 17.3809C77.3906 17.6634 77.2357 18.0462 77.1719 18.5293H80.2002ZM90.1807 23H87.7539L86.4688 20.7646L85.1768 23H82.8115L85.3545 19.2266L82.9209 15.5625H85.3066L86.5508 17.7227L87.7676 15.5625H90.085L87.6377 19.1924L90.1807 23ZM94.7471 21.6123V23.0684L93.8242 23.1025C92.9036 23.1344 92.2747 22.9749 91.9375 22.624C91.7188 22.4007 91.6094 22.0566 91.6094 21.5918V17.0049H90.5703V15.6172H91.6094V13.5391H93.5371V15.6172H94.7471V17.0049H93.5371V20.9424C93.5371 21.2477 93.5758 21.4391 93.6533 21.5166C93.7308 21.5895 93.9678 21.626 94.3643 21.626C94.4235 21.626 94.485 21.626 94.5488 21.626C94.6172 21.6214 94.6833 21.6169 94.7471 21.6123ZM107.373 12.9238V14.708H104.358V23H102.239V14.708H99.2109V12.9238H107.373ZM110.21 15.5488V23H108.234V15.5488H110.21ZM110.21 12.8623V14.6602H108.234V12.8623H110.21ZM118.345 16.3486C118.946 16.9912 119.247 17.9346 119.247 19.1787C119.247 20.4912 118.951 21.4915 118.358 22.1797C117.771 22.8678 117.012 23.2119 116.082 23.2119C115.49 23.2119 114.997 23.0638 114.605 22.7676C114.391 22.6035 114.182 22.3643 113.977 22.0498V25.9326H112.049V15.5488H113.915V16.6494C114.125 16.3258 114.348 16.0706 114.585 15.8838C115.018 15.5511 115.533 15.3848 116.13 15.3848C117 15.3848 117.739 15.7061 118.345 16.3486ZM117.237 19.2744C117.237 18.7002 117.105 18.1921 116.841 17.75C116.581 17.3079 116.157 17.0869 115.569 17.0869C114.863 17.0869 114.378 17.4219 114.113 18.0918C113.977 18.4473 113.908 18.8984 113.908 19.4453C113.908 20.3112 114.138 20.9196 114.599 21.2705C114.872 21.4756 115.196 21.5781 115.569 21.5781C116.112 21.5781 116.524 21.3685 116.807 20.9492C117.094 20.5299 117.237 19.9717 117.237 19.2744ZM126.698 25.8232L126.213 25.1602C125.898 24.7591 125.563 24.1621 125.208 23.3691C124.575 21.9518 124.258 20.5573 124.258 19.1855C124.258 17.9368 124.524 16.6973 125.058 15.4668C125.418 14.6283 125.944 13.7259 126.637 12.7598H128.106L127.689 13.5254C127.115 14.5781 126.716 15.681 126.493 16.834C126.347 17.5905 126.274 18.4154 126.274 19.3086C126.274 20.7031 126.477 21.986 126.883 23.1572C127.12 23.8499 127.539 24.7386 128.141 25.8232H126.698ZM133.609 23H131.613V16.1641H129.282V14.8379C129.897 14.8105 130.328 14.7695 130.574 14.7148C130.966 14.6283 131.285 14.4551 131.531 14.1953C131.7 14.0176 131.827 13.7806 131.914 13.4844C131.964 13.3066 131.989 13.1745 131.989 13.0879H133.609V23ZM135.339 23L139.242 12.6162H140.862L136.945 23H135.339ZM142.681 15.0635C142.462 15.3551 142.357 15.7448 142.366 16.2324H140.548C140.566 15.7402 140.65 15.2731 140.801 14.8311C140.96 14.4437 141.211 14.0859 141.553 13.7578C141.808 13.5254 142.111 13.3477 142.462 13.2246C142.813 13.1016 143.243 13.04 143.754 13.04C144.702 13.04 145.465 13.2861 146.044 13.7783C146.627 14.266 146.919 14.9222 146.919 15.7471C146.919 16.3304 146.746 16.8226 146.399 17.2236C146.181 17.4743 145.953 17.6452 145.716 17.7363C145.894 17.7363 146.149 17.889 146.481 18.1943C146.978 18.6546 147.227 19.2835 147.227 20.0811C147.227 20.9196 146.935 21.6579 146.352 22.2959C145.773 22.9294 144.914 23.2461 143.774 23.2461C142.371 23.2461 141.396 22.7881 140.849 21.8721C140.562 21.3844 140.402 20.7464 140.37 19.958H142.284C142.284 20.3545 142.348 20.6826 142.476 20.9424C142.713 21.4209 143.143 21.6602 143.768 21.6602C144.15 21.6602 144.483 21.5303 144.766 21.2705C145.053 21.0062 145.196 20.6279 145.196 20.1357C145.196 19.484 144.932 19.0488 144.403 18.8301C144.103 18.707 143.629 18.6455 142.981 18.6455V17.251C143.615 17.2419 144.057 17.1803 144.308 17.0664C144.741 16.875 144.957 16.4876 144.957 15.9043C144.957 15.526 144.845 15.2184 144.622 14.9814C144.403 14.7445 144.093 14.626 143.692 14.626C143.232 14.626 142.895 14.7718 142.681 15.0635ZM149.865 25.1602L149.38 25.8232H147.938C148.539 24.7386 148.958 23.8499 149.195 23.1572C149.601 21.986 149.804 20.7031 149.804 19.3086C149.804 18.4154 149.731 17.5905 149.585 16.834C149.362 15.681 148.963 14.5781 148.389 13.5254L147.972 12.7598H149.441C150.134 13.7259 150.66 14.6283 151.021 15.4668C151.554 16.6973 151.82 17.9368 151.82 19.1855C151.82 20.5573 151.504 21.9518 150.87 23.3691C150.515 24.1621 150.18 24.7591 149.865 25.1602Z"
			fill="white" />
		<path d="M196 12L202 18L196 24" stroke="white" stroke-width="2" stroke-linecap="round"
			stroke-linejoin="round" />
</symbol>

<symbol id="btn3_2" viewBox="0 0 217 36">
		<rect width="217" height="36" rx="4" fill="#0091D7" />
		<path
			d="M73.9385 23H71.833L67.7178 15.8428V23H65.7559V12.9238H67.9639L71.9766 19.958V12.9238H73.9385V23ZM82.1279 20.8125C82.0778 21.2546 81.8477 21.7035 81.4375 22.1592C80.7995 22.8838 79.9062 23.2461 78.7578 23.2461C77.8099 23.2461 76.9736 22.9408 76.249 22.3301C75.5244 21.7194 75.1621 20.7259 75.1621 19.3496C75.1621 18.0599 75.488 17.071 76.1396 16.3828C76.7959 15.6947 77.6458 15.3506 78.6895 15.3506C79.3092 15.3506 79.8675 15.4668 80.3643 15.6992C80.861 15.9316 81.2712 16.2985 81.5947 16.7998C81.8864 17.2419 82.0755 17.7546 82.1621 18.3379C82.2122 18.6797 82.2327 19.1719 82.2236 19.8145H77.124C77.1514 20.5618 77.3861 21.0859 77.8281 21.3867C78.097 21.5736 78.4206 21.667 78.7988 21.667C79.1999 21.667 79.5257 21.5531 79.7764 21.3252C79.9131 21.2021 80.0339 21.0312 80.1387 20.8125H82.1279ZM80.2002 18.5293C80.1683 18.0143 80.0111 17.6247 79.7285 17.3604C79.4505 17.0915 79.1042 16.957 78.6895 16.957C78.2383 16.957 77.8874 17.0983 77.6367 17.3809C77.3906 17.6634 77.2357 18.0462 77.1719 18.5293H80.2002ZM90.1807 23H87.7539L86.4688 20.7646L85.1768 23H82.8115L85.3545 19.2266L82.9209 15.5625H85.3066L86.5508 17.7227L87.7676 15.5625H90.085L87.6377 19.1924L90.1807 23ZM94.7471 21.6123V23.0684L93.8242 23.1025C92.9036 23.1344 92.2747 22.9749 91.9375 22.624C91.7188 22.4007 91.6094 22.0566 91.6094 21.5918V17.0049H90.5703V15.6172H91.6094V13.5391H93.5371V15.6172H94.7471V17.0049H93.5371V20.9424C93.5371 21.2477 93.5758 21.4391 93.6533 21.5166C93.7308 21.5895 93.9678 21.626 94.3643 21.626C94.4235 21.626 94.485 21.626 94.5488 21.626C94.6172 21.6214 94.6833 21.6169 94.7471 21.6123ZM107.373 12.9238V14.708H104.358V23H102.239V14.708H99.2109V12.9238H107.373ZM110.21 15.5488V23H108.234V15.5488H110.21ZM110.21 12.8623V14.6602H108.234V12.8623H110.21ZM118.345 16.3486C118.946 16.9912 119.247 17.9346 119.247 19.1787C119.247 20.4912 118.951 21.4915 118.358 22.1797C117.771 22.8678 117.012 23.2119 116.082 23.2119C115.49 23.2119 114.997 23.0638 114.605 22.7676C114.391 22.6035 114.182 22.3643 113.977 22.0498V25.9326H112.049V15.5488H113.915V16.6494C114.125 16.3258 114.348 16.0706 114.585 15.8838C115.018 15.5511 115.533 15.3848 116.13 15.3848C117 15.3848 117.739 15.7061 118.345 16.3486ZM117.237 19.2744C117.237 18.7002 117.105 18.1921 116.841 17.75C116.581 17.3079 116.157 17.0869 115.569 17.0869C114.863 17.0869 114.378 17.4219 114.113 18.0918C113.977 18.4473 113.908 18.8984 113.908 19.4453C113.908 20.3112 114.138 20.9196 114.599 21.2705C114.872 21.4756 115.196 21.5781 115.569 21.5781C116.112 21.5781 116.524 21.3685 116.807 20.9492C117.094 20.5299 117.237 19.9717 117.237 19.2744ZM126.698 25.8232L126.213 25.1602C125.898 24.7591 125.563 24.1621 125.208 23.3691C124.575 21.9518 124.258 20.5573 124.258 19.1855C124.258 17.9368 124.524 16.6973 125.058 15.4668C125.418 14.6283 125.944 13.7259 126.637 12.7598H128.106L127.689 13.5254C127.115 14.5781 126.716 15.681 126.493 16.834C126.347 17.5905 126.274 18.4154 126.274 19.3086C126.274 20.7031 126.477 21.986 126.883 23.1572C127.12 23.8499 127.539 24.7386 128.141 25.8232H126.698ZM133.179 15.1045C132.946 14.8265 132.614 14.6875 132.181 14.6875C131.588 14.6875 131.185 14.9085 130.971 15.3506C130.848 15.6058 130.775 16.0114 130.752 16.5674H128.858C128.89 15.7243 129.043 15.043 129.316 14.5234C129.836 13.5345 130.759 13.04 132.085 13.04C133.133 13.04 133.967 13.3317 134.587 13.915C135.207 14.4938 135.517 15.2617 135.517 16.2188C135.517 16.9525 135.298 17.6042 134.86 18.1738C134.573 18.5521 134.102 18.9736 133.445 19.4385L132.666 19.9922C132.178 20.3385 131.843 20.5892 131.661 20.7441C131.483 20.8991 131.333 21.0791 131.21 21.2842H135.537V23H128.749C128.767 22.2891 128.92 21.6396 129.207 21.0518C129.485 20.391 130.141 19.6914 131.176 18.9531C132.074 18.3105 132.655 17.8503 132.919 17.5723C133.325 17.1393 133.527 16.6654 133.527 16.1504C133.527 15.7311 133.411 15.3825 133.179 15.1045ZM135.339 23L139.242 12.6162H140.862L136.945 23H135.339ZM142.681 15.0635C142.462 15.3551 142.357 15.7448 142.366 16.2324H140.548C140.566 15.7402 140.65 15.2731 140.801 14.8311C140.96 14.4437 141.211 14.0859 141.553 13.7578C141.808 13.5254 142.111 13.3477 142.462 13.2246C142.813 13.1016 143.243 13.04 143.754 13.04C144.702 13.04 145.465 13.2861 146.044 13.7783C146.627 14.266 146.919 14.9222 146.919 15.7471C146.919 16.3304 146.746 16.8226 146.399 17.2236C146.181 17.4743 145.953 17.6452 145.716 17.7363C145.894 17.7363 146.149 17.889 146.481 18.1943C146.978 18.6546 147.227 19.2835 147.227 20.0811C147.227 20.9196 146.935 21.6579 146.352 22.2959C145.773 22.9294 144.914 23.2461 143.774 23.2461C142.371 23.2461 141.396 22.7881 140.849 21.8721C140.562 21.3844 140.402 20.7464 140.37 19.958H142.284C142.284 20.3545 142.348 20.6826 142.476 20.9424C142.713 21.4209 143.143 21.6602 143.768 21.6602C144.15 21.6602 144.483 21.5303 144.766 21.2705C145.053 21.0062 145.196 20.6279 145.196 20.1357C145.196 19.484 144.932 19.0488 144.403 18.8301C144.103 18.707 143.629 18.6455 142.981 18.6455V17.251C143.615 17.2419 144.057 17.1803 144.308 17.0664C144.741 16.875 144.957 16.4876 144.957 15.9043C144.957 15.526 144.845 15.2184 144.622 14.9814C144.403 14.7445 144.093 14.626 143.692 14.626C143.232 14.626 142.895 14.7718 142.681 15.0635ZM149.865 25.1602L149.38 25.8232H147.938C148.539 24.7386 148.958 23.8499 149.195 23.1572C149.601 21.986 149.804 20.7031 149.804 19.3086C149.804 18.4154 149.731 17.5905 149.585 16.834C149.362 15.681 148.963 14.5781 148.389 13.5254L147.972 12.7598H149.441C150.134 13.7259 150.66 14.6283 151.021 15.4668C151.554 16.6973 151.82 17.9368 151.82 19.1855C151.82 20.5573 151.504 21.9518 150.87 23.3691C150.515 24.1621 150.18 24.7591 149.865 25.1602Z"
			fill="white" />
		<path d="M196 12L202 18L196 24" stroke="white" stroke-width="2" stroke-linecap="round"
			stroke-linejoin="round" />
</symbol>

<symbol id="btn3_3" viewBox="0 0 217 36">
		<rect width="217" height="36" rx="4" fill="#0091D7" />
		<path
			d="M86.2705 23H84.165L80.0498 15.8428V23H78.0879V12.9238H80.2959L84.3086 19.958V12.9238H86.2705V23ZM94.46 20.8125C94.4098 21.2546 94.1797 21.7035 93.7695 22.1592C93.1315 22.8838 92.2383 23.2461 91.0898 23.2461C90.1419 23.2461 89.3057 22.9408 88.5811 22.3301C87.8564 21.7194 87.4941 20.7259 87.4941 19.3496C87.4941 18.0599 87.82 17.071 88.4717 16.3828C89.1279 15.6947 89.9779 15.3506 91.0215 15.3506C91.6413 15.3506 92.1995 15.4668 92.6963 15.6992C93.193 15.9316 93.6032 16.2985 93.9268 16.7998C94.2184 17.2419 94.4076 17.7546 94.4941 18.3379C94.5443 18.6797 94.5648 19.1719 94.5557 19.8145H89.4561C89.4834 20.5618 89.7181 21.0859 90.1602 21.3867C90.429 21.5736 90.7526 21.667 91.1309 21.667C91.5319 21.667 91.8577 21.5531 92.1084 21.3252C92.2451 21.2021 92.3659 21.0312 92.4707 20.8125H94.46ZM92.5322 18.5293C92.5003 18.0143 92.3431 17.6247 92.0605 17.3604C91.7826 17.0915 91.4362 16.957 91.0215 16.957C90.5703 16.957 90.2194 17.0983 89.9688 17.3809C89.7227 17.6634 89.5677 18.0462 89.5039 18.5293H92.5322ZM102.513 23H100.086L98.8008 20.7646L97.5088 23H95.1436L97.6865 19.2266L95.2529 15.5625H97.6387L98.8828 17.7227L100.1 15.5625H102.417L99.9697 19.1924L102.513 23ZM107.079 21.6123V23.0684L106.156 23.1025C105.236 23.1344 104.607 22.9749 104.27 22.624C104.051 22.4007 103.941 22.0566 103.941 21.5918V17.0049H102.902V15.6172H103.941V13.5391H105.869V15.6172H107.079V17.0049H105.869V20.9424C105.869 21.2477 105.908 21.4391 105.985 21.5166C106.063 21.5895 106.3 21.626 106.696 21.626C106.756 21.626 106.817 21.626 106.881 21.626C106.949 21.6214 107.015 21.6169 107.079 21.6123ZM114.366 25.8232L113.881 25.1602C113.566 24.7591 113.231 24.1621 112.876 23.3691C112.243 21.9518 111.926 20.5573 111.926 19.1855C111.926 17.9368 112.192 16.6973 112.726 15.4668C113.086 14.6283 113.612 13.7259 114.305 12.7598H115.774L115.357 13.5254C114.783 14.5781 114.384 15.681 114.161 16.834C114.015 17.5905 113.942 18.4154 113.942 19.3086C113.942 20.7031 114.145 21.986 114.551 23.1572C114.788 23.8499 115.207 24.7386 115.809 25.8232H114.366ZM118.659 15.0635C118.44 15.3551 118.336 15.7448 118.345 16.2324H116.526C116.545 15.7402 116.629 15.2731 116.779 14.8311C116.939 14.4437 117.189 14.0859 117.531 13.7578C117.786 13.5254 118.09 13.3477 118.44 13.2246C118.791 13.1016 119.222 13.04 119.732 13.04C120.68 13.04 121.444 13.2861 122.022 13.7783C122.606 14.266 122.897 14.9222 122.897 15.7471C122.897 16.3304 122.724 16.8226 122.378 17.2236C122.159 17.4743 121.931 17.6452 121.694 17.7363C121.872 17.7363 122.127 17.889 122.46 18.1943C122.957 18.6546 123.205 19.2835 123.205 20.0811C123.205 20.9196 122.913 21.6579 122.33 22.2959C121.751 22.9294 120.892 23.2461 119.753 23.2461C118.349 23.2461 117.374 22.7881 116.827 21.8721C116.54 21.3844 116.381 20.7464 116.349 19.958H118.263C118.263 20.3545 118.326 20.6826 118.454 20.9424C118.691 21.4209 119.122 21.6602 119.746 21.6602C120.129 21.6602 120.462 21.5303 120.744 21.2705C121.031 21.0062 121.175 20.6279 121.175 20.1357C121.175 19.484 120.91 19.0488 120.382 18.8301C120.081 18.707 119.607 18.6455 118.96 18.6455V17.251C119.593 17.2419 120.035 17.1803 120.286 17.0664C120.719 16.875 120.936 16.4876 120.936 15.9043C120.936 15.526 120.824 15.2184 120.601 14.9814C120.382 14.7445 120.072 14.626 119.671 14.626C119.211 14.626 118.873 14.7718 118.659 15.0635ZM123.007 23L126.91 12.6162H128.53L124.613 23H123.007ZM130.349 15.0635C130.13 15.3551 130.025 15.7448 130.034 16.2324H128.216C128.234 15.7402 128.318 15.2731 128.469 14.8311C128.628 14.4437 128.879 14.0859 129.221 13.7578C129.476 13.5254 129.779 13.3477 130.13 13.2246C130.481 13.1016 130.911 13.04 131.422 13.04C132.37 13.04 133.133 13.2861 133.712 13.7783C134.295 14.266 134.587 14.9222 134.587 15.7471C134.587 16.3304 134.414 16.8226 134.067 17.2236C133.849 17.4743 133.621 17.6452 133.384 17.7363C133.562 17.7363 133.817 17.889 134.149 18.1943C134.646 18.6546 134.895 19.2835 134.895 20.0811C134.895 20.9196 134.603 21.6579 134.02 22.2959C133.441 22.9294 132.582 23.2461 131.442 23.2461C130.039 23.2461 129.063 22.7881 128.517 21.8721C128.229 21.3844 128.07 20.7464 128.038 19.958H129.952C129.952 20.3545 130.016 20.6826 130.144 20.9424C130.381 21.4209 130.811 21.6602 131.436 21.6602C131.818 21.6602 132.151 21.5303 132.434 21.2705C132.721 21.0062 132.864 20.6279 132.864 20.1357C132.864 19.484 132.6 19.0488 132.071 18.8301C131.771 18.707 131.297 18.6455 130.649 18.6455V17.251C131.283 17.2419 131.725 17.1803 131.976 17.0664C132.409 16.875 132.625 16.4876 132.625 15.9043C132.625 15.526 132.513 15.2184 132.29 14.9814C132.071 14.7445 131.761 14.626 131.36 14.626C130.9 14.626 130.563 14.7718 130.349 15.0635ZM137.533 25.1602L137.048 25.8232H135.605C136.207 24.7386 136.626 23.8499 136.863 23.1572C137.269 21.986 137.472 20.7031 137.472 19.3086C137.472 18.4154 137.399 17.5905 137.253 16.834C137.03 15.681 136.631 14.5781 136.057 13.5254L135.64 12.7598H137.109C137.802 13.7259 138.328 14.6283 138.688 15.4668C139.222 16.6973 139.488 17.9368 139.488 19.1855C139.488 20.5573 139.172 21.9518 138.538 23.3691C138.183 24.1621 137.848 24.7591 137.533 25.1602Z"
			fill="white" />
		<path d="M196 12L202 18L196 24" stroke="white" stroke-width="2" stroke-linecap="round"
			stroke-linejoin="round" />
</symbol>

<symbol id="btn5" viewBox="0 0 217 36">
		<rect width="217" height="36" rx="4" fill="#0091D7" />
		<path
			d="M60.2119 19.0488H58.0381V23H55.9805V12.9238H60.9229C61.6292 12.9375 62.1715 13.0241 62.5498 13.1836C62.9326 13.3431 63.2562 13.5778 63.5205 13.8877C63.7393 14.1429 63.9124 14.4255 64.04 14.7354C64.1676 15.0452 64.2314 15.3984 64.2314 15.7949C64.2314 16.2734 64.1107 16.7451 63.8691 17.21C63.6276 17.6702 63.2288 17.9961 62.6729 18.1875C63.1377 18.3743 63.4658 18.641 63.6572 18.9873C63.8532 19.3291 63.9512 19.8532 63.9512 20.5596V21.2363C63.9512 21.6966 63.9694 22.0088 64.0059 22.1729C64.0605 22.4326 64.1882 22.624 64.3887 22.7471V23H62.0713C62.0075 22.7767 61.9619 22.5967 61.9346 22.46C61.8799 22.1774 61.8503 21.888 61.8457 21.5918L61.832 20.6553C61.8229 20.0127 61.7044 19.5843 61.4766 19.3701C61.2533 19.1559 60.8317 19.0488 60.2119 19.0488ZM61.4902 17.2168C61.9095 17.0254 62.1191 16.6471 62.1191 16.082C62.1191 15.4714 61.9163 15.0612 61.5107 14.8516C61.2829 14.7331 60.9411 14.6738 60.4854 14.6738H58.0381V17.3809H60.4238C60.8978 17.3809 61.2533 17.3262 61.4902 17.2168ZM72.2705 20.8125C72.2204 21.2546 71.9902 21.7035 71.5801 22.1592C70.9421 22.8838 70.0488 23.2461 68.9004 23.2461C67.9525 23.2461 67.1162 22.9408 66.3916 22.3301C65.667 21.7194 65.3047 20.7259 65.3047 19.3496C65.3047 18.0599 65.6305 17.071 66.2822 16.3828C66.9385 15.6947 67.7884 15.3506 68.832 15.3506C69.4518 15.3506 70.0101 15.4668 70.5068 15.6992C71.0036 15.9316 71.4137 16.2985 71.7373 16.7998C72.029 17.2419 72.2181 17.7546 72.3047 18.3379C72.3548 18.6797 72.3753 19.1719 72.3662 19.8145H67.2666C67.2939 20.5618 67.5286 21.0859 67.9707 21.3867C68.2396 21.5736 68.5632 21.667 68.9414 21.667C69.3424 21.667 69.6683 21.5531 69.9189 21.3252C70.0557 21.2021 70.1764 21.0312 70.2812 20.8125H72.2705ZM70.3428 18.5293C70.3109 18.0143 70.1536 17.6247 69.8711 17.3604C69.5931 17.0915 69.2467 16.957 68.832 16.957C68.3809 16.957 68.0299 17.0983 67.7793 17.3809C67.5332 17.6634 67.3783 18.0462 67.3145 18.5293H70.3428ZM72.9541 15.5488H75.1416L76.6934 21.0449L78.2793 15.5488H80.3711L77.6846 23H75.627L72.9541 15.5488ZM83.4814 15.5488V23H81.5059V15.5488H83.4814ZM83.4814 12.8623V14.6602H81.5059V12.8623H83.4814ZM91.7529 20.8125C91.7028 21.2546 91.4727 21.7035 91.0625 22.1592C90.4245 22.8838 89.5312 23.2461 88.3828 23.2461C87.4349 23.2461 86.5986 22.9408 85.874 22.3301C85.1494 21.7194 84.7871 20.7259 84.7871 19.3496C84.7871 18.0599 85.113 17.071 85.7646 16.3828C86.4209 15.6947 87.2708 15.3506 88.3145 15.3506C88.9342 15.3506 89.4925 15.4668 89.9893 15.6992C90.486 15.9316 90.8962 16.2985 91.2197 16.7998C91.5114 17.2419 91.7005 17.7546 91.7871 18.3379C91.8372 18.6797 91.8577 19.1719 91.8486 19.8145H86.749C86.7764 20.5618 87.0111 21.0859 87.4531 21.3867C87.722 21.5736 88.0456 21.667 88.4238 21.667C88.8249 21.667 89.1507 21.5531 89.4014 21.3252C89.5381 21.2021 89.6589 21.0312 89.7637 20.8125H91.7529ZM89.8252 18.5293C89.7933 18.0143 89.6361 17.6247 89.3535 17.3604C89.0755 17.0915 88.7292 16.957 88.3145 16.957C87.8633 16.957 87.5124 17.0983 87.2617 17.3809C87.0156 17.6634 86.8607 18.0462 86.7969 18.5293H89.8252ZM98.8213 23L97.6523 17.5723L96.4697 23H94.4463L92.3545 15.5488H94.4463L95.6084 20.8945L96.6816 15.5488H98.6572L99.792 20.915L100.954 15.5488H102.984L100.824 23H98.8213ZM111.775 21.5439C112.272 21.5439 112.675 21.4893 112.985 21.3799C113.573 21.1702 113.867 20.7806 113.867 20.2109C113.867 19.8783 113.721 19.6208 113.43 19.4385C113.138 19.2607 112.68 19.1035 112.056 18.9668L110.989 18.7275C109.941 18.4906 109.216 18.2331 108.815 17.9551C108.136 17.4902 107.797 16.7633 107.797 15.7744C107.797 14.8721 108.125 14.1224 108.781 13.5254C109.438 12.9284 110.401 12.6299 111.673 12.6299C112.735 12.6299 113.639 12.9124 114.387 13.4775C115.139 14.0381 115.533 14.8538 115.569 15.9248H113.546C113.509 15.3187 113.245 14.888 112.753 14.6328C112.425 14.4642 112.017 14.3799 111.529 14.3799C110.987 14.3799 110.554 14.4893 110.23 14.708C109.907 14.9268 109.745 15.2321 109.745 15.624C109.745 15.984 109.905 16.2529 110.224 16.4307C110.429 16.5492 110.866 16.6882 111.536 16.8477L113.272 17.2646C114.034 17.4469 114.608 17.6908 114.995 17.9961C115.597 18.4701 115.897 19.1559 115.897 20.0537C115.897 20.9743 115.544 21.7399 114.838 22.3506C114.136 22.9567 113.143 23.2598 111.857 23.2598C110.545 23.2598 109.513 22.9613 108.761 22.3643C108.009 21.7627 107.633 20.9378 107.633 19.8896H109.643C109.706 20.3499 109.832 20.694 110.019 20.9219C110.36 21.3366 110.946 21.5439 111.775 21.5439ZM123.677 20.8125C123.627 21.2546 123.396 21.7035 122.986 22.1592C122.348 22.8838 121.455 23.2461 120.307 23.2461C119.359 23.2461 118.522 22.9408 117.798 22.3301C117.073 21.7194 116.711 20.7259 116.711 19.3496C116.711 18.0599 117.037 17.071 117.688 16.3828C118.345 15.6947 119.195 15.3506 120.238 15.3506C120.858 15.3506 121.416 15.4668 121.913 15.6992C122.41 15.9316 122.82 16.2985 123.144 16.7998C123.435 17.2419 123.624 17.7546 123.711 18.3379C123.761 18.6797 123.782 19.1719 123.772 19.8145H118.673C118.7 20.5618 118.935 21.0859 119.377 21.3867C119.646 21.5736 119.969 21.667 120.348 21.667C120.749 21.667 121.075 21.5531 121.325 21.3252C121.462 21.2021 121.583 21.0312 121.688 20.8125H123.677ZM121.749 18.5293C121.717 18.0143 121.56 17.6247 121.277 17.3604C120.999 17.0915 120.653 16.957 120.238 16.957C119.787 16.957 119.436 17.0983 119.186 17.3809C118.939 17.6634 118.785 18.0462 118.721 18.5293H121.749ZM128.503 21.6123V23.0684L127.58 23.1025C126.66 23.1344 126.031 22.9749 125.693 22.624C125.475 22.4007 125.365 22.0566 125.365 21.5918V17.0049H124.326V15.6172H125.365V13.5391H127.293V15.6172H128.503V17.0049H127.293V20.9424C127.293 21.2477 127.332 21.4391 127.409 21.5166C127.487 21.5895 127.724 21.626 128.12 21.626C128.179 21.626 128.241 21.626 128.305 21.626C128.373 21.6214 128.439 21.6169 128.503 21.6123ZM133.165 21.6123V23.0684L132.242 23.1025C131.322 23.1344 130.693 22.9749 130.355 22.624C130.137 22.4007 130.027 22.0566 130.027 21.5918V17.0049H128.988V15.6172H130.027V13.5391H131.955V15.6172H133.165V17.0049H131.955V20.9424C131.955 21.2477 131.994 21.4391 132.071 21.5166C132.149 21.5895 132.386 21.626 132.782 21.626C132.841 21.626 132.903 21.626 132.967 21.626C133.035 21.6214 133.101 21.6169 133.165 21.6123ZM136.419 15.5488V23H134.443V15.5488H136.419ZM136.419 12.8623V14.6602H134.443V12.8623H136.419ZM141.819 16.9912C141.159 16.9912 140.705 17.2715 140.459 17.832C140.331 18.1283 140.268 18.5065 140.268 18.9668V23H138.326V15.5625H140.206V16.6494C140.457 16.2666 140.694 15.9909 140.917 15.8223C141.318 15.5215 141.826 15.3711 142.441 15.3711C143.212 15.3711 143.84 15.5739 144.328 15.9795C144.82 16.3805 145.066 17.0482 145.066 17.9824V23H143.07V18.4678C143.07 18.0758 143.018 17.7751 142.913 17.5654C142.722 17.1826 142.357 16.9912 141.819 16.9912ZM148.977 24.3057C149.186 24.4834 149.539 24.5723 150.036 24.5723C150.738 24.5723 151.207 24.3376 151.444 23.8682C151.599 23.5674 151.677 23.0615 151.677 22.3506V21.8721C151.49 22.1911 151.289 22.4303 151.075 22.5898C150.688 22.8861 150.184 23.0342 149.564 23.0342C148.607 23.0342 147.842 22.6992 147.268 22.0293C146.698 21.3548 146.413 20.4434 146.413 19.2949C146.413 18.1875 146.689 17.2578 147.24 16.5059C147.792 15.7493 148.573 15.3711 149.585 15.3711C149.959 15.3711 150.285 15.4281 150.562 15.542C151.036 15.738 151.419 16.098 151.711 16.6221V15.5488H153.604V22.6172C153.604 23.5788 153.443 24.3034 153.119 24.791C152.563 25.6296 151.497 26.0488 149.92 26.0488C148.967 26.0488 148.19 25.862 147.589 25.4883C146.987 25.1146 146.655 24.5563 146.591 23.8135H148.71C148.765 24.0413 148.854 24.2054 148.977 24.3057ZM148.648 20.457C148.913 21.0859 149.387 21.4004 150.07 21.4004C150.526 21.4004 150.911 21.2295 151.226 20.8877C151.54 20.5413 151.697 19.9922 151.697 19.2402C151.697 18.5339 151.547 17.9961 151.246 17.627C150.95 17.2578 150.551 17.0732 150.05 17.0732C149.366 17.0732 148.895 17.3945 148.635 18.0371C148.498 18.3789 148.43 18.8005 148.43 19.3018C148.43 19.7347 148.503 20.1198 148.648 20.457ZM160.563 15.8906C161.147 16.2643 161.482 16.9069 161.568 17.8184H159.62C159.593 17.5677 159.522 17.3695 159.408 17.2236C159.194 16.9593 158.829 16.8271 158.314 16.8271C157.891 16.8271 157.588 16.8932 157.405 17.0254C157.228 17.1576 157.139 17.3125 157.139 17.4902C157.139 17.7135 157.234 17.8753 157.426 17.9756C157.617 18.0804 158.294 18.2604 159.456 18.5156C160.231 18.6979 160.812 18.9736 161.199 19.3428C161.582 19.7165 161.773 20.1836 161.773 20.7441C161.773 21.4824 161.498 22.0863 160.946 22.5557C160.399 23.0205 159.552 23.2529 158.403 23.2529C157.232 23.2529 156.366 23.0068 155.806 22.5146C155.25 22.0179 154.972 21.3867 154.972 20.6211H156.947C156.988 20.9674 157.077 21.2135 157.214 21.3594C157.455 21.6191 157.902 21.749 158.554 21.749C158.937 21.749 159.24 21.6921 159.463 21.5781C159.691 21.4642 159.805 21.2933 159.805 21.0654C159.805 20.8467 159.714 20.6803 159.531 20.5664C159.349 20.4525 158.672 20.2565 157.501 19.9785C156.658 19.7689 156.063 19.5068 155.717 19.1924C155.37 18.8825 155.197 18.4359 155.197 17.8525C155.197 17.1644 155.466 16.5742 156.004 16.082C156.546 15.5853 157.307 15.3369 158.287 15.3369C159.217 15.3369 159.976 15.5215 160.563 15.8906Z"
			fill="white" />
</symbol>

<use id="btn_use" xlink:href="#btn2s4"></use>

</svg>
