<svg width="24" height="24" viewBox="0 0 24 24" fill="none" xmlns="http://www.w3.org/2000/svg">
<path d="M12.0005 21C14.4857 21 16.7357 19.9927 18.3644 18.364C19.9931 16.7353 21.0005 14.4853 21.0005 12C21.0005 9.51477 19.9931 7.26477 18.3644 5.63607C16.7357 4.00739 14.4857 3.00003 12.0005 3.00003C9.51523 3.00003 7.26523 4.00739 5.63653 5.63607C4.00785 7.26477 3.00049 9.51477 3.00049 12C3.00049 14.4853 4.00785 16.7353 5.63653 18.364C7.26523 19.9927 9.51523 21 12.0005 21Z" fill="#15B137" stroke="#15B137" stroke-width="1.8" stroke-linejoin="round"/>
<path d="M8.75 16.875L15.25 7.125" stroke="#FDFDFD" stroke-width="1.25" stroke-linecap="round" stroke-linejoin="round"/>
<path d="M9.2915 10.375C10.189 10.375 10.9165 9.64746 10.9165 8.75C10.9165 7.85254 10.189 7.125 9.2915 7.125C8.39404 7.125 7.6665 7.85254 7.6665 8.75C7.6665 9.64746 8.39404 10.375 9.2915 10.375Z" stroke="#FDFDFD" stroke-width="1.25" stroke-linecap="round" stroke-linejoin="round"/>
<path d="M14.7085 16.875C15.606 16.875 16.3335 16.1475 16.3335 15.25C16.3335 14.3525 15.606 13.625 14.7085 13.625C13.811 13.625 13.0835 14.3525 13.0835 15.25C13.0835 16.1475 13.811 16.875 14.7085 16.875Z" stroke="#FDFDFD" stroke-width="1.25" stroke-linecap="round" stroke-linejoin="round"/>
</svg>
