<svg width="325" height="20" viewBox="32 32 330 20" fill="none" xmlns="http://www.w3.org/2000/svg">
<rect x="32" y="32" width="20" height="20" rx="10" fill="#5A97CC"/>
<path d="M37.5 42.2143L41.3571 45.2143L46.5 38.7857" stroke="white" stroke-width="2"/>
<rect x="62" y="41" width="36.5" height="2" rx="1" fill="#5A97CC"/>
<rect x="108.5" y="32" width="20" height="20" rx="10" fill="#5A97CC"/>
<path d="M114 42.2143L117.857 45.2143L123 38.7857" stroke="white" stroke-width="2"/>
<rect x="138.5" y="41" width="36.5" height="2" rx="1" fill="#5A97CC"/>
<rect x="185" y="32" width="20" height="20" rx="10" fill="#5A97CC"/>
<path d="M190.5 42.2143L194.357 45.2143L199.5 38.7857" stroke="white" stroke-width="2"/>
<rect x="215" y="41" width="36.5" height="2" rx="1" fill="#5A97CC"/>
<rect x="261.5" y="32" width="20" height="20" rx="10" fill="#5A97CC"/>
<path d="M267 42.2143L270.857 45.2143L276 38.7857" stroke="white" stroke-width="2"/>
<rect x="291.5" y="41" width="36.5" height="2" rx="1" fill="#5A97CC"/>
<rect x="338" y="32" width="20" height="20" rx="10" fill="#5A97CC"/>
<path d="M347.699 41.7812C347.496 41.7812 347.32 41.8066 347.172 41.8574C346.91 41.9512 346.713 42.125 346.58 42.3789L345.08 42.3086L345.678 37.6152H350.359V39.0332H346.885L346.58 40.8906C346.838 40.7227 347.039 40.6113 347.184 40.5566C347.426 40.4668 347.721 40.4219 348.068 40.4219C348.771 40.4219 349.385 40.6582 349.908 41.1309C350.432 41.6035 350.693 42.291 350.693 43.1934C350.693 43.9785 350.441 44.6797 349.938 45.2969C349.434 45.9141 348.68 46.2227 347.676 46.2227C346.867 46.2227 346.203 46.0059 345.684 45.5723C345.164 45.1387 344.875 44.5234 344.816 43.7266H346.48C346.547 44.0898 346.674 44.3711 346.861 44.5703C347.049 44.7656 347.322 44.8633 347.682 44.8633C348.096 44.8633 348.41 44.7188 348.625 44.4297C348.844 44.1367 348.953 43.7695 348.953 43.3281C348.953 42.8945 348.852 42.5293 348.648 42.2324C348.445 41.9316 348.129 41.7812 347.699 41.7812Z" fill="white"/>
</svg>


